<svg width="195" height="27" viewBox="0 0 195 27" fill="none" xmlns="http://www.w3.org/2000/svg">
<path d="M97.5091 14.7303C96.0475 13.0981 93.4954 11.8219 93.1801 9.45036C92.7466 6.18935 96.7603 9.05028 97.5692 10.0862C97.7322 10.296 98.1512 10.1849 98.1901 9.92253C98.3577 8.80056 98.9367 7.8153 99.9327 7.23987C101.84 6.13869 101.75 9.62766 101.504 10.5295C100.817 13.0579 98.7776 15.1193 97.5117 17.3619C97.6806 17.3174 97.8501 17.2733 98.0193 17.2288C95.3006 15.3109 91.6444 13.5102 90.3308 10.2518C89.5999 8.43912 90.7871 6.37153 92.2556 5.36192C93.5743 4.4559 96.2141 5.60384 96.8983 6.82291C97.0302 7.05834 97.4111 7.07101 97.5394 6.82291C98.9133 4.1802 102.723 3.29237 104.457 6.19909C105.352 7.701 104.391 9.89817 103.735 11.2913C102.246 14.451 99.9466 17.3249 97.5692 19.8618C97.2416 20.2109 97.766 20.7376 98.0947 20.3875C101.095 17.1866 104.527 13.1277 105.41 8.72035C105.832 6.61671 104.964 5.11089 103.133 4.0818C100.78 2.75849 98.0313 4.2669 96.898 6.44784C97.1113 6.44784 97.3257 6.44784 97.539 6.44784C96.6905 4.93456 94.7693 4.35783 93.1275 4.3903C91.2206 4.42862 89.9425 6.43387 89.5177 8.08256C88.3447 12.6325 94.7021 15.7954 97.6442 17.8705C97.8079 17.9858 98.0589 17.902 98.1521 17.737C99.6644 15.0595 103.896 10.9179 102.115 7.50096C100.636 4.66601 97.7745 7.70944 97.4734 9.72476C97.6803 9.67021 97.8875 9.61565 98.0947 9.56077C97.2948 8.5359 93.9176 5.74965 92.7849 7.77244C91.0261 10.914 95.2867 13.3609 96.9834 15.2557C97.3039 15.6136 97.8274 15.0862 97.5091 14.7303Z" fill="#A3A5C7"/>
<path d="M79.3047 16.1743C78.7474 15.3183 77.0406 15.418 77.2445 16.7381L77.2556 16.9277C77.0552 15.6707 75.2705 15.521 75.0915 16.8001C74.9048 17.9526 76.7191 18.6082 77.3881 19.2035C77.9765 18.4085 79.8769 17.2827 79.3047 16.1743Z" fill="#A3A5C7"/>
<path d="M87.994 20.8494C88.2301 19.6034 87.2068 19.1065 86.2777 19.9349C85.3061 20.801 85.8436 22.2227 86.9967 22.4948C88.2509 22.791 89.468 21.8148 89.519 20.5457C89.58 19.0201 88.2931 18.0622 86.8662 17.9751C85.1717 17.8719 84.2988 19.3777 83.5292 20.6133C82.9515 21.5404 82.2266 22.0662 81.1079 22.0668C80.4513 22.0671 79.8165 21.8333 79.4998 21.2319C78.9975 20.2762 79.6365 18.9243 80.2743 18.2008C81.2128 17.136 82.2546 17.5406 82.855 18.6951C83.2171 19.3916 82.9021 20.284 82.1552 20.549C81.6541 20.7276 81.0345 20.309 80.8589 19.8596C80.7731 19.5293 80.8894 19.2796 81.2083 19.1104C81.5668 19.1413 81.8379 19.2949 82.0217 19.5722C82.2231 19.8034 82.5576 19.466 82.3578 19.2364C82.0292 18.8584 81.4129 18.3674 80.8835 18.7331C80.3929 19.0718 80.2526 19.606 80.4685 20.1593C81.0482 21.643 82.9222 21.0624 83.3908 19.8882C83.8049 18.8496 82.918 17.4831 81.9376 17.1253C81.1112 16.8233 80.2747 17.4497 79.782 18.0492C78.6338 19.4472 78.3421 22.0486 80.563 22.4906C82.1435 22.8046 83.2538 21.9535 84.0471 20.6808C84.5436 19.8836 84.9567 19.1598 85.7981 18.6805C86.8136 18.1024 88.22 18.5905 88.8247 19.5212C89.5686 20.6669 88.6181 22.0321 87.3802 22.0619C86.798 22.0756 86.3011 21.7268 86.2583 21.129C86.1894 20.1703 87.779 19.4403 87.5358 20.7243C87.4796 21.0225 87.9368 21.1501 87.994 20.8494Z" fill="#A3A5C7"/>
<path d="M66.6653 20.8229C66.4712 19.798 67.3872 20.0474 67.7727 20.6076C68.1114 21.1002 67.9442 21.7198 67.4577 22.0117C66.463 22.6083 65.4115 21.7328 65.1803 20.7995C64.8887 19.6239 65.9886 18.7916 66.9943 18.5805C68.188 18.3302 69.1291 19.1566 69.7276 20.0789C70.6122 21.4411 71.289 22.6401 73.0939 22.6411C74.0716 22.6414 74.9569 22.1767 75.2482 21.2103C75.7122 19.6713 74.3847 17.1118 72.621 17.1588C71.6611 17.1845 70.7252 18.3971 70.7236 19.3021C70.7216 20.6345 72.2797 21.9211 73.4192 20.6897C74.5678 19.4476 72.999 18.0067 71.8439 19.3352C71.6439 19.5651 71.9787 19.9025 72.1797 19.671C72.4963 19.3067 73.0714 18.8926 73.3426 19.5801C73.5495 20.1055 72.9461 20.4991 72.5428 20.6426C71.6351 20.9661 71.1237 19.8532 71.2195 19.1527C71.3075 18.5133 71.953 17.7057 72.621 17.6343C73.6787 17.5212 74.4464 18.8702 74.7143 19.7032C75.1101 20.9323 74.6201 22.0341 73.2627 22.1588C71.0259 22.3644 70.646 20.1117 69.3571 18.8556C68.3481 17.872 66.5634 17.8031 65.5044 18.751C64.5487 19.6061 64.2876 21.3671 65.4573 22.2001C66.2565 22.769 67.8919 22.8995 68.3111 21.7633C68.6748 20.7764 67.8139 19.255 66.6339 19.6557C66.0928 19.8392 66.123 20.5027 66.2078 20.9492C66.2643 21.2499 66.7222 21.1223 66.6653 20.8229Z" fill="#A3A5C7"/>
<path d="M76.5318 21.1118C76.4393 21.4891 76.6201 21.8343 76.977 21.9788C77.3508 22.1298 77.7515 21.8207 77.8892 21.4907C78.0107 21.2007 77.7967 20.8883 77.5518 20.7494C77.2595 20.5841 76.8841 20.6315 76.6562 20.8802C76.4493 21.1053 76.7844 21.442 76.992 21.216C77.0858 21.114 77.1722 21.1105 77.2888 21.1485C77.3375 21.164 77.379 21.2014 77.4187 21.2452C77.4365 21.2647 77.4459 21.3134 77.4463 21.3102C77.4313 21.4125 77.281 21.5544 77.1676 21.5381C77.0196 21.517 76.9569 21.3725 76.99 21.2381C77.0631 20.9406 76.6049 20.8143 76.5318 21.1118Z" fill="#A3A5C7"/>
<path d="M14.6253 16.1743C14.0681 15.3183 12.3612 15.418 12.5652 16.7381L12.5759 16.9277C12.3759 15.6707 10.5911 15.521 10.4118 16.8001C10.2251 17.9526 12.0394 18.6082 12.7084 19.2035C13.2971 18.4085 15.1978 17.2827 14.6253 16.1743Z" fill="#A3A5C7"/>
<path d="M23.3179 20.8494C23.554 19.6034 22.5304 19.1065 21.6016 19.9349C20.6303 20.801 21.1678 22.2227 22.3206 22.4948C23.5747 22.791 24.7922 21.8148 24.8428 20.5457C24.9039 19.0201 23.6173 18.0622 22.1904 17.9751C20.4959 17.8719 19.6227 19.3777 18.8531 20.6133C18.2754 21.5404 17.5505 22.0662 16.4318 22.0668C15.7752 22.0671 15.1403 21.8333 14.824 21.2319C14.3214 20.2762 14.9604 18.9243 15.5985 18.2008C16.537 17.136 17.5788 17.5406 18.1792 18.6951C18.5413 19.3916 18.226 20.284 17.4794 20.549C16.978 20.7276 16.3584 20.309 16.1827 19.8596C16.0973 19.5293 16.2133 19.2796 16.5325 19.1104C16.891 19.1413 17.1618 19.2949 17.346 19.5722C17.5473 19.8034 17.8818 19.466 17.6817 19.2364C17.3531 18.8584 16.7371 18.3674 16.2074 18.7331C15.7164 19.0718 15.5765 19.606 15.7924 20.1593C16.3721 21.643 18.2461 21.0624 18.7147 19.8882C19.1291 18.8496 18.2419 17.4831 17.2618 17.1253C16.4354 16.8233 15.5992 17.4497 15.1062 18.0492C13.958 19.4472 13.6664 22.0486 15.8872 22.4906C17.4677 22.8046 18.578 21.9535 19.3713 20.6808C19.8679 19.8836 20.2806 19.1598 21.122 18.6805C22.1378 18.1024 23.5442 18.5905 24.1489 19.5212C24.8929 20.6669 23.9423 22.0321 22.7044 22.0619C22.1222 22.0756 21.6257 21.7268 21.5828 21.129C21.514 20.1703 23.1032 19.4403 22.8603 20.7243C22.8032 21.0225 23.2607 21.1501 23.3179 20.8494Z" fill="#A3A5C7"/>
<path d="M1.98599 20.8229C1.79147 19.798 2.70788 20.0474 3.09334 20.6076C3.43204 21.1002 3.2648 21.7198 2.77835 22.0117C1.78368 22.6083 0.731851 21.7328 0.500638 20.7995C0.209673 19.6239 1.30891 18.7916 2.31494 18.5805C3.50835 18.3302 4.44977 19.1566 5.04793 20.0789C5.93252 21.4411 6.60927 22.6401 8.41416 22.6411C9.39162 22.6414 10.2769 22.1767 10.5681 21.2103C11.0325 19.6713 9.70499 17.1118 7.94102 17.1588C6.98142 17.1845 6.0452 18.3971 6.0439 19.3021C6.04196 20.6345 7.60004 21.9211 8.73922 20.6897C9.88814 19.4476 8.31901 18.0067 7.16425 19.3352C6.96388 19.5651 7.29869 19.9025 7.50003 19.671C7.81665 19.3067 8.39175 18.8926 8.66258 19.5801C8.86944 20.1055 8.26608 20.4991 7.86276 20.6426C6.95512 20.9661 6.44333 19.8532 6.53945 19.1527C6.62746 18.5133 7.27303 17.7057 7.94102 17.6343C8.99869 17.5212 9.76637 18.8702 10.0343 19.7032C10.4301 20.9323 9.9401 22.0341 8.58302 22.1588C6.34623 22.3644 5.96597 20.1117 4.67741 18.8556C3.66845 17.872 1.88369 17.8031 0.824726 18.751C-0.130976 19.6061 -0.392066 21.3671 0.777638 22.2001C1.57682 22.769 3.21187 22.8995 3.63111 21.7633C3.99514 20.7764 3.13426 19.255 1.95416 19.6557C1.41282 19.8392 1.44335 20.5027 1.52778 20.9492C1.58493 21.2499 2.04249 21.1223 1.98599 20.8229Z" fill="#A3A5C7"/>
<path d="M11.8521 21.1098C11.7596 21.4872 11.9401 21.8324 12.2974 21.9769C12.6708 22.1279 13.0719 21.8187 13.2099 21.4888C13.331 21.1988 13.117 20.8864 12.8725 20.7474C12.5799 20.5821 12.2048 20.6295 11.9768 20.8783C11.77 21.1033 12.1051 21.4401 12.3123 21.2141C12.4065 21.1121 12.4928 21.1085 12.6094 21.1465C12.6578 21.1621 12.6997 21.1994 12.7393 21.2433C12.7572 21.2628 12.7666 21.3115 12.7669 21.3082C12.7523 21.4105 12.6016 21.5524 12.4883 21.5362C12.3402 21.5151 12.2779 21.3706 12.3107 21.2361C12.3834 20.9387 11.9252 20.8123 11.8521 21.1098Z" fill="#A3A5C7"/>
<path d="M46.9613 16.1743C46.404 15.3183 44.6972 15.418 44.9011 16.7381L44.9118 16.9277C44.7115 15.6707 42.927 15.521 42.7478 16.8001C42.5611 17.9526 44.3754 18.6082 45.0443 19.2035C45.6331 18.4085 47.5338 17.2827 46.9613 16.1743Z" fill="#A3A5C7"/>
<path d="M55.6538 20.8494C55.8899 19.6034 54.8663 19.1065 53.9376 19.9349C52.9663 20.801 53.5034 22.2227 54.6562 22.4948C55.9104 22.791 57.1278 21.8148 57.1785 20.5457C57.2395 19.0201 55.9529 18.0622 54.5257 17.9751C52.8312 17.8719 51.9583 19.3777 51.1887 20.6133C50.611 21.5404 49.8862 22.0662 48.7674 22.0668C48.1108 22.0671 47.476 21.8333 47.1597 21.2319C46.657 20.2762 47.296 18.9243 47.9338 18.2008C48.8723 17.136 49.9141 17.5406 50.5148 18.6951C50.8766 19.3916 50.5616 20.284 49.815 20.549C49.3136 20.7276 48.694 20.309 48.5184 19.8596C48.4326 19.5293 48.5489 19.2796 48.8678 19.1104C49.2263 19.1413 49.4974 19.2949 49.6816 19.5722C49.8829 19.8034 50.2174 19.466 50.0173 19.2364C49.689 18.8584 49.0727 18.3674 48.5434 18.7331C48.0527 19.0718 47.9124 19.606 48.1283 20.1593C48.708 21.643 50.5821 21.0624 51.0507 19.8882C51.465 18.8496 50.5778 17.4831 49.5978 17.1253C48.7713 16.8233 47.9348 17.4497 47.4422 18.0492C46.2939 19.4472 46.0023 22.0486 48.2232 22.4906C49.8037 22.8046 50.9139 21.9535 51.707 20.6808C52.2035 19.8836 52.6165 19.1598 53.4579 18.6805C54.4737 18.1024 55.8802 18.5905 56.4848 19.5212C57.2288 20.6669 56.2783 22.0321 55.0404 22.0619C54.4581 22.0756 53.9616 21.7268 53.9184 21.129C53.8496 20.1703 55.4392 19.4403 55.1959 20.7243C55.1394 21.0225 55.597 21.1501 55.6538 20.8494Z" fill="#A3A5C7"/>
<path d="M34.3221 20.8229C34.1279 19.798 35.044 20.0474 35.4294 20.6076C35.7681 21.1002 35.6012 21.7198 35.1144 22.0117C34.1198 22.6083 33.0683 21.7328 32.8371 20.7995C32.5454 19.6239 33.6453 18.7916 34.651 18.5805C35.8448 18.3302 36.7862 19.1566 37.3844 20.0789C38.2693 21.4411 38.9457 22.6401 40.7506 22.6411C41.728 22.6414 42.613 22.1767 42.9046 21.2103C43.3689 19.6713 42.0414 17.1118 40.2774 17.1588C39.3172 17.1845 38.3816 18.3971 38.38 19.3021C38.3781 20.6345 39.9361 21.9211 41.0753 20.6897C42.2242 19.4476 40.6551 18.0067 39.5003 19.3352C39.3003 19.5651 39.6348 19.9025 39.8361 19.671C40.1527 19.3067 40.7275 18.8926 40.9987 19.5801C41.2055 20.1055 40.6022 20.4991 40.1989 20.6426C39.2912 20.9661 38.7794 19.8532 38.8756 19.1527C38.9632 18.5133 39.6091 17.7057 40.2771 17.6343C41.3345 17.5212 42.1025 18.8702 42.3704 19.7032C42.7662 20.9323 42.2762 22.0341 40.9191 22.1588C38.6823 22.3644 38.3021 20.1117 37.0135 18.8556C36.0042 17.872 34.2195 17.8031 33.1605 18.751C32.2051 19.6061 31.9437 21.3671 33.1137 22.2001C33.9129 22.769 35.5483 22.8995 35.9672 21.7633C36.3309 20.7764 35.47 19.255 34.2899 19.6557C33.7486 19.8392 33.7791 20.5027 33.8639 20.9492C33.9214 21.2499 34.3789 21.1223 34.3221 20.8229Z" fill="#A3A5C7"/>
<path d="M44.1881 21.1118C44.0955 21.4891 44.2761 21.8343 44.6333 21.9788C45.0071 22.1298 45.4078 21.8207 45.5458 21.4907C45.6669 21.2007 45.4529 20.8883 45.2084 20.7494C44.9161 20.5841 44.5407 20.6315 44.3125 20.8802C44.1059 21.1053 44.4407 21.442 44.6482 21.216C44.7424 21.114 44.8288 21.1105 44.945 21.1485C44.9937 21.164 45.0353 21.2014 45.0749 21.2452C45.0928 21.2647 45.1022 21.3134 45.1025 21.3102C45.0879 21.4125 44.9372 21.5544 44.8239 21.5381C44.6758 21.517 44.6132 21.3725 44.646 21.2381C44.7193 20.9406 44.2611 20.8143 44.1881 21.1118Z" fill="#A3A5C7"/>
<path d="M61.2253 13.918C61.5133 13.4202 61.8647 12.9841 62.4784 12.9039C63.5163 12.7675 63.4806 13.8988 63.3585 14.4116C63.2 15.077 62.6717 15.6966 62.2544 16.2097C61.638 16.9673 60.8687 17.6398 60.3852 18.4971C60.5797 18.4721 60.7742 18.4471 60.9687 18.4221C60.075 17.5901 58.9703 17.0345 58.1364 16.1298C57.4168 15.3485 57.57 13.9414 58.767 13.793C59.6474 13.6842 60.2196 14.4467 60.3475 15.2166C60.4258 15.6885 61.1421 15.4875 61.0642 15.0189C60.7969 13.4124 58.4004 12.0946 57.3174 13.8281C55.8109 16.2392 59.0388 17.6405 60.443 18.9472C60.6151 19.1076 60.9054 19.0869 61.0265 18.8722C61.9803 17.181 64.2135 15.9515 64.169 13.7917C64.1541 13.0665 63.4789 12.2537 62.7389 12.1846C61.7513 12.0927 61.0509 12.7343 60.5833 13.5429C60.3433 13.9583 60.9853 14.3324 61.2253 13.918Z" fill="#A3A5C7"/>
<path d="M58.4374 23.6709C58.9034 24.5796 60.6116 24.6565 60.545 23.3225L60.5534 23.1325C60.6226 24.4039 62.3824 24.7371 62.6928 23.4829C62.9974 22.3558 61.2604 21.5166 60.6567 20.8555C59.9894 21.5858 57.9828 22.5094 58.4374 23.6709Z" fill="#A3A5C7"/>
<path d="M28.9756 13.918C29.2636 13.4202 29.6147 12.9841 30.2288 12.9039C31.2666 12.7675 31.2309 13.8988 31.1088 14.4116C30.9503 15.077 30.4223 15.6966 30.0047 16.2097C29.388 16.9673 28.619 17.6398 28.1355 18.4971C28.33 18.4721 28.5245 18.4471 28.7187 18.4221C27.8251 17.5901 26.7206 17.0345 25.8867 16.1298C25.1671 15.3485 25.3203 13.9414 26.5173 13.793C27.398 13.6842 27.9699 14.4467 28.0978 15.2166C28.1761 15.6885 28.8925 15.4875 28.8142 15.0189C28.5469 13.4124 26.1504 12.0946 25.0674 13.8281C23.5609 16.2392 26.7888 17.6405 28.193 18.9472C28.3651 19.1076 28.6554 19.0869 28.7765 18.8722C29.7303 17.181 31.9635 15.9515 31.9187 13.7917C31.9037 13.0665 31.2289 12.2537 30.4885 12.1846C29.5007 12.0927 28.8002 12.7343 28.3329 13.5429C28.0936 13.9583 28.7356 14.3324 28.9756 13.918Z" fill="#A3A5C7"/>
<path d="M26.1836 23.6709C26.6496 24.5796 28.3577 24.6565 28.2912 23.3225L28.2996 23.1325C28.3688 24.4039 30.1289 24.7371 30.439 23.4829C30.7436 22.3558 29.0066 21.5166 28.4029 20.8555C27.7355 21.5858 25.7287 22.5094 26.1836 23.6709Z" fill="#A3A5C7"/>
<path d="M184.399 16.1743C183.841 15.3183 182.134 15.418 182.339 16.7381L182.349 16.9277C182.149 15.6707 180.364 15.521 180.185 16.8001C179.998 17.9526 181.813 18.6082 182.482 19.2035C183.071 18.4085 184.971 17.2827 184.399 16.1743Z" fill="#A3A5C7"/>
<path d="M193.091 20.8494C193.327 19.6034 192.304 19.1065 191.375 19.9349C190.404 20.801 190.941 22.2227 192.094 22.4948C193.348 22.791 194.565 21.8148 194.617 20.5457C194.678 19.0201 193.391 18.0622 191.963 17.9751C190.269 17.8719 189.396 19.3777 188.626 20.6133C188.049 21.5404 187.323 22.0662 186.206 22.0668C185.548 22.0671 184.913 21.8333 184.597 21.2319C184.095 20.2762 184.734 18.9243 185.372 18.2008C186.311 17.136 187.353 17.5406 187.952 18.6951C188.314 19.3916 187.999 20.284 187.252 20.549C186.751 20.7276 186.132 20.309 185.956 19.8596C185.87 19.5293 185.987 19.2796 186.306 19.1104C186.664 19.1413 186.935 19.2949 187.12 19.5722C187.321 19.8034 187.655 19.466 187.455 19.2364C187.127 18.8584 186.511 18.3674 185.981 18.7331C185.49 19.0718 185.35 19.606 185.566 20.1593C186.145 21.643 188.02 21.0624 188.488 19.8882C188.903 18.8496 188.016 17.4831 187.035 17.1253C186.209 16.8233 185.373 17.4497 184.88 18.0492C183.731 19.4472 183.44 22.0486 185.661 22.4906C187.241 22.8046 188.351 21.9535 189.145 20.6808C189.641 19.8836 190.054 19.1598 190.896 18.6805C191.912 18.1024 193.318 18.5905 193.922 19.5212C194.666 20.6669 193.716 22.0321 192.478 22.0619C191.896 22.0756 191.399 21.7268 191.356 21.129C191.287 20.1703 192.876 19.4403 192.633 20.7243C192.577 21.0225 193.033 21.1501 193.091 20.8494Z" fill="#A3A5C7"/>
<path d="M171.765 20.8229C171.57 19.798 172.486 20.0474 172.871 20.6076C173.21 21.1002 173.043 21.7198 172.557 22.0117C171.562 22.6083 170.51 21.7328 170.279 20.7995C169.988 19.6239 171.087 18.7916 172.093 18.5805C173.287 18.3302 174.228 19.1566 174.826 20.0789C175.711 21.4411 176.387 22.6401 178.192 22.6411C179.17 22.6414 180.055 22.1767 180.347 21.2103C180.811 19.6713 179.483 17.1118 177.719 17.1588C176.76 17.1845 175.823 18.3971 175.822 19.3021C175.819 20.6345 177.378 21.9211 178.517 20.6897C179.666 19.4476 178.097 18.0067 176.942 19.3352C176.742 19.5651 177.077 19.9025 177.278 19.671C177.594 19.3067 178.169 18.8926 178.44 19.5801C178.647 20.1055 178.044 20.4991 177.641 20.6426C176.733 20.9661 176.221 19.8532 176.317 19.1527C176.405 18.5133 177.051 17.7057 177.719 17.6343C178.777 17.5212 179.544 18.8702 179.812 19.7032C180.208 20.9323 179.718 22.0341 178.361 22.1588C176.123 22.3644 175.743 20.1117 174.455 18.8556C173.446 17.872 171.661 17.8031 170.602 18.751C169.646 19.6061 169.385 21.3671 170.555 22.2001C171.354 22.769 172.99 22.8995 173.409 21.7633C173.772 20.7764 172.911 19.255 171.732 19.6557C171.191 19.8392 171.221 20.5027 171.305 20.9492C171.363 21.2499 171.821 21.1223 171.765 20.8229Z" fill="#A3A5C7"/>
<path d="M181.625 21.1098C181.533 21.4872 181.714 21.8324 182.07 21.9769C182.444 22.1279 182.845 21.8187 182.983 21.4888C183.104 21.1988 182.89 20.8864 182.646 20.7474C182.354 20.5821 181.978 20.6295 181.75 20.8783C181.543 21.1033 181.878 21.4401 182.086 21.2141C182.179 21.1121 182.266 21.1085 182.383 21.1465C182.431 21.1621 182.472 21.1994 182.512 21.2433C182.53 21.2628 182.539 21.3115 182.54 21.3082C182.525 21.4105 182.375 21.5524 182.262 21.5362C182.114 21.5151 182.051 21.3706 182.084 21.2361C182.157 20.9387 181.699 20.8123 181.625 21.1098Z" fill="#A3A5C7"/>
<path d="M119.723 16.1743C119.165 15.3183 117.458 15.418 117.663 16.7381L117.673 16.9277C117.473 15.6707 115.688 15.521 115.51 16.8001C115.323 17.9526 117.137 18.6082 117.806 19.2035C118.394 18.4085 120.295 17.2827 119.723 16.1743Z" fill="#A3A5C7"/>
<path d="M128.411 20.8494C128.648 19.6034 127.624 19.1065 126.695 19.9349C125.724 20.801 126.261 22.2227 127.414 22.4948C128.668 22.791 129.885 21.8148 129.936 20.5457C129.998 19.0201 128.711 18.0622 127.283 17.9751C125.589 17.8719 124.716 19.3777 123.946 20.6133C123.368 21.5404 122.644 22.0662 121.526 22.0668C120.869 22.0671 120.233 21.8333 119.917 21.2319C119.415 20.2762 120.054 18.9243 120.692 18.2008C121.631 17.136 122.672 17.5406 123.272 18.6951C123.634 19.3916 123.319 20.284 122.573 20.549C122.071 20.7276 121.452 20.309 121.276 19.8596C121.19 19.5293 121.307 19.2796 121.626 19.1104C121.984 19.1413 122.256 19.2949 122.44 19.5722C122.64 19.8034 122.976 19.466 122.775 19.2364C122.447 18.8584 121.831 18.3674 121.301 18.7331C120.81 19.0718 120.671 19.606 120.886 20.1593C121.465 21.643 123.34 21.0624 123.808 19.8882C124.223 18.8496 123.336 17.4831 122.355 17.1253C121.529 16.8233 120.693 17.4497 120.199 18.0492C119.052 19.4472 118.76 22.0486 120.981 22.4906C122.561 22.8046 123.671 21.9535 124.464 20.6808C124.961 19.8836 125.374 19.1598 126.215 18.6805C127.231 18.1024 128.638 18.5905 129.242 19.5212C129.986 20.6669 129.035 22.0321 127.798 22.0619C127.216 22.0756 126.719 21.7268 126.677 21.129C126.608 20.1703 128.197 19.4403 127.954 20.7243C127.896 21.0225 128.354 21.1501 128.411 20.8494Z" fill="#A3A5C7"/>
<path d="M107.084 20.8229C106.89 19.798 107.806 20.0474 108.192 20.6076C108.531 21.1002 108.363 21.7198 107.877 22.0117C106.882 22.6083 105.83 21.7328 105.598 20.7995C105.308 19.6239 106.407 18.7916 107.413 18.5805C108.607 18.3302 109.548 19.1566 110.146 20.0789C111.031 21.4411 111.708 22.6401 113.512 22.6411C114.49 22.6414 115.375 22.1767 115.666 21.2103C116.131 19.6713 114.803 17.1118 113.039 17.1588C112.079 17.1845 111.143 18.3971 111.142 19.3021C111.14 20.6345 112.698 21.9211 113.838 20.6897C114.986 19.4476 113.418 18.0067 112.263 19.3352C112.062 19.5651 112.396 19.9025 112.598 19.671C112.914 19.3067 113.489 18.8926 113.761 19.5801C113.967 20.1055 113.364 20.4991 112.961 20.6426C112.053 20.9661 111.541 19.8532 111.637 19.1527C111.725 18.5133 112.371 17.7057 113.039 17.6343C114.097 17.5212 114.864 18.8702 115.133 19.7032C115.528 20.9323 115.038 22.0341 113.68 22.1588C111.444 22.3644 111.064 20.1117 109.775 18.8556C108.766 17.872 106.981 17.8031 105.922 18.751C104.967 19.6061 104.706 21.3671 105.876 22.2001C106.675 22.769 108.31 22.8995 108.729 21.7633C109.093 20.7764 108.232 19.255 107.052 19.6557C106.511 19.8392 106.541 20.5027 106.626 20.9492C106.683 21.2499 107.141 21.1223 107.084 20.8229Z" fill="#A3A5C7"/>
<path d="M116.946 21.1098C116.854 21.4872 117.034 21.8324 117.391 21.9769C117.764 22.1279 118.165 21.8187 118.303 21.4888C118.424 21.1988 118.21 20.8864 117.966 20.7474C117.674 20.5821 117.298 20.6295 117.07 20.8783C116.863 21.1033 117.199 21.4401 117.406 21.2141C117.499 21.1121 117.586 21.1085 117.702 21.1465C117.751 21.1621 117.793 21.1994 117.832 21.2433C117.85 21.2628 117.859 21.3115 117.86 21.3082C117.845 21.4105 117.695 21.5524 117.581 21.5362C117.433 21.5151 117.37 21.3706 117.403 21.2361C117.477 20.9387 117.018 20.8123 116.946 21.1098Z" fill="#A3A5C7"/>
<path d="M152.063 16.1743C151.506 15.3183 149.799 15.418 150.003 16.7381L150.014 16.9277C149.814 15.6707 148.029 15.521 147.849 16.8001C147.663 17.9526 149.477 18.6082 150.146 19.2035C150.735 18.4085 152.635 17.2827 152.063 16.1743Z" fill="#A3A5C7"/>
<path d="M160.755 20.8494C160.991 19.6034 159.967 19.1065 159.039 19.9349C158.067 20.801 158.605 22.2227 159.758 22.4948C161.012 22.791 162.229 21.8148 162.28 20.5457C162.341 19.0201 161.055 18.0622 159.627 17.9751C157.933 17.8719 157.06 19.3777 156.29 20.6133C155.713 21.5404 154.987 22.0662 153.869 22.0668C153.212 22.0671 152.577 21.8333 152.262 21.2319C151.758 20.2762 152.398 18.9243 153.036 18.2008C153.974 17.136 155.017 17.5406 155.616 18.6951C155.978 19.3916 155.663 20.284 154.917 20.549C154.415 20.7276 153.796 20.309 153.62 19.8596C153.534 19.5293 153.651 19.2796 153.97 19.1104C154.327 19.1413 154.599 19.2949 154.783 19.5722C154.985 19.8034 155.319 19.466 155.119 19.2364C154.791 18.8584 154.174 18.3674 153.645 18.7331C153.154 19.0718 153.014 19.606 153.23 20.1593C153.81 21.643 155.683 21.0624 156.152 19.8882C156.566 18.8496 155.68 17.4831 154.699 17.1253C153.872 16.8233 153.037 17.4497 152.543 18.0492C151.396 19.4472 151.104 22.0486 153.325 22.4906C154.905 22.8046 156.015 21.9535 156.808 20.6808C157.305 19.8836 157.718 19.1598 158.559 18.6805C159.574 18.1024 160.981 18.5905 161.586 19.5212C162.329 20.6669 161.379 22.0321 160.142 22.0619C159.559 22.0756 159.062 21.7268 159.019 21.129C158.95 20.1703 160.541 19.4403 160.297 20.7243C160.24 21.0225 160.698 21.1501 160.755 20.8494Z" fill="#A3A5C7"/>
<path d="M139.424 20.8229C139.23 19.798 140.147 20.0474 140.532 20.6076C140.871 21.1002 140.703 21.7198 140.216 22.0117C139.222 22.6083 138.17 21.7328 137.939 20.7995C137.647 19.6239 138.747 18.7916 139.753 18.5805C140.947 18.3302 141.888 19.1566 142.486 20.0789C143.371 21.4411 144.047 22.6401 145.852 22.6411C146.83 22.6414 147.715 22.1767 148.006 21.2103C148.47 19.6713 147.143 17.1118 145.379 17.1588C144.419 17.1845 143.484 18.3971 143.481 19.3021C143.479 20.6345 145.038 21.9211 146.177 20.6897C147.326 19.4476 145.757 18.0067 144.601 19.3352C144.402 19.5651 144.737 19.9025 144.938 19.671C145.254 19.3067 145.829 18.8926 146.1 19.5801C146.308 20.1055 145.703 20.4991 145.301 20.6426C144.393 20.9661 143.882 19.8532 143.977 19.1527C144.065 18.5133 144.711 17.7057 145.379 17.6343C146.437 17.5212 147.204 18.8702 147.472 19.7032C147.868 20.9323 147.378 22.0341 146.02 22.1588C143.783 22.3644 143.404 20.1117 142.115 18.8556C141.106 17.872 139.321 17.8031 138.263 18.751C137.306 19.6061 137.045 21.3671 138.215 22.2001C139.014 22.769 140.649 22.8995 141.068 21.7633C141.432 20.7764 140.571 19.255 139.392 19.6557C138.85 19.8392 138.88 20.5027 138.965 20.9492C139.023 21.2499 139.481 21.1223 139.424 20.8229Z" fill="#A3A5C7"/>
<path d="M149.289 21.1118C149.197 21.4891 149.378 21.8343 149.735 21.9788C150.108 22.1298 150.51 21.8207 150.647 21.4907C150.768 21.2007 150.555 20.8883 150.31 20.7494C150.018 20.5841 149.642 20.6315 149.414 20.8802C149.207 21.1053 149.542 21.442 149.75 21.216C149.843 21.114 149.93 21.1105 150.047 21.1485C150.095 21.164 150.137 21.2014 150.177 21.2452C150.194 21.2647 150.204 21.3134 150.204 21.3102C150.189 21.4125 150.039 21.5544 149.925 21.5381C149.778 21.517 149.715 21.3725 149.748 21.2381C149.82 20.9406 149.363 20.8143 149.289 21.1118Z" fill="#A3A5C7"/>
<path d="M166.323 13.918C166.611 13.4202 166.963 12.9841 167.576 12.9039C168.613 12.7675 168.578 13.8988 168.456 14.4116C168.298 15.077 167.77 15.6966 167.352 16.2097C166.736 16.9673 165.967 17.6398 165.483 18.4971C165.678 18.4721 165.871 18.4471 166.066 18.4221C165.172 17.5901 164.068 17.0345 163.234 16.1298C162.514 15.3485 162.668 13.9414 163.865 13.793C164.745 13.6842 165.317 14.4467 165.445 15.2166C165.523 15.6885 166.24 15.4875 166.161 15.0189C165.894 13.4124 163.498 12.0946 162.415 13.8281C160.909 16.2392 164.136 17.6405 165.541 18.9472C165.713 19.1076 166.003 19.0869 166.124 18.8722C167.078 17.181 169.311 15.9515 169.267 13.7917C169.252 13.0665 168.577 12.2537 167.837 12.1846C166.849 12.0927 166.149 12.7343 165.681 13.5429C165.441 13.9583 166.082 14.3324 166.323 13.918Z" fill="#A3A5C7"/>
<path d="M163.531 23.6709C163.997 24.5796 165.705 24.6565 165.639 23.3225L165.647 23.1325C165.717 24.4039 167.477 24.7371 167.786 23.4829C168.091 22.3558 166.355 21.5166 165.75 20.8555C165.083 21.5858 163.076 22.5094 163.531 23.6709Z" fill="#A3A5C7"/>
<path d="M134.073 13.918C134.361 13.4202 134.713 12.9841 135.326 12.9039C136.363 12.7675 136.328 13.8988 136.206 14.4116C136.048 15.077 135.52 15.6966 135.103 16.2097C134.486 16.9673 133.717 17.6398 133.233 18.4971C133.428 18.4721 133.622 18.4471 133.816 18.4221C132.923 17.5901 131.818 17.0345 130.984 16.1298C130.264 15.3485 130.418 13.9414 131.615 13.793C132.496 13.6842 133.067 14.4467 133.195 15.2166C133.273 15.6885 133.99 15.4875 133.912 15.0189C133.644 13.4124 131.248 12.0946 130.165 13.8281C128.659 16.2392 131.887 17.6405 133.291 18.9472C133.463 19.1076 133.754 19.0869 133.874 18.8722C134.828 17.181 137.061 15.9515 137.017 13.7917C137.002 13.0665 136.328 12.2537 135.587 12.1846C134.599 12.0927 133.899 12.7343 133.431 13.5429C133.191 13.9583 133.832 14.3324 134.073 13.918Z" fill="#A3A5C7"/>
<path d="M131.285 23.6709C131.751 24.5796 133.459 24.6565 133.393 23.3225L133.402 23.1325C133.47 24.4039 135.231 24.7371 135.54 23.4829C135.845 22.3558 134.109 21.5166 133.504 20.8555C132.836 21.5858 130.83 22.5094 131.285 23.6709Z" fill="#A3A5C7"/>
<path d="M94.0621 19.2538C93.6413 17.0842 91.5171 15.0442 89.9785 13.6138C88.311 12.0628 85.8427 10.1625 83.4091 10.7265C80.591 11.3799 81.4668 14.876 83.9446 15.2527C86.5821 15.6531 86.3376 12.6321 83.9936 12.3067C83.779 12.2768 83.614 12.3567 83.5367 12.5662C83.4169 12.8912 83.399 12.9451 83.3747 13.2595C83.338 13.7378 84.081 13.7339 84.1177 13.2595C84.1628 13.0942 84.208 12.9289 84.2531 12.7639C84.1008 12.8503 83.9485 12.9367 83.7962 13.0231C84.2599 13.0874 84.6301 13.1893 84.986 13.5124C85.4319 14.0574 85.2396 14.4026 84.4106 14.548C83.9836 14.5584 83.5822 14.4626 83.2071 14.2603C81.7672 13.5625 82.3498 11.8527 83.6062 11.4429C85.013 10.984 86.6542 12.0229 87.759 12.7714C89.1547 13.7174 90.3692 14.952 91.4506 16.237C92.2059 17.1346 93.1152 18.2663 93.3448 19.4512C93.4363 19.9218 94.1521 19.7221 94.0621 19.2538Z" fill="#A3A5C7"/>
<path d="M91.4379 14.9285C88.7637 12.403 86.6987 9.02864 86.5318 5.2776C86.4597 3.65813 86.9081 2.09907 88.2464 1.0979C89.3053 0.305869 91.4359 1.5298 90.7592 2.8333C90.5796 3.17914 90.1165 3.34671 89.7606 3.39217C89.6509 3.3834 89.5408 3.37497 89.4307 3.3662C88.8043 3.07101 88.8332 2.91416 89.5171 2.895C89.7217 3.32787 90.362 2.95053 90.1588 2.51993C89.822 1.80713 88.8247 1.32554 88.3123 2.20038C87.8044 3.06711 88.5815 3.97118 89.444 4.11894C90.2783 4.26182 91.1265 3.73737 91.5009 3.01613C92.0754 1.91008 90.8806 0.678022 90.0035 0.202606C88.9355 -0.376076 87.7713 0.419854 87.0627 1.17389C86.0119 2.29261 85.7862 3.80329 85.7891 5.27793C85.7956 9.16308 88.1834 12.8765 90.9128 15.4542C91.2606 15.7822 91.787 15.2581 91.4379 14.9285Z" fill="#A3A5C7"/>
<path d="M86.899 14.3932C86.8064 14.7705 86.9873 15.1157 87.3442 15.2599C87.718 15.4112 88.1187 15.1017 88.2567 14.7721C88.3778 14.4815 88.1638 14.1694 87.9193 14.0307C87.6271 13.8651 87.2517 13.9129 87.0237 14.1616C86.8168 14.3867 87.152 14.7234 87.3595 14.4974C87.4533 14.3951 87.5397 14.3919 87.6563 14.4299C87.705 14.4454 87.7466 14.4831 87.7862 14.5266C87.804 14.5461 87.8135 14.5948 87.8138 14.5916C87.7992 14.6935 87.6485 14.8361 87.5352 14.8195C87.3871 14.7984 87.3244 14.6539 87.3575 14.5195C87.4303 14.2223 86.9721 14.096 86.899 14.3932Z" fill="#A3A5C7"/>
<path d="M88.7037 15.8854C88.6111 16.2628 88.792 16.608 89.1489 16.7522C89.5227 16.9032 89.9237 16.594 90.0611 16.2644C90.1825 15.9738 89.9685 15.6614 89.724 15.5227C89.4317 15.3574 89.0567 15.4052 88.8281 15.6536C88.6215 15.8786 88.9566 16.2157 89.1642 15.9894C89.258 15.8871 89.3444 15.8835 89.461 15.9218C89.5097 15.9374 89.5512 15.9751 89.5909 16.0183C89.6084 16.0377 89.6181 16.0865 89.6185 16.0835C89.6038 16.1855 89.4532 16.3277 89.3398 16.3115C89.1918 16.2904 89.1291 16.1459 89.1622 16.0114C89.2346 15.714 88.7767 15.588 88.7037 15.8854Z" fill="#A3A5C7"/>
<path d="M90.3365 17.6667C90.2439 18.044 90.4248 18.3889 90.7817 18.5334C91.1555 18.6844 91.5562 18.3753 91.6942 18.0453C91.8157 17.755 91.6017 17.4426 91.3568 17.304C91.0646 17.1387 90.6892 17.1864 90.4612 17.4348C90.2543 17.6599 90.5895 17.9966 90.797 17.7706C90.8908 17.6683 90.9772 17.6651 91.0935 17.7027C91.1422 17.7183 91.1837 17.756 91.2234 17.7995C91.2412 17.819 91.251 17.8677 91.2513 17.8648C91.2363 17.9671 91.086 18.109 90.9723 18.0927C90.8242 18.0716 90.7619 17.9275 90.7947 17.793C90.8681 17.4956 90.4096 17.3692 90.3365 17.6667Z" fill="#A3A5C7"/>
<path d="M91.5357 19.7465C91.4432 20.1239 91.624 20.4691 91.9809 20.6136C92.3544 20.7646 92.7554 20.4554 92.8931 20.1255C93.0142 19.8352 92.8006 19.5228 92.5557 19.3841C92.2634 19.2188 91.888 19.2662 91.6601 19.515C91.4532 19.74 91.7884 20.0768 91.9959 19.8508C92.0897 19.7485 92.1761 19.7452 92.2927 19.7832C92.3411 19.7988 92.383 19.8362 92.4222 19.8797C92.4401 19.8992 92.4498 19.9479 92.4498 19.9449C92.4352 20.0472 92.2846 20.1895 92.1709 20.1729C92.0231 20.1518 91.9605 20.0073 91.9936 19.8729C92.067 19.5754 91.6088 19.4494 91.5357 19.7465Z" fill="#A3A5C7"/>
<path d="M84.4661 6.12313C83.4578 5.95979 82.3839 7.29056 83.4977 8.02707L83.6458 8.14657C82.5806 7.44936 81.27 8.66973 82.0965 9.66245C82.8239 10.5759 84.5291 9.67349 85.4195 9.57867C85.2266 8.60835 85.6712 6.44462 84.4661 6.12313Z" fill="#A3A5C7"/>
<path d="M101.142 19.4525C101.637 16.8978 104.5 14.4227 106.469 12.9568C107.63 12.0936 109.158 11.1753 110.665 11.3942C111.921 11.5763 112.551 12.8704 111.717 13.9115C111.388 14.3207 109.412 15.1387 109.269 14.0489C109.174 13.3273 110.218 13.0903 110.691 13.0243C110.538 12.938 110.386 12.8516 110.234 12.7652C110.279 12.9302 110.325 13.0955 110.369 13.2607C110.406 13.7352 111.15 13.7391 111.112 13.2607C111.088 12.9461 111.071 12.8922 110.95 12.5674C110.873 12.358 110.708 12.2781 110.494 12.308C108.228 12.6223 107.836 15.4491 110.444 15.267C112.92 15.0939 113.913 11.6526 111.289 10.7963C108.907 10.0195 106.435 11.9329 104.754 13.3942C103.119 14.8149 100.86 17.018 100.426 19.2547C100.334 19.723 101.051 19.9227 101.142 19.4525Z" fill="#A3A5C7"/>
<path d="M103.572 15.4546C106.393 12.7905 108.52 9.22585 108.696 5.27835C108.756 3.93686 108.495 2.49729 107.632 1.43281C106.929 0.566406 105.664 -0.437678 104.482 0.203029C103.521 0.723583 102.598 1.7754 102.946 2.9279C103.188 3.72643 104.254 4.25445 105.04 4.11936C105.915 3.96966 106.57 3.15813 106.21 2.28946C105.797 1.29219 104.667 1.79748 104.326 2.52035C104.123 2.95128 104.763 3.32862 104.968 2.89542C105.652 2.91458 105.68 3.07144 105.054 3.36662C104.725 3.4845 104.344 3.31824 104.064 3.16366C102.596 2.34987 104.744 0.41313 105.965 0.937256C107.606 1.64096 107.956 3.73422 107.953 5.27835C107.947 8.96899 105.633 12.4872 103.047 14.9292C102.698 15.2588 103.224 15.783 103.572 15.4546Z" fill="#A3A5C7"/>
<path d="M107.587 14.3932C107.681 14.7705 107.499 15.1157 107.143 15.2599C106.769 15.4112 106.368 15.1017 106.23 14.7721C106.109 14.4815 106.323 14.1694 106.567 14.0307C106.86 13.8651 107.235 13.9129 107.464 14.1616C107.67 14.3867 107.335 14.7234 107.128 14.4974C107.034 14.3951 106.947 14.3919 106.831 14.4299C106.782 14.4454 106.741 14.4831 106.701 14.5266C106.683 14.5461 106.674 14.5948 106.674 14.5916C106.688 14.6935 106.839 14.8361 106.952 14.8195C107.1 14.7984 107.163 14.6539 107.13 14.5195C107.056 14.2223 107.515 14.096 107.587 14.3932Z" fill="#A3A5C7"/>
<path d="M105.787 15.8854C105.879 16.2628 105.699 16.608 105.342 16.7522C104.968 16.9032 104.567 16.594 104.43 16.2644C104.308 15.9738 104.522 15.6614 104.767 15.5227C105.059 15.3574 105.434 15.4052 105.662 15.6536C105.869 15.8786 105.534 16.2157 105.327 15.9894C105.233 15.8871 105.146 15.8835 105.03 15.9218C104.981 15.9374 104.939 15.9751 104.9 16.0183C104.882 16.0377 104.873 16.0865 104.873 16.0835C104.888 16.1855 105.038 16.3277 105.151 16.3115C105.299 16.2904 105.362 16.1459 105.329 16.0114C105.256 15.714 105.714 15.588 105.787 15.8854Z" fill="#A3A5C7"/>
<path d="M104.15 17.6686C104.243 18.046 104.062 18.3909 103.705 18.5354C103.331 18.6864 102.93 18.3772 102.793 18.0473C102.672 17.757 102.885 17.4446 103.13 17.3059C103.422 17.1406 103.797 17.1884 104.026 17.4368C104.232 17.6618 103.898 17.9986 103.69 17.7726C103.596 17.6703 103.51 17.667 103.393 17.7047C103.345 17.7203 103.303 17.7579 103.264 17.8015C103.246 17.8209 103.236 17.8696 103.236 17.8667C103.251 17.969 103.401 18.1109 103.515 18.0947C103.662 18.0736 103.725 17.9294 103.693 17.795C103.62 17.4975 104.077 17.3712 104.15 17.6686Z" fill="#A3A5C7"/>
<path d="M102.951 19.7465C103.044 20.1239 102.863 20.4691 102.506 20.6136C102.133 20.7646 101.732 20.4554 101.594 20.1255C101.472 19.8352 101.686 19.5228 101.931 19.3841C102.223 19.2188 102.598 19.2662 102.827 19.515C103.033 19.74 102.699 20.0768 102.491 19.8508C102.397 19.7485 102.31 19.7452 102.194 19.7832C102.145 19.7988 102.104 19.8362 102.064 19.8797C102.047 19.8992 102.037 19.9479 102.036 19.9449C102.052 20.0472 102.202 20.1895 102.315 20.1729C102.463 20.1518 102.526 20.0073 102.493 19.8729C102.42 19.5754 102.878 19.4494 102.951 19.7465Z" fill="#A3A5C7"/>
<path d="M110.023 6.12508C111.031 5.96174 112.105 7.29252 110.991 8.02902L110.844 8.14853C111.909 7.45132 113.219 8.67168 112.393 9.6644C111.666 10.5779 109.961 9.67544 109.07 9.58062C109.263 8.61031 108.818 6.44657 110.023 6.12508Z" fill="#A3A5C7"/>
<path d="M98.0012 19.3882C96.5617 21.1996 93.5611 22.2816 94.0054 25.0246C94.3583 27.1958 97.0241 26.2064 97.7428 24.8912C97.5732 24.9357 97.4041 24.9798 97.2345 25.0246C98.2201 25.7556 100.747 27.0997 100.915 24.8525C101.078 22.6619 98.704 21.6802 97.1637 20.717C96.7565 20.4624 96.3841 21.1054 96.789 21.359C97.758 21.965 98.7618 22.4245 99.5762 23.2561C100.152 23.8442 100.708 25.728 99.1992 25.3065C98.6225 25.1451 98.0841 24.7356 97.6096 24.3836C97.4505 24.2651 97.1907 24.3531 97.1017 24.5168C96.7705 25.1224 96.2191 25.5533 95.5115 25.5845C94.297 25.6381 94.7035 23.8134 95.0575 23.2386C95.8973 21.8747 97.5375 21.159 98.5273 19.9139C98.8215 19.5428 98.3 19.0131 98.0012 19.3882Z" fill="#A3A5C7"/>
</svg>
