<svg width="552" height="60" viewBox="0 0 552 60" fill="none" xmlns="http://www.w3.org/2000/svg">
<path d="M12.4005 2.22039C23.9477 -3.02321 31.8297 2.54821 42.5417 3.43617C66.1228 5.38698 97.2195 3.62996 121.337 3.76941C139.592 3.87509 158.141 4.24929 176.286 4.54942C177.217 4.5642 177.772 5.13905 178.194 5.14633C182.167 5.21396 188.829 4.69314 192.77 4.76914C201.06 4.92766 215.484 4.83809 223.077 5.37703C226.301 5.60523 229.609 5.70037 230.862 7.06887C232.04 7.13857 232.683 5.90207 232.991 5.83478C232.994 5.836 232.998 5.83722 233.001 5.83844C233.992 5.62971 236.494 6.49667 237.046 6.44267C237.129 6.43422 236.621 5.53862 237.96 5.80915C238.08 5.83239 237.969 6.44133 239.097 6.45C239.391 6.45211 243.163 5.51832 244.242 5.46126C247.829 5.27542 256.398 6.00848 260.687 5.99591C261.343 5.99591 261.721 5.63971 262.414 5.63337C262.772 5.62969 263.308 6.01633 263.418 6.01422C263.901 6.00047 266.009 4.24454 265.252 7.70972C267.454 7.49001 266.805 6.34442 266.855 5.60041C269.244 5.49298 270.396 7.12495 271.02 5.39534C282.771 5.60408 294.521 5.81281 306.272 6.02154C306.275 5.73957 306.279 5.4576 306.282 5.17562C309.746 6.30188 310.934 4.39682 312.911 6.03253C314.13 5.67243 315.349 5.31234 316.569 4.95224C347.903 6.06179 379.164 4.74296 410.144 4.74717C411.452 4.74717 411.778 5.34717 413.935 5.3514C416.316 5.3556 419.664 4.65829 422.802 4.6666C425.554 4.67295 429.615 5.24056 432.684 5.32943C433.377 5.34845 433.878 4.96844 433.956 4.97055C434.414 4.9854 434.438 5.58702 434.882 5.60408C435.415 5.6231 436.057 5.17744 436.672 5.20492C438.97 5.30417 441.473 5.15056 441.764 5.16097C443.165 5.21793 443.474 5.80631 443.589 5.81281C445.148 5.88461 444.564 5.35355 444.952 5.38436C446.966 5.5471 448.39 6.87278 451.147 5.60041C451.072 6.09234 450.997 6.58427 450.922 7.0762C453.032 7.35299 451.638 6.04586 452.069 5.80915C452.245 5.72145 456.787 5.88108 457.138 5.90436C458.358 5.98888 458.39 6.6426 458.496 6.65141C458.753 6.67254 461.822 5.9306 463.396 6.50126C465.258 7.17752 463.066 8.50734 463.528 8.75706C463.606 8.79932 465.556 8.66303 465.817 9.07931C466.106 9.52718 464.421 9.51768 464.447 9.70551C464.465 9.83444 467.264 10.7577 466.727 11.379C466.296 12.0023 462.499 11.2032 461.694 11.4962C461.562 11.5447 461.812 12.3139 461.694 12.3421C461.222 12.4457 452.474 12.4688 452.073 12.3421C452.529 11.9918 452.984 11.6415 453.44 11.2912C452.834 11.2558 452.229 11.2204 451.623 11.185C452.484 10.9042 453.345 10.6235 454.206 10.3427C452.927 7.45808 449.072 10.3823 448.913 11.8221C448.844 12.4879 451.2 14.2009 449.007 15.1985C449.341 15.3694 449.674 15.5403 450.008 15.7112C450.695 15.4304 451.382 15.1497 452.069 14.8689C451.612 14.6919 451.154 14.5149 450.696 14.3379C450.865 14.1377 451.033 13.9376 451.202 13.7374C452.486 13.4163 453.771 13.0953 455.055 12.7743C455.715 12.9222 455.578 13.5132 456.032 13.6275C461.693 15.0668 458.001 13.2353 461.707 13.4993C462.236 13.8167 462.766 14.1341 463.295 14.4515C463.108 13.1389 464.75 13.963 466.735 13.3968C466.498 13.8216 466.261 14.2464 466.024 14.6712C468.9 14.445 474.732 16.5867 473.158 14.2427C473.817 14.4429 474.476 14.6431 475.135 14.8433C475.692 14.46 476.248 14.0767 476.805 13.6934C477.574 13.7374 478.344 13.7813 479.113 13.8253C479.116 14.0328 479.12 14.2403 479.123 14.4478C478.51 14.449 477.896 14.4502 477.283 14.4515C477.743 15.0838 478.204 15.7161 478.664 16.3484C479.117 16.2434 479.57 16.1384 480.023 16.0334C478.124 15.4354 480.627 14.4586 481.233 13.6238C482.834 13.3153 483.857 14.399 484.394 14.4478C484.646 14.471 487.619 12.5593 486.453 14.6602C487.983 14.4051 489.512 14.15 491.042 13.8948C491.64 14.056 492.238 14.2171 492.836 14.3782C491.538 15.3568 495.299 16.5358 492.528 16.9416C490.459 17.246 489.949 16.331 488.968 16.3374C488.082 16.3419 487.615 16.9581 486.651 16.9856C480.173 17.1589 474.897 17.0458 468.744 16.7732C467.529 16.7184 466.423 17.0205 465.607 16.9782C464.685 16.9295 465.84 16.1566 464.666 16.3447C463.432 16.5436 463.166 17.1743 462.84 17.187C462.637 17.1941 461.995 16.6267 461.404 16.6267C458.975 16.6268 455.415 17.1755 455.07 17.1723C454.68 17.166 447.81 16.654 447.481 16.5608C447.306 16.51 447.668 14.4146 446.154 16.6487C445.682 16.6902 445.209 16.7317 444.737 16.7732C444.814 16.3545 444.89 15.9358 444.967 15.5171C442.168 17.1043 443.131 16.2164 440.433 16.3411C433.973 16.6411 424.445 16.2883 417.38 16.4363C415.802 16.4701 415.201 16.9715 413.335 17.0075C411.601 17.0392 407.073 15.5433 408.058 17.6154C404.199 15.8212 403.579 18.9152 401.648 16.9856C401.414 17.2663 401.18 17.5471 400.947 17.8278C398.85 16.6231 398.203 17.6819 395.914 17.8278C394.928 17.8912 396.065 16.6099 394.074 18.0366C393.693 17.9304 393.313 17.8242 392.932 17.718C393.021 17.4079 393.109 17.0979 393.198 16.7878C390.986 17.0414 390.844 16.8799 391.096 18.0402C390.029 17.829 388.961 17.6179 387.893 17.4067C387.761 17.7875 387.628 18.1684 387.495 18.5492C388.007 19.2757 412.247 18.1802 415.624 17.8315C419.583 18.6935 427.536 17.6158 430.734 17.8205C432.014 17.9029 432.58 18.7643 434.442 18.8678C436.304 18.9713 438.648 18.189 439.639 18.1611C442.942 18.0638 458.592 18.2357 447.948 19.3073C448.254 19.7272 448.56 20.1471 448.866 20.567C453.096 19.1341 451.564 20.0162 455.074 20.1642C456.551 20.2273 460.065 19.2896 459.869 21.1969C457.125 21.5519 454.211 20.9423 451.825 20.9698C451.588 20.9728 448.764 21.8436 447.31 21.607C445.999 21.391 446.902 19.5729 444.049 21.6143C441.929 19.6202 440.704 21.4293 440.145 21.6217C439.177 21.9551 439.071 20.9709 438.104 20.8563C437.051 20.7297 436.325 21.383 436.182 21.3873C434.737 21.4021 427.213 21.4911 426.868 21.0943C427.171 20.9198 427.473 20.7452 427.776 20.5707C425.822 20.2897 426.23 21.2961 425.716 21.4166C425.334 21.4129 424.951 21.4093 424.569 21.4056C424.72 21.1969 424.872 20.9881 425.023 20.7794C422.716 20.8238 424.481 21.5491 421.206 21.5301C419.126 21.5173 416.977 20.7205 416.775 20.7794C416.716 20.7963 417.371 21.3335 416.523 21.4056C415.119 21.5239 412.692 21.5103 412.421 20.7794C411.733 20.8828 411.792 21.598 411.701 21.6143C411.301 21.6841 404.434 21.9272 403.204 21.9695C399.795 22.0858 396 21.9333 392.307 22.0538C391.927 22.0658 392.169 21.6069 391.789 21.6217C391.178 21.6452 388.042 22.3654 387.573 22.4163C386.404 22.5409 383.328 22.2552 382.844 22.4639C382.775 22.4935 383.787 23.1138 382.604 23.3062C381.29 23.519 381.997 22.6846 381.926 22.6763C379.251 22.391 377.563 22.9707 375.737 23.0828C375.145 23.1187 374.054 22.4908 373.219 22.6763C373.123 22.6974 373.313 23.2776 373.219 23.3062C371.957 23.6105 370.777 22.5337 370.231 22.4639C368.895 22.2934 369.622 23.0881 369.553 23.0938C368.663 23.1191 367.465 22.8324 366.112 22.8704C360.079 23.0395 355.156 23.088 348.742 23.0352C347.936 23.0288 346.98 22.4683 346.857 22.4676C346.476 22.4718 346.585 23.1305 345.484 23.1157C343.163 23.0819 341.011 23.1138 338.712 23.1011C338.25 23.0984 338.052 22.4881 337.699 22.4749C336.516 22.4369 332.48 24.0351 332.414 22.0464C330.065 23.8069 328.505 22.2896 326.615 22.3064C322.137 22.3445 315.126 22.7032 310.662 22.4749C309.722 22.426 309.281 21.9164 308.759 21.889C307.821 21.8384 302.461 22.123 302.18 22.0428C301.63 21.8885 301.96 19.6446 299.129 21.5997C297.47 21.739 297.666 20.8181 297.322 20.7684C294.648 20.3985 292.046 22.4538 292.532 20.5707C289.418 21.082 287.399 22.1227 286.128 20.3619C286.145 21.2212 284.68 21.7367 282.915 21.4093C284.723 19.9658 284.499 19.0433 288.87 19.3073C288.939 19.3115 288.808 19.9329 288.876 19.9371C289.501 19.9791 290.803 19.6654 291.867 19.6991C292.931 19.7329 292.34 20.1577 292.766 20.1495C293.156 20.1411 293.143 19.5464 293.707 19.538C295.537 19.5147 297.157 19.3508 298.198 19.3402C298.854 19.3341 299.589 19.8566 300.098 19.8566C302.066 19.8523 306.237 19.4443 308.742 19.5014C309.264 19.5147 309.045 20.1009 310.186 20.1495C310.32 20.1552 310.806 19.5439 311.806 19.4171C312.805 19.2904 313.581 19.5939 314.223 19.5307C314.76 19.4778 314.535 18.9347 315.636 18.9008C316.553 18.8733 326.946 19.2646 327.51 19.3512C328.322 19.4761 328.708 20.2388 329.203 20.1459C329.29 20.1259 329.438 19.3893 329.74 19.3366C334.722 18.466 345.75 19.471 351.443 19.4647C363.344 19.4542 374.323 19.0207 386.329 18.8495C386.543 18.7213 386.757 18.5932 386.971 18.465C385.757 18.4601 384.544 18.4552 383.33 18.4504C383.323 18.1037 383.315 17.757 383.307 17.4104C381.666 17.3555 381.884 18.1753 381.93 18.6701C381.323 18.4601 380.716 18.2502 380.109 18.0402C379.585 19.2483 375.536 18.4448 373.448 18.4467C372.09 18.4467 370.475 18.9073 369.759 18.8715C368.246 18.7976 368.286 18.0521 368.167 18.0402C367.965 18.0233 365.854 18.6808 364.33 18.6554C362.079 18.6192 361.835 17.4746 358.752 18.4467C354.802 17.8528 350.426 18.1517 346.169 18.249C346.979 17.1909 343.164 18.1923 341.443 18.1757C330.947 18.0721 318.045 17.6201 307.411 17.2016C306.044 17.1488 305.012 16.5255 304.25 16.5461C303.837 16.5567 303.657 17.2915 303.084 17.1943C302.983 17.1756 302.913 16.4885 301.846 16.385C299.189 16.125 292.572 17.2717 290.898 15.9529C281.816 16.1567 272.734 16.3606 263.652 16.5644C263.424 16.2837 263.196 16.0029 262.968 15.7222C261.242 17.1569 254.422 16.3138 251.096 16.3813C245.242 16.5018 237.773 16.9479 232.643 16.9965C231.529 17.0071 230.616 16.6001 229.561 16.6084C229.107 16.6126 228.542 17.1403 228.07 17.143C222.766 17.1832 215.585 16.6396 210.241 16.6523C198.106 16.6798 186.678 16.5998 174.383 16.623C132.964 16.7055 91.7836 17.4815 50.7182 17.1687C50.1677 17.1644 50.1952 16.5577 49.7685 16.5534C47.2499 16.5239 41.6254 17.024 38.7809 16.9965C36.5145 16.9754 32.9173 16.0477 32.1374 16.9819C40.189 18.3959 48.6955 18.2895 57.0775 18.6847C57.6733 18.7126 57.7474 19.2894 57.8208 19.2999C59.1778 19.5004 58.3208 18.706 60.2887 18.6701C60.9464 18.658 67.0211 20.4994 66.2984 18.6664C67.7532 19.3997 78.0085 19.7662 79.9876 19.5233C80.5886 19.4494 80.1631 18.9063 80.2824 18.8788C80.8004 18.7589 81.0344 19.5076 81.4974 19.527C82.7315 19.5735 85.8705 18.9661 86.4669 18.9704C87.8391 18.9769 91.9532 19.5864 93.7653 19.4428C95.4261 19.3117 95.1152 18.5295 96.5511 18.4577C97.6829 18.4031 96.4501 19.061 98.9769 19.2597C100.229 19.3569 104.61 18.8862 105.675 18.8861C106.74 18.8861 107.924 19.3542 109.392 19.3183C111.507 19.2675 116.107 19.0069 118.259 18.8568C118.387 18.8484 118.7 18.2399 119.017 18.2526C119.673 18.2781 119.476 19.0296 119.971 19.1059C120.466 19.1819 129.046 19.0901 130.504 19.0985C131.508 19.1028 132.202 18.6551 132.757 18.6591C133.192 18.6633 133.239 19.2893 133.683 19.2963C133.821 19.2963 134.992 18.7526 136.162 18.7653C137.267 18.778 141.464 19.2951 141.95 19.2999C142.267 19.3021 141.92 18.8573 142.856 18.8678C143.709 18.8787 144.269 19.4563 144.755 19.4647C145.883 19.4835 147.144 18.991 148.341 18.9887C151.782 18.9823 151.605 19.6978 151.811 19.7211C152.384 19.7857 152.613 19.1304 152.801 19.1168C153.594 19.0619 155.539 18.9409 156.246 18.9154C157.127 18.8837 157.5 19.5066 158.436 19.5087C159.133 19.5083 160.542 18.9011 162.134 18.8715C165.721 18.8017 169.988 18.6871 173.511 18.7104C174.561 18.7167 174.723 19.2852 175.044 19.2999C176.731 19.378 177.676 18.7423 178.158 18.7506C181.594 18.8077 187.724 19.805 190.912 19.8895C192.211 19.9233 197.895 19.4629 201.102 19.5453C201.469 19.5538 201.125 19.9995 201.534 19.9298C202.51 19.7626 202.42 18.855 202.915 18.8825C203.154 18.8985 203.699 19.4102 204.395 19.4611C208.006 19.7253 210.489 19.3274 212.136 19.3549C227.954 19.6191 244.085 19.8568 258.857 19.9371C260.504 19.9456 262.547 19.4056 265.033 19.9298C265.11 20.2118 265.186 20.4938 265.263 20.7757C265.35 20.4986 265.437 20.2215 265.524 19.9445C268.341 19.7944 269.405 19.4377 272.281 19.7907C272.529 19.8202 273.285 21.1075 273.753 19.5087C276.602 20.6669 275.039 19.4993 277.154 19.3915C279.269 19.2837 281.324 19.6407 283.374 19.7211C284.498 20.2939 279.782 21.6149 279.474 21.6107C278.979 21.6056 278.465 20.8107 277.988 20.7684C276.575 20.642 275.209 21.2728 274.892 20.5633C273.067 21.3135 275.34 20.9387 275.111 21.6143C273.893 21.3348 272.674 21.0553 271.456 20.7757C270.835 23.0738 264.102 20.0769 264.57 21.8267C264.035 21.4764 263.499 21.1261 262.964 20.7757C260.615 22.971 259.234 21.4252 256.101 20.7721C256.327 21.0528 256.553 21.3336 256.779 21.6143C256.715 21.7315 253.95 22.1804 254.939 20.9845C252.104 22.5603 252.224 19.9391 249.683 21.834C248.173 22.0771 249.081 20.9765 246.379 20.9955C244.778 21.006 242.79 21.5815 241.001 21.6217C240.589 21.6291 240.41 20.9918 240.043 20.9918C239.676 20.992 239.497 21.6169 239.053 21.6326C238.136 21.6665 236.946 21.2278 236.373 21.2701C235.859 21.3062 235.124 21.8573 233.886 21.9439C229.56 22.2502 230.867 21.4632 230.184 21.1969C229.45 20.9137 228.922 21.9506 227.459 21.8304C227.312 21.8177 227.692 21.1715 227.215 21.1969C226.83 21.2167 226.636 21.9191 225.362 22.0501C224.854 22.103 216.975 22.2534 215.775 22.2662C213.935 22.2852 209.837 21.6907 207.933 21.6949C207.199 21.695 206.415 22.2589 205.635 22.2552C203.053 22.2425 198.918 22.1948 195.642 22.1673C192.692 22.1418 187.514 20.897 185.899 22.0208C181.757 22.1666 180.751 21.2063 180.439 21.1932C179.594 21.1573 179.203 21.7935 178.139 21.8231C164.353 22.1929 146.199 21.7723 133.142 21.8231C102.854 21.9456 72.4006 22.2933 42.0069 22.0355C41.9254 22.3174 41.844 22.5994 41.7626 22.8814C45.3549 23.0631 49.5765 23.553 53.1229 23.665C57.8574 23.8128 64.8807 22.6386 68.3535 24.5659C66.9451 24.7349 64.6506 23.9959 64.6917 24.987C67.2094 25.0578 69.7272 25.1286 72.2449 25.1994C72.1698 24.7417 72.0947 24.2839 72.0196 23.8262C74.6483 23.693 77.3371 23.7928 79.975 23.7273C80.4332 23.7165 80.1087 23.301 80.5077 23.2988C80.9541 23.2973 80.6515 23.7203 80.7351 23.7236C81.8635 23.7279 82.2041 23.3 82.3418 23.3062C82.6951 23.3231 82.4204 23.7304 83.4389 23.8445C85.3282 24.0577 86.6811 22.9757 86.2374 24.7783C86.8473 24.7783 87.4573 24.7783 88.0672 24.7783C88.2252 24.2876 88.3831 23.7969 88.541 23.3062C92.2929 25.2873 94.0229 21.8121 96.0963 24.5696C96.78 24.1484 97.4636 23.7273 98.1473 23.3062C98.5326 23.7969 98.918 24.2876 99.3033 24.7783C99.3784 24.3572 99.4535 23.936 99.5286 23.5149C103.212 23.8254 107.134 23.3199 110.657 23.3684C113.111 23.4022 113.699 23.5685 115.873 23.5369C120.708 23.465 115.907 24.3006 119.925 25.2031C119.715 24.6867 119.506 24.1704 119.297 23.6541C119.962 23.4649 120.628 23.2757 121.293 23.0865C121.757 23.5076 122.22 23.9287 122.683 24.3498C124.738 22.1655 126.069 23.9287 126.349 23.9287C126.575 23.9249 127.352 22.6099 129.784 23.7236C128.775 21.9258 131.639 23.7131 131.868 23.7236C132.086 23.7309 134.874 23.3296 136.006 23.3465C136.896 23.3593 138.795 23.7463 140.12 23.7273C141.291 23.7105 141.172 23.1001 141.258 23.0938C142.698 23.043 141.795 23.5173 142.837 23.5405C143.878 23.5637 144.686 23.0436 144.911 23.0901C145.024 23.1149 144.646 23.6834 145.164 23.7383C146.554 23.8881 149.068 23.3903 150.66 23.405C151.224 23.4096 151.935 23.8919 152.563 23.9067C153.526 23.9277 153.977 23.2872 154.536 23.3062C154.731 23.3145 155.973 24.3041 157.518 24.1521C157.812 24.1216 158.675 22.0276 159.822 24.9944C159.91 24.5769 159.998 24.1594 160.087 23.7419C165.266 22.7084 166.708 26.0998 169.011 23.0901C172.772 23.4263 170.19 24.5987 170.603 24.7783C170.869 24.8918 172.096 24.5695 172.23 24.5879C172.469 24.6238 172.428 25.0001 172.69 24.998C177.484 24.9283 175.355 24.2178 176.874 23.7676C180.484 22.696 183.301 25.075 177.021 24.3608C177.021 24.5708 177.021 24.7807 177.021 24.9907C178.567 24.79 182.493 24.8853 181.182 25.9501C180.15 26.7892 170.837 26.2416 176.111 27.4186C177.309 27.6849 177.929 26.897 180.003 28.3744C181.374 28.4545 181.572 26.5405 183.429 27.3087C183.123 26.641 182.818 25.9733 182.513 25.3056C185.045 24.4353 188.169 25.6028 190.114 25.2287C190.775 25.1012 193.156 21.9179 192.601 25.1005C193.712 24.9021 198.946 25.4884 199.918 25.2031C200.152 25.1342 200.457 23.4397 203.841 24.0312C204.077 24.2436 204.312 24.456 204.547 24.6684C201.451 25.2855 206.918 25.9132 205.433 27.5211C204.929 26.7984 202.474 26.3576 202.079 25.9941C201.405 25.3685 203.413 24.5621 200.853 24.782C199.24 27.4694 203.854 26.2327 203.149 28.7845C206.51 27.5933 206.846 28.7299 207.606 28.7772C210.859 28.9695 212.906 28.699 215.975 28.9969C216.722 28.4727 211.167 27.7161 210.479 27.9423C213.011 26.0844 208.652 26.0004 206.813 27.1037C206.658 26.5422 206.504 25.9806 206.349 25.4191C208.744 25.7235 211.08 25.8799 213.452 25.4191C213.606 25.6291 213.761 25.8391 213.915 26.049C213.383 26.3652 212.851 26.6813 212.319 26.9975C214.292 27.5152 213.109 25.8778 215.737 27.3124C215.818 26.6801 215.899 26.0478 215.981 25.4155C218.501 25.6254 221.021 25.8354 223.54 26.0453C224.852 24.7774 229.701 25.2497 228.813 26.8913C230.77 27.0072 228.354 26.1335 230.188 25.7341C230.986 25.5608 232.546 25.5121 232.932 25.9538C232.766 27.517 230.431 27.711 229.725 28.7845C230.153 29.1308 241.011 28.0148 240.043 29.8428C240.91 30.0626 240.511 29.1208 242.075 28.8797C246.456 28.2076 253.243 30.069 256.771 27.7335C252.628 26.4337 251.402 27.8104 248.228 27.8654C246.2 27.9013 233.836 28.1229 236.598 26.4701C236.144 26.6801 235.69 26.89 235.236 27.1C234.776 26.6081 234.317 26.1161 233.858 25.6242C235.152 25.5534 236.446 25.4826 237.739 25.4118C238.048 25.9025 238.357 26.3932 238.666 26.8839C238.808 26.5336 238.951 26.1833 239.093 25.8329C239.638 25.7634 240.183 25.6938 240.727 25.6242C240.574 26.0453 240.421 26.4665 240.268 26.8876C241.108 26.9596 241.947 27.0316 242.787 27.1037C242.561 26.5409 242.335 25.9782 242.109 25.4155C246.062 25.274 244.723 25.6264 246.916 26.6789C248.553 26.7865 245.788 25.7049 249.251 25.4301C253.279 25.1111 250.636 26.8305 255.853 26.4628C255.928 26.1821 256.003 25.9013 256.078 25.6206C257.225 25.9013 258.372 26.1821 259.519 26.4628C259.367 26.1137 259.215 25.7646 259.064 25.4155C261.431 25.5507 264.693 24.8845 265.478 26.2541C263.078 25.5946 263.102 27.986 263.726 28.4256C265.014 29.3277 284.041 28.4885 287.729 28.4293C292.445 28.3532 296.009 29.1192 300.317 27.9423C297.398 26.9769 287.133 27.7678 285.187 27.1C284.994 27.0345 285.049 24.8423 283.81 27.3087C279.819 26.8904 275.048 27.5892 270.062 27.5175C270.214 26.8864 270.367 26.2553 270.519 25.6242C273.583 26.9663 276.42 24.0184 276.021 26.4701C276.631 26.4701 277.241 26.4701 277.851 26.4701C277.851 26.0478 277.851 25.6254 277.851 25.2031C278.77 25.2031 279.69 25.2031 280.609 25.2031C280.609 25.6254 280.609 26.0478 280.609 26.4701C281.371 26.4701 282.133 26.4701 282.894 26.4701C282.973 26.049 283.053 25.6279 283.132 25.2067C285.413 26.0814 293.187 23.7427 289.769 26.2577C290.84 26.2577 291.911 26.2577 292.983 26.2577C292.979 25.9489 292.976 25.6401 292.972 25.3313C293.432 25.2898 293.893 25.2482 294.353 25.2067C294.202 25.4863 294.05 25.7658 293.899 26.0453C296.009 25.5445 298.009 27.0161 299.394 26.049C298.481 25.8378 297.567 25.6267 296.653 25.4155C298.405 25.8166 301.634 24.9855 301.923 24.9834C302.804 24.9792 303.269 25.6035 304.223 25.6352C305.084 25.6623 304.966 25.1825 305.126 25.1994C309.773 25.6878 308.002 28.285 310.172 25.2104C310.402 25.6303 310.633 26.0502 310.864 26.4701C311.172 26.1198 311.479 25.7695 311.787 25.4191C313.159 25.4521 314.531 25.4851 315.903 25.518C315.446 24.9931 314.988 24.4682 314.53 23.9434C316.587 23.7091 317.547 24.7615 317.746 24.7856C318.31 24.8469 318.567 24.1863 318.742 24.185C327.124 24.2421 322.033 24.8237 326.221 27.3051C327.715 26.3313 326.204 25.3551 325.992 24.3645C327.978 24.8292 328.597 24.5549 330.694 24.6098C331.239 24.6248 331.826 25.1592 332.17 25.1665C332.468 25.1728 333.4 24.6048 334.116 24.6025C335.308 24.5983 336.896 24.9368 338.529 24.9284C339.887 24.92 344.044 24.5189 346.944 24.5146C348.181 24.5147 347.894 24.9897 348.213 24.9907C348.346 24.9907 349.311 24.4216 350.104 24.4194C356.577 24.4067 363.212 24.7669 369.717 24.7563C374.3 24.75 378.957 24.2924 383.549 24.3389C384.527 24.3494 384.009 24.7672 384.436 24.782C384.582 24.7857 384.759 24.0567 386.27 24.3498C386.816 24.4555 386.188 24.9653 386.725 24.9907C386.986 25.0028 387.097 24.3638 388.624 24.218C391.399 23.9518 392.891 24.8037 393.139 24.7783C393.606 24.7292 393.469 24.2004 394.088 24.1814C397.116 24.0884 399.643 23.9987 402.345 23.9543C403.606 23.9332 412.305 23.8263 412.783 23.9214C413.852 24.1327 412.857 25.237 414.227 25.1994C414.611 24.9199 414.995 24.6404 415.379 24.3608C414.769 24.1484 414.159 23.936 413.549 23.7236C415.228 24.0787 417.132 23.5764 418.376 23.5955C418.605 23.5998 420.719 24.1006 421.797 24.0459C421.339 24.2534 420.881 24.4609 420.422 24.6684C420.585 24.8454 420.747 25.0224 420.909 25.1994C423.065 24.9311 425.345 24.938 427.557 24.976C428.354 24.989 428.084 25.419 428.892 25.4338C433.593 25.5245 432.406 23.7365 436.929 27.0927C435.402 26.7884 429.83 27.2153 429.02 27.1037C428.456 27.0255 426.267 24.1896 427.07 27.1C422.556 27.0873 426.477 25.4821 422.261 25.8329C422.345 26.1882 422.429 26.5434 422.513 26.8986C421.041 27.1225 419.954 27.302 419.06 26.6752C418.76 28.3985 413.759 27.3903 411.016 27.5065C407.052 27.6714 402.574 28.0917 398.647 28.1656C397.294 28.1907 396.528 27.5154 396.358 27.5175C396.11 27.5223 395.413 28.1138 394.918 28.118C393.069 28.1349 387.444 27.135 386.045 28.7772C397.046 28.7772 408.048 28.7772 419.049 28.7772C417.666 27.97 428.795 27.8911 429.359 27.9313C429.881 27.9674 429.442 28.5341 429.597 28.5685C430.753 28.8115 431.74 27.9899 432.107 27.9899C432.387 27.99 432.952 28.3755 433.947 28.3671C434.13 28.3659 434.181 27.9581 434.377 27.9569C435.675 27.9569 436.957 27.9627 438.26 27.9606C438.339 27.9645 438.668 28.5601 438.997 28.5611C439.327 28.5611 439.653 27.9661 439.736 27.9642C440.777 27.9685 442.563 28.3555 443.554 28.3597C443.897 28.3596 443.659 27.9234 444.044 27.9276C445.228 27.9382 444.838 28.7919 446.302 28.5721C446.792 28.4981 446.76 27.8452 447.7 27.9313C448.365 27.9926 448.293 29.1561 448.399 29.1983C448.545 29.2494 450.84 28.3306 451.591 29.0921C449.95 31.1026 453.386 29.197 453.221 28.3487C454.131 28.5624 455.04 28.776 455.95 28.9896C456.26 28.7748 456.57 28.5599 456.881 28.3451C460.551 29.3131 462.79 28.7319 466.401 29.0299C466.575 29.0447 469.617 29.5223 469.475 29.8245C467.654 30.3444 465.837 30.3681 464.672 29.4071C462.754 31.2395 462.721 29.7792 459.624 30.0223C458.588 30.1047 458.514 30.6018 458.395 30.6082C454.363 30.8554 447.904 31.0694 445.188 29.6158C444.426 30.0089 447.164 30.1648 446.099 30.4544C445.519 30.613 431.547 31.0772 436.011 29.4034C435.548 29.4498 435.085 29.4962 434.621 29.5426C434.158 31.1235 431.854 30.7619 432.115 29.1873C431.897 29.5096 431.679 29.8318 431.461 30.1541C431.029 30.4268 430.519 30.5728 429.803 30.6595C427.063 30.989 410.759 30.4406 409.892 30.6668C409.872 31.0403 409.852 31.4138 409.833 31.7874C417.036 32.2101 424.023 31.2819 431.878 32.3513C431.649 32.001 431.421 31.6506 431.193 31.3003C434.327 31.791 437.461 32.2817 440.595 32.7724C437.278 33.4065 432.001 33.939 428.519 33.4169C427.9 33.3238 428.354 32.8353 428.211 32.7761C427.84 32.6224 427.44 33.47 426.106 33.5524C424.77 33.6347 421.416 33.0338 421.109 33.0507C420.516 33.0856 418.917 34.0554 417.908 34.0431C416.582 34.0262 417.471 33.426 417.205 33.4133C416.104 33.3543 415.117 33.6517 414.255 33.6074C412.975 33.5414 410.315 32.4858 409.42 34.0358C410.335 34.1066 411.249 34.1774 412.164 34.2482C407.204 34.8041 403.327 32.8226 398.441 34.3508C397.331 36.2276 401.368 35.9739 397.954 36.775C398.574 36.7481 399.194 36.7213 399.814 36.6944C399.959 36.3014 400.104 35.9083 400.25 35.5153C401.317 35.796 402.385 36.0768 403.452 36.3575C403.148 36.0072 402.843 35.6569 402.539 35.3065C406.323 35.0423 410.146 34.6831 411.467 36.5663C411.545 36.111 411.623 35.6556 411.701 35.2003C415.215 35.7539 420.49 33.8241 419.504 36.3575C419.671 36.2233 419.837 36.089 420.003 35.9547C422.128 36.4725 421.22 35.4249 422.019 35.3065C422.246 35.2732 426.375 35.8141 424.545 36.5663C428.573 37.1411 427.331 34.7733 428.441 34.6693C431.019 35.8424 435.657 34.0828 433.707 35.9364C434.091 36.006 434.475 36.0756 434.859 36.1451C436.121 34.6868 437.365 36.3368 438.732 36.8885C439.195 36.9215 439.658 36.9544 440.121 36.9874C440.432 36.4967 440.742 36.006 441.052 35.5153C445.41 37.8508 444.031 31.4636 446.022 36.8299C445.711 37.151 445.401 37.472 445.091 37.793C444.355 37.9456 443.62 38.0982 442.884 38.2508C445.851 38.3924 448.818 38.534 451.785 38.6756C455.551 40.1797 457.694 38.5477 461.878 39.7375C462.269 39.5947 462.661 39.4519 463.053 39.3091C462.654 40.5244 461.134 40.3458 463.964 40.8911C464.206 41.7503 462.294 41.8615 461.423 41.2023C461.213 41.0415 463 40.3833 460.991 40.3601C459.625 40.3435 462.105 41.3761 458.014 40.9936C458.165 41.2036 458.317 41.4135 458.468 41.6235C458.025 41.6174 457.581 41.6113 457.138 41.6052C456.743 41.1193 456.349 40.6335 455.954 40.1477C454.94 40.8494 454.371 41.8327 452.054 41.6235C452.683 41.3192 451.83 40.3436 450.684 40.3601C450.684 40.7116 450.684 41.0632 450.684 41.4147C447.908 41.6409 448.866 40.6095 446.559 41.4147C446.328 41.1352 446.097 40.8557 445.866 40.5761C444.609 41.728 439.981 42.5117 440.825 40.7849C439.526 42.4631 436.8 41.7059 435.786 40.3638C435.708 40.7129 435.63 41.062 435.552 41.4111C435.012 41.4819 434.472 41.5527 433.933 41.6235C433.632 41.4123 433.33 41.2011 433.029 40.99C432.647 41.2011 432.264 41.4123 431.882 41.6235C431.651 41.2731 431.42 40.9228 431.189 40.5725C430.574 40.9924 429.959 41.4123 429.344 41.8322C428.968 41.5527 428.592 41.2731 428.216 40.9936C428.177 41.7243 424.449 41.8871 423.408 41.4074C423.098 41.6198 422.788 41.8322 422.478 42.0446C422.326 41.6967 422.174 41.3488 422.023 41.0009C421.792 41.2793 421.561 41.5576 421.33 41.8359C420.798 41.5576 420.266 41.2793 419.734 41.0009C417.564 42.7065 417.494 41.2101 416.999 41.2207C416.08 41.2402 412.952 42.3083 412.429 42.2533C411.907 42.198 411.655 41.5858 411.233 41.5283C404.283 40.5666 407.14 42.2093 405.746 42.4694C404.993 42.611 404.461 42.0399 403.796 42.1032C402.658 42.2089 396.918 42.9645 396.588 42.8905C396.107 42.7838 397.239 40.0909 395.676 40.7849C395.624 42.2309 392.282 40.7714 393.844 42.788C392.468 42.611 391.091 42.434 389.715 42.257C389.871 43.9711 388.174 42.8687 386.325 42.9638C383.705 43.0971 377.806 44.2241 378.022 42.4657C377.394 42.8698 376.767 43.2738 376.139 43.6779C371.845 43.1243 367.634 43.7043 363.372 43.7255C350.724 43.791 337.001 43.4093 324.412 43.0626C323.807 43.0455 323.894 42.4711 323.459 42.4584C321.169 42.395 315.219 42.8013 312.012 42.6745C310.985 42.6343 310.485 42.074 310.159 42.0483C309.053 41.9574 309.314 42.6956 308.805 42.6745C308.002 42.6406 303.753 41.9553 302.29 41.8835C301.565 41.8479 300.708 42.4345 299.86 42.2533C299.787 42.2386 299.922 41.634 299.86 41.6235C298.314 41.5495 299.244 42.0721 298.721 42.0446C294.991 41.8481 291.004 41.8361 286.958 41.7114C285.953 41.6797 284.416 41.2535 283.553 41.2133C283.224 41.1991 283.814 41.6578 282.677 41.6198C282.288 41.6068 282.155 41.0103 281.715 40.9716C279.82 40.8089 279.186 42.7257 277.558 41.184C274.416 41.2855 268.945 41.7777 266.078 41.7883C265.4 41.79 265.069 41.4377 264.423 41.444C263.964 41.4483 263.157 41.994 262.441 42.0007C261.726 42.007 260.596 41.4873 259.22 41.5063C257.771 41.5254 255.969 41.8341 255.642 41.8322C255.247 41.8322 255.064 41.1758 254.669 41.184C253.476 41.2052 250.283 41.8503 248.746 41.9201C247.094 41.994 246.103 41.6757 245.539 41.6821C245.016 41.6909 244.407 42.2448 244.168 42.2497C243.797 42.2581 243.709 41.6108 243.237 41.6162C242.467 41.6267 241.672 42.0338 240.517 42.0446C219.706 42.2454 199.303 41.8897 179.057 41.4184C176.8 41.3656 175.525 41.8196 172.199 41.6125C170.85 41.528 171.418 40.8599 170.369 40.9863C169.901 41.0434 170.019 41.5687 169.428 41.5942C166.813 41.7041 163.766 41.2159 162.633 41.2243C162.183 41.2268 161.67 41.8235 160.748 41.8322C153.88 41.8998 145.755 41.7323 138.364 41.8359C134.451 41.8908 128.526 42.1949 124.035 42.235C111.625 42.347 98.2753 42.2088 86.9575 42.268C69.868 42.3546 52.8605 42.9064 35.8076 42.2533C43.7857 43.6969 54.6496 43.5764 63.5315 43.7328C89.1862 44.1809 116.502 43.3422 142.795 43.3739C151.943 43.3845 163.477 43.3513 173.492 43.6852C173.946 43.7 174.887 43.2411 175.869 43.2897C176.078 43.301 178.664 44.1381 179.535 44.1466C178.709 42.6586 182.123 43.9848 183.178 43.9488C184.509 43.9021 187.284 43.1585 190.399 43.579C193.225 43.9594 192.445 44.5318 192.601 44.5677C193.601 44.7997 193.949 43.8773 194.715 43.7841C197.844 43.4121 213.938 43.948 218.43 43.9818C219.591 43.9903 219.623 44.5766 219.885 44.5787C220.577 44.5826 221.563 44.0035 222.673 44.0074C224.673 44.0159 226.977 44.5693 228.078 44.5714C230.712 44.5777 235.709 43.9249 239.131 43.9122C240.093 43.9084 240.035 44.5186 240.47 44.5165C242.388 44.5057 247.384 43.7867 249.765 43.7804C253.632 43.7698 257.61 44.1643 261.542 43.9635C261.791 44.2357 262.041 44.5079 262.29 44.7801C262.683 44.4945 263.076 44.2088 263.469 43.9232C270.116 44.1409 276.883 43.5278 283.494 43.568C284.256 43.5723 288.026 44.0932 288.655 44.0953C289.178 44.0953 289.693 43.4211 290.468 43.5204C291.554 43.6582 290.533 44.9423 292.307 44.575C292.784 44.4757 292.321 43.926 293.279 43.7548C293.596 43.6977 299.74 43.475 300.07 43.5131C300.621 43.5772 301.112 44.7548 301.254 44.7801C301.992 44.913 301.961 44.0093 302.456 43.9269C303.918 43.6802 305.828 44.2881 306.065 44.2748C308.937 44.1078 314.306 43.3864 317.32 43.8134C317.737 43.8729 317.687 44.5459 317.76 44.5677C318.233 44.7071 318.526 43.9409 318.975 43.9232C321.393 43.8366 325.179 44.3525 327.611 44.4835C327.891 44.4978 328.482 44.1292 328.982 44.1649C331.808 44.372 330.891 44.9635 331.052 44.9889C331.433 45.0516 332.102 44.3993 333.115 44.359C335.726 44.2512 340.732 44.3449 343.53 44.3956C345.627 44.4358 345.595 45.1828 345.733 45.1976C346.027 45.2244 346.844 44.628 348.224 44.5604C350.88 44.4273 350.577 45.0142 351.669 44.9889C351.761 44.9889 351.601 44.4145 352.812 44.3553C355.152 44.2414 360.409 44.806 362.913 44.7765C363.877 44.7659 364.102 44.2121 365.089 44.2015C366.652 44.1826 370.182 44.7816 370.46 44.7801C370.538 44.7801 370.713 44.1429 371.172 44.1429C371.676 44.143 372.173 44.471 372.549 44.4688C374.691 44.46 378.382 43.3481 377.356 45.6224C378.043 45.0609 378.729 44.4994 379.416 43.9379C383.903 44.0499 388.261 43.8249 392.707 43.7108C393.707 43.6855 394.542 44.1162 395.385 44.0953C396.229 44.0742 399.952 43.3617 400.574 43.3483C401.684 43.325 407.993 43.25 408.778 43.3007C410.31 43.3979 411.797 44.3378 412.421 44.1539C412.921 44.006 412.458 43.4764 413.413 43.3263C415.064 43.0667 417.871 43.747 418.376 43.7364C418.591 43.7321 418.188 43.3193 420.206 43.2897C421.293 43.2728 421.877 43.7276 422.271 43.7255C422.394 43.7231 422.21 42.9856 424.362 43.0846C425.849 43.1544 426.482 43.7234 426.638 43.7255C426.873 43.7292 427.438 43.1221 428.378 43.1432C430.575 43.1962 434.593 43.8923 436.681 43.9452C437.084 43.9558 436.947 43.2222 438.557 43.2897C439.708 43.3383 439.507 43.9218 439.938 43.9452C440.622 43.9811 441.64 43.2666 443.149 43.2897C445.049 43.3193 459.152 44.0604 459.881 44.2528C460.372 44.3817 460.942 44.3898 461.185 44.7069C460.976 45.0108 460.768 45.3148 460.559 45.6187C458.4 44.5521 459.271 45.7711 458.698 45.8494C457.868 45.9614 454.738 45.8059 453.981 46.0765C453.711 46.1742 454.329 46.823 452.88 47.1568C451.325 47.5136 450.633 46.3586 450.014 47.9368C447.807 46.1846 445.688 48.0443 448.243 48.541C449.67 48.8179 463.663 49.4435 466.521 49.5407C468.838 49.6188 473.177 49.1493 476.026 49.2697C477.7 49.3416 481.825 49.423 481.65 50.2621C483.137 50.3678 481.564 49.5325 481.876 49.4162C482.528 49.1735 487.167 49.7504 488.045 49.7275C492.376 49.6176 497.841 48.6796 502.048 49.7385C501.852 49.9631 501.657 50.1877 501.461 50.4123C500.516 50.8244 496.13 50.2352 495.634 51.3131C502.048 51.3131 508.462 51.3131 514.876 51.3131C514.757 50.3958 522.712 50.4082 523.089 50.8224C522.949 51.2667 522.809 51.7111 522.67 52.1554C518.174 50.4691 518.577 52.6981 515.559 51.5145C514.33 51.4978 514.701 52.232 514.095 52.3714C508.068 53.7575 513.998 50.865 509.385 51.5219C510.773 52.5867 506.995 52.9758 505.302 53.1112C504.916 53.1408 499.855 52.8709 499.254 52.8878C495.877 52.9829 490.079 53.5663 486.725 52.983C484.083 52.9132 482.628 53.6717 480.229 53.8472C478.408 53.9804 478.93 53.4473 478.073 53.4407C476.274 53.4259 475.682 55.0489 474.531 52.7852C473.312 53.0672 472.092 53.3492 470.873 53.6312C470.873 53.2796 470.873 52.9281 470.873 52.5765C470.107 52.5765 469.342 52.5765 468.576 52.5765C468.351 52.9268 468.125 53.2772 467.9 53.6275C465.47 53.1477 466.484 52.3012 466.03 51.3058C465.505 51.2374 464.98 51.1691 464.455 51.1007C464.049 51.8649 463.642 52.629 463.236 53.3931C460.891 53.3309 458.547 53.2686 456.203 53.2064C456.051 52.856 455.899 52.5057 455.748 52.1554C455.743 52.5057 455.738 52.856 455.733 53.2064C451.763 53.2784 447.793 53.3504 443.823 53.4224C442.767 53.9844 449.128 54.4103 449.61 54.4441C452.289 54.6301 459.405 54.0666 459.414 55.3157C461.079 54.3837 466.094 54.6151 467.654 55.7332C465.286 55.666 462.919 55.5989 460.551 55.5317C460.628 55.9504 460.704 56.3691 460.781 56.7878C457.831 55.0991 457.399 55.1921 454.367 56.7878C454.364 56.2263 454.361 55.6648 454.358 55.1033C452.244 57.0558 448.506 53.7437 448.399 56.1543C447.273 55.959 446.147 55.7637 445.021 55.5684C442.59 55.8622 446.365 57.7161 436.847 56.9892C436.191 56.9385 436.328 56.3244 435.341 56.3667C435.057 56.3794 433.428 57.2726 430.313 57.1796C429.827 57.1648 429.79 56.6321 429.285 56.5644C428.12 56.4038 425.8 57.4574 426.853 55.7405C422.239 55.2397 424.151 56.6489 422.72 57.2089C421.766 57.5806 421.958 56.5648 421.132 56.7951C420.11 57.0808 420.86 58.1049 416.769 57.6337C417.228 57.5641 417.687 57.4946 418.146 57.425C417.915 57.1467 417.684 56.8684 417.453 56.5901C415.118 57.2579 415.339 56.2821 414.238 57.8461C412.54 57.1487 411.072 57.0931 408.75 57.2199C404.241 57.4672 406.553 59.1527 401.406 56.883C400.572 57.2016 399.738 57.5202 398.904 57.8388C397.533 57.1689 398.642 56.3307 396.596 56.1616C398.197 57.8165 393.881 57.2131 393.151 58.6884C393.075 58.3368 392.998 57.9853 392.922 57.6337C392.465 57.6337 392.008 57.6337 391.551 57.6337C391.55 57.9157 391.548 58.1977 391.547 58.4797C390.938 58.2685 390.33 58.0573 389.721 57.8461C389.263 58.1257 388.806 58.4052 388.348 58.6847C387.596 58.0951 386.843 57.5056 386.091 56.916C385.618 56.8757 385.146 56.8354 384.674 56.7951C384.823 57.215 384.973 57.6349 385.122 58.0549C384.515 57.9145 383.908 57.7741 383.301 57.6337C384.007 58.3228 383.563 59.1306 381.673 59.1095C380.113 59.0926 381.87 57.6545 378.517 58.2526C378.283 58.2952 377.869 59.3209 374.699 59.4794C370.898 59.6694 372.744 58.9265 372.067 58.9008C371.934 58.8966 370.773 59.4127 369.685 59.4867C369.068 59.5288 368.474 59.1121 368.392 59.1132C368.012 59.1322 367.901 59.7217 367.373 59.743C366.034 59.7938 364.236 59.5049 362.924 59.5343C362.327 59.547 361.766 59.8963 361.5 59.9005C361.087 59.9045 360.564 59.3711 360.146 59.3732C358.605 59.3843 356.265 61.1544 355.55 58.6957C354.068 60.9565 350.964 58.2231 351.191 59.7394C347.231 59.1671 336.67 61.0273 336.979 58.4797C334.737 60.658 334.937 59.0805 333.998 59.1132C332.947 59.1491 333.491 59.5716 332.656 59.5526C330.707 59.5082 328.844 59.3267 326.904 59.3182C327.208 58.9691 327.513 58.62 327.817 58.2709C325.781 58.1589 326.482 58.9713 324.404 59.1278C320.582 59.4131 322.193 58.7649 321.629 57.8498C321.78 58.7333 317.274 58.5959 316.815 58.4797C316.542 58.4088 317.74 57.2701 314.981 57.6374C315.132 57.9877 315.283 58.3381 315.434 58.6884C314.176 58.2092 310.762 58.8172 310.182 58.6994C309.916 58.6444 308.493 55.8191 307.19 58.0549C307.033 57.7045 306.875 57.3542 306.718 57.0039C305.272 57.425 303.825 57.8461 302.378 58.2673C302.147 57.6362 301.916 57.0051 301.685 56.374C301.226 56.374 300.767 56.374 300.308 56.374C300.613 56.9343 300.918 57.4946 301.222 58.0549C298.388 57.8013 294.925 58.6848 294.341 56.7951C293.734 57.1455 293.126 57.4958 292.519 57.8461C292.124 57.2175 291.729 56.5888 291.334 55.9602C288.522 56.1188 288.476 56.539 286.554 57.2089C286.629 56.7182 286.704 56.2275 286.779 55.7368C285.361 56.4258 282.773 57.0674 280.727 57.154C279.755 57.194 278.084 56.5178 277.855 56.5791C277.623 56.6437 275.342 59.3004 275.095 57.0002C271.736 58.0189 270.258 56.9785 268.895 57.0039C268.01 57.0209 267.606 57.573 266.606 57.6301C265.175 57.7125 263.735 57.4456 262.909 57.4836C262.436 57.5068 262.348 58.0453 262.022 58.0622C260.482 58.1443 261.385 57.5941 259.761 57.6301C259.611 57.6363 258.424 58.2931 257.086 58.2087C256.339 58.162 254.404 57.4232 254.233 57.425C253.476 57.4377 254.081 58.9146 251.494 57.2089C251.569 57.4897 251.644 57.7704 251.719 58.0512C248.517 58.7635 248.011 57.5117 247.364 57.425C247.282 57.4179 246.502 57.9018 246.036 57.8351C245.248 57.7212 244.93 57.0587 244.755 57.0295C244.141 56.928 242.07 57.2195 240.717 56.5791C241.001 58.4644 236.259 59.1349 235.208 57.0002C234.369 57.4213 233.529 57.8425 232.69 58.2636C232.31 57.912 231.93 57.5605 231.551 57.2089C231.32 57.5593 231.089 57.9096 230.858 58.2599C229.634 57.4885 228.411 56.717 227.187 55.9455C227.11 56.7182 227.032 57.4909 226.954 58.2636C226.611 58.1757 226.269 58.0878 225.926 57.9999C225.659 57.3859 225.391 56.7719 225.124 56.1579C224.696 56.2751 224.268 56.3923 223.839 56.5095C223.733 56.9538 223.627 57.3981 223.521 57.8425C221.22 58.3547 222.402 54.1168 218.017 57.8425C217.335 57.4921 216.653 57.1418 215.97 56.7915C215.2 58.4965 213.756 57.4641 212.591 57.6557C211.77 57.7909 211.814 58.4683 210.696 58.4833C209.576 58.4981 209.616 57.8504 209.529 57.8461C208.616 57.8063 207.929 58.3774 207.259 58.2636C207.158 58.2467 206.905 57.4775 206.052 57.4287C205.199 57.38 204.685 58.1982 203.414 58.0439C202.763 57.9657 202.575 57.3176 201.997 57.2602C199.244 56.9812 196.472 60.2631 194.408 56.3703C193.942 56.8635 190.567 58.5899 189.122 58.4906C186.876 58.3321 187.742 57.5685 186.848 57.4287C186.72 57.4075 186.036 57.6655 184.151 57.6191C183.814 57.6107 183.892 58.0418 183.843 58.0475C181.646 58.0391 177.379 57.6987 174.966 57.6374C174.75 57.6311 173.621 58.8328 171.708 57.2163C168.873 58.4103 163.533 55.8449 159.794 57.6447C159.276 57.6828 158.646 57.2529 158.417 57.2675C156.44 57.4007 157.164 58.7058 152.696 56.7951C153.058 57.4607 152.012 58.0615 150.535 58.0109C148.315 57.9348 149.892 56.6937 148.107 56.7951C148.107 57.1455 148.107 57.4958 148.107 57.8461C144.002 56.9038 143.185 58.4016 139.065 58.4101C137.584 58.4122 135.395 57.6358 135.041 57.6337C134.905 57.636 133.284 58.4806 133.129 58.487C132.258 58.5123 131.766 58.1229 131.013 58.1208C128.527 58.1125 125.56 59.2113 126.096 57.2163C125.413 57.6374 124.729 58.0585 124.045 58.4797C121.463 56.3492 119.531 59.2854 118.99 57.2163C118.528 57.6435 118.066 58.0707 117.604 58.498C106.526 58.2819 95.4478 58.0658 84.3696 57.8498C83.9292 58.5156 79.0983 58.2793 78.8505 58.1757C77.713 57.7064 78.9145 56.2546 76.5932 56.5864C76.3363 57.2224 76.0794 57.8583 75.8225 58.4943C72.9048 58.7014 74.3082 58.0686 73.1567 57.6374C72.6755 57.7158 72.8309 58.2094 72.1796 58.2453C68.647 58.4418 61.4036 58.4651 57.5407 58.5053C56.7618 58.5137 56.8793 58.0524 56.6374 58.0512C55.9723 58.0554 54.6598 58.6368 53.3251 58.6371C45.0719 58.6329 33.377 58.305 25.0685 57.8168C24.5042 57.783 24.4344 57.2327 24.0536 57.2053C23.5258 57.1695 22.3471 57.6143 21.792 57.5678C21.2692 57.5255 20.9343 57.1076 20.3749 57.0588C17.8149 56.8305 14.373 57.5366 11.6341 56.3044C11.4037 56.2005 8.53411 53.9852 8.46918 53.8399C8.08839 52.9776 10.6385 51.6228 6.4498 50.361C10.1934 49.2598 9.02396 47.3132 4.16089 46.3621C6.60001 46.1167 9.03912 45.8714 11.4782 45.626C11.4818 45.3953 11.4853 45.1646 11.4888 44.9339C9.26841 43.7906 7.06549 43.41 3.68921 43.3043C3.79449 43.0907 3.89978 42.8771 4.00507 42.6635C6.98712 41.5962 10.5844 41.3989 12.8554 39.9426C9.52484 38.8648 6.19431 37.7869 2.86377 36.7091C3.03012 36.5406 3.19647 36.3722 3.36282 36.2037C4.95938 35.7662 8.44674 35.5094 9.77261 35.1015C14.8365 33.546 5.34062 33.9375 6.90042 32.9885C12.2468 33.0227 17.5932 33.0568 22.9396 33.091C23.1271 32.3922 2.55925 30.462 2.77112 28.3524C4.45148 28.2108 6.13184 28.0692 7.81219 27.9276C7.06326 27.3917 6.31433 26.8559 5.5654 26.32C5.77176 26.1503 5.97812 25.9806 6.18448 25.811C9.01947 25.3947 11.8545 24.9785 14.6895 24.5622C6.07009 24.9806 2.06459 24.6769 0 20.4571C0.233734 20.3497 0.467468 20.2423 0.701202 20.1349C2.56844 22.7747 11.3824 21.9209 16.0666 21.3946C15.1119 20.6213 10.9875 21.2187 10.1158 20.7538C9.86886 20.6205 10.7302 20.0837 10.158 19.809C8.66239 19.0946 2.28927 18.1755 3.21542 17.3005C3.81184 16.7383 14.0663 15.9669 16.0666 16.0261C11.378 15.0159 6.547 14.7236 1.8446 13.4957C4.81281 11.7837 7.44156 9.68865 12.8596 9.59565C14.511 8.69739 3.04142 7.45302 2.77533 6.96268C4.76031 6.43657 6.7453 5.91046 8.73029 5.38436C7.05133 5.52473 5.37238 5.66511 3.69342 5.80549C3.68851 5.62971 3.68359 5.45393 3.67868 5.27816C8.02792 4.46232 12.0069 2.96486 16.9847 3.06631C16.8241 2.13634 13.8457 2.22885 12.4005 2.22039ZM488.734 55.1143C488.834 55.8854 487.009 55.7589 485.982 55.7441C486.136 55.8845 486.291 56.0249 486.445 56.1653C484.252 56.0194 480.17 55.7235 480.018 57.2199C478.454 57.4059 479.146 56.1046 478.641 55.9565C478.444 55.8974 476.402 56.6547 474.769 55.7332C474.381 55.7368 473.992 55.7405 473.604 55.7441C473.529 56.2348 473.454 56.7256 473.379 57.2163C472.838 56.6206 472.297 56.0249 471.755 55.4292C477.412 55.3242 483.069 55.2193 488.725 55.1143C488.728 55.1143 488.731 55.1143 488.734 55.1143ZM432.349 55.7478C430.289 55.4709 427.134 55.0337 427.771 56.3777C429.073 56.3069 430.374 56.2361 431.675 56.1653C431.9 56.0261 432.125 55.887 432.349 55.7478ZM227.428 54.6895C225.707 53.3664 224.123 54.5108 221.462 54.272C221.466 54.5515 221.469 54.8311 221.473 55.1106C222.561 54.4394 225.437 54.886 227.428 54.6895ZM539.848 50.0571C540.227 50.1608 540.606 50.2646 540.985 50.3683C539.444 51.8711 539.168 50.8121 537.424 50.9579C537.319 50.967 537.356 51.311 537.319 51.3131C536.892 51.3363 536.498 50.9223 536.112 50.9286C535.369 50.9413 534.763 51.3609 533.447 51.3461C532.428 51.3333 532.419 50.6737 532.061 50.6906C531.756 50.7069 528.735 52.5214 526.79 51.7379C523.093 50.2457 538.719 49.9176 539.848 50.0571ZM550.808 51.2985C550.442 51.3046 550.077 51.3107 549.711 51.3168C550.811 50.3029 548.591 50.457 546.963 50.4782C547.014 49.5059 550.458 49.9218 552 49.6323C551.603 50.1877 551.205 50.7431 550.808 51.2985ZM504.562 49.2148C505.993 49.1157 505.755 50.3292 505.695 50.6906C505.24 50.6906 504.784 50.6906 504.329 50.6906C504.407 50.1987 504.485 49.7067 504.562 49.2148ZM515.325 48.7937C514.88 49.618 511.773 49.9784 510.301 50.0461C510.236 50.0462 510.641 49.5938 509.599 49.6359C509.287 49.6491 506.21 51.2952 506.887 49.4272C509.698 49.216 512.509 49.0048 515.321 48.7937C515.322 48.7937 515.323 48.7937 515.325 48.7937ZM518.462 49.2807C517.877 49.5395 517.292 49.7983 516.706 50.0571C516.404 49.6701 516.101 49.2832 515.799 48.8962C516.465 48.7985 517.131 48.7009 517.797 48.6032C518.019 48.8291 518.241 49.0549 518.462 49.2807ZM78.0335 48.1821C78.1697 48.5959 78.3058 49.0097 78.442 49.4235C78.9696 49.6772 81.5345 47.8754 80.7225 47.5266C79.8262 47.7451 78.9298 47.9636 78.0335 48.1821ZM67.2017 47.3142C66.6683 47.1055 66.1348 46.8968 65.6014 46.688C64.9879 47.3899 64.3745 48.0918 63.761 48.7937C66.4259 49.267 69.2614 49.8124 68.8042 47.7427C69.4141 47.7427 70.0241 47.7427 70.634 47.7427C70.1204 48.5985 70.1895 48.8804 71.7859 49.4235C72.135 48.2327 73.7857 48.8394 75.6751 48.5776C74.3008 48.508 72.9265 48.4385 71.5521 48.3689C71.5521 48.1589 71.5521 47.949 71.5521 47.739C74.6154 47.8149 70.8081 46.4831 68.8126 47.3179C68.6554 47.0384 68.4981 46.7588 68.3409 46.4793C67.9612 46.7576 67.5815 47.0359 67.2017 47.3142ZM288.624 47.739C288.244 47.5278 287.864 47.3167 287.485 47.1055C286.013 49.856 289.009 47.2468 291.142 49.4235C290.438 47.77 293.689 47.8391 293.875 47.728C293.501 47.1714 293.127 46.6148 292.753 46.0582C291.377 46.6184 290 47.1787 288.624 47.739ZM277.859 45.8421C279.176 47.2138 272.708 47.2979 270.538 46.9956C270.01 46.9213 269.07 46.1681 268.689 46.2632C268.458 46.5415 268.227 46.8199 267.996 47.0982C267.723 46.1363 263.485 47.2177 261.816 47.7353C261.659 47.385 261.501 47.0347 261.344 46.6844C260.736 46.8235 260.127 46.9627 259.519 47.1018C259.595 46.7527 259.672 46.4036 259.748 46.0545C259.288 46.4744 258.827 46.8943 258.367 47.3142C256.559 47.7813 257.674 45.8781 256.316 46.472C254.806 47.1314 257.28 48.2648 257.234 49.0024C258.459 48.8122 261.244 48.3863 262.488 48.3652C263.201 48.3538 262.392 49.6754 265.469 48.1565C266.144 48.5105 266.818 48.8645 267.493 49.2185C268.731 48.6557 269.969 48.093 271.207 47.5303C271.438 48.0198 271.669 48.5093 271.9 48.9987C272.032 49.0754 274.896 47.9639 274.743 47.5962C275.903 48.5319 278.284 48.6987 280.793 48.7461C281.034 48.48 281.276 48.2139 281.517 47.9477C279.091 48.5224 280.745 47.6662 280.022 47.1568C279.604 46.863 278.327 46.2859 277.859 45.8421ZM94.9361 47.1091C90.8623 48.3033 93.3845 47.318 88.9811 47.3179C89.2885 47.9502 89.596 48.5825 89.9034 49.2148C92.0684 48.0595 95.6308 48.8278 94.9403 47.1091C94.9389 47.1091 94.9375 47.1091 94.9361 47.1091ZM51.8469 49.2111C54.1771 48.8286 53.0077 47.8453 55.9614 47.5303C55.9628 47.5303 55.9642 47.5303 55.9656 47.5303C54.4383 47.4595 52.9109 47.3887 51.3836 47.3179C51.538 47.949 51.6924 48.5801 51.8469 49.2111ZM188.068 48.4458C190.302 48.7205 189.862 48.2285 191.889 49.2111C194.908 48.0191 192.353 48.1876 192.353 47.1055C191.663 47.4229 190.973 47.7402 190.283 48.0576C188.61 47.0457 190.196 46.5362 190.196 46.439C190.195 46.439 190.194 46.439 190.192 46.439C190.192 46.1142 190.246 46.0458 189.605 45.8494C189.092 46.7149 188.58 47.5803 188.068 48.4458ZM197.63 47.1091C196.863 47.8278 196.519 48.7504 198.533 49.2111C198.534 49.2111 198.536 49.2111 198.537 49.2111C198.699 47.6051 200.63 48.9014 201.51 48.7937C201.741 48.6191 201.972 48.4446 202.203 48.27C200.679 47.8831 199.154 47.4961 197.63 47.1091ZM231.321 45.6334C231.33 47.4075 229.639 47.5763 232.018 49.2111C232.48 49.1794 232.942 49.1477 233.404 49.1159C233.707 48.7265 234.01 48.3371 234.313 47.9477C240.172 51.1582 241.918 45.6915 232.018 47.7353C232.017 47.7366 232.015 47.7378 232.014 47.739C231.783 47.0371 231.552 46.3352 231.321 45.6334ZM221.003 45.7835C220.929 46.7149 220.854 47.6462 220.78 48.5776C219.486 46.3309 217.815 48.4746 215.278 46.8894C215.048 47.1726 214.819 47.4558 214.589 47.739C213.641 47.1158 204.328 46.9363 206.345 48.3689C207.226 48.9945 209.145 48.1448 209.31 48.1638C209.87 48.2341 210.599 49.0342 211.544 48.9878C212.09 48.9598 213.241 48.0193 214.355 48.021C216.846 48.0252 221.393 50.5503 224.669 48.1601C224.905 48.4409 225.141 48.7216 225.377 49.0024C227.807 48.8311 226.996 47.9415 229.257 49.0024C230.82 44.5785 220.166 49.2206 222.384 45.6334C222.383 45.6334 222.382 45.6334 222.38 45.6334C221.921 45.6834 221.462 45.7335 221.003 45.7835ZM154.077 47.1091C153.93 46.3147 151.111 47.5405 151.773 45.637C150.853 46.2998 149.933 46.9627 149.013 47.6255C149.02 47.8025 149.027 47.9795 149.034 48.1565C149.949 48.0173 150.863 47.8782 151.778 47.739C151.781 48.0198 151.785 48.3005 151.788 48.5813C153.151 47.5656 158.839 48.008 158.665 49.0024C158.969 48.5825 159.273 48.1626 159.577 47.7427C162.298 48.8861 164.638 47.6704 167.602 48.7863C167.832 48.4385 168.061 48.0906 168.291 47.7427C168.44 48.0234 168.59 48.3042 168.739 48.5849C169.819 48.6203 170.898 48.6557 171.978 48.6911C175.496 47.5607 168.66 46.0972 167.832 46.2632C167.722 46.2865 167.739 47.0133 167.05 47.1275C165.828 47.3278 158.987 46.6041 156.871 47.0835C156.853 46.6014 156.835 46.1192 156.817 45.637C155.903 46.1277 154.99 46.6184 154.077 47.1091ZM244.393 47.5303C244.548 48.021 244.702 48.5117 244.857 49.0024C247.521 48.5123 249.2 48.9407 248.516 47.3179C248.515 47.3179 248.513 47.3179 248.512 47.3179C247.139 47.3887 245.766 47.4595 244.393 47.5303ZM442.442 47.9477C442.372 46.9723 441.098 46.6076 439.452 47.3069C439.531 47.5901 439.61 47.8733 439.69 48.1565C440.548 47.3258 441.618 48.7736 444.265 48.5813C444.265 48.0906 444.265 47.5999 444.265 47.1091C443.658 47.3887 443.05 47.6682 442.442 47.9477ZM242.094 47.3179C241.282 46.7393 239.002 48.4946 240.502 48.5813C241.649 48.6468 242.53 47.6286 242.094 47.3179ZM42.6807 48.2627C43.2829 48.3652 43.8852 48.4678 44.4874 48.5703C44.8011 48.1528 45.1149 47.7353 45.4286 47.3179C45.4272 47.3179 45.4258 47.3179 45.4244 47.3179C44.5099 47.6328 43.5953 47.9477 42.6807 48.2627ZM180.43 48.5263C182.473 48.4653 184.515 48.4043 186.558 48.3432C186.578 48.071 186.598 47.7988 186.619 47.5266C184.573 48.52 183.75 47.4493 183.273 47.3838C183.275 47.3838 183.277 47.3838 183.279 47.3838C181.747 47.1683 180.288 47.0097 178.838 46.6844C179.369 47.2984 179.899 47.9123 180.43 48.5263ZM173.429 46.8089C173.773 48.7322 174.222 48.9562 177.36 47.6035C177.236 47.3667 177.112 47.1299 176.987 46.8931C175.361 47.0346 174.413 47.4787 174.698 46.4756C174.275 46.5867 173.852 46.6978 173.429 46.8089ZM205.414 47.4241C205.038 46.8118 202.049 47.4267 202.212 47.7353C202.276 47.8579 206.148 48.6246 205.414 47.4241ZM465.131 47.523C464.442 47.3826 463.754 47.2422 463.065 47.1018C463.981 46.8931 464.897 46.6844 465.813 46.4756C465.586 46.8247 465.358 47.1738 465.131 47.523ZM472.69 44.7874C473.181 45.0326 471.585 46.7618 474.52 47.208C472.384 47.2446 470.249 47.2813 468.113 47.3179C469.114 47.0384 470.116 46.7588 471.117 46.4793C470.943 45.9825 470.768 45.4857 470.593 44.9889C471.292 44.9217 471.991 44.8546 472.69 44.7874ZM474.984 46.0545C473.833 44.7402 479.89 44.6415 480.454 44.8021C480.58 44.8403 481.177 45.8367 481.398 46.0508C480.483 46.0521 479.568 46.0533 478.654 46.0545C478.96 46.3682 479.266 46.6819 479.572 46.9956C478.501 47.103 477.431 47.2105 476.361 47.3179C476.818 47.003 477.276 46.688 477.734 46.3731C476.817 46.2669 475.9 46.1607 474.984 46.0545ZM450.684 46.3731C451.449 46.406 452.215 46.439 452.981 46.472C452.828 45.9813 452.675 45.4905 452.522 44.9998C452.064 44.9998 451.605 44.9998 451.147 44.9998C450.992 45.4576 450.838 45.9153 450.684 46.3731ZM466.287 45.7396C465.172 48.1022 462.134 42.937 465.685 44.8497C466.043 45.0441 466.392 45.5113 466.287 45.7396ZM482.724 45.0841C485.105 43.3615 484.568 47.1647 482.32 46.0508C482.207 45.9916 482.546 45.2113 482.724 45.0841ZM500.576 45.0291C500.769 45.0419 501.106 46.2733 502.947 45.1024C503.251 45.2428 503.555 45.3831 503.859 45.5235C503.148 46.0957 497.064 46.436 497.904 45.2159C498.835 45.1969 499.613 44.9911 500.576 45.0291ZM494.685 40.4736C493.771 40.5078 492.858 40.542 491.945 40.5761C492.246 40.9619 492.547 41.3476 492.848 41.7333C492.399 41.8383 491.95 41.9433 491.501 42.0483C490.733 41.383 489.965 40.7177 489.197 40.0525C491.182 39.9463 493.167 39.8401 495.152 39.7339C494.996 39.9805 494.84 40.227 494.685 40.4736ZM470.406 39.5215C472.163 40.0055 474.316 39.4903 477.169 39.5728C477.171 39.574 477.172 39.5752 477.173 39.5764C477.316 39.582 477.568 40.1119 478.026 40.133C478.417 40.1499 486.124 39.568 485.523 40.4663C482.541 41.2714 481.427 40.0473 480.711 42.0446C480.566 41.6235 480.421 41.2023 480.275 40.7812C477.408 40.052 476.59 41.5099 474.979 42.0446C474.986 41.7272 474.992 41.4099 474.998 41.0925C473.923 41.0608 472.848 41.029 471.772 40.9973C471.924 41.206 472.076 41.4147 472.227 41.6235C471.847 41.6235 471.466 41.6235 471.086 41.6235C470.159 40.683 468.984 40.4639 470.406 39.5215ZM498.827 40.9973C499.671 38.59 507.897 40.2389 511.655 39.7339C509.682 41.1834 506.626 40.1845 504.474 40.1697C500.315 40.1423 503.19 41.0295 502.484 41.4184C502.135 41.6107 499.776 40.0673 498.827 40.9973ZM463.988 39.9426C466.061 40.1371 467.222 39.5828 469.016 40.4663C468.866 40.6421 468.716 40.8178 468.565 40.9936C467.951 40.8327 462.942 40.325 463.988 39.9426ZM517.161 40.3638C513.156 39.4993 515.131 41.6789 513.049 40.0452C514.419 39.9414 515.79 39.8376 517.161 39.7339C517.161 39.9438 517.161 40.1538 517.161 40.3638ZM237.51 38.2618C235.822 38.2067 233.937 37.7674 232.928 38.6756C234.075 38.8159 235.221 38.9563 236.368 39.0967C236.749 38.8184 237.129 38.5401 237.51 38.2618ZM285.642 29.3887C285.257 29.171 283.733 29.8135 283.572 29.8135C283.274 29.8135 283.355 29.497 283.351 29.4144C281.398 29.4717 283.2 30.4533 281.755 30.6668C281.508 30.702 278.113 30.2168 276.733 30.2566C274.609 30.3179 272.487 30.2544 271.694 30.2713C270.354 30.2989 267.867 31.0352 265.665 31.0733C264.757 31.0877 264.441 30.4982 263.528 30.513C257.669 30.6123 246.136 31.4217 240.938 31.0476C239.654 30.9547 238.429 30.1827 237.75 30.2457C237.214 30.5276 236.679 30.8096 236.143 31.0916C234.496 28.5533 233.945 30.8109 232.17 31.0476C231.042 31.1972 230.514 30.4452 230.363 30.4471C229.358 30.4619 228.863 30.8199 228.074 30.8792C227.189 30.9447 225.916 30.6055 225.6 30.6668C225.405 30.7079 226.026 31.7075 222.591 31.6885C219.09 31.6688 215.633 31.5631 212.073 31.5164C213.26 34.5342 214.283 32.4688 215.737 32.3586C216.127 32.329 215.879 32.8082 216.219 32.7871C217.178 32.73 219.013 32.2592 219.807 32.3733C220.664 32.4964 220.371 33.6069 221.458 33.1972C221.513 33.1761 221.339 32.7174 221.595 32.6406C224.164 31.8818 225.005 32.6796 228.253 32.7029C230.405 32.7197 243.475 32.2645 243.924 32.5637C246.263 34.17 232.491 34.1809 230.881 34.0541C230.317 34.0096 230.908 33.5032 230.394 33.406C230.177 33.3671 228.219 34.3327 226.284 34.413C223.944 34.5102 219.242 33.8515 217.013 33.8747C197.845 34.0755 178.943 33.4919 159.794 33.4792C159.386 33.4792 158.848 34.0577 157.518 34.0578C132.689 34.0472 106.955 33.5911 81.8091 33.8637C76.3269 33.9229 70.8898 34.467 65.3571 34.0358C64.6707 34.4582 63.9842 34.8805 63.2977 35.3029C65.0536 34.9671 68.2711 35.9224 68.5641 35.9364C68.6696 35.9406 69.3354 35.4644 70.4087 35.4896C71.9181 35.5234 72.5801 35.9364 72.7039 35.9364C73.0879 35.9377 72.8363 35.4985 73.203 35.5006C75.9373 35.5196 78.0529 35.395 80.5625 35.3908C83.3973 35.3867 84.8342 36.2047 86.8986 35.3065C87.1323 35.6569 87.366 36.0072 87.5998 36.3575C89.1422 34.8424 98.3266 35.0102 102.047 35.0905C103.221 35.116 103.015 35.7313 103.409 35.7313C103.661 35.7306 103.562 34.9249 106.633 35.0832C108.179 35.1635 108.585 35.7503 109.36 35.7313C109.781 35.7201 109.713 35.1381 110.318 35.1381C113.819 35.1381 116.677 35.3269 120.104 35.4347C121.067 35.4643 121.078 35.9501 121.293 35.9437C122.087 35.922 123.468 35.0993 125.486 35.1015C128.807 35.1057 135.427 35.1085 138.143 35.5079C138.542 35.5671 138.873 36.1499 139.167 36.1415C139.611 36.1266 139.785 35.5185 139.864 35.5153C141.35 35.5047 140.456 36.0701 141.451 35.9327C141.988 35.8587 142.548 35.1652 143.795 35.0868C145.442 34.9832 145.118 35.8064 145.806 35.724C145.879 35.7111 145.9 35.1387 146.577 35.1198C149.141 35.0521 152.861 34.9199 155.288 34.922C155.985 34.922 156.504 35.3074 157.476 35.3139C159.435 35.3265 170.57 35.081 171.483 35.3029C171.579 35.3261 170.589 36.1705 172.167 36.1451C172.626 35.7936 173.084 35.442 173.542 35.0905C174.309 35.6532 175.075 36.2159 175.842 36.7787C175.814 34.8344 180.323 34.5341 180.279 36.5223C180.772 36.6029 181.265 36.6834 181.759 36.764C182.786 35.3903 183.47 35.8975 185.456 35.0905C185.766 35.5116 186.076 35.9327 186.385 36.3539C186.463 36.0731 186.541 35.7924 186.619 35.5116C187.679 37.0331 189.417 35.5054 189.628 35.497C190.44 35.4632 191.05 35.85 191.43 35.8375C192.852 35.7974 195.931 35.2645 197.592 35.5116C197.67 35.5243 197.593 36.1747 198.065 36.255C198.918 36.4 199.001 35.4478 200.137 36.5663C200.367 36.2855 200.597 36.0048 200.826 35.724C201.07 35.8693 201.313 36.0145 201.557 36.1598C202.994 36.0853 204.432 36.0109 205.869 35.9364C204.562 37.0376 206.066 37.6525 207.489 36.786C207.97 36.4921 207.543 35.8218 207.703 35.7203C207.924 35.583 214.375 35.9242 214.802 36.3575C215.107 36.1464 215.412 35.9352 215.718 35.724C215.872 36.1464 216.026 36.5687 216.181 36.9911C216.349 36.8434 216.518 36.6957 216.686 36.5479C218.365 37.2918 222.723 35.5856 223.513 35.7203C223.935 35.7922 223.555 37.5924 225.579 37.4085C225.649 36.9141 225.719 36.4198 225.789 35.9254C226.253 35.8546 226.716 35.7838 227.179 35.713C228.048 35.7571 229.314 36.6139 229.354 37.1998C229.626 36.8482 229.898 36.4967 230.169 36.1451C230.899 37.2906 234.789 36.8846 236.354 36.1598C236.811 36.5052 237.269 36.8507 237.727 37.1961C238.341 36.7762 238.956 36.3563 239.571 35.9364C240.996 35.8099 239.491 36.508 239.794 36.5663C240.437 36.6867 243.71 35.5075 243.494 36.9764C243.941 36.9801 244.387 36.9837 244.833 36.9874C245.063 36.5675 245.292 36.1476 245.522 35.7277C246.288 37.1754 247.614 36.6643 250.333 37.1925C250.562 36.8592 250.79 36.526 251.018 36.1927C251.859 36.6664 252.7 37.14 253.54 37.6136C253.713 37.0618 253.886 36.5101 254.058 35.9584C254.424 35.879 254.79 35.7997 255.156 35.7203C255.898 36.9563 257.233 35.6207 257.912 36.1305C258.903 36.8745 258.137 37.761 256.297 37.9322C256.434 38.8323 261.915 38.419 263.178 38.3533C263.095 38.1775 263.011 38.0018 262.928 37.826C261.636 37.9651 260.343 38.1043 259.051 38.2435C257.968 35.9798 261.477 36.5869 263.088 36.2953C263.235 36.2673 264.07 35.4097 265.693 35.4896C266.321 35.5213 268.773 36.7748 269.241 36.8446C273.02 37.417 270.241 35.6259 273.939 37.1961C273.168 35.9935 275.292 36.9928 277.503 36.7603C277.88 36.7206 281.072 35.7457 281.287 35.7203C282.632 35.5639 281.168 36.6269 283.113 36.3502C283.347 36.0707 283.581 35.7911 283.814 35.5116C284.267 35.5116 284.72 35.5116 285.172 35.5116C287.92 38.0027 288.559 36.1682 289.536 35.9327C289.93 35.8376 289.422 36.4876 290.445 36.3502C290.83 36.2991 291.258 35.7584 292.294 35.7203C295.537 35.6022 296.638 37.9169 299.62 35.5079C300.077 35.8571 300.535 36.2062 300.993 36.5553C301.302 36.1366 301.61 35.7179 301.919 35.2992C304.281 36.5141 303.429 35.2698 304.282 35.2846C306.535 35.3226 311.145 35.5608 311.549 36.5626C313.493 34.2614 315.819 36.8574 316.586 36.7677C317.041 36.4881 317.497 36.2086 317.952 35.9291C318.488 36.2098 319.023 36.4906 319.559 36.7713C319.298 34.5115 322.072 36.7337 322.338 36.7677C322.646 36.8015 326.912 36.1327 328.5 36.1451C330.085 36.1578 332.849 36.7701 333.092 36.7713C333.372 36.7713 336.071 36.1571 338.182 36.1634C340.028 36.1701 350.968 37.0426 350.279 36.0353C349.563 35.7563 348.545 35.5145 347.664 35.3834C344.929 34.9819 328.88 34.4674 324.779 34.3068C316.553 33.9877 307.975 34.0469 299.712 33.8271C299.226 33.8144 299.152 33.2287 298.735 33.2155C298.102 33.1986 296.496 33.7848 295.872 33.7722C293.541 33.7214 290.705 33.6258 289.458 33.611C286.669 33.5814 284.756 33.2287 282.646 33.1716C281.985 33.1547 278.645 33.8808 276.356 33.5744C275.941 33.4096 275.526 33.2448 275.111 33.08C276.29 32.8877 279.384 32.3901 280.82 32.333C282.957 32.2507 284.072 32.7258 284.861 32.7175C285.521 32.7112 288.897 32.1701 290.435 32.1572C290.912 32.153 291.01 32.7672 291.418 32.7651C293.634 32.7503 296.552 32.7339 298.474 32.1316C297.69 32.3281 302.589 32.705 302.846 32.7029C303.286 32.7027 303.764 32.1279 304.663 32.1279C306.392 32.1282 306.173 33.3304 308.333 32.1279C308.868 32.4783 309.403 32.8286 309.938 33.1789C309.971 31.5773 316.729 33.7558 318.651 31.8093C318.702 31.5895 309.919 30.9658 309.194 30.9341C304.845 30.7418 298.41 31.1345 294.189 30.8535C292.919 30.769 288.925 29.7954 288.624 29.8135C288.138 29.841 288.577 30.398 288.367 30.4178C284.069 30.8319 286.214 29.7126 285.642 29.3887ZM474.979 38.4668C473.674 38.4009 472.368 38.335 471.063 38.2691C471.157 37.9175 471.252 37.566 471.347 37.2144C471.945 37.3511 472.543 37.4879 473.141 37.6246C473.601 37.4146 474.061 37.2047 474.52 36.9947C474.673 37.4854 474.826 37.9761 474.979 38.4668ZM478.197 36.9947C479.329 36.8177 479.384 37.559 479.646 37.5953C480.425 37.7052 481.1 37.4054 481.857 37.4158C480.985 39.1768 479.128 38.3698 478.197 36.9947ZM454.813 36.3612C455.068 36.4454 456.772 38.3413 458.711 36.5772C460.161 37.1375 461.611 37.6978 463.061 38.2581C460.597 37.4021 457.188 38.2919 455.982 38.2581C455.523 38.2452 455.436 37.6633 455.07 37.6539C452.959 37.6074 450.908 38.926 450.692 36.9984C452.688 37.5585 454.487 36.2576 454.813 36.3612ZM467.548 37.046C467.886 37.4488 468.224 37.8516 468.561 38.2544C467.341 38.2544 466.121 38.2544 464.901 38.2544C465.231 37.8467 465.561 37.439 465.891 37.0313C466.443 37.0362 466.996 37.0411 467.548 37.046ZM373.699 35.713C374.451 35.7179 375.204 35.7228 375.956 35.7277C375.915 35.4341 375.054 35.4352 374.737 35.237C374.738 35.237 374.74 35.237 374.741 35.237C374.388 35.0129 374.539 34.6349 373.897 34.4679C373.831 34.883 373.765 35.298 373.699 35.713ZM62.386 34.0431C61.1247 34.022 49.4775 34.0199 50.4697 35.0905C50.9698 35.6252 54.9533 35.1589 56.1278 35.1674C57.711 35.1782 61.9869 36.3361 62.386 34.0431ZM41.7584 33.8344C41.5566 34.9013 48.8357 35.071 49.5474 34.8854C49.3963 34.7333 49.1634 34.3946 48.962 34.3178C47.9803 33.95 43.3276 34.126 41.7584 33.8344ZM331.561 32.6333C332.148 33.1728 332.735 33.7123 333.322 34.2519C333.167 33.55 333.013 32.8481 332.858 32.1462C332.426 32.3086 331.994 32.4709 331.561 32.6333ZM274.64 33.406C264.864 33.3718 255.089 33.3376 245.313 33.3034C246.173 33.0117 247.033 32.7199 247.893 32.4282C256.316 32.5318 265.299 32.8271 273.433 32.3769C273.835 32.7199 274.238 33.0629 274.64 33.406ZM452.059 33.2009C449.554 33.1904 447.462 33.7059 444.737 32.886C447.334 32.0912 448.619 33.3208 451.143 32.1499C451.144 32.1499 451.145 32.1499 451.147 32.1499C451.451 32.5002 451.755 32.8506 452.059 33.2009ZM396.139 32.9885C396.901 32.4978 397.662 32.0071 398.424 31.5164C397.508 31.5164 396.592 31.5164 395.676 31.5164C395.831 32.0071 395.985 32.4978 396.139 32.9885ZM189.371 30.6778C186.751 31.7488 180.049 29.8103 177.92 31.0989C177.783 31.1834 179.048 31.7272 177.002 32.7798C178.548 32.5642 179.639 32.3443 179.754 31.5164C180.213 31.7971 180.672 32.0779 181.131 32.3586C181.893 32.1462 182.654 31.9338 183.416 31.7214C183.333 32.5457 183.394 32.5018 184.564 31.9375C185.097 32.1462 185.631 32.355 186.164 32.5637C186.39 32.2146 186.616 31.8655 186.842 31.5164C187.304 32.0046 187.766 32.4929 188.228 32.9812C190.028 32.4515 188.931 31.5054 189.371 30.6778ZM198.541 30.8792C198.115 30.6977 185.969 31.2897 191.489 32.9336C192.924 32.8811 194.359 32.8286 195.793 32.7761C194.605 30.0538 198.515 32.4883 198.836 32.5454C200.373 32.8113 202.331 32.1639 203.446 32.1975C204.404 32.2271 204.974 32.7154 205.648 32.7029C207.945 32.6606 211.573 32.6428 212.073 31.5164C210.287 31.4929 208.473 31.4808 206.617 31.509C204.653 31.5386 202.927 30.4755 199.238 31.9338C198.326 31.7771 198.651 30.9257 198.541 30.8792ZM400.717 31.6299C400.626 32.7614 405.261 32.4908 405.291 32.0437C405.3 31.7816 403.79 31.7878 403.575 31.6885C403.573 31.6885 403.572 31.6885 403.57 31.6885C403.481 31.6451 403.937 31.212 403.227 31.0916C402.391 31.271 401.554 31.4504 400.717 31.6299ZM80.5014 31.5127C79.8748 30.8778 65.5598 31.1061 65.1381 31.4102C65.0236 31.4946 65.1833 31.7731 65.1381 31.9338C68.4777 31.038 73.2253 32.0983 76.3953 32.1682C77.2789 32.1871 77.0148 31.7373 77.0649 31.7288C77.067 31.7288 77.0691 31.7288 77.0712 31.7288C77.5726 31.7277 79.8364 32.8266 80.5014 31.5127ZM173.336 31.6152C173.945 31.7922 174.553 31.9692 175.162 32.1462C175.316 31.7959 175.47 31.4456 175.625 31.0952C175.623 31.0952 175.622 31.0952 175.621 31.0952C174.859 31.2686 174.098 31.4419 173.336 31.6152ZM152.251 30.4617C152.4 30.7083 152.548 30.9549 152.696 31.2014C154.228 31.2356 155.76 31.2698 157.293 31.304C157.138 31.4431 156.984 31.5823 156.829 31.7214C159.146 32.0934 160.106 31.2269 161.34 31.3516C161.338 31.3516 161.337 31.3516 161.336 31.3516C161.468 31.3661 161.629 31.8798 162.123 31.8972C163.256 31.9374 166.502 32.1285 166.895 31.6116C167.725 30.5086 161.191 31.0321 159.973 30.9817C159.423 30.9585 158.76 30.5089 158.425 30.4983C158.059 30.4885 157.559 31.0956 156.665 31.0769C156.404 31.0706 153.504 30.3563 152.251 30.4617ZM125.206 31.1978C125.678 31.7536 126.665 31.2167 127.027 31.3076C127.114 31.3291 126.44 31.7944 127.257 31.9338C127.488 31.6165 127.719 31.2991 127.949 30.9817C127.035 31.0537 126.12 31.1258 125.206 31.1978ZM408.506 31.0952C408.373 30.976 405.884 31.0196 405.765 31.0952C404.274 32.1097 409.428 31.9998 408.506 31.0952ZM471.313 29.9344C470.168 28.4598 483.751 29.9095 485.068 29.8318C485.002 30.7586 481.771 29.8268 483.463 31.0989C481.848 30.3993 477.384 30.7708 476.333 30.5679C475.696 30.4453 475.535 29.6448 475.438 29.6195C475.06 29.5293 471.717 30.4541 471.313 29.9344ZM496.291 30.4617C495 30.2859 493.71 30.1102 492.419 29.9344C493.942 29.8294 495.465 29.7244 496.988 29.6195C496.756 29.9002 496.524 30.181 496.291 30.4617ZM497.915 30.0406C497.873 29.1423 502.255 29.8266 503.406 29.6195C502.108 31.1475 499.942 29.7069 497.915 30.0406ZM425.015 28.7772C422.996 28.1833 422.129 30.9214 424.583 29.7293C424.658 29.6899 425.099 28.8087 425.015 28.7772ZM188.748 26.8253C188.404 26.8084 184.123 25.9207 183.875 26.3603C183.092 27.7627 185.901 27.2003 186.842 27.7299C188.361 28.588 186.127 29.295 189.834 28.7772C189.683 29.0579 189.531 29.3387 189.379 29.6195C191.549 29.7124 190.839 27.7676 191.228 27.5175C191.347 27.4414 192.704 27.605 192.949 27.4808C196.006 25.914 189.067 26.8384 188.748 26.8253ZM375.044 28.5685C371.025 27.7442 372.754 28.9536 368.63 28.8797C368.493 29.4969 374.521 29.1095 375.044 28.5685ZM227.88 27.9349C223.724 28.1779 220.306 27.3707 216.429 28.4549C216.682 30.1247 228.958 28.3661 227.88 27.9349ZM32.5922 26.2431C48.7639 29.2168 67.4173 28.2378 84.6349 28.1913C86.5113 28.187 86.6912 28.8491 87.3702 28.7772C87.815 28.7307 87.7373 28.1974 88.3283 28.1949C109.694 28.1083 130.151 27.4107 150.617 27.7299C151.907 27.751 158.178 28.8961 159.518 27.1696C160.532 25.8598 156.026 26.881 155.275 26.8693C154.711 26.8608 154.687 26.2453 154.311 26.2431C153.912 26.241 154.241 26.6615 153.778 26.6679C151.815 26.6974 149.672 26.5331 147.897 26.569C130.486 26.9135 113.548 26.815 96.229 26.7558C94.1326 26.7494 94.5636 26.2562 94.4581 26.2541C94.4567 26.2553 94.4553 26.2565 94.4539 26.2577C83.2137 26.2112 70.3768 27.3176 58.4714 26.8949C50.0879 26.5556 41.7043 26.2162 33.3208 25.8769C33.0779 25.999 32.8351 26.121 32.5922 26.2431ZM197.623 28.5648C196.577 26.7049 196.343 28.5802 192.591 27.8214C192.285 28.1388 191.98 28.4562 191.675 28.7735C193.66 28.704 195.645 28.6344 197.63 28.5648C197.627 28.5648 197.625 28.5648 197.623 28.5648ZM172.837 27.8873C172.203 25.3754 163.811 27.1506 160.032 26.6715C159.339 27.9331 164.833 27.3664 166.128 27.4992C166.775 27.5647 170.239 28.8621 172.873 28.1437C172.861 28.0582 172.849 27.9728 172.837 27.8873ZM457.102 26.2431C456.491 26.3163 455.881 26.3896 455.27 26.4628C456.798 26.7411 458.326 27.0194 459.854 27.2977C457.416 27.1183 454.979 26.9389 452.541 26.7594C452.995 26.2382 453.449 25.717 453.903 25.1958C454.969 25.5449 456.036 25.894 457.102 26.2431ZM449.193 26.5104C453.462 26.3141 449.005 27.7095 447.94 27.089C447.302 26.717 448.757 26.5316 449.193 26.5104ZM438.089 25.6132C440.08 24.6981 444.104 24.6351 442.673 26.4628C440.522 25.6068 439.135 26.3181 436.015 25.8256C436.471 25.4753 436.926 25.125 437.382 24.7746C437.384 24.7746 437.386 24.7746 437.388 24.7746C437.622 25.0542 437.856 25.3337 438.089 25.6132ZM451.143 25.4045C453.939 26.4545 445.844 26.0955 448.388 25.4045C448.508 25.3728 451.033 25.3643 451.143 25.4045ZM50.4697 24.3535C50.1329 24.9507 52.2834 24.9396 52.9987 24.9797C56.0998 25.1572 60.077 24.8973 63.3019 24.9797C63.0591 24.7832 62.8162 24.5866 62.5734 24.3901C58.5388 24.3779 54.5043 24.3657 50.4697 24.3535ZM73.3904 24.9834C75.6063 24.9834 77.8222 24.9834 80.0381 24.9834C80.2446 24.9834 81.2133 24.4709 80.493 24.3462C78.1255 24.5586 75.7579 24.771 73.3904 24.9834ZM211.612 24.9834C209.912 24.6489 214.805 22.9346 214.585 24.771C213.594 24.8418 212.603 24.9126 211.612 24.9834ZM227.421 24.251C226.356 24.4255 225.29 24.6001 224.225 24.7746C224.223 24.5635 224.222 24.3523 224.221 24.1411C225.287 24.1777 226.354 24.2143 227.421 24.251ZM41.7584 23.9324C42.887 24.655 45.5794 24.5438 47.2585 24.5586C46.102 23.9377 43.3455 24.2429 41.7584 23.9324ZM186.156 24.2436C186.293 24.7361 179.535 24.6122 181.875 23.7456C183.302 23.9116 184.729 24.0776 186.156 24.2436ZM172.428 23.5149C173.878 23.4072 175.001 23.5763 174.703 24.3498C173.934 24.3169 173.165 24.2839 172.397 24.251C172.407 24.0056 172.418 23.7603 172.428 23.5149ZM430.511 24.1411C428.068 24.2107 425.626 24.2803 423.183 24.3498C423.274 24.1387 423.364 23.9275 423.455 23.7163C425.81 23.648 428.164 23.5796 430.519 23.5112C430.517 23.7212 430.514 23.9312 430.511 24.1411ZM40.377 22.0355C38.6995 22.1734 37.0219 22.3113 35.3444 22.4493C37.0233 22.5909 38.7023 22.7325 40.3813 22.8741C40.3813 22.5933 40.3813 22.3125 40.3813 22.0318C40.3799 22.033 40.3784 22.0342 40.377 22.0355ZM463.973 21.4056C456.511 20.4208 466.032 19.3797 468.001 20.827C468.003 20.8258 468.005 20.8246 468.007 20.8233C468.18 20.9512 467.815 21.5698 468.102 21.8194C467.343 21.5399 466.583 21.2603 465.824 20.9808C465.131 21.3287 464.438 21.6766 463.745 22.0245C463.517 21.8878 463.289 21.751 463.061 21.6143C463.365 21.5447 463.669 21.4752 463.973 21.4056ZM494.089 20.8563C500.855 20.9705 493.932 22.5173 490.583 21.2957C490.607 21.013 493.465 20.8457 494.089 20.8563ZM476.356 21.1895C475.29 21.3299 474.224 21.4703 473.158 21.6107C473.022 21.4337 472.886 21.2567 472.749 21.0797C473.568 20.9039 474.386 20.7281 475.205 20.5523C475.589 20.7647 475.973 20.9771 476.356 21.1895ZM441.292 18.4577C439.576 18.2632 437.388 20.2313 442.897 19.7138C442.894 19.5026 442.891 19.2914 442.888 19.0802C442.669 19.114 442.024 19.312 441.989 19.2963C441.888 19.2435 442.007 18.5383 441.292 18.4577ZM506.618 15.2937C506.81 15.2134 506.915 12.9859 508.919 15.2901C509.525 15.1497 510.131 15.0093 510.736 14.8689C510.893 15.3596 511.049 15.8503 511.206 16.3411C508.862 15.9606 508.613 16.9534 508.443 16.9746C507.664 17.0675 508.241 16.5568 507.738 16.5498C506.44 16.5329 503.49 16.8758 504.828 15.4182C505.31 14.8962 506.425 15.374 506.618 15.2937ZM502.034 14.0267C502.318 14.2126 501.402 14.8642 501.617 15.0484C501.805 15.209 504.63 15.8738 503.866 16.9746C503.402 16.9282 502.938 16.8818 502.474 16.8354C502.316 16.5339 502.159 16.2324 502.002 15.9309C501.553 16.2092 501.104 16.4875 500.654 16.7658C499.897 16.0219 498.286 15.0581 500.199 14.4515C499.496 14.5149 498.793 14.5784 498.09 14.6419C497.725 14.9983 497.361 15.3548 496.997 15.7112C497.188 15.168 497.379 14.6248 497.569 14.0816C499.057 14.0633 500.546 14.045 502.034 14.0267ZM523.836 14.2354C523.75 14.5162 523.665 14.7969 523.579 15.0777C526.162 14.5557 530.184 14.3573 527.9 16.1177C524.401 16.2641 520.902 16.4106 517.403 16.5571C517.171 16.3459 516.938 16.1348 516.706 15.9236C519.316 16.7372 518.51 13.275 520.781 14.2684C521.164 14.4368 520.052 15.6475 522.459 14.8726C522.373 14.5906 522.288 14.3086 522.202 14.0267C522.747 14.0962 523.292 14.1658 523.836 14.2354ZM546.041 14.6565C541.618 14.2507 546.49 13.2262 547.306 14.0779C547.305 14.0779 547.304 14.0779 547.302 14.0779C549.54 16.4087 544.728 15.2826 544.434 15.2974C544.044 15.318 543.135 16.9867 541.012 14.554C542.689 14.5882 544.365 14.6224 546.041 14.6565ZM531.602 14.2391C531.974 14.1841 531.768 14.6079 531.928 14.6016C531.93 14.6016 531.931 14.6016 531.933 14.6016C534.3 14.5107 539.93 14.1313 540.541 15.4988C538.788 15.6129 530.948 15.9084 530.473 14.9788C530.85 14.7322 531.226 14.4856 531.602 14.2391ZM514.944 15.2571C513.49 14.3717 516.762 14.2539 517.62 14.6639C517.782 14.7527 516.449 16.1742 514.944 15.2571ZM403.461 12.972C400.263 13.5046 404.465 14.0362 403.01 14.8689C403.621 14.7981 404.232 14.7273 404.842 14.6565C404.382 14.095 403.921 13.5335 403.461 12.972ZM257.674 11.2912C256.929 11.1928 257.282 11.7011 257.217 11.7086C256.727 11.6945 256.266 11.2803 256.078 11.3241C252.604 12.1601 254.914 12.5871 254.949 12.6864C255.023 13.1893 254.109 13.7778 255.375 14.3526C256.142 14.1744 256.91 13.9962 257.678 13.8179C258.059 14.0975 258.44 14.377 258.822 14.6565C260.347 14.0568 258.351 13.8923 258.125 13.0965C258.037 12.7837 259.472 12.4092 257.674 11.2912ZM397.731 11.2875C397.213 12.171 395.942 13.2854 397.19 14.1731C397.191 14.1731 397.193 14.1731 397.194 14.1731C397.425 14.3355 398.365 14.4249 398.654 14.6529C400.712 13.4759 399.923 12.2595 397.731 11.2875ZM271.447 9.70918C272.686 9.91547 273.924 10.1218 275.162 10.3281C275.141 10.8578 275.12 11.3876 275.099 11.9174C274.436 11.7745 273.774 11.6317 273.111 11.4889C272.879 11.7306 272.646 11.9723 272.414 12.214C273.237 12.8182 274.059 13.4224 274.882 14.0267C275.873 13.8155 276.864 13.6043 277.855 13.3931C277.4 13.1136 276.944 12.8341 276.489 12.5545C278.911 12.246 278.383 13.5342 280.388 14.0267C281.075 13.536 281.761 13.0453 282.448 12.5545C283.442 13.0477 284.435 13.5408 285.429 14.034C287.099 13.8036 287.246 13.428 286.122 12.8658C286.952 12.2233 287.862 13.2339 288.862 12.972C288.944 12.9509 288.789 12.3458 288.862 12.3385C294.032 11.9306 293.757 13.5196 294.583 13.5872C295.166 13.6337 297.492 12.5613 297.529 12.1957C297.574 11.703 292.735 9.75998 300.313 9.70918C296.395 8.36523 291.941 9.73327 294.821 11.705C293.581 11.5065 288.113 11.9985 287.765 11.9393C287.256 11.85 287.435 11.102 286.798 11.0824C286.422 11.0719 285.425 12.7818 282.448 11.2875C282.067 11.5682 281.687 11.849 281.306 12.1298C280.95 11.899 280.593 11.6683 280.237 11.4376C280.971 10.6149 281.705 9.79218 282.439 8.96945C279.531 9.8634 277.118 8.18403 275.347 9.59931C273.816 9.43459 273.072 9.27176 273.73 8.54832C273.27 8.54832 272.811 8.54832 272.351 8.54832C272.05 8.93527 271.749 9.32222 271.447 9.70918ZM388.336 12.5509C386.814 11.7295 386.267 13.5016 386.504 13.6019C387.838 14.1533 389.127 12.9782 388.336 12.5509ZM260.437 12.2323C262.116 12.6888 263.795 13.1453 265.474 13.6019C265.474 13.0416 265.474 12.4813 265.474 11.921C263.795 12.0248 262.116 12.1285 260.437 12.2323ZM403.928 11.7123C404.083 12.1322 404.237 12.5521 404.392 12.972C406.231 11.4382 408.057 13.6389 408.965 13.1844C409.162 13.0851 408.764 12.3437 408.388 12.1847C408.154 12.0853 404.254 11.5707 403.928 11.7123ZM480.486 11.9137C479.801 12.1957 479.116 12.4776 478.431 12.7596C478.469 12.2872 478.506 11.8148 478.544 11.3424C478.883 11.2545 479.221 11.1666 479.559 11.0788C479.868 11.3571 480.177 11.6354 480.486 11.9137ZM472.69 12.6644C471.468 12.6266 470.246 12.5887 469.024 12.5509C473.685 12.1176 469.86 11.9062 472.69 11.2912C472.69 11.7489 472.69 12.2067 472.69 12.6644ZM460.321 11.7086C460.472 11.4267 460.622 11.1447 460.772 10.8627C461.994 10.8627 463.216 10.8627 464.438 10.8627C463.665 9.88373 462.893 8.90476 462.12 7.92578C461.672 7.92334 461.224 7.9209 460.776 7.91846C460.625 9.18185 460.473 10.4452 460.321 11.7086ZM224.665 9.18551C223.926 9.1686 221.356 10.0241 221.466 10.339C222.534 10.726 223.601 11.1129 224.669 11.4999C224.674 10.9384 224.679 10.3769 224.684 9.81537C224.835 10.0949 224.986 10.3744 225.137 10.654C225.744 10.444 226.351 10.2341 226.958 10.0241C227.264 10.5148 227.57 11.0055 227.876 11.4962C228.183 10.9359 228.491 10.3757 228.798 9.81537C225.867 8.82203 225.968 9.81487 225.358 9.80439C225.048 9.79963 224.852 9.45198 224.743 9.27706C224.717 9.24654 224.691 9.21603 224.665 9.18551ZM261.597 8.65818C258.097 8.51869 256.096 9.99697 253.564 8.76072C255.188 11.3941 265.676 8.67404 269.373 10.87C269.757 10.4477 270.141 10.0253 270.525 9.60298C268.512 9.97908 267.116 9.1092 266.135 8.9841C265.355 8.88476 265.436 9.32734 265.377 9.321C265.374 9.321 265.371 9.321 265.368 9.321C263.542 9.13925 262.978 8.7132 261.597 8.65818ZM406.529 9.64692C405.588 8.97962 403.943 9.04636 403.924 10.0204C404.84 10.3024 405.756 10.5844 406.672 10.8664C406.484 10.617 406.69 9.76105 406.529 9.64692ZM458.9 8.98776C458.166 8.67072 456.432 8.94854 457.18 9.78974C457.314 9.93904 459.041 9.34774 458.028 10.8664C459.711 10.8429 459.317 9.16998 458.9 8.98776ZM321.412 10.654C322.029 10.6259 322.647 10.5978 323.265 10.5697C323.409 10.1767 323.553 9.78363 323.697 9.39058C322.935 9.81171 322.173 10.2328 321.412 10.654ZM414.467 8.97311C415.289 10.8967 416.691 9.02475 418.232 10.6064C418.802 10.6186 419.371 10.6308 419.94 10.643C419.942 10.643 419.943 10.643 419.944 10.643C419.96 10.1181 419.975 9.59321 419.991 9.06833C418.15 9.03659 416.309 9.00485 414.467 8.97311ZM282.898 9.70551C283.279 9.94965 283.659 10.1938 284.04 10.4379C284.717 10.1535 285.394 9.86908 286.072 9.58467C285.705 9.38082 285.339 9.17696 284.972 8.97311C284.281 9.21725 283.59 9.46138 282.898 9.70551ZM424.474 8.80832C422.483 8.56738 421.734 10.2396 424.28 10.2438C425.353 10.2438 426.56 9.06009 424.474 8.80832ZM186.627 9.80805C187.309 9.95087 187.992 10.0937 188.674 10.2365C188.906 9.88495 189.139 9.5334 189.371 9.18185C188.456 9.39058 187.542 9.59931 186.627 9.80805ZM468.342 9.17818C468.262 9.52974 468.182 9.88129 468.102 10.2328C467.494 10.162 466.885 10.0912 466.276 10.0204C466.429 9.67133 466.582 9.32222 466.735 8.97311C467.271 9.04147 467.807 9.10983 468.342 9.17818ZM191.218 10.0241C191.763 10.0912 192.308 10.1584 192.854 10.2255C193.22 10.0546 193.587 9.88373 193.953 9.71284C193.443 9.54316 192.932 9.37349 192.422 9.20382C192.021 9.47725 191.619 9.75068 191.218 10.0241ZM443.347 8.96945C442.581 8.54676 439.521 9.86375 442.278 10.1999C444.034 10.4133 443.462 9.03375 443.347 8.96945ZM447.477 8.54832C444.559 7.74305 446.747 11.8302 450.229 9.18185C446.723 9.54494 447.648 8.59695 447.477 8.54832ZM473.135 6.43901C473.208 6.44112 473.269 7.0288 473.855 7.05057C475.965 7.12665 478.751 7.35886 480.26 7.39479C483.889 7.48144 495.004 6.41908 496.304 8.11987C496.575 8.47706 495.952 9.54436 496.062 9.59931C496.385 9.7526 498.244 9.23472 497.9 10.0204C496.076 10.0143 494.252 10.0082 492.427 10.0021C492.875 9.44795 493.323 8.89377 493.771 8.33959C489.225 8.63543 490.73 8.60128 489.422 9.80805C488.653 9.34053 487.884 8.87302 487.115 8.4055C485.44 8.87546 483.765 9.34542 482.09 9.81537C482.47 9.46504 482.85 9.11471 483.23 8.76438C480.706 8.11555 481.407 8.54102 480.027 9.39058C480.024 9.04025 480.021 8.68992 480.018 8.33959C477.582 9.19347 477.108 8.14354 476.575 8.13085C475.484 8.11022 474.092 12.2553 469.928 8.13085C468.172 10.1145 468.212 6.07903 467.18 8.13085C464.208 5.89718 469.86 6.7056 472.535 6.77958C472.536 6.77958 472.537 6.77958 472.539 6.77958C472.741 6.78592 472.42 6.40979 473.135 6.43901ZM457.868 8.49339C459.667 6.67255 452.56 6.5021 454.912 9.13058C455.262 9.21603 455.612 9.30147 455.963 9.38692C456.599 9.08908 457.236 8.79123 457.873 8.49339C457.871 8.49339 457.87 8.49339 457.868 8.49339ZM391.084 7.28493C384.5 8.03314 388.243 9.08058 390.473 8.05761C390.918 7.85472 391.161 7.57656 391.084 7.28493ZM256.596 7.2593C256.5 7.4778 256.404 7.6963 256.307 7.9148C258.515 7.7103 262.784 8.55314 262.726 7.07986C260.682 7.13967 258.639 7.19949 256.596 7.2593ZM274.061 6.29619C273.587 6.20733 271.65 5.99758 271.883 6.54887C272.723 6.93948 273.562 7.3301 274.402 7.72071C274.793 7.47658 275.184 7.23244 275.575 6.98831C275.029 6.90529 274.189 6.31943 274.061 6.29619Z" fill="#A3A5C7"/>
<path d="M374.086 11H24.8057L21 52H357.171L391 45.9259L374.086 11Z" fill="#A3A5C7" stroke="#A3A5C7" stroke-width="10"/>
<path d="M27.7848 43V23.9592L27.0886 20.4782L27.8196 18.3897H34.4682L41.2909 31.6173H41.987L47.6262 18.3897H54.5533L54.9014 20.4782L54.5533 23.82V43H48.2528L48.3572 40.0412V30.3293H47.9743L46.5819 33.671L43.449 39.519H39.2719L34.4682 30.3293H34.1201V33.1489L34.4682 43H27.7848ZM70.877 43.3481C69.299 43.3481 67.7674 43.174 66.2822 42.826C64.797 42.4547 63.451 41.8049 62.2443 40.8766C61.0608 39.9484 60.1209 38.6604 59.4247 37.0128C58.7285 35.3651 58.3804 33.2533 58.3804 30.6774C58.3804 28.2872 58.7285 26.2798 59.4247 24.6554C60.1209 23.0309 61.0492 21.7314 62.2095 20.7567C63.3698 19.782 64.6345 19.0859 66.0037 18.6681C67.3961 18.2272 68.7885 18.0068 70.1809 18.0068C71.3644 18.0068 72.5131 18.0996 73.627 18.2852C74.7641 18.4709 75.5879 18.6797 76.0985 18.9118L79.9623 22.0795L76.8295 27.1269L70.877 24.0636C69.2294 24.0636 67.837 24.609 66.6999 25.6997C65.5628 26.7672 64.9942 28.4264 64.9942 30.6774C64.9942 32.2787 65.2727 33.5782 65.8297 34.5761C66.4098 35.574 67.1988 36.305 68.1967 36.7691C69.1946 37.2332 70.3317 37.4653 71.608 37.4653C72.954 37.4653 74.1027 37.3609 75.0542 37.152C76.0057 36.9199 76.8411 36.6531 77.5605 36.3514C78.2799 36.0265 78.9645 35.7132 79.6142 35.4115V41.2595C78.802 41.7701 77.7229 42.2458 76.377 42.6867C75.031 43.1276 73.1977 43.3481 70.877 43.3481ZM86.7271 33.6014L82.898 29.7724L86.7271 25.9433L90.5561 29.7724L86.7271 33.6014ZM86.7271 44.0443L82.898 40.2152L86.7271 36.3862L90.5561 40.2152L86.7271 44.0443ZM109.059 43.3481C108.386 43.3481 107.748 43.3133 107.144 43.2437C106.564 43.174 106.031 43.0928 105.543 43L101.018 40.9114L103.107 35.6204L109.546 37.8482C110.985 37.8482 112.018 37.4189 112.644 36.5602C113.271 35.6784 113.584 34.3556 113.584 32.592V23.9244L112.818 20.4434L113.201 18.3549H119.78L119.815 33.7059C119.815 36.8155 118.887 39.2058 117.03 40.8766C115.174 42.5243 112.517 43.3481 109.059 43.3481ZM128.87 43.3481C127.872 43.3481 126.944 43.2089 126.085 42.9304C125.25 42.6287 124.577 42.1182 124.066 41.3988C123.555 40.6794 123.3 39.6815 123.3 38.4051C123.3 37.2448 123.59 36.2818 124.17 35.516C124.751 34.7501 125.54 34.1816 126.537 33.8103C127.535 33.439 128.661 33.2533 129.914 33.2533C131.121 33.2533 132.026 33.3926 132.629 33.671C133.233 33.9263 133.755 34.1932 134.196 34.4717L134.439 34.2628C134.439 33.5666 134.381 32.9865 134.265 32.5223C134.149 32.0582 133.882 31.7101 133.465 31.478C133.047 31.2228 132.397 31.0951 131.515 31.0951C130.657 31.0951 129.74 31.1764 128.765 31.3388C127.814 31.478 126.932 31.6637 126.12 31.8958C125.331 32.1046 124.739 32.3135 124.344 32.5223V27.3009C125.064 27.0456 126.085 26.8136 127.408 26.6047C128.754 26.3726 130.401 26.2566 132.351 26.2566C134.439 26.2566 136.087 26.5235 137.294 27.0572C138.524 27.5678 139.405 28.322 139.939 29.3199C140.473 30.2945 140.74 31.4664 140.74 32.8356V37.4653L141.436 40.981L140.74 43.0348H134.787V41.3291L134.439 41.1551C134.254 41.3407 133.929 41.6076 133.465 41.9557C133 42.3038 132.385 42.6287 131.62 42.9304C130.854 43.2089 129.937 43.3481 128.87 43.3481ZM131.829 38.788C132.455 38.788 132.989 38.73 133.43 38.614C133.894 38.498 134.23 38.3935 134.439 38.3007V37.6393C134.439 37.3377 134.219 37.0476 133.778 36.7691C133.36 36.4906 132.699 36.3514 131.794 36.3514C130.541 36.3514 129.914 36.7923 129.914 37.6741C129.914 38.0454 130.053 38.3239 130.332 38.5096C130.61 38.6952 131.109 38.788 131.829 38.788ZM151.699 43.3481C150.004 43.3481 148.508 43.174 147.208 42.826C145.909 42.4779 144.899 42.1182 144.18 41.7469V36.9083C145.131 37.326 146.106 37.6509 147.104 37.883C148.125 38.1151 149.041 38.2775 149.854 38.3703C150.666 38.44 151.246 38.4748 151.594 38.4748C151.989 38.4748 152.267 38.4167 152.43 38.3007C152.592 38.1615 152.673 37.999 152.673 37.8134C152.673 37.5581 152.464 37.3493 152.047 37.1868C151.629 37.0012 150.84 36.7691 149.68 36.4906C148.728 36.2586 147.8 35.9685 146.895 35.6204C146.013 35.2491 145.282 34.7385 144.702 34.0888C144.145 33.439 143.866 32.5687 143.866 31.478C143.866 30.1321 144.18 29.0762 144.806 28.3104C145.433 27.5446 146.326 27.0108 147.487 26.7091C148.647 26.3843 150.004 26.2218 151.559 26.2218C152.441 26.2218 153.265 26.2682 154.031 26.361C154.797 26.4539 155.342 26.5235 155.667 26.5699L158.904 28.6585L157.338 32.3831L151.246 31.0603C150.503 31.0603 150.132 31.304 150.132 31.7913C150.132 32.3019 150.666 32.6848 151.733 32.94C152.569 33.1257 153.427 33.3346 154.309 33.5666C155.191 33.7755 155.992 34.054 156.711 34.402C157.454 34.7501 158.045 35.2143 158.486 35.7944C158.95 36.3746 159.183 37.1404 159.183 38.0919C159.183 39.8555 158.544 41.1783 157.268 42.0601C156.015 42.9188 154.158 43.3481 151.699 43.3481ZM168.337 43.3481C166.759 43.3481 165.495 42.884 164.543 41.9557C163.592 41.0275 163.116 39.8555 163.116 38.44V30.8515H160.575V27.5446L162.768 25.8389L165.239 21.5225H169.347V26.5699H174.22V31.0951H169.347V38.5444L174.22 38.5096V42.3038C174.22 42.3038 173.942 42.3966 173.385 42.5823C172.851 42.7447 172.143 42.9072 171.261 43.0696C170.38 43.2553 169.405 43.3481 168.337 43.3481ZM185.347 43.3481C183.56 43.3481 181.97 43.0812 180.578 42.5475C179.186 42.0137 178.095 41.1203 177.306 39.8671C176.517 38.614 176.122 36.9199 176.122 34.785C176.122 33.2533 176.378 31.9422 176.888 30.8515C177.422 29.7608 178.13 28.8789 179.011 28.206C179.893 27.5098 180.88 27.0108 181.97 26.7091C183.061 26.3843 184.186 26.2218 185.347 26.2218C187.343 26.2218 188.874 26.4191 189.942 26.8136C191.032 27.2081 191.752 27.5214 192.1 27.7534L193.84 33.2881L193.144 35.4463H182.353C182.516 36.305 182.945 37.0244 183.641 37.6045C184.337 38.1847 185.486 38.4748 187.087 38.4748C188.34 38.4748 189.42 38.3355 190.325 38.057C191.23 37.7786 191.937 37.5349 192.448 37.326V41.9905C191.752 42.3618 190.742 42.6867 189.42 42.9652C188.12 43.2205 186.762 43.3481 185.347 43.3481ZM182.388 33.2185L187.192 32.5223L186.878 31.0255C186.716 30.9327 186.472 30.8631 186.147 30.8167C185.846 30.7703 185.579 30.747 185.347 30.747C184.697 30.747 184.152 30.8863 183.711 31.1648C183.293 31.4432 182.968 31.7797 182.736 32.1742C182.527 32.5455 182.411 32.8936 182.388 33.2185ZM201.275 25.5256L196.854 21.07L201.275 16.6492L205.696 21.07L201.275 25.5256ZM196.715 51.4587C196.297 51.4587 195.821 51.4239 195.288 51.3543C194.777 51.3079 194.313 51.2383 193.895 51.1454L192.224 49.4398L193.965 45.2974L197.028 46.481C197.562 46.481 197.922 46.3069 198.107 45.9588C198.293 45.6339 198.374 45.193 198.351 44.636C198.328 44.1023 198.27 43.5453 198.177 42.9652V31.4084L197.446 28.2756L198.142 26.5351H204.408V44.462C204.408 46.8987 203.735 48.674 202.389 49.7879C201.066 50.9018 199.175 51.4587 196.715 51.4587ZM225.884 43.3481C224.607 43.3481 223.401 43.2321 222.263 43C221.126 42.7447 220.14 42.443 219.305 42.095C218.469 41.7469 217.854 41.422 217.46 41.1203V34.8894C218.574 35.516 219.978 36.1077 221.672 36.6647C223.366 37.1984 225.245 37.4653 227.311 37.4653C228.146 37.4653 228.761 37.3609 229.156 37.152C229.573 36.9199 229.782 36.5254 229.782 35.9685C229.782 35.3651 229.318 34.8662 228.39 34.4717C227.485 34.054 226.046 33.5434 224.073 32.94C222.542 32.4527 221.231 31.919 220.14 31.3388C219.073 30.7354 218.249 29.9928 217.669 29.111C217.112 28.206 216.833 27.0572 216.833 25.6649C216.833 24.2261 217.204 22.9265 217.947 21.7662C218.69 20.6059 219.85 19.6892 221.428 19.0162C223.006 18.3433 225.025 18.0068 227.485 18.0068C228.227 18.0068 229.016 18.0416 229.852 18.1112C230.711 18.1576 231.395 18.2272 231.906 18.32L235.839 21.2092L234.482 25.456L226.232 23.1934C225.28 23.1934 224.572 23.3906 224.108 23.7851C223.667 24.1796 223.447 24.6554 223.447 25.2123C223.447 25.8853 223.83 26.4191 224.596 26.8136C225.361 27.2081 226.464 27.6026 227.903 27.9971C230.177 28.6237 231.94 29.3199 233.194 30.0857C234.447 30.8515 235.329 31.7217 235.839 32.6964C236.35 33.6478 236.605 34.7269 236.605 35.9337C236.605 38.1615 235.711 39.96 233.925 41.3291C232.138 42.6751 229.457 43.3481 225.884 43.3481ZM240.128 43V32.1046L239.397 28.6237L240.128 26.5351H244.862L245.558 27.3357C245.558 27.3357 245.72 27.2429 246.045 27.0572C246.37 26.8484 246.823 26.6511 247.403 26.4655C248.006 26.2798 248.703 26.187 249.492 26.187C249.956 26.187 250.42 26.2218 250.884 26.2914C251.348 26.361 251.708 26.4539 251.963 26.5699L254.226 28.4844L251.963 32.94L247.368 31.0255L246.324 31.3736V43H240.128ZM259.779 43.3481C258.781 43.3481 257.853 43.2089 256.995 42.9304C256.159 42.6287 255.486 42.1182 254.976 41.3988C254.465 40.6794 254.21 39.6815 254.21 38.4051C254.21 37.2448 254.5 36.2818 255.08 35.516C255.66 34.7501 256.449 34.1816 257.447 33.8103C258.445 33.439 259.571 33.2533 260.824 33.2533C262.03 33.2533 262.935 33.3926 263.539 33.671C264.142 33.9263 264.664 34.1932 265.105 34.4717L265.349 34.2628C265.349 33.5666 265.291 32.9865 265.175 32.5223C265.059 32.0582 264.792 31.7101 264.374 31.478C263.957 31.2228 263.307 31.0951 262.425 31.0951C261.566 31.0951 260.65 31.1764 259.675 31.3388C258.723 31.478 257.842 31.6637 257.029 31.8958C256.24 32.1046 255.649 32.3135 255.254 32.5223V27.3009C255.974 27.0456 256.995 26.8136 258.317 26.6047C259.663 26.3726 261.311 26.2566 263.26 26.2566C265.349 26.2566 266.997 26.5235 268.203 27.0572C269.433 27.5678 270.315 28.322 270.849 29.3199C271.383 30.2945 271.649 31.4664 271.649 32.8356V37.4653L272.346 40.981L271.649 43.0348H265.697V41.3291L265.349 41.1551C265.163 41.3407 264.838 41.6076 264.374 41.9557C263.91 42.3038 263.295 42.6287 262.529 42.9304C261.764 43.2089 260.847 43.3481 259.779 43.3481ZM262.738 38.788C263.365 38.788 263.898 38.73 264.339 38.614C264.804 38.498 265.14 38.3935 265.349 38.3007V37.6393C265.349 37.3377 265.128 37.0476 264.688 36.7691C264.27 36.4906 263.608 36.3514 262.703 36.3514C261.45 36.3514 260.824 36.7923 260.824 37.6741C260.824 38.0454 260.963 38.3239 261.241 38.5096C261.52 38.6952 262.019 38.788 262.738 38.788Z" fill="white"/>
</svg>
