<svg width="329" height="41" viewBox="0 0 329 41" fill="none" xmlns="http://www.w3.org/2000/svg">
<path d="M7.39081 1.51728C14.2731 -2.06589 18.9711 1.74131 25.3556 2.3481C39.4103 3.68113 57.9445 2.48036 72.3191 2.57565C83.1992 2.64787 94.2547 2.90376 105.069 3.10885C105.624 3.11897 105.955 3.51161 106.206 3.51658C108.574 3.56276 112.545 3.20706 114.893 3.25899C119.834 3.36731 128.432 3.30579 132.957 3.67407C134.879 3.83001 136.85 3.89539 137.597 4.83054C138.299 4.87796 138.683 4.03302 138.866 3.98705C138.868 3.98783 138.87 3.98893 138.872 3.98971C139.462 3.84708 140.954 4.43902 141.283 4.40212C141.331 4.39392 141.031 3.78531 141.828 3.96969C141.899 3.98558 141.833 4.40154 142.506 4.40746C142.682 4.4085 144.929 3.77059 145.571 3.73146C147.71 3.60447 152.817 4.10574 155.374 4.09715C155.764 4.09709 155.99 3.85391 156.403 3.84958C156.616 3.84712 156.935 4.11063 157.001 4.10983C157.289 4.10043 158.546 2.90041 158.095 5.26831C159.406 5.11811 159.02 4.33526 159.049 3.82689C160.473 3.75348 161.16 4.86833 161.532 3.68675C168.535 3.82938 175.539 3.97187 182.542 4.1145C182.544 3.92187 182.547 3.72924 182.549 3.5366C184.613 4.3062 185.321 3.0042 186.5 4.12184C187.226 3.8758 187.953 3.62982 188.679 3.38378C207.355 4.14199 225.987 3.24077 244.452 3.24365C245.231 3.24366 245.426 3.65381 246.711 3.65672C248.13 3.65959 250.126 3.18326 251.996 3.18892C253.636 3.19326 256.056 3.58062 257.886 3.64137C258.299 3.65437 258.598 3.39502 258.644 3.39646C258.917 3.40673 258.931 3.8179 259.196 3.82956C259.514 3.84236 259.897 3.53797 260.263 3.55662C261.632 3.62443 263.124 3.51952 263.298 3.52659C264.133 3.56551 264.317 3.96725 264.386 3.9717C265.315 4.0207 264.967 3.65836 265.198 3.67941C266.398 3.79069 267.247 4.6961 268.89 3.82689C268.845 4.16297 268.801 4.49913 268.756 4.83521C270.013 5.02424 269.183 4.1315 269.44 3.96969C269.545 3.90976 272.252 4.01852 272.461 4.03443C273.188 4.09219 273.207 4.53891 273.27 4.54493C273.425 4.559 275.253 4.05251 276.19 4.44216C277.3 4.9042 275.995 5.81284 276.27 5.98368C276.316 6.01256 277.478 5.91956 277.634 6.2039C277.806 6.50969 276.803 6.50362 276.817 6.63165C276.828 6.71974 278.495 7.35083 278.176 7.77545C277.919 8.20133 275.656 7.65527 275.177 7.85553C275.097 7.8887 275.247 8.41409 275.177 8.43343C274.895 8.50417 269.681 8.51998 269.442 8.43343C269.714 8.19405 269.986 7.95477 270.257 7.71539C269.896 7.6912 269.535 7.66684 269.174 7.64265C269.687 7.45086 270.2 7.25921 270.713 7.06742C269.951 5.09635 267.653 7.09454 267.559 8.07841C267.518 8.53338 268.922 9.70366 267.615 10.3854C267.814 10.5021 268.012 10.6189 268.211 10.7357C268.621 10.5439 269.03 10.3523 269.44 10.1605C269.167 10.0395 268.894 9.91839 268.622 9.79744C268.722 9.6607 268.822 9.52378 268.922 9.38704C269.688 9.16768 270.454 8.94841 271.219 8.72905C271.613 8.83016 271.531 9.23421 271.802 9.3123C275.176 10.2958 272.975 9.04378 275.184 9.22421C275.5 9.44108 275.815 9.65798 276.13 9.87485C276.019 8.97816 276.998 9.54102 278.181 9.15414C278.04 9.4444 277.898 9.73474 277.757 10.025C279.471 9.87047 282.946 11.3339 282.009 9.73271C282.402 9.86946 282.795 10.0064 283.187 10.1431C283.519 9.88123 283.851 9.6189 284.183 9.35701C284.641 9.38703 285.1 9.41707 285.558 9.4471C285.561 9.5889 285.562 9.73105 285.564 9.87285C285.199 9.87368 284.833 9.87402 284.468 9.87485C284.742 10.3069 285.016 10.7394 285.291 11.1715C285.561 11.0997 285.831 11.0277 286.1 10.9559C284.969 10.5473 286.461 9.88003 286.822 9.30963C287.776 9.09889 288.386 9.83914 288.706 9.87285C288.856 9.88874 290.628 8.58204 289.933 10.0177C290.845 9.84332 291.757 9.66881 292.668 9.49448C293.025 9.60457 293.381 9.71471 293.737 9.8248C292.964 10.4935 295.206 11.2992 293.554 11.5765C292.321 11.7845 292.017 11.1592 291.432 11.1635C290.904 11.1665 290.625 11.5878 290.051 11.6066C286.19 11.725 283.045 11.6481 279.378 11.4617C278.654 11.4243 277.995 11.6308 277.508 11.6019C276.959 11.5685 277.647 11.0405 276.948 11.1688C276.213 11.3047 276.053 11.7354 275.859 11.744C275.738 11.7489 275.356 11.3619 275.004 11.3616C273.556 11.3617 271.436 11.7358 271.229 11.734C270.996 11.7297 266.901 11.3799 266.705 11.3163C266.601 11.2795 266.816 9.85108 265.914 11.3763C265.633 11.4047 265.351 11.4334 265.07 11.4617C265.115 11.1757 265.161 10.8896 265.207 10.6036C263.539 11.6882 264.112 11.0809 262.504 11.1661C258.654 11.3711 252.975 11.1304 248.764 11.2315C247.824 11.2547 247.466 11.5972 246.354 11.6219C245.32 11.6436 242.622 10.6212 243.208 12.037C240.909 10.811 240.539 12.9252 239.388 11.6066C239.248 11.7984 239.109 11.9906 238.97 12.1825C237.72 11.3594 237.335 12.0827 235.971 12.1825C235.383 12.2258 236.06 11.3497 234.873 12.3246C234.647 12.2521 234.42 12.1796 234.194 12.1071C234.246 11.8953 234.299 11.6835 234.351 11.4718C233.034 11.645 232.948 11.5346 233.099 12.3273C232.463 12.183 231.826 12.0385 231.19 11.8942C231.111 12.1544 231.032 12.4148 230.953 12.6749C231.258 13.1713 245.704 12.4228 247.717 12.1845C250.077 12.7735 254.818 12.0372 256.724 12.1771C257.487 12.2335 257.824 12.8224 258.934 12.8932C260.044 12.9638 261.441 12.4291 262.032 12.41C264.001 12.3436 273.327 12.4612 266.984 13.1935C267.166 13.4804 267.348 13.7674 267.531 14.0543C270.052 13.0752 269.139 13.6776 271.231 13.7787C272.111 13.8218 274.206 13.1815 274.089 14.4847C272.454 14.7274 270.716 14.3105 269.294 14.3292C269.153 14.3313 267.47 14.9266 266.604 14.765C265.822 14.6174 266.36 13.3749 264.66 14.7697C263.397 13.407 262.666 14.6436 262.333 14.775C261.756 15.0028 261.693 14.3303 261.117 14.2518C260.489 14.1653 260.056 14.6118 259.971 14.6149C259.11 14.625 254.627 14.6856 254.42 14.4147C254.6 14.2954 254.78 14.1756 254.96 14.0563C253.796 13.8644 254.039 14.5526 253.733 14.6349C253.505 14.6324 253.277 14.6294 253.049 14.6269C253.139 14.4843 253.23 14.3417 253.32 14.1991C251.945 14.2294 252.997 14.7253 251.045 14.7123C249.805 14.7035 248.525 14.159 248.404 14.1991C248.369 14.2107 248.759 14.5776 248.253 14.6269C247.417 14.7077 245.971 14.6985 245.809 14.1991C245.399 14.2698 245.434 14.7585 245.379 14.7697C245.139 14.8174 241.049 14.9837 240.315 15.0126C238.284 15.092 236.022 14.9876 233.82 15.07C233.594 15.078 233.739 14.765 233.512 14.775C233.148 14.7911 231.278 15.2828 230.999 15.3175C230.302 15.4027 228.469 15.2077 228.18 15.3502C228.14 15.3708 228.742 15.7948 228.037 15.9261C227.255 16.0714 227.676 15.5017 227.633 15.4957C226.039 15.3008 225.033 15.6967 223.945 15.7733C223.592 15.7979 222.941 15.369 222.444 15.4957C222.387 15.5101 222.5 15.9066 222.444 15.9261C221.692 16.1341 220.988 15.3979 220.663 15.3502C219.867 15.2339 220.3 15.7762 220.259 15.7807C219.728 15.798 219.015 15.602 218.208 15.6279C214.613 15.7434 211.678 15.7767 207.855 15.7406C207.376 15.7363 206.806 15.3538 206.732 15.3529C206.505 15.3558 206.57 15.8061 205.914 15.796C204.53 15.7729 203.247 15.7947 201.877 15.786C201.602 15.7839 201.484 15.3666 201.274 15.3576C200.568 15.3318 198.163 16.4236 198.124 15.0653C196.724 16.268 195.794 15.2314 194.667 15.2428C191.999 15.2688 187.82 15.5136 185.159 15.3576C184.599 15.3242 184.336 14.976 184.025 14.9572C183.466 14.9227 180.274 15.1172 180.104 15.0626C179.776 14.9572 179.972 13.4237 178.285 14.7597C177.296 14.8548 177.413 14.2257 177.208 14.1918C175.614 13.9391 174.064 15.3431 174.353 14.0563C172.497 14.4057 171.294 15.117 170.537 13.9142C170.547 14.5012 169.673 14.8532 168.621 14.6295C169.699 13.6432 169.565 13.013 172.171 13.1935C172.212 13.1964 172.134 13.6193 172.174 13.6239C172.546 13.6525 173.322 13.4381 173.956 13.4611C174.591 13.4842 174.239 13.7742 174.493 13.7687C174.725 13.7629 174.717 13.3567 175.054 13.3509C176.145 13.335 177.11 13.2227 177.73 13.2155C178.121 13.2113 178.559 13.5684 178.863 13.5685C180.036 13.5656 182.522 13.2866 184.015 13.3256C184.326 13.3349 184.195 13.7355 184.876 13.7687C184.955 13.772 185.245 13.3547 185.841 13.2682C186.437 13.1816 186.899 13.3888 187.281 13.3456C187.601 13.3095 187.468 12.9384 188.123 12.9152C188.67 12.8964 194.863 13.1642 195.201 13.2235C195.684 13.3088 195.915 13.8296 196.21 13.766C196.262 13.7515 196.35 13.2495 196.53 13.2135C199.5 12.6186 206.072 13.3052 209.465 13.3009C216.558 13.2937 223.102 12.9975 230.258 12.8805C230.385 12.7929 230.513 12.7051 230.64 12.6176L228.47 12.6075C228.466 12.3707 228.461 12.1337 228.457 11.8968C227.479 11.8593 227.608 12.4196 227.636 12.7577C227.274 12.6142 226.912 12.4707 226.55 12.3273C226.238 13.1528 223.825 12.6036 222.581 12.6049C221.771 12.6049 220.808 12.9196 220.382 12.8952C219.48 12.8446 219.504 12.3354 219.433 12.3273C219.312 12.3158 218.054 12.765 217.146 12.7477C215.804 12.7229 215.659 11.9406 213.821 12.6049C211.467 12.1991 208.859 12.4036 206.322 12.4701C206.805 11.7472 204.531 12.4314 203.505 12.42C197.249 12.3493 189.56 12.04 183.221 11.754C182.407 11.7179 181.791 11.2922 181.337 11.3063C181.091 11.3137 180.984 11.8156 180.642 11.7494C180.582 11.7366 180.541 11.2669 179.904 11.1962C178.321 11.0185 174.377 11.8024 173.379 10.9012C167.966 11.0405 162.553 11.1796 157.141 11.3189C157.005 11.1272 156.869 10.9355 156.733 10.7437C155.704 11.7239 151.639 11.1474 149.657 11.1935C146.168 11.2758 141.716 11.5807 138.659 11.6139C137.995 11.6211 137.45 11.3433 136.821 11.349C136.551 11.3519 136.214 11.7121 135.933 11.714C132.772 11.7414 128.492 11.3703 125.306 11.379C118.074 11.3978 111.263 11.3431 103.935 11.359C79.2485 11.4153 54.7041 11.9458 30.2285 11.732C29.9007 11.7289 29.917 11.3145 29.6628 11.3116C28.1617 11.2914 24.8096 11.6326 23.1142 11.6139C21.7636 11.5995 19.6198 10.966 19.1545 11.6039C23.9533 12.5701 29.0232 12.4976 34.0188 12.7677C34.3732 12.7867 34.4181 13.1793 34.4617 13.1881C35.2705 13.3251 34.7603 12.7822 35.9332 12.7577C36.3264 12.75 39.9458 14.0073 39.5151 12.755C40.3826 13.256 46.4936 13.5068 47.6736 13.3409C48.0316 13.2904 47.7787 12.9196 47.8494 12.9005C48.158 12.8186 48.2976 13.3302 48.5734 13.3436C49.309 13.3754 51.1799 12.9604 51.5355 12.9632C52.3533 12.9677 54.8057 13.3837 55.8857 13.2855C56.8752 13.1959 56.6901 12.6621 57.5457 12.6129C58.2202 12.5756 57.4857 13.025 58.9915 13.1608C59.7378 13.2272 62.3486 12.9053 62.9837 12.9052C63.6181 12.9052 64.324 13.2253 65.199 13.2008C66.4594 13.1661 69.2013 12.9877 70.484 12.8852C70.5605 12.8794 70.747 12.4644 70.9356 12.4727C71.3264 12.4902 71.2094 13.003 71.5043 13.0553C71.7995 13.1073 76.9136 13.0449 77.7822 13.0506C78.3808 13.0535 78.7942 12.7477 79.125 12.7504C79.3846 12.7533 79.4125 13.1807 79.6774 13.1854C79.7603 13.1849 80.4578 12.8144 81.1546 12.8231C81.8137 12.8319 84.3143 13.1847 84.6044 13.1881C84.793 13.1896 84.5864 12.886 85.1439 12.8932C85.6522 12.9006 85.9863 13.295 86.276 13.3009C86.9483 13.3137 87.7 12.9769 88.4133 12.9752C90.4641 12.9709 90.3588 13.4598 90.4819 13.4757C90.8228 13.5198 90.9595 13.073 91.0715 13.0633C91.5444 13.0258 92.7034 12.9426 93.1249 12.9252C93.6498 12.9036 93.8723 13.3294 94.4299 13.3309C94.8456 13.3306 95.6856 12.9154 96.6341 12.8952C98.7723 12.8475 101.315 12.7692 103.415 12.7851C104.041 12.7894 104.137 13.178 104.329 13.1881C105.335 13.2414 105.898 12.8074 106.185 12.8131C108.233 12.8521 111.886 13.5334 113.786 13.5912C114.56 13.6143 117.948 13.2993 119.859 13.3556C120.078 13.3614 119.874 13.666 120.117 13.6185C120.699 13.5043 120.645 12.8844 120.94 12.9032C121.083 12.9143 121.408 13.2634 121.823 13.2982C123.975 13.4787 125.454 13.2067 126.436 13.2255C135.864 13.406 145.478 13.569 154.283 13.6239C155.264 13.6297 156.482 13.2604 157.964 13.6185C158.009 13.8111 158.055 14.0038 158.1 14.1964C158.152 14.0071 158.205 13.8178 158.256 13.6286C159.935 13.526 160.569 13.2826 162.284 13.5238C162.431 13.544 162.882 14.4233 163.161 13.3309C164.859 14.1224 163.927 13.3245 165.188 13.2508C166.448 13.1773 167.673 13.4208 168.895 13.4757C169.565 13.8671 166.755 14.7695 166.571 14.767C166.276 14.7635 165.969 14.221 165.685 14.1918C164.843 14.1054 164.029 14.5362 163.84 14.0516C162.752 14.5642 164.106 14.308 163.97 14.7697C163.244 14.5787 162.518 14.3875 161.792 14.1964C161.422 15.7668 157.409 13.7194 157.688 14.9152C157.369 14.6758 157.049 14.4358 156.73 14.1964C155.331 15.6965 154.507 14.6408 152.64 14.1944C152.774 14.3863 152.91 14.5778 153.044 14.7697C153.006 14.8497 151.358 15.1565 151.947 14.3393C150.258 15.416 150.329 13.6249 148.814 14.9198C147.915 15.0858 148.456 14.3336 146.845 14.3466C145.891 14.3538 144.706 14.7476 143.64 14.775C143.394 14.7801 143.288 14.3447 143.069 14.3446C142.851 14.3448 142.744 14.7716 142.479 14.7824C141.932 14.8054 141.224 14.5061 140.882 14.5348C140.576 14.5594 140.137 14.936 139.399 14.9952C136.821 15.2046 137.6 14.6668 137.193 14.4847C136.755 14.2913 136.441 14.9993 135.569 14.9172C135.482 14.9082 135.708 14.4674 135.423 14.4847C135.194 14.4983 135.079 14.9777 134.319 15.0673C134.017 15.1034 129.32 15.2067 128.605 15.2154C127.508 15.2284 125.066 14.8222 123.931 14.8251C123.494 14.8252 123.026 15.2099 122.562 15.2074C121.022 15.1988 118.558 15.1662 116.605 15.1474C114.847 15.1299 111.761 14.2794 110.798 15.0473C108.33 15.1469 107.73 14.491 107.544 14.4821C107.041 14.4575 106.808 14.8923 106.173 14.9125C97.9565 15.1652 87.1368 14.8778 79.3549 14.9125C61.3027 14.9963 43.1518 15.2335 25.0367 15.0573C24.9882 15.25 24.9397 15.4432 24.8912 15.6359C27.0322 15.7601 29.5484 16.0945 31.6621 16.1711C34.4839 16.272 38.6698 15.4695 40.7397 16.7863C39.9003 16.9018 38.5325 16.3974 38.557 17.0746C40.0576 17.123 41.5585 17.171 43.0591 17.2194C43.0144 16.9067 42.9694 16.5939 42.9247 16.2812C44.4914 16.1902 46.0939 16.2585 47.666 16.2138C47.9391 16.2064 47.746 15.9223 47.9838 15.9208C48.2498 15.9198 48.0696 16.2088 48.1194 16.2111C48.7919 16.2139 48.9948 15.9219 49.0769 15.9261C49.2874 15.9377 49.1238 16.2158 49.7305 16.2938C50.8566 16.4395 51.6632 15.7 51.3987 16.9318H52.4894C52.5835 16.5966 52.6776 16.2614 52.7717 15.9261C55.0078 17.2798 56.0393 14.9047 57.275 16.789C57.6824 16.5013 58.0899 16.2139 58.4973 15.9261C58.7269 16.2614 58.9568 16.5966 59.1865 16.9318C59.2312 16.644 59.2756 16.3561 59.3203 16.0683C61.5158 16.2805 63.8535 15.935 65.9533 15.9682C67.416 15.9913 67.7665 16.1053 69.062 16.0836C71.9439 16.0345 69.0822 16.6054 71.4769 17.2221C71.3523 16.8693 71.2273 16.5165 71.1027 16.1637C71.4992 16.0345 71.8959 15.9053 72.2924 15.776C72.5684 16.0637 72.8446 16.3512 73.1206 16.6389C74.3447 15.147 75.1382 16.3499 75.3056 16.3512C75.4403 16.3486 75.9033 15.4502 77.3527 16.2111C76.7517 14.9827 78.4586 16.2039 78.5953 16.2111C78.7253 16.2161 80.387 15.942 81.0615 15.9535C81.592 15.9623 82.7235 16.2267 83.5136 16.2138C84.2112 16.2023 84.1408 15.785 84.1917 15.7807C85.0501 15.7461 84.5122 16.0704 85.1329 16.0863C85.7535 16.1021 86.2352 15.7462 86.3691 15.778C86.4363 15.7952 86.2114 16.1836 86.5199 16.2211C87.3485 16.3233 88.8465 15.9835 89.7951 15.9935C90.1313 15.9967 90.5556 16.3258 90.93 16.3359C91.504 16.3501 91.7723 15.9132 92.1058 15.9261C92.2218 15.9319 92.9623 16.6078 93.8828 16.5041C94.0579 16.4832 94.5724 15.0522 95.2558 17.0793C95.3085 16.7941 95.3614 16.509 95.4141 16.2238C98.5012 15.5175 99.3602 17.8347 100.733 15.778C102.974 16.0077 101.436 16.8089 101.682 16.9318C101.841 17.0094 102.572 16.7891 102.652 16.8017C102.794 16.8262 102.77 17.0833 102.925 17.082C105.783 17.0343 104.514 16.5488 105.419 16.2411C107.571 15.5091 109.25 17.1342 105.507 16.6462V17.0766C106.428 16.9395 108.768 17.005 107.987 17.7326C107.371 18.3058 101.822 17.932 104.965 18.7363C105.679 18.9182 106.048 18.3794 107.284 19.3889C108.102 19.4435 108.219 18.1359 109.326 18.6608C109.144 18.2046 108.962 17.7484 108.78 17.2922C110.29 16.6974 112.152 17.4951 113.311 17.2394C113.705 17.1523 115.124 14.9772 114.793 17.152C115.456 17.0166 118.575 17.417 119.155 17.2221C119.294 17.1737 119.477 16.0173 121.493 16.4213C121.633 16.5664 121.773 16.7113 121.913 16.8564C120.068 17.2781 123.326 17.7075 122.441 18.8063C122.141 18.3125 120.678 18.011 120.442 17.7626C120.04 17.3351 121.237 16.7843 119.712 16.9345C118.75 18.7707 121.499 17.9257 121.079 19.6692C123.083 18.8552 123.283 19.6322 123.736 19.6645C125.675 19.7959 126.895 19.6111 128.724 19.8146C129.17 19.4565 125.858 18.9394 125.448 19.0939C126.958 17.8244 124.36 17.7668 123.263 18.5207C123.171 18.137 123.079 17.7532 122.987 17.3696C124.415 17.5775 125.807 17.6844 127.221 17.3696C127.313 17.513 127.404 17.6566 127.496 17.8C127.179 18.016 126.862 18.232 126.545 18.448C127.721 18.8016 127.016 17.6834 128.582 18.6635C128.631 18.2314 128.679 17.799 128.727 17.3669C130.229 17.5104 131.731 17.6539 133.233 17.7973C134.015 16.9309 136.905 17.2542 136.376 18.3759C137.542 18.455 136.103 17.8581 137.196 17.5851C137.672 17.4667 138.601 17.4334 138.831 17.7353C138.732 18.8032 137.34 18.9357 136.919 19.6692C137.175 19.9058 143.646 19.1435 143.069 20.3926C143.586 20.5427 143.348 19.8993 144.28 19.7346C146.892 19.2754 150.936 20.547 153.039 18.9511C150.57 18.063 149.839 19.0037 147.947 19.0412C146.738 19.0658 139.37 19.217 141.016 18.0876C140.745 18.2311 140.474 18.3746 140.204 18.518L139.383 17.5097C140.154 17.4613 140.925 17.4133 141.696 17.3649C141.88 17.7002 142.064 18.0353 142.248 18.3706C142.333 18.1313 142.418 17.8918 142.503 17.6525C142.827 17.605 143.152 17.5573 143.477 17.5097C143.386 17.7975 143.295 18.0855 143.204 18.3732C143.704 18.4224 144.204 18.4715 144.704 18.5207C144.569 18.1362 144.435 17.7514 144.3 17.3669C146.656 17.2702 145.859 17.5112 147.166 18.2304C148.141 18.3039 146.493 17.5647 148.557 17.3769C150.958 17.1589 149.383 18.3342 152.492 18.0829C152.537 17.8911 152.582 17.6989 152.626 17.507C153.31 17.6989 153.993 17.8911 154.677 18.0829C154.586 17.8444 154.496 17.6055 154.406 17.3669C155.816 17.4593 157.761 17.0044 158.228 17.9401C156.799 17.4897 156.812 19.1238 157.184 19.4243C157.952 20.0407 169.292 19.4674 171.49 19.4269C174.301 19.375 176.426 19.8981 178.993 19.0939C177.253 18.4344 171.135 18.9743 169.976 18.518C169.861 18.4733 169.893 16.9758 169.155 18.6608C166.776 18.375 163.933 18.8527 160.961 18.8037C161.051 18.3724 161.142 17.941 161.233 17.5097C163.059 18.4268 164.75 16.4128 164.513 18.0876H165.603V17.2221H167.247V18.0876H168.609C168.656 17.8 168.703 17.5124 168.751 17.2248C170.11 17.8225 174.744 16.2243 172.707 17.9428H174.622C174.62 17.7318 174.617 17.5205 174.615 17.3095C174.89 17.2812 175.165 17.2531 175.439 17.2248C175.349 17.4157 175.258 17.6064 175.168 17.7973C176.425 17.4551 177.618 18.4609 178.443 17.8C177.899 17.6557 177.354 17.5112 176.81 17.3669C177.854 17.6409 179.779 17.0734 179.951 17.0719C180.476 17.0692 180.753 17.4953 181.321 17.5171C181.834 17.5355 181.764 17.2082 181.86 17.2194C184.629 17.5531 183.574 19.3277 184.867 17.2268C185.005 17.5136 185.142 17.8007 185.28 18.0876C185.463 17.8483 185.646 17.6089 185.829 17.3696C186.647 17.3921 187.465 17.4145 188.283 17.437C188.01 17.0783 187.737 16.7199 187.465 16.3612C188.691 16.2012 189.263 16.92 189.381 16.9365C189.717 16.9782 189.871 16.5269 189.975 16.5261C194.97 16.5651 191.936 16.9626 194.433 18.6582C195.323 17.9928 194.422 17.3257 194.296 16.6489C195.479 16.9663 195.849 16.7789 197.098 16.8164C197.423 16.8266 197.773 17.1918 197.978 17.1967C198.156 17.201 198.711 16.8134 199.138 16.8117C199.848 16.8088 200.795 17.0403 201.768 17.0346C202.578 17.0288 205.055 16.7545 206.783 16.7516C207.52 16.7516 207.35 17.0756 207.54 17.0766C207.619 17.0766 208.194 16.6878 208.667 16.6862C212.525 16.6776 216.479 16.9237 220.357 16.9165C223.088 16.9121 225.864 16.5998 228.601 16.6315C229.183 16.6387 228.875 16.9243 229.129 16.9345C229.217 16.937 229.322 16.4387 230.222 16.6389C230.548 16.7111 230.174 17.0592 230.493 17.0766C230.649 17.0849 230.715 16.6484 231.626 16.5488C233.28 16.3669 234.169 16.9491 234.316 16.9318C234.595 16.8983 234.514 16.5371 234.883 16.5241C236.687 16.4605 238.193 16.3989 239.803 16.3686C240.555 16.3541 245.74 16.2809 246.025 16.3459C246.662 16.4904 246.069 17.2451 246.886 17.2194C247.114 17.0284 247.343 16.8372 247.572 16.6462C247.208 16.5011 246.845 16.3562 246.482 16.2111C247.482 16.4536 248.617 16.1107 249.358 16.1237C249.496 16.1269 250.755 16.4687 251.398 16.4313C251.125 16.5731 250.851 16.7147 250.578 16.8564C250.675 16.9773 250.771 17.0985 250.868 17.2194C252.153 17.0361 253.512 17.0406 254.83 17.0666C255.305 17.0755 255.145 17.3695 255.626 17.3796C258.428 17.4415 257.72 16.2201 260.416 18.5134C259.505 18.3056 256.186 18.5969 255.702 18.5207C255.366 18.4673 254.062 16.5296 254.54 18.518C251.849 18.5094 254.186 17.4128 251.674 17.6525C251.724 17.8952 251.774 18.1379 251.824 18.3806C250.947 18.5336 250.299 18.6561 249.766 18.2278C249.587 19.4053 246.607 18.717 244.972 18.7963C242.609 18.909 239.94 19.1962 237.6 19.2468C236.793 19.2639 236.337 18.8023 236.235 18.8037C236.088 18.807 235.672 19.2112 235.377 19.2141C234.275 19.2256 230.922 18.5424 230.088 19.6645H249.76C248.935 19.1129 255.568 19.0592 255.904 19.0866C256.215 19.1114 255.954 19.4977 256.046 19.5217C256.735 19.6878 257.324 19.1266 257.542 19.1266C257.709 19.127 258.046 19.39 258.639 19.3842C258.748 19.3834 258.778 19.1048 258.895 19.1039C259.669 19.1039 260.433 19.1081 261.209 19.1066C261.256 19.1093 261.453 19.5163 261.649 19.517C261.845 19.5169 262.04 19.1099 262.089 19.1086C262.71 19.1116 263.774 19.376 264.364 19.3789C264.569 19.3788 264.427 19.0813 264.657 19.0839C265.362 19.0912 265.13 19.6746 266.002 19.5244C266.295 19.4737 266.276 19.0278 266.836 19.0866C267.232 19.1288 267.19 19.9232 267.253 19.9521C267.342 19.9858 268.707 19.3599 269.155 19.8794C268.177 21.2532 270.225 19.9512 270.126 19.3715C270.668 19.5175 271.211 19.6633 271.753 19.8093C271.938 19.6625 272.123 19.5156 272.308 19.3689C274.495 20.0303 275.83 19.6337 277.981 19.8373C278.085 19.8474 279.898 20.1733 279.814 20.3799C278.728 20.735 277.646 20.7516 276.951 20.0949C275.808 21.347 275.788 20.3492 273.943 20.5153C273.325 20.5717 273.281 20.9114 273.21 20.9157C270.807 21.0847 266.957 21.231 265.338 20.2377C264.885 20.5063 266.516 20.6125 265.882 20.8103C265.536 20.9186 257.209 21.236 259.869 20.0923C259.593 20.1239 259.317 20.156 259.04 20.1877C258.764 21.2676 257.391 21.0206 257.547 19.9448C257.417 20.1649 257.287 20.3853 257.157 20.6054C256.9 20.7917 256.596 20.8912 256.169 20.9504C254.536 21.1757 244.818 20.8012 244.301 20.9558C244.29 21.2109 244.278 21.4661 244.266 21.7212C248.559 22.01 252.724 21.3761 257.406 22.1069C257.27 21.8676 257.133 21.6282 256.997 21.3889C258.865 21.7242 260.733 22.0592 262.601 22.3945C260.624 22.8278 257.479 23.1917 255.403 22.835C255.035 22.7713 255.304 22.4382 255.221 22.3972C254.999 22.2922 254.761 22.8714 253.965 22.9277C253.169 22.9839 251.172 22.5736 250.987 22.5847C250.634 22.6086 249.681 23.2711 249.079 23.2627C248.289 23.2512 248.819 22.8411 248.66 22.8323C248.004 22.792 247.416 22.9954 246.902 22.9651C246.139 22.92 244.553 22.1988 244.02 23.258C244.565 23.3064 245.111 23.3545 245.656 23.4029C242.7 23.7827 240.388 22.4287 237.476 23.4729C236.815 24.7554 239.221 24.5825 237.186 25.1299C237.556 25.1115 237.925 25.0928 238.295 25.0745C238.381 24.806 238.468 24.5376 238.555 24.269C239.191 24.4608 239.827 24.6525 240.463 24.8443C240.282 24.605 240.101 24.3655 239.919 24.1262C242.175 23.9457 244.453 23.7003 245.24 24.9871C245.287 24.676 245.333 24.3646 245.379 24.0535C247.474 24.4318 250.618 23.1131 250.03 24.8443C250.129 24.7526 250.229 24.661 250.328 24.5693C251.594 24.9232 251.053 24.2071 251.529 24.1262C251.665 24.1035 254.126 24.4732 253.036 24.9871C255.436 25.3797 254.696 23.7615 255.357 23.6905C256.894 24.4919 259.658 23.2901 258.496 24.5567C258.725 24.6042 258.954 24.6519 259.182 24.6995C259.934 23.7029 260.676 24.8303 261.49 25.2073C261.766 25.2298 262.043 25.2522 262.319 25.2747C262.503 24.9395 262.688 24.6043 262.873 24.269C265.471 25.865 264.649 21.5002 265.835 25.1673C265.65 25.3866 265.465 25.6059 265.281 25.8252C264.842 25.9295 264.404 26.034 263.965 26.1382C265.734 26.235 267.502 26.3317 269.271 26.4285C271.515 27.4562 272.792 26.3408 275.286 27.1539C275.519 27.0563 275.753 26.9592 275.986 26.8616C275.748 27.6918 274.843 27.5694 276.53 27.942C276.674 28.5291 275.534 28.6053 275.015 28.1549C274.89 28.0449 275.955 27.5955 274.757 27.5796C273.943 27.5683 275.422 28.2734 272.983 28.0121C273.073 28.1555 273.164 28.2991 273.254 28.4425C272.99 28.4383 272.725 28.4346 272.461 28.4305C272.226 28.0985 271.99 27.7661 271.755 27.4342C271.151 27.9136 270.812 28.5854 269.431 28.4425C269.805 28.2344 269.297 27.5684 268.614 27.5796V28.3003C266.96 28.4549 267.531 27.7501 266.155 28.3003C266.018 28.1094 265.88 27.9181 265.743 27.7271C264.994 28.5142 262.235 29.0495 262.738 27.8699C261.964 29.0163 260.339 28.4987 259.735 27.5816C259.688 27.8202 259.642 28.0591 259.595 28.2977C259.273 28.3461 258.952 28.3941 258.63 28.4425C258.451 28.2982 258.271 28.1543 258.092 28.0101C257.864 28.1543 257.636 28.2982 257.408 28.4425C257.27 28.2031 257.132 27.9638 256.995 27.7244C256.628 28.0113 256.262 28.2984 255.896 28.5853C255.671 28.3943 255.447 28.2031 255.223 28.0121C255.2 28.5114 252.978 28.6228 252.357 28.295C252.173 28.4401 251.988 28.5856 251.803 28.7308C251.712 28.493 251.622 28.2551 251.532 28.0174C251.394 28.2075 251.256 28.3978 251.119 28.588C250.802 28.3978 250.484 28.2076 250.167 28.0174C248.874 29.1822 248.832 28.161 248.537 28.1676C247.99 28.1809 246.125 28.9105 245.813 28.8729C245.502 28.8349 245.352 28.4173 245.101 28.3778C240.959 27.7207 242.661 28.8432 241.831 29.0211C241.382 29.1178 241.065 28.7277 240.668 28.7708C239.99 28.843 236.569 29.3592 236.372 29.3087C236.086 29.2357 236.76 27.3957 235.829 27.8699C235.797 28.8577 233.806 27.8608 234.737 29.2386C233.916 29.1177 233.096 28.9965 232.276 28.8756C232.369 30.0469 231.357 29.2937 230.255 29.3587C228.693 29.4499 225.178 30.2198 225.306 29.0184C224.932 29.2944 224.559 29.5705 224.185 29.8465C221.626 29.4683 219.115 29.8648 216.575 29.8792C209.036 29.924 200.857 29.663 193.354 29.4261C192.994 29.4143 193.046 29.022 192.786 29.0131C191.422 28.9697 187.875 29.2479 185.964 29.1612C185.352 29.1337 185.053 28.7506 184.859 28.7328C184.2 28.6707 184.356 29.1756 184.052 29.1612C183.573 29.138 181.042 28.6698 180.169 28.6207C179.737 28.5964 179.226 28.9967 178.721 28.8729C178.678 28.8609 178.757 28.4497 178.721 28.4425C177.799 28.392 178.353 28.7495 178.042 28.7308C175.819 28.5965 173.443 28.5878 171.031 28.5025C170.432 28.4809 169.516 28.1897 169.002 28.1622C168.806 28.1528 169.157 28.4665 168.479 28.4405C168.248 28.4313 168.168 28.0238 167.906 27.9974C166.777 27.8862 166.399 29.1957 165.429 28.1422C163.556 28.2115 160.295 28.548 158.586 28.5553C158.182 28.5565 157.985 28.3161 157.6 28.3204C157.327 28.3233 156.845 28.6962 156.419 28.7007C155.992 28.7051 155.319 28.3494 154.499 28.3624C153.635 28.3755 152.561 28.5866 152.366 28.5853C152.131 28.585 152.021 28.1365 151.786 28.1422C151.075 28.1567 149.172 28.5976 148.256 28.6454C147.272 28.6959 146.681 28.4783 146.345 28.4825C146.033 28.4885 145.67 28.8675 145.528 28.8709C145.306 28.8767 145.254 28.4342 144.973 28.4378C144.514 28.445 144.04 28.7234 143.351 28.7308C130.948 28.868 118.788 28.6244 106.721 28.3024C105.376 28.2663 104.615 28.5766 102.633 28.4351C101.83 28.3774 102.168 27.9211 101.542 28.0074C101.264 28.0464 101.334 28.4051 100.981 28.4225C99.4229 28.4976 97.607 28.1645 96.9315 28.1702C96.6637 28.1719 96.3574 28.5794 95.8082 28.5853C91.7149 28.6315 86.8721 28.5172 82.4671 28.588C80.1347 28.6255 76.6037 28.8335 73.9268 28.8609C66.5305 28.9374 58.5737 28.8425 51.8282 28.8829C41.6426 28.9421 31.5056 29.3192 21.3419 28.8729C26.0969 29.8593 32.5718 29.777 37.8655 29.8839C53.1562 30.1901 69.4371 29.6173 85.1078 29.639C90.5601 29.6462 97.4348 29.6237 103.404 29.8519C103.675 29.8618 104.236 29.5484 104.821 29.5816C104.945 29.5894 106.486 30.1611 107.006 30.1669C106.514 29.1503 108.547 30.0564 109.177 30.0321C109.97 30.0001 111.624 29.4918 113.48 29.7791C115.165 30.0391 114.7 30.4299 114.793 30.4545C115.389 30.6128 115.597 29.9832 116.053 29.9193C117.918 29.6651 127.51 30.031 130.187 30.0541C130.879 30.0599 130.899 30.4609 131.055 30.4625C131.467 30.4651 132.055 30.0694 132.716 30.0721C133.908 30.0779 135.282 30.4557 135.938 30.4571C137.507 30.4615 140.486 30.0154 142.525 30.0067C143.099 30.0041 143.064 30.4212 143.324 30.4198C144.467 30.4124 147.444 29.921 148.863 29.9166C151.168 29.9094 153.54 30.1793 155.883 30.0421C156.031 30.2281 156.18 30.414 156.329 30.5999C156.563 30.4048 156.797 30.2092 157.031 30.014C160.993 30.1628 165.026 29.7444 168.967 29.7718C169.421 29.7747 171.668 30.1306 172.043 30.1322C172.354 30.1322 172.661 29.6712 173.124 29.7391C173.77 29.8335 173.162 30.7107 174.219 30.4598C174.503 30.3919 174.228 30.0163 174.799 29.8993C174.987 29.8603 178.649 29.7078 178.846 29.7338C179.174 29.7776 179.467 30.5826 179.552 30.5999C179.992 30.6907 179.973 30.0731 180.268 30.0167C181.139 29.8481 182.278 30.2634 182.419 30.2543C184.131 30.1402 187.331 29.6476 189.128 29.9393C189.376 29.98 189.346 30.4395 189.39 30.4545C189.671 30.5496 189.846 30.0262 190.114 30.014C191.555 29.9548 193.812 30.3075 195.261 30.3971C195.428 30.4066 195.78 30.1553 196.078 30.1795C197.762 30.3211 197.216 30.7254 197.312 30.7428C197.539 30.7856 197.938 30.3399 198.542 30.3123C200.097 30.2387 203.081 30.3024 204.749 30.337C205.997 30.3645 205.98 30.8738 206.062 30.8849C206.237 30.9032 206.724 30.496 207.546 30.4498C209.129 30.3589 208.949 30.7601 209.6 30.7428C209.654 30.7423 209.56 30.3501 210.281 30.3097C211.676 30.2318 214.809 30.6174 216.301 30.5973C216.876 30.5901 217.01 30.2114 217.598 30.2042C218.53 30.1914 220.633 30.6008 220.8 30.5999C220.846 30.5999 220.95 30.1642 221.224 30.1642C221.524 30.1643 221.82 30.3884 222.045 30.3871C223.321 30.3811 225.521 29.6213 224.91 31.1752C225.319 30.7915 225.728 30.4077 226.137 30.024C228.812 30.1006 231.409 29.9472 234.059 29.8692C234.655 29.8519 235.153 30.1464 235.656 30.1322C236.159 30.1176 238.377 29.6308 238.748 29.6217C239.41 29.6058 243.17 29.5543 243.638 29.589C244.551 29.6555 245.437 30.2978 245.809 30.1722C246.107 30.0711 245.831 29.7089 246.4 29.6063C247.384 29.4289 249.057 29.8938 249.358 29.8866C249.486 29.8834 249.247 29.6019 250.448 29.5816C251.096 29.5701 251.445 29.8807 251.68 29.8792C251.753 29.877 251.644 29.3738 252.926 29.4415C253.812 29.4892 254.19 29.8778 254.283 29.8792C254.422 29.8816 254.759 29.4671 255.319 29.4815C256.629 29.5177 259.024 29.9932 260.268 30.0294C260.509 30.0366 260.427 29.5356 261.386 29.5816C262.072 29.6148 261.953 30.0134 262.21 30.0294C262.617 30.0538 263.224 29.5658 264.123 29.5816C265.256 29.6018 273.661 30.1082 274.096 30.2396C274.389 30.3276 274.728 30.3333 274.873 30.5499C274.748 30.7575 274.624 30.9655 274.5 31.1732C273.213 30.4444 273.732 31.277 273.391 31.3307C272.896 31.4072 271.031 31.3007 270.58 31.4855C270.419 31.5523 270.787 31.9961 269.923 32.2242C268.996 32.468 268.584 31.6784 268.215 32.7567C266.9 31.5597 265.636 32.8304 267.159 33.1698C268.01 33.3591 276.35 33.7867 278.053 33.8532C279.434 33.9065 282.021 33.5853 283.719 33.6676C284.717 33.7167 287.174 33.7726 287.071 34.3456C287.956 34.4178 287.019 33.8472 287.205 33.7677C287.595 33.6022 290.358 33.9962 290.882 33.9806C293.463 33.9055 296.72 33.2645 299.228 33.988C299.111 34.1414 298.995 34.295 298.878 34.4484C298.315 34.73 295.701 34.3278 295.406 35.0644H306.874C306.802 34.4375 311.544 34.4456 311.769 34.7287C311.685 35.0323 311.602 35.336 311.519 35.6396C308.84 34.4873 309.079 36.0105 307.28 35.2018C306.548 35.1904 306.769 35.6918 306.408 35.7871C302.816 36.7341 306.35 34.7577 303.601 35.2065C304.428 35.9341 302.176 36.2004 301.167 36.2929C300.937 36.3131 297.921 36.1285 297.563 36.1401C295.55 36.2051 292.094 36.604 290.095 36.2055C288.52 36.1579 287.653 36.6761 286.223 36.7961C285.138 36.887 285.449 36.5223 284.938 36.5178C283.866 36.5078 283.514 37.6166 282.828 36.07C282.101 36.2627 281.374 36.4552 280.647 36.6479V35.9272H279.278C279.144 36.1666 279.01 36.4065 278.875 36.6459C277.427 36.318 278.032 35.7392 277.761 35.059C277.448 35.0123 277.135 34.9656 276.822 34.9189C276.58 35.441 276.337 35.9636 276.095 36.4858C274.698 36.4432 273.301 36.4002 271.904 36.3576C271.813 36.1183 271.723 35.879 271.632 35.6396C271.63 35.8789 271.627 36.1183 271.624 36.3576C269.258 36.4068 266.891 36.4566 264.525 36.5058C263.896 36.8897 267.685 37.1806 267.974 37.2038C269.571 37.3308 273.811 36.9457 273.817 37.799C274.81 37.1623 277.798 37.3207 278.728 38.0847C277.317 38.0388 275.906 37.9931 274.495 37.9472C274.541 38.2332 274.586 38.5194 274.632 38.8054C272.874 37.6515 272.616 37.715 270.809 38.8054C270.807 38.4217 270.806 38.0379 270.804 37.6542C269.544 38.9885 267.316 36.7251 267.253 38.3723C266.582 38.2388 265.91 38.1053 265.239 37.9719C263.79 38.1727 266.04 39.4395 260.367 38.9428C259.976 38.9081 260.057 38.4884 259.47 38.5171C259.3 38.5258 258.329 39.1365 256.472 39.073C256.183 39.0626 256.161 38.6988 255.86 38.6526C255.166 38.5429 253.783 39.2625 254.411 38.0893C251.66 37.7472 252.8 38.7103 251.947 39.093C251.379 39.347 251.493 38.6526 251.001 38.81C250.392 39.0053 250.838 39.7052 248.4 39.3833C248.674 39.3357 248.948 39.288 249.221 39.2405C249.084 39.0503 248.946 38.8601 248.808 38.6699C247.417 39.1261 247.548 38.4598 246.892 39.5281C245.88 39.0515 245.004 39.0137 243.621 39.1003C240.933 39.2694 242.311 40.421 239.243 38.8701C238.746 39.0878 238.25 39.3057 237.753 39.5234C236.936 39.0656 237.596 38.4925 236.377 38.377C237.332 39.5078 234.759 39.0959 234.324 40.104C234.278 39.8638 234.233 39.6235 234.187 39.3833C233.915 39.3833 233.642 39.3833 233.37 39.3833C233.369 39.5759 233.368 39.7685 233.368 39.9612C233.005 39.8169 232.642 39.6724 232.279 39.5281C232.007 39.719 231.734 39.9104 231.461 40.1013C231.013 39.6984 230.564 39.2957 230.116 38.8928C229.834 38.8653 229.553 38.8376 229.271 38.81C229.36 39.0969 229.449 39.384 229.538 39.6709C229.177 39.575 228.815 39.4792 228.453 39.3833C228.874 39.8541 228.609 40.406 227.483 40.3916C226.553 40.3799 227.6 39.3977 225.601 39.8064C225.462 39.8357 225.215 40.5362 223.326 40.6445C221.061 40.7744 222.161 40.2664 221.757 40.2488C221.676 40.2467 220.985 40.5986 220.338 40.6492C219.971 40.6779 219.616 40.394 219.567 40.3943C219.34 40.4073 219.274 40.8101 218.96 40.8247C218.161 40.8593 217.09 40.6618 216.308 40.6819C215.952 40.6906 215.618 40.9292 215.459 40.9321C215.213 40.9347 214.901 40.5704 214.653 40.5718C213.734 40.5794 212.339 41.7888 211.913 40.1087C211.03 41.6535 209.179 39.7862 209.315 40.822C206.954 40.4311 200.66 41.702 200.845 39.9612C199.508 41.4495 199.627 40.3722 199.068 40.3943C198.441 40.4188 198.766 40.7076 198.268 40.6946C197.106 40.6642 195.996 40.5402 194.839 40.5344C195.021 40.2958 195.202 40.0569 195.384 39.8184C194.17 39.7418 194.588 40.2973 193.35 40.4043C191.072 40.5993 192.032 40.1561 191.695 39.5308C191.786 40.1343 189.101 40.0406 188.827 39.9612C188.664 39.9128 189.378 39.1351 187.734 39.3859C187.823 39.6252 187.913 39.8647 188.003 40.104C187.254 39.7766 185.218 40.1919 184.873 40.1113C184.714 40.0719 183.866 38.1439 183.089 39.6709C182.996 39.4316 182.902 39.1922 182.808 38.9529C181.946 39.2406 181.084 39.5286 180.222 39.8164C180.084 39.3851 179.947 38.9537 179.809 38.5224H178.988C179.17 38.9053 179.352 39.2881 179.533 39.6709C177.844 39.4976 175.779 40.1013 175.431 38.81C175.07 39.0494 174.708 39.2887 174.346 39.5281C174.11 39.0986 173.875 38.669 173.639 38.2395C171.964 38.3478 171.936 38.6352 170.79 39.093C170.835 38.7577 170.88 38.422 170.925 38.0867C170.08 38.5575 168.537 38.9964 167.318 39.0556C166.738 39.0829 165.743 38.6212 165.606 38.6626C165.468 38.7067 164.108 40.522 163.96 38.9502C161.959 39.6463 161.078 38.9356 160.266 38.9529C159.738 38.9645 159.497 39.3416 158.901 39.3806C158.048 39.4369 157.19 39.2546 156.698 39.2805C156.416 39.2964 156.363 39.6646 156.169 39.6762C155.251 39.7324 155.789 39.3561 154.821 39.3806C154.732 39.3849 154.025 39.8339 153.228 39.7763C152.782 39.7444 151.629 39.2395 151.527 39.2405C151.076 39.2491 151.436 40.2583 149.894 39.093C149.939 39.2847 149.983 39.4765 150.028 39.6682C148.12 40.1549 147.818 39.2997 147.433 39.2405C147.383 39.2361 146.919 39.566 146.641 39.5207C146.172 39.4429 145.982 38.9908 145.878 38.9702C145.512 38.9009 144.277 39.1001 143.471 38.6626C143.64 39.9508 140.814 40.4089 140.187 38.9502C139.687 39.238 139.187 39.5259 138.686 39.8137C138.46 39.5735 138.234 39.3332 138.008 39.093C137.87 39.3324 137.732 39.5716 137.594 39.811C136.865 39.2839 136.136 38.7566 135.407 38.2295C135.361 38.7575 135.314 39.2857 135.268 39.8137C135.064 39.7536 134.859 39.6936 134.655 39.6335C134.496 39.214 134.337 38.7944 134.177 38.3749C133.922 38.455 133.667 38.5351 133.412 38.6152C133.349 38.9188 133.285 39.2225 133.222 39.5261C131.85 39.8761 132.555 36.9803 129.942 39.5261C129.535 39.2867 129.128 39.0468 128.722 38.8074C128.262 39.9724 127.402 39.2671 126.707 39.398C126.218 39.4904 126.244 39.9536 125.577 39.9638C124.911 39.9739 124.934 39.532 124.882 39.5281C124.339 39.5009 123.928 39.8915 123.529 39.8137C123.469 39.8015 123.318 39.2766 122.81 39.2431C122.302 39.2099 121.995 39.7689 121.238 39.6636C120.85 39.6101 120.737 39.167 120.393 39.1277C118.753 38.937 117.101 41.1799 115.87 38.5198C115.593 38.8568 113.581 40.0364 112.719 39.9685C111.381 39.8601 111.897 39.3388 111.364 39.2431C111.288 39.2287 110.88 39.4049 109.757 39.3733C109.556 39.3675 109.602 39.6614 109.574 39.6662C108.264 39.6604 105.721 39.4279 104.282 39.3859C104.154 39.3816 103.481 40.2023 102.34 39.0977C100.651 39.9136 97.468 38.1607 95.2395 39.3906C94.9306 39.4165 94.5556 39.123 94.4188 39.133C93.2403 39.224 93.6719 40.1157 91.0086 38.81C91.2242 39.2649 90.6014 39.6755 89.7211 39.6409C88.3978 39.5888 89.3378 38.7407 88.2742 38.81V39.5281C85.8273 38.8842 85.3403 39.908 82.885 39.9138C82.0018 39.9152 80.697 39.3847 80.4864 39.3833C80.4031 39.3861 79.4408 39.9613 79.3473 39.9665C78.8279 39.9838 78.5343 39.7178 78.086 39.7163C76.6041 39.7106 74.8356 40.4609 75.1554 39.0977C74.7481 39.3854 74.3405 39.6735 73.9332 39.9612C72.3937 38.5053 71.242 40.5116 70.9193 39.0977C70.6441 39.3896 70.3692 39.682 70.094 39.9739C63.4912 39.8262 56.888 39.6784 50.2852 39.5308C50.0225 39.9856 47.1443 39.8244 46.9961 39.7536C46.3181 39.433 47.0339 38.4405 45.6504 38.6672C45.4973 39.1018 45.3443 39.5366 45.1912 39.9712C43.4524 40.1127 44.2885 39.6806 43.6022 39.3859C43.3157 39.4397 43.4081 39.7765 43.0201 39.801C40.9147 39.9353 36.5977 39.9511 34.2953 39.9785C33.8312 39.9843 33.9008 39.6693 33.7569 39.6682C33.3605 39.6711 32.5781 40.0684 31.7826 40.0686C26.8636 40.0657 19.8931 39.8417 14.9411 39.5081C14.6049 39.4849 14.5632 39.1092 14.3364 39.0903C14.0218 39.0659 13.3192 39.3697 12.9883 39.3379C12.6768 39.309 12.4772 39.0236 12.1438 38.9902C10.618 38.8342 8.56634 39.3171 6.93391 38.475C6.79606 38.4035 5.08619 36.89 5.0475 36.7907C4.82085 36.2015 6.34034 35.2759 3.84441 34.4137C6.07544 33.6612 5.37835 32.3309 2.4801 31.681C3.9338 31.5134 5.38766 31.3455 6.84136 31.1779C6.84345 31.0202 6.84567 30.8624 6.84776 30.7047C5.52443 29.9234 4.21119 29.6639 2.19897 29.5916C2.26172 29.4456 2.32422 29.2992 2.38697 29.1532C4.16432 28.4238 6.30853 28.2891 7.66205 27.294C5.67708 26.5575 3.6921 25.821 1.70714 25.0845C1.80623 24.9695 1.90547 24.8545 2.00456 24.7395C2.95618 24.4406 5.03427 24.2648 5.82453 23.9861C8.84267 22.9232 3.18307 23.1905 4.11273 22.542L13.6722 22.6121C13.7822 22.1345 1.52597 20.8157 1.65184 19.3742C2.65329 19.2775 3.65492 19.1807 4.65636 19.0839C4.21002 18.7178 3.76342 18.3517 3.31708 17.9855C3.44007 17.8696 3.5631 17.7531 3.68609 17.6372C5.37575 17.3527 7.06547 17.0688 8.75513 16.7843C3.61787 17.0702 1.23053 16.8624 0 13.9789C0.139301 13.9055 0.278608 13.8321 0.417909 13.7587C1.53079 15.5626 6.78397 14.9792 9.57581 14.6195C9.0067 14.0913 6.54932 14.4992 6.02941 14.1818C5.8822 14.0907 6.39542 13.7236 6.05444 13.5358C5.16306 13.0476 1.36468 12.42 1.91668 11.8221C2.27256 11.4379 8.38341 10.9108 9.57581 10.9512C6.78139 10.2609 3.90212 10.0613 1.09948 9.22221C2.86855 8.05237 4.43524 6.6205 7.66437 6.55691C8.64852 5.94317 1.81447 5.09297 1.65417 4.7578C2.83725 4.3983 4.02041 4.03892 5.20349 3.67941C4.2028 3.77533 3.20198 3.8711 2.2013 3.96703C2.19837 3.84695 2.19549 3.72675 2.19257 3.60667C4.78472 3.04919 7.1562 2.0259 10.1229 2.09518C10.0272 1.45969 8.25215 1.52305 7.39081 1.51728ZM291.292 37.6616C291.352 38.1885 290.264 38.1021 289.652 38.092C289.744 38.1879 289.836 38.2837 289.928 38.3796C288.622 38.28 286.188 38.0779 286.098 39.1003C285.166 39.2274 285.578 38.3383 285.277 38.2368C285.16 38.1964 283.942 38.7144 282.969 38.0847C282.738 38.0872 282.506 38.0895 282.275 38.092C282.23 38.4272 282.185 38.7624 282.141 39.0977C281.818 38.6908 281.496 38.284 281.173 37.8771C284.545 37.8054 287.916 37.7333 291.288 37.6616H291.292ZM257.687 38.0947C256.459 37.9055 254.578 37.6067 254.958 38.5251C255.734 38.4767 256.509 38.428 257.285 38.3796C257.419 38.2846 257.553 38.1897 257.687 38.0947ZM135.55 37.3713C134.525 36.4672 133.58 37.2495 131.995 37.0863C131.997 37.2772 131.999 37.4681 132.001 37.6589C132.65 37.2003 134.364 37.5056 135.55 37.3713ZM313.975 35.3546C311.771 34.3351 321.083 34.1102 321.757 34.2055C321.983 34.2764 322.209 34.3475 322.435 34.4184C321.516 35.4453 321.351 34.7218 320.312 34.8214C320.25 34.8283 320.272 35.0615 320.25 35.0644C319.996 35.0802 319.76 34.7971 319.531 34.8014C319.088 34.8101 318.726 35.0965 317.942 35.0864C317.335 35.0775 317.329 34.6275 317.116 34.6386C316.935 34.6497 315.133 35.89 313.975 35.3546ZM328.29 35.0543C328.072 35.0585 327.854 35.0622 327.636 35.0664C328.291 34.3736 326.968 34.4793 325.998 34.4938C326.028 33.8294 328.081 34.1131 329 33.9152C328.763 34.2947 328.527 34.6748 328.29 35.0543ZM300.727 33.6303C301.579 33.5626 301.437 34.3915 301.402 34.6386H300.587C300.634 34.3025 300.68 33.9664 300.727 33.6303ZM307.141 33.3427C306.876 33.9059 305.024 34.1519 304.147 34.1982C304.108 34.1983 304.349 33.8892 303.729 33.9179C303.542 33.9269 301.709 35.0516 302.112 33.7751C303.788 33.6308 305.463 33.4869 307.138 33.3427H307.141ZM309.011 33.675C308.662 33.8518 308.313 34.0287 307.964 34.2055C307.784 33.9412 307.604 33.677 307.424 33.4127C307.821 33.346 308.217 33.2792 308.614 33.2125C308.747 33.3667 308.879 33.5208 309.011 33.675ZM46.5089 32.9242C46.5901 33.207 46.6716 33.4903 46.7528 33.7731C47.0678 33.9456 48.5957 32.7147 48.1119 32.4765C47.5776 32.6258 47.0431 32.7749 46.5089 32.9242ZM40.0535 32.3317C39.7356 32.189 39.4174 32.0465 39.0995 31.9039C38.7339 32.3835 38.3679 32.8631 38.0023 33.3427C39.5907 33.6661 41.2805 34.0383 41.008 32.6239H42.0988C41.7926 33.2087 41.8341 33.4019 42.7856 33.7731C42.9937 32.9594 43.9772 33.3733 45.1033 33.1945C44.2842 33.147 43.4649 33.0999 42.6459 33.0524V32.6219C44.4717 32.6738 42.2026 31.7639 41.0132 32.3343C40.9196 32.1433 40.8258 31.9521 40.7321 31.7611C40.5059 31.9512 40.2797 32.1415 40.0535 32.3317ZM172.024 32.6219C171.798 32.4776 171.571 32.3332 171.345 32.1888C170.468 34.0683 172.254 32.2857 173.525 33.7731C173.105 32.6433 175.042 32.6898 175.154 32.6139C174.931 32.2337 174.708 31.8537 174.485 31.4735C173.665 31.8563 172.844 32.2391 172.024 32.6219ZM165.608 31.3253C166.393 32.2626 162.538 32.3206 161.245 32.1141C160.93 32.0633 160.37 31.549 160.143 31.6136C160.005 31.8038 159.867 31.994 159.73 32.1842C159.567 31.5269 157.041 32.2655 156.046 32.6193C155.953 32.38 155.859 32.1405 155.765 31.9012C155.403 31.9963 155.04 32.0911 154.677 32.1862C154.722 31.9477 154.768 31.7093 154.814 31.4708C154.539 31.7577 154.265 32.0448 153.991 32.3317C152.913 32.6508 153.577 31.3499 152.768 31.7558C151.869 32.2063 153.342 32.9808 153.315 33.4848C154.046 33.3548 155.705 33.0642 156.446 33.0497C156.872 33.0419 156.39 33.9448 158.224 32.9069C158.626 33.1488 159.028 33.3911 159.43 33.6329C160.168 33.2484 160.905 32.8636 161.643 32.4791C161.781 32.8136 161.919 33.1483 162.057 33.4828C162.138 33.5339 163.84 32.776 163.751 32.5245C164.442 33.1637 165.862 33.2776 167.357 33.31C167.501 33.1282 167.644 32.9459 167.788 32.7641C166.342 33.1567 167.328 32.5723 166.897 32.2242C166.648 32.0235 165.887 31.6286 165.608 31.3253ZM56.5835 32.1915C54.1556 33.0075 55.6584 32.3344 53.0342 32.3343C53.2174 32.7663 53.4005 33.1983 53.5837 33.6303C54.874 32.8409 56.9971 33.3657 56.5859 32.1915C56.5851 32.1915 56.5843 32.1915 56.5835 32.1915ZM30.9014 33.6276C32.2902 33.3662 31.5937 32.6944 33.3541 32.4791H33.3564C32.4462 32.4308 31.5358 32.3827 30.6255 32.3343C30.7175 32.7654 30.8094 33.1965 30.9014 33.6276ZM112.091 33.1044C113.422 33.2922 113.161 32.9561 114.369 33.6276C116.168 32.8131 114.645 32.9283 114.645 32.1888C114.234 32.4057 113.823 32.6227 113.412 32.8395C112.416 32.1491 113.357 31.8009 113.36 31.7337C113.359 31.7337 113.358 31.7337 113.357 31.7337C113.357 31.5118 113.389 31.4649 113.007 31.3307C112.702 31.922 112.396 32.5131 112.091 33.1044ZM117.79 32.1915C117.334 32.6826 117.128 33.3127 118.329 33.6276H118.331C118.427 32.5303 119.579 33.4163 120.103 33.3427C120.241 33.2234 120.378 33.1036 120.516 32.9843C119.607 32.7199 118.699 32.4559 117.79 32.1915ZM137.871 31.1832C137.876 32.3952 136.868 32.5107 138.286 33.6276C138.561 33.6059 138.837 33.5846 139.112 33.5629C139.292 33.2968 139.474 33.0302 139.654 32.7641C143.146 34.9579 144.187 31.2227 138.286 32.6193C138.285 32.6201 138.284 32.6212 138.284 32.6219C138.146 32.1424 138.008 31.6627 137.871 31.1832ZM131.721 31.2853C131.677 31.9216 131.633 32.5582 131.588 33.1945C130.817 31.6594 129.82 33.1246 128.308 32.0414C128.172 32.2348 128.035 32.4285 127.898 32.6219C127.333 32.1961 121.782 32.0735 122.984 33.0524C123.509 33.4796 124.652 32.9001 124.752 32.9122C125.085 32.9603 125.52 33.5065 126.083 33.4748C126.409 33.4557 127.095 32.813 127.759 32.8141C129.244 32.8171 131.954 34.5427 133.906 32.9096C134.047 33.1014 134.187 33.293 134.328 33.4848C135.776 33.3677 135.293 32.7599 136.641 33.4848C137.572 30.4624 131.223 33.6343 132.545 31.1832H132.542C132.268 31.2174 131.994 31.2511 131.721 31.2853ZM91.8322 32.1915C91.7448 31.6487 90.0643 32.4859 90.4592 31.1852C89.9107 31.6381 89.3622 32.0916 88.8137 32.5445C88.8179 32.6653 88.8224 32.7861 88.8265 32.9069C89.3715 32.8118 89.9165 32.717 90.4615 32.6219C90.4636 32.8137 90.4658 33.0054 90.4679 33.1972C91.2801 32.5032 94.669 32.8055 94.5667 33.4848C94.7478 33.1979 94.9292 32.9109 95.1103 32.6239C96.7318 33.4053 98.1271 32.5747 99.8935 33.3373C100.03 33.0997 100.167 32.8616 100.304 32.6239C100.393 32.8158 100.482 33.008 100.571 33.1998C101.214 33.224 101.858 33.2484 102.501 33.2726C104.598 32.5002 100.525 31.5004 100.03 31.6136C99.9647 31.6295 99.9747 32.1261 99.5647 32.2042C98.8362 32.3411 94.7582 31.8466 93.4974 32.1742C93.4866 31.8447 93.4757 31.5147 93.4649 31.1852C92.9206 31.5205 92.3765 31.8562 91.8322 32.1915ZM145.662 32.4791C145.754 32.8143 145.846 33.1496 145.938 33.4848C147.526 33.1499 148.526 33.4428 148.119 32.3343H148.117C147.298 32.3827 146.48 32.4308 145.662 32.4791ZM263.701 32.7641C263.66 32.0978 262.901 31.8487 261.92 32.3263C261.967 32.5198 262.014 32.7134 262.061 32.9069C262.573 32.3393 263.211 33.3286 264.789 33.1972V32.1915C264.426 32.3825 264.064 32.5731 263.701 32.7641ZM144.291 32.3343C143.807 31.9389 142.449 33.138 143.343 33.1972C144.026 33.2419 144.551 32.5467 144.291 32.3343ZM25.4383 32.9796C25.7972 33.0497 26.1562 33.1198 26.5151 33.1898C26.702 32.9046 26.8892 32.6195 27.0762 32.3343H27.0738C26.5287 32.5495 25.9834 32.7644 25.4383 32.9796ZM107.539 33.1598C108.756 33.1181 109.974 33.0761 111.191 33.0343C111.203 32.8484 111.216 32.6624 111.228 32.4765C110.008 33.1553 109.517 32.4238 109.233 32.379H109.237C108.324 32.2318 107.454 32.1236 106.59 31.9012C106.906 32.3208 107.222 32.7403 107.539 33.1598ZM103.366 31.986C103.571 33.3003 103.839 33.4535 105.709 32.5292C105.635 32.3674 105.561 32.2058 105.487 32.044C104.518 32.1408 103.952 32.4439 104.123 31.7584C103.87 31.8343 103.618 31.9101 103.366 31.986ZM122.43 32.4064C122.205 31.9884 120.424 32.4084 120.521 32.6193C120.561 32.7033 122.867 33.2265 122.43 32.4064ZM277.225 32.4745C276.814 32.3785 276.404 32.2821 275.994 32.1862C276.54 32.0436 277.086 31.901 277.632 31.7584C277.496 31.997 277.36 32.2359 277.225 32.4745ZM281.73 30.6046C282.023 30.7721 281.072 31.954 282.821 32.2589C281.548 32.2839 280.275 32.3093 279.002 32.3343C279.599 32.1433 280.196 31.9521 280.793 31.7611C280.689 31.4217 280.584 31.0822 280.48 30.7428C280.897 30.6969 281.314 30.6505 281.73 30.6046ZM283.097 31.4708C282.412 30.5728 286.021 30.5049 286.358 30.6146C286.433 30.6407 286.789 31.3217 286.92 31.4681C286.375 31.469 285.83 31.47 285.285 31.4708C285.467 31.6851 285.65 31.8998 285.832 32.1141C285.194 32.1875 284.556 32.2609 283.918 32.3343C284.19 32.1191 284.463 31.9035 284.736 31.6884C284.19 31.6158 283.643 31.5434 283.097 31.4708ZM268.614 31.6884C269.07 31.7109 269.527 31.7332 269.984 31.7558C269.892 31.4205 269.801 31.0854 269.709 30.7501C269.436 30.7501 269.163 30.7501 268.89 30.7501C268.798 31.0628 268.706 31.3756 268.614 31.6884ZM277.914 31.2553C277.249 32.8697 275.439 29.3405 277.555 30.6473C277.768 30.7801 277.976 31.0992 277.914 31.2553ZM287.711 30.8075C289.13 29.6309 288.809 32.2289 287.47 31.4681C287.403 31.4276 287.604 30.8944 287.711 30.8075ZM298.351 30.7701C298.466 30.7789 298.667 31.6202 299.764 30.8202C299.945 30.9161 300.126 31.0119 300.307 31.1078C299.884 31.4988 296.257 31.7313 296.758 30.8976C297.313 30.8846 297.777 30.7441 298.351 30.7701ZM294.839 27.657C294.295 27.6804 293.751 27.7038 293.207 27.7271C293.386 27.9907 293.565 28.2543 293.745 28.5179C293.477 28.5896 293.209 28.6611 292.942 28.7328C292.484 28.2782 292.026 27.824 291.569 27.3694C292.752 27.2969 293.935 27.2245 295.118 27.1519C295.025 27.3203 294.932 27.4886 294.839 27.657ZM280.368 27.0064C281.416 27.3371 282.699 26.9855 284.4 27.0418C284.4 27.0426 284.402 27.043 284.403 27.0438C284.487 27.0482 284.638 27.4097 284.911 27.4242C285.144 27.4356 289.736 27.0382 289.378 27.6517C287.601 28.2019 286.937 27.366 286.511 28.7308C286.424 28.443 286.338 28.155 286.251 27.8673C284.542 27.369 284.054 28.3654 283.095 28.7308C283.098 28.514 283.102 28.2969 283.106 28.0801C282.465 28.0584 281.824 28.0364 281.183 28.0147C281.274 28.1573 281.364 28.2999 281.454 28.4425C281.228 28.4425 281.001 28.4425 280.774 28.4425C280.222 27.8 279.522 27.6502 280.368 27.0064ZM297.308 28.0147C297.811 26.3698 302.714 27.4969 304.953 27.1519C303.778 28.1421 301.956 27.4596 300.674 27.4495C298.195 27.4309 299.908 28.0365 299.488 28.3024C299.28 28.4338 297.874 27.3792 297.308 28.0147ZM276.543 27.294C277.779 27.4269 278.471 27.0482 279.54 27.6517C279.451 27.7718 279.361 27.892 279.272 28.0121C278.906 27.9021 275.92 27.5553 276.543 27.294ZM308.236 27.5816C305.848 26.9909 307.026 28.4805 305.785 27.3641C306.602 27.2932 307.419 27.2228 308.236 27.1519V27.5816ZM141.559 26.1456C140.553 26.1079 139.43 25.8079 138.828 26.4285C139.512 26.5244 140.195 26.6202 140.879 26.7161C141.106 26.5259 141.333 26.3357 141.559 26.1456ZM170.247 20.0822C170.016 19.934 169.109 20.3723 169.013 20.3725C168.835 20.3725 168.884 20.1561 168.881 20.0996C167.718 20.1389 168.791 20.8099 167.93 20.9558C167.783 20.9798 165.759 20.6483 164.937 20.6755C163.671 20.7174 162.406 20.674 161.933 20.6855C161.135 20.7045 159.652 21.2074 158.34 21.2334C157.799 21.2432 157.61 20.8404 157.067 20.8503C153.575 20.9182 146.7 21.4717 143.602 21.216C142.837 21.1524 142.107 20.6253 141.702 20.6682C141.383 20.8608 141.064 21.0534 140.745 21.2461C139.763 19.5116 139.435 21.0541 138.377 21.216C137.705 21.3182 137.39 20.8052 137.3 20.8056C136.701 20.8157 136.406 21.06 135.936 21.1006C135.408 21.1454 134.649 20.9139 134.461 20.9558C134.345 20.9843 134.714 21.6668 132.667 21.6538C130.581 21.6403 128.52 21.5683 126.398 21.5363C127.106 23.5984 127.716 22.187 128.582 22.1116C128.814 22.0914 128.667 22.4189 128.87 22.4045C129.441 22.3655 130.535 22.0437 131.008 22.1216C131.519 22.2057 131.344 22.9648 131.992 22.6848C132.025 22.6699 131.921 22.3569 132.074 22.3044C133.605 21.7859 134.106 22.3313 136.042 22.3471C137.325 22.3586 145.115 22.0473 145.382 22.2517C146.777 23.3494 138.568 23.3567 137.608 23.2701C137.272 23.2396 137.625 22.8941 137.318 22.8276C137.189 22.8011 136.022 23.4608 134.869 23.5156C133.474 23.582 130.672 23.1321 129.343 23.1479C117.919 23.2851 106.653 22.8863 95.2395 22.8777C94.9962 22.8778 94.6755 23.2727 93.8828 23.2727C79.0843 23.2655 63.7463 22.9536 48.7591 23.1399C45.4918 23.1804 42.2514 23.5526 38.954 23.258C38.5449 23.5466 38.1355 23.835 37.7264 24.1236C38.773 23.8941 40.6908 24.5471 40.8654 24.5567C40.9289 24.5588 41.3258 24.2338 41.9649 24.251C42.8643 24.2742 43.2589 24.5567 43.3327 24.5567C43.5614 24.5575 43.4116 24.2576 43.6301 24.259C45.2598 24.272 46.5207 24.1865 48.0164 24.1836C49.706 24.1808 50.5624 24.7399 51.7927 24.1262C51.932 24.3656 52.0713 24.6049 52.2106 24.8443C53.1299 23.809 58.6039 23.9239 60.8214 23.9788C61.5209 23.9962 61.3985 24.4163 61.6334 24.4165C61.7835 24.416 61.7247 23.8653 63.5553 23.9734C64.4765 24.0284 64.7183 24.4295 65.1804 24.4165C65.4313 24.4088 65.3907 24.0108 65.7513 24.0108C67.8376 24.0108 69.541 24.14 71.5834 24.2137C72.1574 24.2339 72.164 24.5654 72.2924 24.5613C72.7655 24.5465 73.5885 23.9847 74.7911 23.9861C76.7708 23.989 80.7167 23.9908 82.3356 24.2637C82.5734 24.3043 82.7706 24.7026 82.9455 24.6968C83.2099 24.6864 83.3139 24.2723 83.3605 24.269C84.2465 24.2618 83.7137 24.6478 84.3069 24.554C84.6268 24.5034 84.9604 24.0296 85.7039 23.9761C86.6854 23.9053 86.4923 24.4674 86.9023 24.4112C86.9456 24.4024 86.9587 24.0119 87.3615 23.9988C88.89 23.9526 91.1076 23.8619 92.554 23.8633C92.9694 23.8634 93.2784 24.1264 93.8577 24.1309C95.0253 24.1396 101.662 23.9719 102.207 24.1236C102.262 24.141 101.675 24.7167 102.614 24.6995C102.887 24.4593 103.16 24.2189 103.434 23.9788C103.89 24.3633 104.347 24.7474 104.804 25.1319C104.788 23.8035 107.475 23.5985 107.448 24.9571C107.743 25.0121 108.037 25.0668 108.331 25.1219C108.943 24.1834 109.351 24.53 110.534 23.9788C110.719 24.2664 110.904 24.5539 111.088 24.8416C111.134 24.6498 111.181 24.4582 111.228 24.2664C111.859 25.3058 112.895 24.2621 113.021 24.2564C113.505 24.2333 113.868 24.4978 114.095 24.4893C114.943 24.4618 116.778 24.0975 117.768 24.2664C117.814 24.2755 117.768 24.7193 118.05 24.7742C118.558 24.8733 118.608 24.2228 119.285 24.9871C119.422 24.7952 119.559 24.603 119.695 24.4112C119.84 24.5104 119.986 24.6102 120.131 24.7095C120.987 24.6586 121.844 24.6075 122.701 24.5567C121.922 25.309 122.818 25.7292 123.666 25.1372C123.953 24.9366 123.699 24.479 123.794 24.4092C123.925 24.3153 127.771 24.5482 128.025 24.8443C128.207 24.7 128.389 24.5555 128.571 24.4112C128.663 24.6998 128.755 24.9888 128.847 25.2774C128.947 25.1764 129.048 25.0753 129.148 24.9744C130.149 25.4825 132.746 24.3173 133.217 24.4092C133.468 24.4583 133.243 25.688 134.448 25.5623C134.49 25.2247 134.532 24.887 134.574 24.5493C134.85 24.5009 135.126 24.4522 135.402 24.4038C135.92 24.434 136.674 25.0198 136.699 25.4202C136.86 25.18 137.022 24.9396 137.184 24.6995C137.619 25.482 139.937 25.2047 140.87 24.7095C141.143 24.9455 141.416 25.1815 141.688 25.4175C142.055 25.1306 142.421 24.8436 142.788 24.5567C143.636 24.4703 142.741 24.9469 142.921 24.9871C143.303 25.0694 145.255 24.2636 145.126 25.2674C145.392 25.2699 145.658 25.2722 145.924 25.2747C146.061 24.9878 146.198 24.7008 146.334 24.4139C146.791 25.4031 147.581 25.054 149.202 25.4148C149.338 25.1871 149.474 24.9592 149.61 24.7315C150.111 25.0551 150.612 25.3789 151.114 25.7025C151.216 25.3255 151.32 24.9483 151.423 24.5713C151.64 24.5171 151.858 24.4634 152.076 24.4092C152.519 25.2536 153.315 24.3411 153.719 24.6895C154.31 25.1978 153.853 25.8037 152.757 25.9207C152.84 26.5354 156.105 26.2532 156.858 26.2083C156.809 26.0882 156.759 25.968 156.709 25.8479C155.939 25.943 155.168 26.0378 154.398 26.1329C153.753 24.5863 155.844 25.0009 156.804 24.8016C156.892 24.782 157.39 24.1965 158.357 24.251C158.731 24.2727 160.192 25.1292 160.471 25.1773C162.724 25.5684 161.068 24.3445 163.271 25.4175C162.812 24.5957 164.078 25.2788 165.396 25.1199C165.622 25.0923 167.521 24.4273 167.651 24.4092C168.452 24.3023 167.581 25.0287 168.74 24.8396C168.879 24.6486 169.018 24.4574 169.158 24.2664H169.967C171.604 25.9682 171.985 24.7151 172.567 24.554C172.802 24.489 172.5 24.9335 173.11 24.8396C173.339 24.8046 173.594 24.4352 174.211 24.4092C176.144 24.3285 176.801 25.9098 178.578 24.2637C178.851 24.5022 179.124 24.7412 179.396 24.9797C179.58 24.6936 179.764 24.407 179.948 24.1209C181.356 24.9511 180.848 24.1008 181.357 24.1109C182.699 24.1369 185.447 24.2999 185.688 24.9844C186.847 23.4121 188.233 25.1859 188.69 25.1246C188.961 24.9336 189.233 24.7423 189.504 24.5513C189.823 24.7432 190.142 24.9354 190.462 25.1272C190.306 23.5838 191.958 25.0998 192.118 25.1246C192.301 25.1477 194.844 24.691 195.791 24.6995C196.735 24.7082 198.381 25.126 198.528 25.1272C198.694 25.1272 200.303 24.7072 201.561 24.7115C202.662 24.716 209.182 25.3124 208.772 24.6241C208.345 24.4334 207.738 24.2685 207.213 24.179C205.583 23.9045 196.018 23.5527 193.573 23.4429C188.671 23.2248 183.558 23.2654 178.633 23.1152C178.343 23.1066 178.299 22.7065 178.051 22.6975C177.673 22.686 176.716 23.0863 176.344 23.0779C174.955 23.0432 173.265 22.9779 172.521 22.9678C170.859 22.9475 169.718 22.7065 168.461 22.6675C168.067 22.656 166.076 23.1517 164.712 22.9424C164.465 22.8298 164.218 22.7173 163.97 22.6047C164.673 22.4733 166.517 22.1332 167.373 22.0942C168.647 22.038 169.311 22.3628 169.781 22.3572C170.176 22.3526 172.187 21.9829 173.103 21.9741C173.388 21.9712 173.446 22.3906 173.689 22.3892C175.01 22.3791 176.75 22.3683 177.895 21.9568C177.428 22.0911 180.347 22.3486 180.5 22.3471C180.763 22.347 181.048 21.9541 181.584 21.9541C182.614 21.9543 182.483 22.7757 183.771 21.9541C184.09 22.1934 184.409 22.4328 184.727 22.6721C184.747 21.578 188.775 23.0665 189.921 21.7365C189.951 21.5863 184.716 21.1603 184.284 21.1386C181.692 21.0072 177.857 21.2752 175.341 21.0832C174.584 21.0255 172.205 20.3606 172.024 20.3725C171.735 20.3913 171.996 20.7717 171.871 20.7856C169.31 21.0686 170.587 20.3035 170.247 20.0822ZM283.095 26.2857C282.317 26.2407 281.538 26.1959 280.76 26.1509C280.817 25.9108 280.873 25.6703 280.929 25.4302C281.286 25.5236 281.642 25.6171 281.999 25.7105C282.273 25.567 282.547 25.4235 282.821 25.28C282.912 25.6153 283.003 25.9505 283.095 26.2857ZM285.013 25.28C285.687 25.1592 285.72 25.6656 285.876 25.6904C286.34 25.7655 286.742 25.5606 287.193 25.5677C286.674 26.7707 285.568 26.2195 285.013 25.28ZM271.075 24.8469C271.227 24.9045 272.243 26.1998 273.398 24.9944C274.263 25.3772 275.127 25.7601 275.991 26.1429C274.522 25.5582 272.491 26.166 271.772 26.1429C271.499 26.134 271.446 25.7373 271.229 25.7305C269.971 25.6987 268.748 26.5992 268.619 25.282C269.808 25.6645 270.88 24.7769 271.075 24.8469ZM278.665 25.3147C278.867 25.59 279.068 25.8656 279.269 26.1409C278.542 26.1409 277.815 26.1409 277.088 26.1409C277.285 25.8623 277.481 25.5833 277.678 25.3047L278.665 25.3147ZM222.73 24.4038C223.179 24.4072 223.627 24.4105 224.075 24.4139C224.051 24.2134 223.538 24.2141 223.349 24.0789H223.351C223.141 23.9258 223.231 23.6671 222.848 23.553C222.808 23.8366 222.769 24.1203 222.73 24.4038ZM37.1828 23.2627C36.4304 23.2483 29.4894 23.2472 30.0807 23.9788C30.3792 24.344 32.7531 24.025 33.4531 24.0308C34.3968 24.0383 36.945 24.8295 37.1828 23.2627ZM24.8888 23.1199C24.7686 23.849 29.1071 23.9655 29.5312 23.8386C29.4412 23.7347 29.302 23.5027 29.182 23.4502C28.5966 23.199 25.8242 23.3191 24.8888 23.1199ZM197.615 22.2991C197.965 22.6677 198.315 23.0369 198.664 23.4055C198.572 22.926 198.48 22.4463 198.388 21.9668C198.131 22.0777 197.873 22.1882 197.615 22.2991ZM163.689 22.8276L146.21 22.7576C146.723 22.5582 147.235 22.3583 147.748 22.159C152.768 22.2297 158.122 22.4319 162.97 22.1243C163.21 22.3586 163.45 22.5933 163.689 22.8276ZM269.433 22.6875C267.941 22.6803 266.694 23.0322 265.07 22.4719C266.617 21.929 267.384 22.7689 268.888 21.9688H268.89C269.071 22.2082 269.252 22.4481 269.433 22.6875ZM236.105 22.542C236.559 22.2068 237.013 21.8716 237.466 21.5363C236.92 21.5363 236.374 21.5363 235.829 21.5363C235.921 21.8716 236.013 22.2067 236.105 22.542ZM112.868 20.9631C111.306 21.695 107.312 20.3702 106.043 21.2507C105.961 21.3085 106.715 21.68 105.496 22.3992C106.417 22.2519 107.067 22.1019 107.136 21.5363C107.409 21.7281 107.683 21.9198 107.957 22.1116C108.411 21.9664 108.865 21.8216 109.319 21.6765C109.269 22.2396 109.305 22.2095 110.003 21.824C110.32 21.9666 110.639 22.1091 110.956 22.2517C111.091 22.0133 111.226 21.7748 111.36 21.5363C111.636 21.87 111.911 22.2037 112.186 22.5373C113.259 22.1754 112.606 21.5287 112.868 20.9631ZM118.333 21.1006C118.075 20.9769 110.841 21.3817 114.13 22.5046C114.985 22.4688 115.84 22.4331 116.695 22.3972C115.987 20.5375 118.316 22.1991 118.509 22.239C119.425 22.4207 120.592 21.9786 121.256 22.0015C121.828 22.0217 122.168 22.3557 122.569 22.3471C123.938 22.3183 126.1 22.3058 126.398 21.5363C125.334 21.5203 124.253 21.5117 123.147 21.531C121.977 21.5512 120.947 20.8247 118.749 21.8213C118.205 21.7142 118.399 21.1323 118.333 21.1006ZM238.833 21.6138C238.778 22.3868 241.541 22.2021 241.559 21.8967C241.565 21.7176 240.665 21.7217 240.536 21.6538C240.535 21.6538 240.535 21.6538 240.534 21.6538C240.48 21.624 240.752 21.3284 240.329 21.2461C239.831 21.3687 239.332 21.4911 238.833 21.6138ZM47.9797 21.5337C47.6044 21.1 39.0743 21.2559 38.823 21.4636C38.7551 21.5214 38.8499 21.7115 38.823 21.8213C40.8135 21.2091 43.6435 21.9337 45.5328 21.9815C46.0581 21.9943 45.9027 21.6884 45.9315 21.6812H45.9356C46.2346 21.6805 47.5834 22.4313 47.9797 21.5337ZM103.311 21.6037C103.673 21.7247 104.036 21.8458 104.399 21.9668C104.491 21.7275 104.583 21.488 104.675 21.2487C104.674 21.2487 104.673 21.2487 104.673 21.2487C104.219 21.3672 103.765 21.4853 103.311 21.6037ZM90.7444 20.8156C90.8326 20.984 90.9204 21.1525 91.0086 21.3208C91.9219 21.3442 92.8356 21.3675 93.7489 21.3909C93.6569 21.486 93.5645 21.5814 93.4724 21.6765C94.8533 21.9307 95.4253 21.3384 96.1609 21.4236C96.1601 21.4236 96.1593 21.4236 96.1586 21.4236C96.2377 21.4342 96.3336 21.7847 96.6277 21.7966C97.3028 21.824 99.2377 21.9543 99.4716 21.6011C99.966 20.8475 96.0721 21.2051 95.346 21.1707C95.0181 21.1546 94.6237 20.8478 94.4241 20.8403C94.2054 20.8336 93.9073 21.2488 93.3746 21.2361C93.2188 21.2317 91.4912 20.7438 90.7444 20.8156ZM74.6246 21.3188C74.9064 21.6981 75.4942 21.3315 75.7101 21.3935C75.761 21.4087 75.3607 21.7261 75.8469 21.8213C75.9845 21.6045 76.122 21.3875 76.2596 21.1707C75.7146 21.2199 75.1696 21.2696 74.6246 21.3188ZM243.475 21.2487C243.396 21.1672 241.913 21.197 241.842 21.2487C240.953 21.9419 244.025 21.8668 243.475 21.2487ZM280.91 20.4553C280.227 19.4478 288.321 20.438 289.107 20.3852C289.068 21.0182 287.143 20.3818 288.151 21.2507C287.188 20.7728 284.528 21.027 283.901 20.8884C283.521 20.8045 283.426 20.2571 283.368 20.2397C283.143 20.1781 281.151 20.8102 280.91 20.4553ZM295.797 20.8156C295.027 20.6955 294.258 20.5754 293.489 20.4553C294.397 20.3835 295.304 20.3115 296.212 20.2397C296.074 20.4316 295.935 20.6238 295.797 20.8156ZM296.765 20.528C296.74 19.9142 299.351 20.3812 300.037 20.2397C299.264 21.2839 297.973 20.3001 296.765 20.528ZM253.315 19.6645C252.112 19.2589 251.595 21.1294 253.058 20.3151C253.102 20.2882 253.365 19.686 253.315 19.6645ZM112.497 18.3305C112.291 18.319 109.74 17.7125 109.592 18.0129C109.125 18.971 110.799 18.5868 111.36 18.9485C112.265 19.5348 110.935 20.0183 113.144 19.6645C113.054 19.8562 112.963 20.048 112.873 20.2397C114.166 20.3031 113.743 18.9745 113.975 18.8037C114.047 18.7519 114.854 18.863 115 18.7783C116.821 17.708 112.69 18.339 112.497 18.3305ZM223.532 19.5217C221.137 18.9585 222.167 19.7851 219.709 19.7346C219.628 20.156 223.219 19.8913 223.532 19.5217ZM135.82 19.0886C133.343 19.2546 131.306 18.7035 128.995 19.4443C129.146 20.5851 136.462 19.3832 135.82 19.0886ZM19.4252 17.9328C29.0637 19.9648 40.1816 19.2959 50.4435 19.2641C51.5618 19.2612 51.6692 19.7135 52.0739 19.6645C52.3389 19.6327 52.2927 19.2686 52.6448 19.2668C65.3788 19.2076 77.572 18.7304 89.77 18.9485C90.5383 18.9629 94.2766 19.7458 95.0754 18.5661C95.6794 17.6711 92.9941 18.3685 92.5464 18.3605C92.2101 18.3548 92.1955 17.9343 91.9713 17.9328C91.7338 17.9315 91.93 18.2187 91.6541 18.2231C90.4839 18.2433 89.2066 18.1311 88.1484 18.1557C77.7715 18.3911 67.6758 18.3236 57.3536 18.2831C56.1044 18.2787 56.3612 17.9416 56.2983 17.9401C56.2975 17.9409 56.2968 17.942 56.296 17.9428C49.5968 17.911 41.9457 18.6667 34.85 18.3779C29.8534 18.146 24.8566 17.9144 19.86 17.6825C19.7152 17.766 19.5699 17.8494 19.4252 17.9328ZM117.786 19.519C117.163 18.2485 117.023 19.5296 114.787 19.0112C114.605 19.228 114.423 19.445 114.241 19.6618C115.424 19.6143 116.607 19.5666 117.79 19.519H117.786ZM103.013 19.0566C102.635 17.3401 97.6337 18.5531 95.3815 18.2257C94.9691 19.0876 98.2424 18.7003 99.0147 18.791C99.4002 18.8357 101.465 19.7224 103.035 19.2314C103.028 19.1731 103.02 19.1149 103.013 19.0566ZM272.439 17.9328L271.347 18.0829C272.258 18.2731 273.169 18.4633 274.08 18.6535C272.627 18.5309 271.174 18.4084 269.721 18.2858C269.992 17.9296 270.262 17.5729 270.533 17.2168C271.168 17.4553 271.804 17.6943 272.439 17.9328ZM267.725 18.1156C270.269 17.9815 267.613 18.9347 266.978 18.5107C266.599 18.2567 267.465 18.1301 267.725 18.1156ZM261.108 17.5024C262.295 16.8772 264.692 16.8342 263.84 18.0829C262.558 17.498 261.731 17.9836 259.872 17.6472C260.143 17.4079 260.415 17.1685 260.686 16.9291H260.689C260.829 17.1202 260.969 17.3114 261.108 17.5024ZM267.246 17.3596C267.32 17.338 268.821 17.3322 268.888 17.3596C270.554 18.0771 265.73 17.8317 267.246 17.3596ZM30.0807 16.6415C29.88 17.0496 31.1618 17.0418 31.5882 17.0693C33.4364 17.1905 35.8067 17.013 37.7288 17.0693C37.5841 16.935 37.4393 16.8005 37.2946 16.6662C34.8899 16.6579 32.4853 16.6499 30.0807 16.6415ZM43.7419 17.0719H47.7039C47.8269 17.0719 48.4043 16.7214 47.9751 16.6362C46.5641 16.7813 45.1529 16.9268 43.7419 17.0719ZM135.546 16.5715C134.911 16.6907 134.276 16.8099 133.641 16.9291C133.64 16.7849 133.64 16.6403 133.639 16.496C134.275 16.5211 134.91 16.5464 135.546 16.5715ZM24.8888 16.3539C25.5616 16.8475 27.1663 16.7716 28.1669 16.7817C27.4777 16.3574 25.8348 16.566 24.8888 16.3539ZM102.77 16.0683C103.634 15.9947 104.303 16.1104 104.125 16.6389C103.667 16.6163 103.209 16.594 102.751 16.5715C102.757 16.4038 102.764 16.2359 102.77 16.0683ZM256.591 16.496C255.135 16.5436 253.679 16.5913 252.223 16.6389C252.277 16.4946 252.331 16.3507 252.385 16.2064C253.789 16.1597 255.192 16.113 256.596 16.0663C256.594 16.2095 256.592 16.3528 256.591 16.496ZM24.0652 15.0573C23.0655 15.1515 22.0657 15.246 21.066 15.3402C22.0665 15.437 23.067 15.5338 24.0676 15.6305V15.0553C24.0668 15.056 24.066 15.0566 24.0652 15.0573ZM276.534 14.6269C272.087 13.9539 277.762 13.2428 278.935 14.2318C278.937 14.231 278.938 14.23 278.939 14.2291C279.042 14.3168 278.825 14.7394 278.996 14.9098C278.543 14.7188 278.09 14.5276 277.637 14.3366C277.225 14.5743 276.812 14.8123 276.399 15.05C276.263 14.9566 276.127 14.8631 275.991 14.7697C276.172 14.7221 276.353 14.6744 276.534 14.6269ZM294.484 14.2518C298.517 14.3299 294.391 15.3867 292.395 14.5521C292.409 14.3589 294.113 14.2446 294.484 14.2518ZM283.915 14.4794C283.28 14.5753 282.645 14.6711 282.009 14.767C281.928 14.6461 281.846 14.5256 281.765 14.4046C282.253 14.2845 282.741 14.1644 283.229 14.0443C283.458 14.1894 283.687 14.3343 283.915 14.4794ZM263.016 12.6129C261.994 12.4801 260.69 13.8247 263.973 13.4711C263.971 13.3268 263.97 13.1823 263.968 13.038C263.837 13.061 263.453 13.1962 263.432 13.1854C263.372 13.1492 263.443 12.6679 263.016 12.6129ZM301.952 10.4508C302.066 10.3942 302.129 8.87459 303.323 10.4481C303.684 10.3522 304.045 10.2564 304.406 10.1605C304.5 10.4957 304.593 10.8309 304.686 11.1661C303.289 10.9062 303.141 11.5847 303.04 11.5992C302.575 11.6627 302.919 11.3139 302.619 11.3089C301.846 11.2974 300.087 11.5315 300.885 10.5355C301.172 10.1791 301.837 10.5056 301.952 10.4508ZM299.219 9.58456C299.389 9.71161 298.843 10.1574 298.971 10.2833C299.083 10.393 300.767 10.847 300.311 11.5992C300.035 11.5675 299.758 11.5355 299.482 11.5038C299.388 11.2978 299.294 11.0918 299.2 10.8858C298.933 11.076 298.665 11.2662 298.397 11.4564C297.946 10.948 296.986 10.2893 298.126 9.87485C297.707 9.91821 297.288 9.96161 296.869 10.005C296.652 10.2485 296.435 10.4922 296.217 10.7357C296.331 10.3647 296.445 9.99362 296.559 9.6226C297.445 9.61009 298.332 9.59708 299.219 9.58456ZM312.214 9.72737C312.163 9.91922 312.112 10.1114 312.061 10.3033C313.6 9.94663 315.997 9.81057 314.636 11.0133C312.551 11.1134 310.465 11.2135 308.38 11.3136C308.241 11.1693 308.103 11.0254 307.964 10.8812C309.52 11.4371 309.039 9.07154 310.393 9.75006C310.621 9.86513 309.959 10.6926 311.393 10.1631C311.342 9.97045 311.291 9.77725 311.24 9.58456C311.565 9.6321 311.889 9.67983 312.214 9.72737ZM325.448 10.015C322.812 9.73768 325.716 9.03788 326.203 9.61993H326.2C327.533 11.2121 324.668 10.4439 324.491 10.4534C324.258 10.4675 323.717 11.6073 322.451 9.94492C323.45 9.96827 324.449 9.99163 325.448 10.015ZM316.842 9.73004C317.064 9.69249 316.942 9.98191 317.037 9.97762H317.04C318.451 9.91551 321.807 9.65644 322.17 10.5909C321.126 10.6689 316.453 10.8704 316.17 10.2352C316.394 10.0668 316.618 9.89843 316.842 9.73004ZM306.914 10.4254C306.048 9.82052 307.998 9.74018 308.509 10.0203C308.605 10.0817 307.811 11.0519 306.914 10.4254ZM240.469 8.86385C238.563 9.22779 241.067 9.59147 240.2 10.1605C240.564 10.1121 240.928 10.0633 241.292 10.015C241.017 9.63138 240.743 9.24746 240.469 8.86385ZM153.577 7.71539C153.133 7.64821 153.343 7.99587 153.305 8.001C153.013 7.99124 152.738 7.70843 152.626 7.73808C150.556 8.30937 151.933 8.60115 151.953 8.66899C151.997 9.01265 151.453 9.41472 152.207 9.80745C152.665 9.68572 153.122 9.56416 153.58 9.44242C153.807 9.63338 154.034 9.82403 154.261 10.015C155.17 9.60521 153.981 9.49291 153.846 8.94927C153.794 8.73552 154.649 8.47941 153.577 7.71539ZM237.054 7.71272C236.745 8.31643 235.987 9.07806 236.731 9.68466H236.734C236.871 9.79564 237.431 9.85718 237.603 10.013C238.83 9.2087 238.36 8.37696 237.054 7.71272ZM161.787 6.63432C162.524 6.77529 163.263 6.91644 164.001 7.05741C163.988 7.41932 163.975 7.78123 163.963 8.14314C163.568 8.04558 163.173 7.94842 162.778 7.85085C162.64 8.01599 162.501 8.18088 162.363 8.34601C162.853 8.75888 163.343 9.1717 163.834 9.58456C164.424 9.44026 165.015 9.29644 165.606 9.15214C165.334 8.96112 165.063 8.76992 164.791 8.57891C166.235 8.36804 165.921 9.24805 167.116 9.58456C167.525 9.24936 167.934 8.91411 168.343 8.57891C168.935 8.91589 169.528 9.25291 170.12 9.5899C171.115 9.43248 171.203 9.17593 170.533 8.79178C171.028 8.3528 171.57 9.04261 172.166 8.86385C172.215 8.84945 172.123 8.43794 172.166 8.43143C175.247 8.15268 175.084 9.23805 175.576 9.28427C175.923 9.31593 177.31 8.58317 177.332 8.33333C177.357 7.9962 174.476 6.66903 178.991 6.63432C176.656 5.71599 174.001 6.65101 175.718 7.99833C174.979 7.86275 171.72 8.19889 171.512 8.15849C171.209 8.09747 171.315 7.58594 170.936 7.57258C170.711 7.56589 170.117 8.7336 168.343 7.71272C168.116 7.90454 167.89 8.0968 167.663 8.28862C167.45 8.13097 167.237 7.97314 167.025 7.81549C167.462 7.2533 167.9 6.69135 168.338 6.12916C166.605 6.74001 165.167 5.59258 164.111 6.55958C163.199 6.44702 162.755 6.33523 163.147 5.84087H162.325C162.145 6.10529 161.966 6.36991 161.787 6.63432ZM231.454 8.57624C230.547 8.01494 230.221 9.22573 230.362 9.29428C231.157 9.67096 231.926 8.86831 231.454 8.57624ZM155.224 8.35869C156.225 8.67065 157.225 8.98231 158.226 9.29428V8.14581C157.225 8.21671 156.225 8.28779 155.224 8.35869ZM243.406 8.32599C243.266 8.25814 240.943 7.90666 240.747 8.003C240.839 8.28988 240.931 8.57698 241.023 8.86385C242.119 7.81605 243.207 9.31933 243.749 9.00933C243.867 8.9415 243.63 8.43482 243.406 8.32599ZM286.376 8.14114C285.968 8.33378 285.56 8.52641 285.152 8.71904C285.174 8.39632 285.197 8.07348 285.219 7.75076C285.421 7.6907 285.623 7.63064 285.824 7.57058C286.008 7.76068 286.192 7.95104 286.376 8.14114ZM281.73 8.65365C281.002 8.62779 280.274 8.60209 279.545 8.57624C282.323 8.28017 280.043 8.13565 281.73 7.71539V8.65365ZM274.358 8.001C274.448 7.80832 274.538 7.61512 274.627 7.42243H276.812C276.352 6.75352 275.891 6.0847 275.43 5.41579C275.163 5.41412 274.896 5.41278 274.629 5.41112C274.539 6.27433 274.449 7.13779 274.358 8.001ZM133.904 6.27664C133.464 6.26509 131.932 6.84939 131.997 7.06475C132.633 7.32916 133.27 7.59378 133.906 7.8582C133.909 7.47451 133.912 7.09075 133.915 6.70706C134.005 6.89808 134.095 7.08928 134.185 7.28029C134.547 7.13683 134.908 6.99333 135.27 6.84987C135.453 7.1851 135.635 7.52029 135.817 7.85553C136.001 7.47268 136.184 7.08991 136.367 6.70706C134.62 6.02827 134.68 6.70689 134.316 6.69972C134.132 6.69639 134.016 6.45896 133.95 6.33936C133.935 6.31854 133.919 6.29746 133.904 6.27664ZM155.915 5.91628C153.829 5.82101 152.637 6.83111 151.128 5.98635C152.096 7.78584 158.346 5.92729 160.55 7.42777C160.779 7.13916 161.008 6.85019 161.237 6.56158C160.037 6.81859 159.205 6.22468 158.62 6.13917C158.156 6.0714 158.204 6.37271 158.169 6.36939H158.163C157.075 6.24519 156.738 5.95387 155.915 5.91628ZM242.297 6.59161C241.737 6.13562 240.755 6.18157 240.744 6.8472C241.29 7.03986 241.836 7.23244 242.382 7.4251C242.27 7.2545 242.393 6.66965 242.297 6.59161ZM273.511 6.14117C273.074 5.92453 272.04 6.11488 272.486 6.68971C272.566 6.7914 273.595 6.38775 272.992 7.4251C273.995 7.40906 273.76 6.26579 273.511 6.14117ZM191.566 7.28029C191.934 7.26111 192.302 7.24142 192.67 7.22223C192.756 6.95374 192.842 6.68527 192.928 6.41677C192.474 6.70451 192.02 6.99255 191.566 7.28029ZM247.029 6.13116C247.518 7.44563 248.354 6.16681 249.273 7.24759C249.612 7.25593 249.951 7.26394 250.291 7.27228H250.293C250.302 6.9137 250.312 6.55514 250.321 6.19656C249.224 6.17487 248.126 6.15285 247.029 6.13116ZM168.612 6.63165C168.838 6.79848 169.065 6.96532 169.292 7.13215C169.696 6.93788 170.099 6.74384 170.503 6.54957C170.284 6.41029 170.066 6.27044 169.848 6.13116C169.436 6.29797 169.024 6.46485 168.612 6.63165ZM252.992 6.01905C251.806 5.85447 251.36 6.99712 252.877 7.00002C253.517 6.99992 254.236 6.19108 252.992 6.01905ZM111.232 6.70172C111.639 6.79931 112.046 6.89709 112.452 6.99468C112.591 6.75446 112.729 6.51418 112.868 6.27397C112.323 6.4166 111.777 6.55909 111.232 6.70172ZM279.139 6.2713C279.091 6.51141 279.044 6.75189 278.996 6.99201C278.633 6.94363 278.27 6.89558 277.907 6.8472C277.999 6.60864 278.09 6.36972 278.181 6.13116C278.5 6.17786 278.819 6.2246 279.139 6.2713ZM113.969 6.84987C114.294 6.89573 114.619 6.94147 114.943 6.98734C115.162 6.87056 115.38 6.75377 115.599 6.63699C115.295 6.52105 114.99 6.40526 114.686 6.28932C114.447 6.47611 114.208 6.66307 113.969 6.84987ZM264.242 6.12916C263.785 5.84032 261.961 6.74026 263.604 6.96999C264.65 7.11565 264.311 6.17498 264.242 6.12916ZM266.703 5.84087C264.964 5.29075 266.267 8.08354 268.343 6.27397C266.254 6.52203 266.805 5.8741 266.703 5.84087ZM281.995 4.40012C282.039 4.40172 282.075 4.80282 282.424 4.81786C283.682 4.86986 285.343 5.02821 286.242 5.05276C288.405 5.11193 295.029 4.3864 295.804 5.54858C295.965 5.79268 295.594 6.52182 295.66 6.55958C295.852 6.66432 296.961 6.31036 296.756 6.8472C295.669 6.84303 294.581 6.83869 293.494 6.83452C293.761 6.45596 294.028 6.07729 294.294 5.69873C291.586 5.90086 292.482 5.87739 291.703 6.70172C291.245 6.38225 290.786 6.06292 290.327 5.74344C289.329 6.06454 288.331 6.38596 287.333 6.70706C287.559 6.46775 287.786 6.22833 288.012 5.98902C286.508 5.54565 286.926 5.83624 286.103 6.41677C286.101 6.17744 286.1 5.93807 286.098 5.69873C284.646 6.28223 284.363 5.56459 284.046 5.55593C283.395 5.54231 282.566 8.37405 280.084 5.55593C279.037 6.91141 279.061 4.15384 278.446 5.55593C276.675 4.02969 280.043 4.58175 281.637 4.63235H281.64C281.76 4.63647 281.57 4.38016 281.995 4.40012ZM272.896 5.8035C273.968 4.55927 269.732 4.44313 271.134 6.23927C271.343 6.29764 271.552 6.35573 271.76 6.4141C272.14 6.21064 272.519 6.00697 272.898 5.8035H272.896ZM233.092 4.97802C229.168 5.48929 231.398 6.20482 232.727 5.50588C232.992 5.36728 233.138 5.17722 233.092 4.97802ZM152.935 4.96067C152.877 5.10988 152.82 5.25924 152.763 5.40845C154.079 5.26876 156.623 5.8444 156.588 4.83788C155.37 4.87876 154.153 4.9198 152.935 4.96067ZM163.344 4.30202C163.061 4.24129 161.907 4.09818 162.047 4.47486C162.547 4.74171 163.047 5.0088 163.547 5.27565C163.78 5.10886 164.013 4.94194 164.246 4.77516C163.921 4.71826 163.421 4.3179 163.344 4.30202Z" fill="#A3A5C7"/>
<path d="M215.491 8H19.1394L17 34H205.983L225 30.1481L215.491 8Z" fill="#A3A5C7" stroke="#A3A5C7" stroke-width="7.86232"/>
<path d="M26.7319 24.3115V13.5598L26.3388 11.5942L26.7515 10.4149H30.5058L34.3583 17.8841H34.7515L37.9357 10.4149H41.8472L42.0438 11.5942L41.8472 13.4812V24.3115H38.2895L38.3485 22.6408V17.1568H38.1322L37.346 19.0438L35.577 22.3459H33.2183L30.5058 17.1568H30.3092V18.7489L30.5058 24.3115H26.7319ZM51.0647 24.5081C50.1736 24.5081 49.3088 24.4098 48.4701 24.2132C47.6315 24.0036 46.8715 23.6367 46.1901 23.1125C45.5218 22.5884 44.991 21.8611 44.5979 20.9307C44.2048 20.0004 44.0083 18.8079 44.0083 17.3534C44.0083 16.0037 44.2048 14.8702 44.5979 13.9529C44.991 13.0356 45.5152 12.3018 46.1704 11.7515C46.8256 11.2011 47.5397 10.808 48.3129 10.5721C49.0991 10.3231 49.8853 10.1987 50.6716 10.1987C51.3399 10.1987 51.9885 10.2511 52.6175 10.3559C53.2596 10.4607 53.7248 10.5787 54.0131 10.7097L56.1949 12.4984L54.4258 15.3485L51.0647 13.6188C50.1343 13.6188 49.3481 13.9267 48.706 14.5426C48.0639 15.1454 47.7429 16.0823 47.7429 17.3534C47.7429 18.2575 47.9001 18.9914 48.2146 19.5548C48.5422 20.1183 48.9877 20.5311 49.5512 20.7931C50.1147 21.0552 50.7567 21.1863 51.4775 21.1863C52.2375 21.1863 52.8861 21.1273 53.4234 21.0093C53.9606 20.8783 54.4324 20.7276 54.8386 20.5573C55.2448 20.3738 55.6314 20.1969 55.9983 20.0266V23.3287C55.5397 23.617 54.9303 23.8856 54.1703 24.1346C53.4103 24.3836 52.3751 24.5081 51.0647 24.5081ZM64.7367 19.0045L62.5745 16.8423L64.7367 14.6802L66.8988 16.8423L64.7367 19.0045ZM64.7367 24.9012L62.5745 22.7391L64.7367 20.5769L66.8988 22.7391L64.7367 24.9012ZM69.2637 24.3115V13.5598L69.0671 11.5942L69.2637 10.3952H72.8017V15.7219H77.696V10.3952H81.234V17.7858L81.4306 19.142V24.3115H77.696V19.1224H72.8017V20.3017L72.9983 24.3115H69.2637ZM88.3106 24.5081C87.3016 24.5081 86.404 24.3574 85.6177 24.056C84.8315 23.7546 84.2156 23.2501 83.7701 22.5425C83.3246 21.8349 83.1018 20.8783 83.1018 19.6728C83.1018 18.8079 83.2459 18.0675 83.5342 17.4517C83.8356 16.8358 84.2353 16.3378 84.7332 15.9578C85.2312 15.5647 85.7881 15.283 86.404 15.1126C87.0198 14.9292 87.6554 14.8374 88.3106 14.8374C89.4375 14.8374 90.3024 14.9488 90.9051 15.1716C91.521 15.3943 91.9272 15.5712 92.1238 15.7023L93.1066 18.8276L92.7135 20.0462H86.6202C86.7119 20.5311 86.9543 20.9373 87.3474 21.2649C87.7406 21.5925 88.3892 21.7563 89.2934 21.7563C90.001 21.7563 90.6103 21.6776 91.1214 21.5204C91.6324 21.3632 92.0321 21.2256 92.3204 21.1076V23.7415C91.9272 23.9512 91.3572 24.1346 90.6103 24.2919C89.8765 24.436 89.1099 24.5081 88.3106 24.5081ZM86.6398 18.7882L89.3523 18.3951L89.1754 17.5499C89.0837 17.4975 88.9461 17.4582 88.7627 17.432C88.5923 17.4058 88.4416 17.3927 88.3106 17.3927C87.9437 17.3927 87.6357 17.4713 87.3868 17.6286C87.1509 17.7858 86.9674 17.9758 86.8364 18.1986C86.7185 18.4082 86.6529 18.6048 86.6398 18.7882ZM94.7698 24.3115V18.1593L94.357 16.1937L94.7698 15.0143H97.443L97.8361 15.4664C97.8361 15.4664 97.9278 15.414 98.1113 15.3092C98.2948 15.1912 98.5503 15.0799 98.8779 14.975C99.2186 14.8702 99.6117 14.8178 100.057 14.8178C100.319 14.8178 100.581 14.8374 100.843 14.8767C101.106 14.9161 101.309 14.9685 101.453 15.034L102.73 16.1151L101.453 18.631L98.8582 17.5499L98.2685 17.7465V24.3115H94.7698ZM103.513 16.233L104.122 15.034H107.051V15.8792L107.228 15.9971C107.372 15.8661 107.569 15.7154 107.818 15.545C108.08 15.3616 108.394 15.1978 108.761 15.0536C109.128 14.9095 109.541 14.8374 110 14.8374C111.362 14.8374 112.339 15.2895 112.928 16.1937C113.164 15.8661 113.518 15.5581 113.99 15.2699C114.474 14.9685 115.143 14.8178 115.995 14.8178C117.174 14.8178 118.058 15.1519 118.648 15.8202C119.238 16.4885 119.533 17.4254 119.533 18.631V21.1469L119.945 23.1125L119.533 24.3115H115.995V19.142C115.995 18.6441 115.883 18.2641 115.66 18.002C115.451 17.7268 115.117 17.5892 114.658 17.5892C114.357 17.5892 114.094 17.7006 113.872 17.9234C113.649 18.1462 113.538 18.4279 113.538 18.7686V24.3115H110V19.1617C110 18.6638 109.888 18.2837 109.665 18.0217C109.456 17.7465 109.122 17.6089 108.663 17.6089L107.444 17.9824V24.3115H103.906V18.3951L103.513 16.233ZM124.466 24.5081C123.903 24.5081 123.379 24.4295 122.894 24.2722C122.422 24.1019 122.042 23.8136 121.754 23.4074C121.466 23.0011 121.322 22.4377 121.322 21.717C121.322 21.0618 121.485 20.518 121.813 20.0855C122.141 19.6531 122.586 19.3321 123.15 19.1224C123.713 18.9127 124.349 18.8079 125.056 18.8079C125.738 18.8079 126.249 18.8865 126.589 19.0438C126.93 19.1879 127.225 19.3386 127.474 19.4959L127.611 19.3779C127.611 18.9848 127.579 18.6572 127.513 18.3951C127.448 18.1331 127.297 17.9365 127.061 17.8055C126.825 17.6613 126.458 17.5892 125.96 17.5892C125.475 17.5892 124.958 17.6351 124.408 17.7268C123.87 17.8055 123.372 17.9103 122.914 18.0413C122.468 18.1593 122.134 18.2772 121.911 18.3951V15.4468C122.317 15.3026 122.894 15.1716 123.641 15.0536C124.401 14.9226 125.331 14.8571 126.432 14.8571C127.611 14.8571 128.542 15.0078 129.223 15.3092C129.918 15.5975 130.416 16.0233 130.717 16.5868C131.018 17.1372 131.169 17.7989 131.169 18.572V21.1863L131.562 23.1715L131.169 24.3312H127.808V23.368L127.611 23.2698C127.507 23.3746 127.323 23.5253 127.061 23.7218C126.799 23.9184 126.452 24.1019 126.019 24.2722C125.587 24.4295 125.069 24.5081 124.466 24.5081ZM126.137 21.9332C126.491 21.9332 126.792 21.9004 127.041 21.8349C127.303 21.7694 127.493 21.7104 127.611 21.658V21.2845C127.611 21.1142 127.487 20.9504 127.238 20.7931C127.002 20.6359 126.629 20.5573 126.118 20.5573C125.41 20.5573 125.056 20.8062 125.056 21.3042C125.056 21.5138 125.135 21.6711 125.292 21.7759C125.449 21.8808 125.731 21.9332 126.137 21.9332ZM133.524 24.3115V18.3951L133.131 16.233L133.74 15.034H136.669V15.8792L136.846 15.9971C136.99 15.8661 137.187 15.7154 137.436 15.545C137.698 15.3616 138.012 15.1978 138.379 15.0536C138.746 14.9095 139.159 14.8374 139.618 14.8374C140.797 14.8374 141.681 15.1716 142.271 15.8399C142.861 16.5082 143.156 17.4451 143.156 18.6507V21.1469L143.568 23.1125L143.156 24.3115H139.618V19.1617C139.618 18.6638 139.506 18.2837 139.283 18.0217C139.074 17.7465 138.74 17.6089 138.281 17.6089L137.062 17.9824V24.3115H133.524ZM150.579 24.3115V13.6188L150.186 11.6335L150.579 10.3952H154.117V12.7539L153.92 16.2723H155.1L158.264 10.3952H162.176V11.5746L158.284 17.0978L161.586 21.1863L163.532 23.1322V24.3115H159.109L155.532 19.1027L154.117 19.2993V21.9528L154.313 23.1322L154.117 24.3115H150.579ZM167.464 24.5081C166.9 24.5081 166.376 24.4295 165.891 24.2722C165.419 24.1019 165.039 23.8136 164.751 23.4074C164.463 23.0011 164.319 22.4377 164.319 21.717C164.319 21.0618 164.482 20.518 164.81 20.0855C165.138 19.6531 165.583 19.3321 166.147 19.1224C166.71 18.9127 167.346 18.8079 168.053 18.8079C168.735 18.8079 169.246 18.8865 169.586 19.0438C169.927 19.1879 170.222 19.3386 170.471 19.4959L170.608 19.3779C170.608 18.9848 170.576 18.6572 170.51 18.3951C170.445 18.1331 170.294 17.9365 170.058 17.8055C169.822 17.6613 169.455 17.5892 168.957 17.5892C168.473 17.5892 167.955 17.6351 167.405 17.7268C166.867 17.8055 166.369 17.9103 165.911 18.0413C165.465 18.1593 165.131 18.2772 164.908 18.3951V15.4468C165.315 15.3026 165.891 15.1716 166.638 15.0536C167.398 14.9226 168.328 14.8571 169.429 14.8571C170.608 14.8571 171.539 15.0078 172.22 15.3092C172.915 15.5975 173.413 16.0233 173.714 16.5868C174.015 17.1372 174.166 17.7989 174.166 18.572V21.1863L174.559 23.1715L174.166 24.3312H170.805V23.368L170.608 23.2698C170.504 23.3746 170.32 23.5253 170.058 23.7218C169.796 23.9184 169.449 24.1019 169.016 24.2722C168.584 24.4295 168.066 24.5081 167.464 24.5081ZM169.134 21.9332C169.488 21.9332 169.789 21.9004 170.038 21.8349C170.301 21.7694 170.491 21.7104 170.608 21.658V21.2845C170.608 21.1142 170.484 20.9504 170.235 20.7931C169.999 20.6359 169.626 20.5573 169.115 20.5573C168.407 20.5573 168.053 20.8062 168.053 21.3042C168.053 21.5138 168.132 21.6711 168.289 21.7759C168.446 21.8808 168.728 21.9332 169.134 21.9332ZM176.521 24.3115V13.5401L176.128 11.5746L176.521 10.3952H180.059V13.5795L179.863 15.7613L180.059 15.8595C180.217 15.6237 180.505 15.3943 180.924 15.1716C181.357 14.9357 181.92 14.8178 182.615 14.8178C183.794 14.8178 184.678 15.1519 185.268 15.8202C185.858 16.4885 186.153 17.4254 186.153 18.631V21.1863L186.565 23.1125L186.153 24.3115H182.615V19.142C182.615 18.6441 182.503 18.2641 182.28 18.002C182.071 17.7268 181.737 17.5892 181.278 17.5892L180.059 18.1593V24.3115H176.521ZM188.48 24.3115L188.461 13.5401L188.068 11.5746L188.48 10.3952H192.018V24.3115H188.48ZM198.717 24.5081C197.118 24.5081 195.88 24.1281 195.002 23.368C194.124 22.608 193.685 21.3763 193.685 19.6728C193.685 17.9561 194.124 16.7244 195.002 15.9775C195.88 15.2174 197.118 14.8374 198.717 14.8374C200.355 14.8374 201.593 15.2174 202.432 15.9775C203.283 16.7244 203.709 17.9561 203.709 19.6728C203.709 21.3763 203.283 22.608 202.432 23.368C201.593 24.1281 200.355 24.5081 198.717 24.5081ZM198.717 21.9528C199.254 21.9528 199.627 21.7563 199.837 21.3632C200.047 20.9569 200.152 20.3935 200.152 19.6728C200.152 18.9389 200.047 18.3755 199.837 17.9824C199.627 17.5892 199.254 17.3927 198.717 17.3927C198.166 17.3927 197.78 17.5892 197.557 17.9824C197.347 18.3755 197.243 18.9389 197.243 19.6728C197.243 20.3935 197.347 20.9569 197.557 21.3632C197.78 21.7563 198.166 21.9528 198.717 21.9528ZM205.372 24.3115V18.3951L204.978 16.233L205.588 15.034H208.517V15.8792L208.693 15.9971C208.838 15.8661 209.034 15.7154 209.283 15.545C209.545 15.3616 209.86 15.1978 210.227 15.0536C210.593 14.9095 211.006 14.8374 211.465 14.8374C212.644 14.8374 213.529 15.1716 214.118 15.8399C214.708 16.5082 215.003 17.4451 215.003 18.6507V21.1469L215.416 23.1125L215.003 24.3115H211.465V19.1617C211.465 18.6638 211.354 18.2837 211.131 18.0217C210.921 17.7465 210.587 17.6089 210.128 17.6089L208.91 17.9824V24.3115H205.372Z" fill="white"/>
</svg>
