<svg width="387" height="41" viewBox="0 0 387 41" fill="none" xmlns="http://www.w3.org/2000/svg">
<path d="M8.69375 1.51728C16.7893 -2.06589 22.3156 1.74131 29.8256 2.3481C46.358 3.68113 68.1597 2.48036 85.0684 2.57565C97.8665 2.64787 110.871 2.90376 123.592 3.10885C124.244 3.11897 124.634 3.51161 124.93 3.51658C127.715 3.56276 132.385 3.20706 135.148 3.25899C140.96 3.36731 151.073 3.30579 156.396 3.67407C158.657 3.83001 160.976 3.89539 161.855 4.83054C162.68 4.87796 163.131 4.03302 163.347 3.98705C163.349 3.98783 163.352 3.98893 163.354 3.98971C164.049 3.84708 165.803 4.43902 166.19 4.40212C166.247 4.39392 165.894 3.78531 166.831 3.96969C166.914 3.98558 166.837 4.40154 167.628 4.40746C167.836 4.4085 170.478 3.77059 171.234 3.73146C173.75 3.60447 179.757 4.10574 182.765 4.09715C183.224 4.09709 183.489 3.85391 183.975 3.84958C184.226 3.84712 184.601 4.11063 184.679 4.10983C185.017 4.10043 186.496 2.90041 185.965 5.26831C187.508 5.11811 187.053 4.33526 187.088 3.82689C188.763 3.75348 189.571 4.86833 190.008 3.68675C198.246 3.82938 206.485 3.97187 214.723 4.1145C214.725 3.92187 214.728 3.72924 214.73 3.5366C217.159 4.3062 217.992 3.0042 219.378 4.12184C220.233 3.8758 221.087 3.62982 221.942 3.38378C243.91 4.14199 265.827 3.24077 287.547 3.24365C288.464 3.24366 288.693 3.65381 290.204 3.65672C291.873 3.65959 294.221 3.18326 296.421 3.18892C298.35 3.19326 301.197 3.58062 303.349 3.64137C303.834 3.65437 304.186 3.39502 304.241 3.39646C304.562 3.40673 304.579 3.8179 304.891 3.82956C305.264 3.84236 305.714 3.53797 306.145 3.55662C307.755 3.62443 309.51 3.51952 309.715 3.52659C310.697 3.56551 310.914 3.96725 310.995 3.9717C312.087 4.0207 311.678 3.65836 311.95 3.67941C313.362 3.79069 314.36 4.6961 316.293 3.82689C316.24 4.16297 316.188 4.49913 316.135 4.83521C317.614 5.02424 316.638 4.1315 316.94 3.96969C317.063 3.90976 320.248 4.01852 320.493 4.03443C321.349 4.09219 321.372 4.53891 321.446 4.54493C321.627 4.559 323.778 4.05251 324.881 4.44216C326.186 4.9042 324.65 5.81284 324.974 5.98368C325.028 6.01256 326.395 5.91956 326.578 6.2039C326.781 6.50969 325.601 6.50362 325.617 6.63165C325.63 6.71974 327.592 7.35083 327.217 7.77545C326.914 8.20133 324.252 7.65527 323.688 7.85553C323.595 7.8887 323.77 8.41409 323.688 8.43343C323.357 8.50417 317.223 8.51998 316.943 8.43343C317.262 8.19405 317.582 7.95477 317.901 7.71539C317.477 7.6912 317.052 7.66684 316.627 7.64265C317.231 7.45086 317.834 7.25921 318.438 7.06742C317.541 5.09635 314.838 7.09454 314.727 8.07841C314.679 8.53338 316.33 9.70366 314.794 10.3854C315.027 10.5021 315.261 10.6189 315.495 10.7357C315.976 10.5439 316.458 10.3523 316.94 10.1605C316.619 10.0395 316.298 9.91839 315.977 9.79744C316.095 9.6607 316.213 9.52378 316.331 9.38704C317.232 9.16768 318.132 8.94841 319.033 8.72905C319.496 8.83016 319.4 9.23421 319.718 9.3123C323.687 10.2958 321.098 9.04378 323.697 9.22421C324.068 9.44108 324.439 9.65798 324.81 9.87485C324.679 8.97816 325.83 9.54102 327.222 9.15414C327.056 9.4444 326.889 9.73474 326.723 10.025C328.74 9.87047 332.828 11.3339 331.725 9.73271C332.187 9.86946 332.649 10.0064 333.111 10.1431C333.501 9.88123 333.891 9.6189 334.282 9.35701C334.821 9.38703 335.361 9.41707 335.9 9.4471C335.903 9.5889 335.904 9.73105 335.907 9.87285C335.477 9.87368 335.047 9.87402 334.617 9.87485C334.94 10.3069 335.262 10.7394 335.585 11.1715C335.903 11.0997 336.22 11.0277 336.537 10.9559C335.206 10.5473 336.961 9.88003 337.386 9.30963C338.509 9.09889 339.226 9.83914 339.602 9.87285C339.779 9.88874 341.863 8.58204 341.046 10.0177C342.118 9.84332 343.191 9.66881 344.263 9.49448C344.682 9.60457 345.102 9.71471 345.521 9.8248C344.611 10.4935 347.248 11.2992 345.305 11.5765C343.855 11.7845 343.497 11.1592 342.809 11.1635C342.188 11.1665 341.86 11.5878 341.185 11.6066C336.643 11.725 332.944 11.6481 328.63 11.4617C327.778 11.4243 327.003 11.6308 326.431 11.6019C325.785 11.5685 326.594 11.0405 325.771 11.1688C324.907 11.3047 324.719 11.7354 324.491 11.744C324.349 11.7489 323.899 11.3619 323.485 11.3616C321.782 11.3617 319.288 11.7358 319.044 11.734C318.771 11.7297 313.953 11.3799 313.723 11.3163C313.601 11.2795 313.853 9.85108 312.793 11.3763C312.462 11.4047 312.131 11.4334 311.8 11.4617C311.853 11.1757 311.907 10.8896 311.96 10.6036C309.998 11.6882 310.673 11.0809 308.782 11.1661C304.253 11.3711 297.573 11.1304 292.62 11.2315C291.514 11.2547 291.092 11.5972 289.784 11.6219C288.568 11.6436 285.394 10.6212 286.084 12.037C283.379 10.811 282.944 12.9252 281.59 11.6066C281.426 11.7984 281.262 11.9906 281.098 12.1825C279.628 11.3594 279.175 12.0827 277.57 12.1825C276.879 12.2258 277.676 11.3497 276.28 12.3246C276.013 12.2521 275.746 12.1796 275.48 12.1071C275.542 11.8953 275.604 11.6835 275.665 11.4718C274.116 11.645 274.015 11.5346 274.192 12.3273C273.444 12.183 272.695 12.0385 271.947 11.8942C271.854 12.1544 271.761 12.4148 271.668 12.6749C272.026 13.1713 289.02 12.4228 291.388 12.1845C294.164 12.7735 299.74 12.0372 301.982 12.1771C302.88 12.2335 303.276 12.8224 304.582 12.8932C305.887 12.9638 307.531 12.4291 308.226 12.41C310.542 12.3436 321.512 12.4612 314.051 13.1935C314.265 13.4804 314.48 13.7674 314.694 14.0543C317.66 13.0752 316.586 13.6776 319.047 13.7787C320.082 13.8218 322.546 13.1815 322.408 14.4847C320.485 14.7274 318.441 14.3105 316.769 14.3292C316.603 14.3313 314.623 14.9266 313.604 14.765C312.684 14.6174 313.317 13.3749 311.317 14.7697C309.831 13.407 308.972 14.6436 308.58 14.775C307.902 15.0028 307.827 14.3303 307.149 14.2518C306.411 14.1653 305.902 14.6118 305.801 14.6149C304.789 14.625 299.516 14.6856 299.272 14.4147C299.484 14.2954 299.696 14.1756 299.908 14.0563C298.538 13.8644 298.824 14.5526 298.464 14.6349C298.196 14.6324 297.927 14.6294 297.659 14.6269C297.766 14.4843 297.872 14.3417 297.978 14.1991C296.361 14.2294 297.598 14.7253 295.302 14.7123C293.844 14.7035 292.338 14.159 292.196 14.1991C292.154 14.2107 292.613 14.5776 292.018 14.6269C291.034 14.7077 289.333 14.6985 289.143 14.1991C288.661 14.2698 288.702 14.7585 288.638 14.7697C288.355 14.8174 283.544 14.9837 282.681 15.0126C280.291 15.092 277.63 14.9876 275.041 15.07C274.775 15.078 274.945 14.765 274.678 14.775C274.25 14.7911 272.051 15.2828 271.723 15.3175C270.903 15.4027 268.746 15.2077 268.407 15.3502C268.359 15.3708 269.068 15.7948 268.238 15.9261C267.318 16.0714 267.813 15.5017 267.763 15.4957C265.888 15.3008 264.704 15.6967 263.425 15.7733C263.01 15.7979 262.244 15.369 261.659 15.4957C261.591 15.5101 261.725 15.9066 261.659 15.9261C260.774 16.1341 259.947 15.3979 259.564 15.3502C258.628 15.2339 259.137 15.7762 259.089 15.7807C258.465 15.798 257.625 15.602 256.677 15.6279C252.447 15.7434 248.995 15.7767 244.499 15.7406C243.934 15.7363 243.264 15.3538 243.177 15.3529C242.91 15.3558 242.986 15.8061 242.215 15.796C240.587 15.7729 239.078 15.7947 237.466 15.786C237.142 15.7839 237.004 15.3666 236.757 15.3576C235.927 15.3318 233.098 16.4236 233.051 15.0653C231.405 16.268 230.311 15.2314 228.986 15.2428C225.846 15.2688 220.931 15.5136 217.801 15.3576C217.142 15.3242 216.833 14.976 216.467 14.9572C215.81 14.9227 212.054 15.1172 211.855 15.0626C211.469 14.9572 211.7 13.4237 209.715 14.7597C208.552 14.8548 208.689 14.2257 208.449 14.1918C206.574 13.9391 204.75 15.3431 205.091 14.0563C202.907 14.4057 201.492 15.117 200.601 13.9142C200.613 14.5012 199.585 14.8532 198.348 14.6295C199.615 13.6432 199.458 13.013 202.523 13.1935C202.571 13.1964 202.48 13.6193 202.527 13.6239C202.965 13.6525 203.878 13.4381 204.624 13.4611C205.37 13.4842 204.956 13.7742 205.254 13.7687C205.528 13.7629 205.519 13.3567 205.914 13.3509C207.197 13.335 208.333 13.2227 209.063 13.2155C209.523 13.2113 210.038 13.5684 210.395 13.5685C211.775 13.5656 214.699 13.2866 216.455 13.3256C216.821 13.3349 216.667 13.7355 217.468 13.7687C217.561 13.772 217.903 13.3547 218.603 13.2682C219.304 13.1816 219.847 13.3888 220.297 13.3456C220.674 13.3095 220.517 12.9384 221.288 12.9152C221.931 12.8964 229.216 13.1642 229.613 13.2235C230.182 13.3088 230.453 13.8296 230.8 13.766C230.861 13.7515 230.965 13.2495 231.177 13.2135C234.67 12.6186 242.401 13.3052 246.392 13.3009C254.736 13.2937 262.433 12.9975 270.85 12.8805C271 12.7929 271.15 12.7051 271.3 12.6176L268.748 12.6075C268.742 12.3707 268.737 12.1337 268.732 11.8968C267.582 11.8593 267.733 12.4196 267.766 12.7577C267.34 12.6142 266.915 12.4707 266.489 12.3273C266.122 13.1528 263.283 12.6036 261.82 12.6049C260.868 12.6049 259.735 12.9196 259.233 12.8952C258.173 12.8446 258.2 12.3354 258.117 12.3273C257.975 12.3158 256.495 12.765 255.427 12.7477C253.849 12.7229 253.677 11.9406 251.516 12.6049C248.747 12.1991 245.679 12.4036 242.695 12.4701C243.263 11.7472 240.588 12.4314 239.381 12.42C232.022 12.3493 222.978 12.04 215.522 11.754C214.564 11.7179 213.84 11.2922 213.306 11.3063C213.016 11.3137 212.89 11.8156 212.488 11.7494C212.418 11.7366 212.368 11.2669 211.62 11.1962C209.758 11.0185 205.118 11.8024 203.944 10.9012C197.577 11.0405 191.21 11.1796 184.843 11.3189C184.683 11.1272 184.523 10.9355 184.363 10.7437C183.153 11.7239 178.372 11.1474 176.04 11.1935C171.936 11.2758 166.699 11.5807 163.103 11.6139C162.322 11.6211 161.681 11.3433 160.942 11.349C160.624 11.3519 160.228 11.7121 159.896 11.714C156.178 11.7414 151.144 11.3703 147.397 11.379C138.889 11.3978 130.877 11.3431 122.258 11.359C93.2194 11.4153 64.348 11.9458 35.5576 11.732C35.1719 11.7289 35.1911 11.3145 34.8921 11.3116C33.1264 11.2914 29.1833 11.6326 27.189 11.6139C25.6003 11.5995 23.0786 10.966 22.5313 11.6039C28.1761 12.5701 34.1397 12.4976 40.016 12.7677C40.4329 12.7867 40.4857 13.1793 40.5371 13.1881C41.4884 13.3251 40.8883 12.7822 42.2679 12.7577C42.7304 12.75 46.9879 14.0073 46.4812 12.755C47.5017 13.256 54.6901 13.5068 56.0781 13.3409C56.4992 13.2904 56.2016 12.9196 56.2848 12.9005C56.6479 12.8186 56.8121 13.3302 57.1365 13.3436C58.0017 13.3754 60.2024 12.9604 60.6207 12.9632C61.5828 12.9677 64.4674 13.3837 65.7379 13.2855C66.9018 13.1959 66.6841 12.6621 67.6905 12.6129C68.4839 12.5756 67.62 13.025 69.3912 13.1608C70.2691 13.2272 73.3402 12.9053 74.0872 12.9052C74.8334 12.9052 75.6638 13.2253 76.693 13.2008C78.1756 13.1661 81.4009 12.9877 82.9097 12.8852C82.9997 12.8794 83.2191 12.4644 83.441 12.4727C83.9006 12.4902 83.763 13.003 84.1099 13.0553C84.4572 13.1073 90.4729 13.0449 91.4946 13.0506C92.1987 13.0535 92.685 12.7477 93.0741 12.7504C93.3794 12.7533 93.4123 13.1807 93.7238 13.1854C93.8213 13.1849 94.6419 12.8144 95.4615 12.8231C96.2368 12.8319 99.1782 13.1847 99.5194 13.1881C99.7413 13.1896 99.4982 12.886 100.154 12.8932C100.752 12.9006 101.145 13.295 101.486 13.3009C102.277 13.3137 103.161 12.9769 104 12.9752C106.412 12.9709 106.288 13.4598 106.433 13.4757C106.834 13.5198 106.995 13.073 107.127 13.0633C107.683 13.0258 109.046 12.9426 109.542 12.9252C110.16 12.9036 110.421 13.3294 111.077 13.3309C111.566 13.3306 112.554 12.9154 113.67 12.8952C116.185 12.8475 119.176 12.7692 121.646 12.7851C122.383 12.7894 122.496 13.178 122.721 13.1881C123.904 13.2414 124.567 12.8074 124.904 12.8131C127.313 12.8521 131.611 13.5334 133.846 13.5912C134.756 13.6143 138.741 13.2993 140.99 13.3556C141.247 13.3614 141.006 13.666 141.292 13.6185C141.977 13.5043 141.914 12.8844 142.261 12.9032C142.429 12.9143 142.811 13.2634 143.299 13.2982C145.83 13.4787 147.571 13.2067 148.726 13.2255C159.816 13.406 171.125 13.569 181.482 13.6239C182.636 13.6297 184.068 13.2604 185.811 13.6185C185.865 13.8111 185.919 14.0038 185.972 14.1964C186.033 14.0071 186.095 13.8178 186.156 13.6286C188.13 13.526 188.876 13.2826 190.893 13.5238C191.066 13.544 191.596 14.4233 191.925 13.3309C193.922 14.1224 192.826 13.3245 194.309 13.2508C195.792 13.1773 197.232 13.4208 198.67 13.4757C199.458 13.8671 196.153 14.7695 195.936 14.767C195.589 14.7635 195.228 14.221 194.894 14.1918C193.904 14.1054 192.946 14.5362 192.724 14.0516C191.444 14.5642 193.037 14.308 192.877 14.7697C192.023 14.5787 191.169 14.3875 190.314 14.1964C189.879 15.7668 185.159 13.7194 185.487 14.9152C185.111 14.6758 184.736 14.4358 184.361 14.1964C182.714 15.6965 181.745 14.6408 179.549 14.1944C179.707 14.3863 179.866 14.5778 180.025 14.7697C179.98 14.8497 178.041 15.1565 178.734 14.3393C176.747 15.416 176.831 13.6249 175.049 14.9198C173.991 15.0858 174.627 14.3336 172.733 14.3466C171.611 14.3538 170.217 14.7476 168.963 14.775C168.674 14.7801 168.548 14.3447 168.291 14.3446C168.034 14.3448 167.908 14.7716 167.597 14.7824C166.954 14.8054 166.12 14.5061 165.718 14.5348C165.358 14.5594 164.843 14.936 163.974 14.9952C160.942 15.2046 161.858 14.6668 161.379 14.4847C160.864 14.2913 160.494 14.9993 159.469 14.9172C159.366 14.9082 159.632 14.4674 159.297 14.4847C159.028 14.4983 158.892 14.9777 157.999 15.0673C157.643 15.1034 152.118 15.2067 151.277 15.2154C149.987 15.2284 147.114 14.8222 145.779 14.8251C145.265 14.8252 144.715 15.2099 144.169 15.2074C142.358 15.1988 139.458 15.1662 137.162 15.1474C135.094 15.1299 131.463 14.2794 130.331 15.0473C127.427 15.1469 126.722 14.491 126.503 14.4821C125.911 14.4575 125.637 14.8923 124.891 14.9125C115.225 15.1652 102.498 14.8778 93.3445 14.9125C72.1099 14.9963 50.7591 15.2335 29.4504 15.0573C29.3934 15.25 29.3364 15.4432 29.2793 15.6359C31.7978 15.7601 34.7576 16.0945 37.2439 16.1711C40.5631 16.272 45.4869 15.4695 47.9218 16.7863C46.9343 16.9018 45.3255 16.3974 45.3543 17.0746C47.1194 17.123 48.885 17.171 50.6501 17.2194C50.5975 16.9067 50.5446 16.5939 50.492 16.2812C52.3348 16.1902 54.2198 16.2585 56.0692 16.2138C56.3904 16.2064 56.1632 15.9223 56.443 15.9208C56.7559 15.9198 56.5439 16.2088 56.6025 16.2111C57.3935 16.2139 57.6322 15.9219 57.7288 15.9261C57.9764 15.9377 57.7839 16.2158 58.4976 16.2938C59.8222 16.4395 60.771 15.7 60.4598 16.9318H61.7429C61.8536 16.5966 61.9643 16.2614 62.0749 15.9261C64.7053 17.2798 65.9185 14.9047 67.3721 16.789C67.8513 16.5013 68.3307 16.2139 68.8099 15.9261C69.08 16.2614 69.3504 16.5966 69.6205 16.9318C69.6732 16.644 69.7254 16.3561 69.778 16.0683C72.3605 16.2805 75.1104 15.935 77.5803 15.9682C79.3008 15.9913 79.7131 16.1053 81.2371 16.0836C84.627 16.0345 81.2608 16.6054 84.0777 17.2221C83.9311 16.8693 83.7841 16.5165 83.6375 16.1637C84.1039 16.0345 84.5705 15.9053 85.0369 15.776C85.3616 16.0637 85.6865 16.3512 86.0112 16.6389C87.4511 15.147 88.3845 16.3499 88.5814 16.3512C88.7399 16.3486 89.2844 15.4502 90.9893 16.2111C90.2824 14.9827 92.2902 16.2039 92.451 16.2111C92.6039 16.2161 94.5586 15.942 95.3519 15.9535C95.976 15.9623 97.307 16.2267 98.2364 16.2138C99.0569 16.2023 98.9741 15.785 99.034 15.7807C100.044 15.7461 99.411 16.0704 100.141 16.0863C100.871 16.1021 101.438 15.7462 101.595 15.778C101.674 15.7952 101.41 16.1836 101.773 16.2211C102.747 16.3233 104.509 15.9835 105.625 15.9935C106.021 15.9967 106.52 16.3258 106.96 16.3359C107.635 16.3501 107.951 15.9132 108.343 15.9261C108.48 15.9319 109.351 16.6078 110.434 16.5041C110.64 16.4832 111.245 15.0522 112.049 17.0793C112.111 16.7941 112.173 16.509 112.235 16.2238C115.866 15.5175 116.877 17.8347 118.491 15.778C121.128 16.0077 119.318 16.8089 119.607 16.9318C119.794 17.0094 120.654 16.7891 120.749 16.8017C120.916 16.8262 120.887 17.0833 121.07 17.082C124.431 17.0343 122.939 16.5488 124.004 16.2411C126.535 15.5091 128.509 17.1342 124.107 16.6462V17.0766C125.191 16.9395 127.943 17.005 127.024 17.7326C126.3 18.3058 119.772 17.932 123.469 18.7363C124.309 18.9182 124.744 18.3794 126.198 19.3889C127.159 19.4435 127.298 18.1359 128.599 18.6608C128.385 18.2046 128.171 17.7484 127.957 17.2922C129.733 16.6974 131.923 17.4951 133.287 17.2394C133.75 17.1523 135.42 14.9772 135.03 17.152C135.81 17.0166 139.479 17.417 140.161 17.2221C140.325 17.1737 140.539 16.0173 142.911 16.4213C143.076 16.5664 143.24 16.7113 143.405 16.8564C141.235 17.2781 145.068 17.7075 144.027 18.8063C143.673 18.3125 141.952 18.011 141.675 17.7626C141.202 17.3351 142.61 16.7843 140.816 16.9345C139.685 18.7707 142.919 17.9257 142.425 19.6692C144.781 18.8552 145.017 19.6322 145.55 19.6645C147.83 19.7959 149.266 19.6111 151.417 19.8146C151.941 19.4565 148.046 18.9394 147.564 19.0939C149.339 17.8244 146.283 17.7668 144.994 18.5207C144.885 18.137 144.777 17.7532 144.669 17.3696C146.348 17.5775 147.986 17.6844 149.649 17.3696C149.757 17.513 149.865 17.6566 149.973 17.8C149.6 18.016 149.227 18.232 148.854 18.448C150.237 18.8016 149.408 17.6834 151.25 18.6635C151.307 18.2314 151.364 17.799 151.421 17.3669C153.188 17.5104 154.954 17.6539 156.721 17.7973C157.641 16.9309 161.041 17.2542 160.418 18.3759C161.79 18.455 160.096 17.8581 161.382 17.5851C161.942 17.4667 163.035 17.4334 163.305 17.7353C163.189 18.8032 161.552 18.9357 161.057 19.6692C161.357 19.9058 168.969 19.1435 168.291 20.3926C168.899 20.5427 168.62 19.8993 169.716 19.7346C172.787 19.2754 177.545 20.547 180.018 18.9511C177.114 18.063 176.255 19.0037 174.029 19.0412C172.607 19.0658 163.939 19.217 165.876 18.0876C165.557 18.2311 165.239 18.3746 164.92 18.518L163.955 17.5097C164.862 17.4613 165.769 17.4133 166.676 17.3649C166.892 17.7002 167.109 18.0353 167.326 18.3706C167.425 18.1313 167.525 17.8918 167.625 17.6525C168.007 17.605 168.389 17.5573 168.771 17.5097C168.664 17.7975 168.556 18.0855 168.449 18.3732C169.037 18.4224 169.626 18.4715 170.214 18.5207C170.056 18.1362 169.897 17.7514 169.739 17.3669C172.511 17.2702 171.572 17.5112 173.11 18.2304C174.257 18.3039 172.319 17.5647 174.747 17.3769C177.57 17.1589 175.718 18.3342 179.375 18.0829C179.428 17.8911 179.48 17.6989 179.533 17.507C180.337 17.6989 181.141 17.8911 181.945 18.0829C181.839 17.8444 181.732 17.6055 181.626 17.3669C183.286 17.4593 185.573 17.0044 186.123 17.9401C184.441 17.4897 184.457 19.1238 184.895 19.4243C185.798 20.0407 199.136 19.4674 201.723 19.4269C205.029 19.375 207.528 19.8981 210.548 19.0939C208.501 18.4344 201.305 18.9743 199.941 18.518C199.806 18.4733 199.844 16.9758 198.976 18.6608C196.178 18.375 192.832 18.8527 189.337 18.8037C189.443 18.3724 189.55 17.941 189.657 17.5097C191.805 18.4268 193.795 16.4128 193.515 18.0876H194.797V17.2221H196.732V18.0876H198.334C198.389 17.8 198.444 17.5124 198.5 17.2248C200.099 17.8225 205.549 16.2243 203.154 17.9428H205.406C205.404 17.7318 205.401 17.5205 205.399 17.3095C205.721 17.2812 206.045 17.2531 206.367 17.2248C206.261 17.4157 206.155 17.6064 206.048 17.7973C207.528 17.4551 208.93 18.4609 209.902 17.8C209.261 17.6557 208.62 17.5112 207.98 17.3669C209.209 17.6409 211.472 17.0734 211.675 17.0719C212.292 17.0692 212.618 17.4953 213.287 17.5171C213.89 17.5355 213.808 17.2082 213.92 17.2194C217.177 17.5531 215.936 19.3277 217.457 17.2268C217.619 17.5136 217.781 17.8007 217.943 18.0876C218.158 17.8483 218.374 17.6089 218.589 17.3696C219.551 17.3921 220.514 17.4145 221.476 17.437C221.155 17.0783 220.834 16.7199 220.513 16.3612C221.955 16.2012 222.628 16.92 222.768 16.9365C223.163 16.9782 223.344 16.5269 223.466 16.5261C229.342 16.5651 225.773 16.9626 228.71 18.6582C229.756 17.9928 228.697 17.3257 228.549 16.6489C229.941 16.9663 230.375 16.7789 231.845 16.8164C232.227 16.8266 232.639 17.1918 232.88 17.1967C233.089 17.201 233.742 16.8134 234.244 16.8117C235.08 16.8088 236.193 17.0403 237.338 17.0346C238.291 17.0288 241.205 16.7545 243.237 16.7516C244.105 16.7516 243.904 17.0756 244.128 17.0766C244.221 17.0766 244.897 16.6878 245.454 16.6862C249.992 16.6776 254.643 16.9237 259.204 16.9165C262.417 16.9121 265.682 16.5998 268.901 16.6315C269.586 16.6387 269.224 16.9243 269.523 16.9345C269.626 16.937 269.749 16.4387 270.809 16.6389C271.191 16.7111 270.751 17.0592 271.128 17.0766C271.311 17.0849 271.389 16.6484 272.459 16.5488C274.405 16.3669 275.451 16.9491 275.624 16.9318C275.952 16.8983 275.857 16.5371 276.291 16.5241C278.413 16.4605 280.185 16.3989 282.079 16.3686C282.963 16.3541 289.062 16.2809 289.397 16.3459C290.146 16.4904 289.449 17.2451 290.41 17.2194C290.679 17.0284 290.948 16.8372 291.217 16.6462C290.789 16.5011 290.362 16.3562 289.934 16.2111C291.111 16.4536 292.446 16.1107 293.318 16.1237C293.48 16.1269 294.961 16.4687 295.717 16.4313C295.396 16.5731 295.074 16.7147 294.753 16.8564C294.867 16.9773 294.98 17.0985 295.094 17.2194C296.605 17.0361 298.204 17.0406 299.754 17.0666C300.313 17.0755 300.124 17.3695 300.69 17.3796C303.986 17.4415 303.154 16.2201 306.325 18.5134C305.254 18.3056 301.349 18.5969 300.781 18.5207C300.385 18.4673 298.851 16.5296 299.413 18.518C296.248 18.5094 298.997 17.4128 296.041 17.6525C296.101 17.8952 296.16 18.1379 296.219 18.3806C295.187 18.5336 294.424 18.6561 293.797 18.2278C293.587 19.4053 290.081 18.717 288.158 18.7963C285.379 18.909 282.24 19.1962 279.487 19.2468C278.538 19.2639 278.001 18.8023 277.882 18.8037C277.708 18.807 277.219 19.2112 276.872 19.2141C275.575 19.2256 271.632 18.5424 270.651 19.6645H293.79C292.821 19.1129 300.623 19.0592 301.018 19.0866C301.384 19.1114 301.077 19.4977 301.185 19.5217C301.995 19.6878 302.688 19.1266 302.945 19.1266C303.141 19.127 303.537 19.39 304.235 19.3842C304.363 19.3834 304.398 19.1048 304.536 19.1039C305.446 19.1039 306.345 19.1081 307.258 19.1066C307.314 19.1093 307.544 19.5163 307.775 19.517C308.006 19.5169 308.235 19.1099 308.293 19.1086C309.024 19.1116 310.275 19.376 310.97 19.3789C311.211 19.3788 311.044 19.0813 311.313 19.0839C312.143 19.0912 311.87 19.6746 312.896 19.5244C313.24 19.4737 313.218 19.0278 313.877 19.0866C314.343 19.1288 314.293 19.9232 314.367 19.9521C314.472 19.9858 316.078 19.3599 316.604 19.8794C315.454 21.2532 317.863 19.9512 317.747 19.3715C318.385 19.5175 319.023 19.6633 319.661 19.8093C319.878 19.6625 320.096 19.5156 320.313 19.3689C322.886 20.0303 324.456 19.6337 326.987 19.8373C327.109 19.8474 329.242 20.1733 329.143 20.3799C327.866 20.735 326.592 20.7516 325.775 20.0949C324.431 21.347 324.408 20.3492 322.236 20.5153C321.51 20.5717 321.458 20.9114 321.374 20.9157C318.547 21.0847 314.02 21.231 312.115 20.2377C311.582 20.5063 313.5 20.6125 312.755 20.8103C312.348 20.9186 302.553 21.236 305.681 20.0923C305.357 20.1239 305.032 20.156 304.707 20.1877C304.382 21.2676 302.767 21.0206 302.95 19.9448C302.797 20.1649 302.645 20.3853 302.492 20.6054C302.189 20.7917 301.831 20.8912 301.33 20.9504C299.408 21.1757 287.977 20.8012 287.37 20.9558C287.356 21.2109 287.342 21.4661 287.329 21.7212C292.378 22.01 297.278 21.3761 302.784 22.1069C302.624 21.8676 302.464 21.6282 302.304 21.3889C304.501 21.7242 306.698 22.0592 308.895 22.3945C306.57 22.8278 302.87 23.1917 300.429 22.835C299.996 22.7713 300.312 22.4382 300.214 22.3972C299.953 22.2922 299.673 22.8714 298.737 22.9277C297.801 22.9839 295.452 22.5736 295.234 22.5847C294.819 22.6086 293.697 23.2711 292.99 23.2627C292.061 23.2512 292.683 22.8411 292.497 22.8323C291.725 22.792 291.033 22.9954 290.429 22.9651C289.531 22.92 287.666 22.1988 287.039 23.258C287.68 23.3064 288.322 23.3545 288.963 23.4029C285.486 23.7827 282.767 22.4287 279.341 23.4729C278.563 24.7554 281.393 24.5825 279 25.1299C279.435 25.1115 279.87 25.0928 280.304 25.0745C280.406 24.806 280.508 24.5376 280.61 24.269C281.358 24.4608 282.107 24.6525 282.855 24.8443C282.642 24.605 282.428 24.3655 282.215 24.1262C284.868 23.9457 287.548 23.7003 288.474 24.9871C288.529 24.676 288.583 24.3646 288.638 24.0535C291.101 24.4318 294.8 23.1131 294.109 24.8443C294.225 24.7526 294.342 24.661 294.459 24.5693C295.948 24.9232 295.312 24.2071 295.872 24.1262C296.031 24.1035 298.926 24.4732 297.644 24.9871C300.467 25.3797 299.597 23.7615 300.375 23.6905C302.182 24.4919 305.433 23.2901 304.066 24.5567C304.336 24.6042 304.605 24.6519 304.874 24.6995C305.759 23.7029 306.63 24.8303 307.589 25.2073C307.914 25.2298 308.238 25.2522 308.563 25.2747C308.781 24.9395 308.998 24.6043 309.216 24.269C312.271 25.865 311.304 21.5002 312.7 25.1673C312.482 25.3866 312.265 25.6059 312.047 25.8252C311.532 25.9295 311.016 26.034 310.5 26.1382C312.58 26.235 314.661 26.3317 316.741 26.4285C319.381 27.4562 320.884 26.3408 323.817 27.1539C324.091 27.0563 324.366 26.9592 324.64 26.8616C324.36 27.6918 323.295 27.5694 325.28 27.942C325.449 28.5291 324.108 28.6053 323.498 28.1549C323.35 28.0449 324.603 27.5955 323.195 27.5796C322.237 27.5683 323.976 28.2734 321.107 28.0121C321.214 28.1555 321.32 28.2991 321.426 28.4425C321.115 28.4383 320.804 28.4346 320.493 28.4305C320.217 28.0985 319.94 27.7661 319.663 27.4342C318.953 27.9136 318.554 28.5854 316.93 28.4425C317.37 28.2344 316.772 27.5684 315.968 27.5796V28.3003C314.022 28.4549 314.694 27.7501 313.076 28.3003C312.915 28.1094 312.753 27.9181 312.591 27.7271C311.71 28.5142 308.465 29.0495 309.056 27.8699C308.146 29.0163 306.235 28.4987 305.524 27.5816C305.469 27.8202 305.414 28.0591 305.36 28.2977C304.981 28.3461 304.603 28.3941 304.224 28.4425C304.013 28.2982 303.802 28.1543 303.591 28.0101C303.323 28.1543 303.055 28.2982 302.787 28.4425C302.625 28.2031 302.462 27.9638 302.301 27.7244C301.87 28.0113 301.439 28.2984 301.008 28.5853C300.744 28.3943 300.48 28.2031 300.217 28.0121C300.189 28.5114 297.576 28.6228 296.846 28.295C296.628 28.4401 296.411 28.5856 296.193 28.7308C296.087 28.493 295.981 28.2551 295.874 28.0174C295.713 28.2075 295.551 28.3978 295.389 28.588C295.016 28.3978 294.643 28.2076 294.27 28.0174C292.749 29.1822 292.7 28.161 292.353 28.1676C291.709 28.1809 289.515 28.9105 289.148 28.8729C288.782 28.8349 288.606 28.4173 288.31 28.3778C283.438 27.7207 285.44 28.8432 284.463 29.0211C283.936 29.1178 283.562 28.7277 283.096 28.7708C282.298 28.843 278.275 29.3592 278.043 29.3087C277.705 29.2357 278.499 27.3957 277.403 27.8699C277.366 28.8577 275.024 27.8608 276.119 29.2386C275.154 29.1177 274.189 28.9965 273.224 28.8756C273.333 30.0469 272.143 29.2937 270.847 29.3587C269.01 29.4499 264.875 30.2198 265.026 29.0184C264.586 29.2944 264.146 29.5705 263.707 29.8465C260.696 29.4683 257.743 29.8648 254.755 29.8792C245.888 29.924 236.267 29.663 227.441 29.4261C227.017 29.4143 227.078 29.022 226.773 29.0131C225.168 28.9697 220.996 29.2479 218.747 29.1612C218.027 29.1337 217.677 28.7506 217.449 28.7328C216.673 28.6707 216.856 29.1756 216.499 29.1612C215.935 29.138 212.958 28.6698 211.932 28.6207C211.424 28.5964 210.822 28.9967 210.227 28.8729C210.177 28.8609 210.271 28.4497 210.227 28.4425C209.144 28.392 209.796 28.7495 209.429 28.7308C206.814 28.5965 204.019 28.5878 201.183 28.5025C200.478 28.4809 199.4 28.1897 198.795 28.1622C198.565 28.1528 198.978 28.4665 198.181 28.4405C197.908 28.4313 197.815 28.0238 197.507 27.9974C196.178 27.8862 195.734 29.1957 194.593 28.1422C192.39 28.2115 188.554 28.548 186.544 28.5553C186.068 28.5565 185.837 28.3161 185.383 28.3204C185.062 28.3233 184.496 28.6962 183.994 28.7007C183.492 28.7051 182.7 28.3494 181.736 28.3624C180.72 28.3755 179.456 28.5866 179.227 28.5853C178.951 28.585 178.822 28.1365 178.545 28.1422C177.709 28.1567 175.47 28.5976 174.393 28.6454C173.235 28.6959 172.54 28.4783 172.144 28.4825C171.778 28.4885 171.35 28.8675 171.183 28.8709C170.923 28.8767 170.861 28.4342 170.53 28.4378C169.99 28.445 169.433 28.7234 168.623 28.7308C154.033 28.868 139.729 28.6244 125.535 28.3024C123.953 28.2663 123.058 28.5766 120.727 28.4351C119.781 28.3774 120.179 27.9211 119.444 28.0074C119.116 28.0464 119.198 28.4051 118.784 28.4225C116.95 28.4976 114.814 28.1645 114.02 28.1702C113.705 28.1719 113.344 28.5794 112.698 28.5853C107.883 28.6315 102.187 28.5172 97.0054 28.588C94.2618 28.6255 90.1083 28.8335 86.9594 28.8609C78.2593 28.9374 68.8998 28.8425 60.9651 28.8829C48.9838 28.9421 37.0598 29.3192 25.1043 28.8729C30.6975 29.8593 38.314 29.777 44.5409 29.8839C62.5272 30.1901 81.6783 29.6173 100.112 29.639C106.525 29.6462 114.612 29.6237 121.633 29.8519C121.952 29.8618 122.611 29.5484 123.3 29.5816C123.446 29.5894 125.259 30.1611 125.87 30.1669C125.291 29.1503 127.683 30.0564 128.424 30.0321C129.356 30.0001 131.302 29.4918 133.486 29.7791C135.467 30.0391 134.921 30.4299 135.03 30.4545C135.731 30.6128 135.975 29.9832 136.512 29.9193C138.706 29.6651 149.989 30.031 153.138 30.0541C153.952 30.0599 153.975 30.4609 154.158 30.4625C154.644 30.4651 155.335 30.0694 156.113 30.0721C157.515 30.0779 159.131 30.4557 159.903 30.4571C161.749 30.4615 165.252 30.0154 167.652 30.0067C168.326 30.0041 168.285 30.4212 168.591 30.4198C169.936 30.4124 173.438 29.921 175.107 29.9166C177.818 29.9094 180.607 30.1793 183.364 30.0421C183.538 30.2281 183.713 30.414 183.888 30.5999C184.164 30.4048 184.439 30.2092 184.714 30.014C189.375 30.1628 194.119 29.7444 198.754 29.7718C199.288 29.7747 201.931 30.1306 202.372 30.1322C202.739 30.1322 203.1 29.6712 203.644 29.7391C204.405 29.8335 203.689 30.7107 204.932 30.4598C205.267 30.3919 204.943 30.0163 205.614 29.8993C205.836 29.8603 210.143 29.7078 210.375 29.7338C210.761 29.7776 211.105 30.5826 211.205 30.5999C211.723 30.6907 211.701 30.0731 212.048 30.0167C213.073 29.8481 214.412 30.2634 214.578 30.2543C216.592 30.1402 220.356 29.6476 222.469 29.9393C222.761 29.98 222.727 30.4395 222.778 30.4545C223.109 30.5496 223.315 30.0262 223.63 30.014C225.325 29.9548 227.979 30.3075 229.684 30.3971C229.88 30.4066 230.294 30.1553 230.645 30.1795C232.626 30.3211 231.983 30.7254 232.096 30.7428C232.363 30.7856 232.832 30.3399 233.543 30.3123C235.373 30.2387 238.883 30.3024 240.845 30.337C242.313 30.3645 242.292 30.8738 242.388 30.8849C242.595 30.9032 243.167 30.496 244.135 30.4498C245.997 30.3589 245.785 30.7601 246.551 30.7428C246.615 30.7423 246.504 30.3501 247.352 30.3097C248.993 30.2318 252.678 30.6174 254.434 30.5973C255.109 30.5901 255.267 30.2114 255.959 30.2042C257.055 30.1914 259.528 30.6008 259.725 30.5999C259.779 30.5999 259.902 30.1642 260.224 30.1642C260.577 30.1643 260.925 30.3884 261.189 30.3871C262.691 30.3811 265.278 29.6213 264.56 31.1752C265.041 30.7915 265.522 30.4077 266.004 30.024C269.149 30.1006 272.205 29.9472 275.322 29.8692C276.023 29.8519 276.608 30.1464 277.2 30.1322C277.792 30.1176 280.401 29.6308 280.837 29.6217C281.616 29.6058 286.039 29.5543 286.589 29.589C287.663 29.6555 288.706 30.2978 289.143 30.1722C289.493 30.0711 289.169 29.7089 289.838 29.6063C290.996 29.4289 292.964 29.8938 293.318 29.8866C293.468 29.8834 293.187 29.6019 294.6 29.5816C295.363 29.5701 295.772 29.8807 296.049 29.8792C296.135 29.877 296.007 29.3738 297.515 29.4415C298.557 29.4892 299.001 29.8778 299.111 29.8792C299.275 29.8816 299.671 29.4671 300.33 29.4815C301.871 29.5177 304.688 29.9932 306.151 30.0294C306.434 30.0366 306.338 29.5356 307.466 29.5816C308.274 29.6148 308.133 30.0134 308.435 30.0294C308.914 30.0538 309.628 29.5658 310.686 29.5816C312.018 29.6018 321.906 30.1082 322.417 30.2396C322.761 30.3276 323.16 30.3333 323.33 30.5499C323.184 30.7575 323.038 30.9655 322.892 31.1732C321.378 30.4444 321.989 31.277 321.587 31.3307C321.005 31.4072 318.812 31.3007 318.28 31.4855C318.091 31.5523 318.524 31.9961 317.508 32.2242C316.418 32.468 315.933 31.6784 315.499 32.7567C313.952 31.5597 312.466 32.8304 314.257 33.1698C315.258 33.3591 325.068 33.7867 327.071 33.8532C328.696 33.9065 331.739 33.5853 333.736 33.6676C334.91 33.7167 337.8 33.7726 337.679 34.3456C338.721 34.4178 337.618 33.8472 337.837 33.7677C338.295 33.6022 341.546 33.9962 342.162 33.9806C345.198 33.9055 349.03 33.2645 351.979 33.988C351.842 34.1414 351.705 34.295 351.568 34.4484C350.905 34.73 347.83 34.3278 347.483 35.0644H360.973C360.889 34.4375 366.467 34.4456 366.731 34.7287C366.633 35.0323 366.535 35.336 366.437 35.6396C363.285 34.4873 363.568 36.0105 361.451 35.2018C360.59 35.1904 360.85 35.6918 360.425 35.7871C356.2 36.7341 360.357 34.7577 357.123 35.2065C358.097 35.9341 355.448 36.2004 354.26 36.2929C353.99 36.3131 350.442 36.1285 350.02 36.1401C347.653 36.2051 343.587 36.604 341.236 36.2055C339.384 36.1579 338.364 36.6761 336.682 36.7961C335.406 36.887 335.771 36.5223 335.17 36.5178C333.91 36.5078 333.495 37.6166 332.688 36.07C331.833 36.2627 330.978 36.4552 330.123 36.6479V35.9272H328.513C328.355 36.1666 328.197 36.4065 328.039 36.6459C326.335 36.318 327.046 35.7392 326.728 35.059C326.36 35.0123 325.991 34.9656 325.623 34.9189C325.338 35.441 325.053 35.9636 324.768 36.4858C323.125 36.4432 321.481 36.4002 319.838 36.3576C319.732 36.1183 319.625 35.879 319.519 35.6396C319.516 35.8789 319.512 36.1183 319.509 36.3576C316.725 36.4068 313.942 36.4566 311.159 36.5058C310.419 36.8897 314.876 37.1806 315.215 37.2038C317.094 37.3308 322.082 36.9457 322.089 37.799C323.257 37.1623 326.772 37.3207 327.866 38.0847C326.206 38.0388 324.546 37.9931 322.886 37.9472C322.94 38.2332 322.993 38.5194 323.047 38.8054C320.979 37.6515 320.676 37.715 318.55 38.8054C318.548 38.4217 318.547 38.0379 318.545 37.6542C317.062 38.9885 314.442 36.7251 314.367 38.3723C313.578 38.2388 312.788 38.1053 311.999 37.9719C310.294 38.1727 312.941 39.4395 306.268 38.9428C305.808 38.9081 305.903 38.4884 305.212 38.5171C305.013 38.5258 303.87 39.1365 301.686 39.073C301.346 39.0626 301.32 38.6988 300.966 38.6526C300.149 38.5429 298.523 39.2625 299.261 38.0893C296.026 37.7472 297.367 38.7103 296.363 39.093C295.694 39.347 295.829 38.6526 295.25 38.81C294.534 39.0053 295.059 39.7052 292.191 39.3833C292.513 39.3357 292.835 39.288 293.157 39.2405C292.995 39.0503 292.833 38.8601 292.671 38.6699C291.034 39.1261 291.189 38.4598 290.417 39.5281C289.227 39.0515 288.197 39.0137 286.569 39.1003C283.408 39.2694 285.028 40.421 281.42 38.8701C280.835 39.0878 280.251 39.3057 279.667 39.5234C278.706 39.0656 279.483 38.4925 278.049 38.377C279.171 39.5078 276.145 39.0959 275.633 40.104C275.58 39.8638 275.526 39.6235 275.472 39.3833C275.152 39.3833 274.831 39.3833 274.511 39.3833C274.51 39.5759 274.509 39.7685 274.508 39.9612C274.082 39.8169 273.655 39.6724 273.228 39.5281C272.907 39.719 272.587 39.9104 272.266 40.1013C271.739 39.6984 271.211 39.2957 270.683 38.8928C270.352 38.8653 270.021 38.8376 269.69 38.81C269.795 39.0969 269.899 39.384 270.004 39.6709C269.578 39.575 269.153 39.4792 268.727 39.3833C269.222 39.8541 268.911 40.406 267.586 40.3916C266.493 40.3799 267.724 39.3977 265.373 39.8064C265.209 39.8357 264.918 40.5362 262.697 40.6445C260.032 40.7744 261.326 40.2664 260.851 40.2488C260.756 40.2467 259.943 40.5986 259.182 40.6492C258.75 40.6779 258.333 40.394 258.275 40.3943C258.008 40.4073 257.93 40.8101 257.56 40.8247C256.621 40.8593 255.361 40.6618 254.441 40.6819C254.023 40.6906 253.629 40.9292 253.443 40.9321C253.154 40.9347 252.787 40.5704 252.494 40.5718C251.413 40.5794 249.773 41.7888 249.271 40.1087C248.233 41.6535 246.056 39.7862 246.215 40.822C243.439 40.4311 236.035 41.702 236.252 39.9612C234.68 41.4495 234.82 40.3722 234.162 40.3943C233.425 40.4188 233.806 40.7076 233.221 40.6946C231.854 40.6642 230.548 40.5402 229.188 40.5344C229.401 40.2958 229.615 40.0569 229.828 39.8184C228.401 39.7418 228.892 40.2973 227.436 40.4043C224.756 40.5993 225.885 40.1561 225.49 39.5308C225.596 40.1343 222.438 40.0406 222.115 39.9612C221.923 39.9128 222.764 39.1351 220.829 39.3859C220.935 39.6252 221.041 39.8647 221.146 40.104C220.265 39.7766 217.871 40.1919 217.464 40.1113C217.277 40.0719 216.279 38.1439 215.367 39.6709C215.256 39.4316 215.146 39.1922 215.036 38.9529C214.022 39.2406 213.007 39.5286 211.993 39.8164C211.831 39.3851 211.67 38.9537 211.508 38.5224H210.542C210.756 38.9053 210.97 39.2881 211.183 39.6709C209.196 39.4976 206.768 40.1013 206.359 38.81C205.933 39.0494 205.507 39.2887 205.082 39.5281C204.805 39.0986 204.527 38.669 204.25 38.2395C202.279 38.3478 202.247 38.6352 200.899 39.093C200.952 38.7577 201.005 38.422 201.057 38.0867C200.063 38.5575 198.249 38.9964 196.814 39.0556C196.133 39.0829 194.962 38.6212 194.801 38.6626C194.638 38.7067 193.039 40.522 192.865 38.9502C190.511 39.6463 189.474 38.9356 188.519 38.9529C187.899 38.9645 187.615 39.3416 186.914 39.3806C185.911 39.4369 184.901 39.2546 184.322 39.2805C183.991 39.2964 183.929 39.6646 183.701 39.6762C182.621 39.7324 183.253 39.3561 182.115 39.3806C182.01 39.3849 181.178 39.8339 180.24 39.7763C179.716 39.7444 178.36 39.2395 178.24 39.2405C177.709 39.2491 178.133 40.2583 176.319 39.093C176.372 39.2847 176.424 39.4765 176.477 39.6682C174.232 40.1549 173.877 39.2997 173.424 39.2405C173.365 39.2361 172.82 39.566 172.493 39.5207C171.941 39.4429 171.718 38.9908 171.595 38.9702C171.164 38.9009 169.712 39.1001 168.763 38.6626C168.963 39.9508 165.638 40.4089 164.901 38.9502C164.313 39.238 163.724 39.5259 163.136 39.8137C162.869 39.5735 162.603 39.3332 162.337 39.093C162.175 39.3324 162.013 39.5716 161.851 39.811C160.993 39.2839 160.136 38.7566 159.278 38.2295C159.224 38.7575 159.169 39.2857 159.115 39.8137C158.874 39.7536 158.634 39.6936 158.394 39.6335C158.206 39.214 158.019 38.7944 157.832 38.3749C157.531 38.455 157.231 38.5351 156.931 38.6152C156.857 38.9188 156.782 39.2225 156.708 39.5261C155.094 39.8761 155.924 36.9803 152.849 39.5261C152.371 39.2867 151.893 39.0468 151.414 38.8074C150.874 39.9724 149.861 39.2671 149.045 39.398C148.469 39.4904 148.5 39.9536 147.716 39.9638C146.932 39.9739 146.959 39.532 146.898 39.5281C146.259 39.5009 145.776 39.8915 145.306 39.8137C145.236 39.8015 145.058 39.2766 144.461 39.2431C143.863 39.2099 143.502 39.7689 142.611 39.6636C142.154 39.6101 142.022 39.167 141.618 39.1277C139.688 38.937 137.744 41.1799 136.297 38.5198C135.971 38.8568 133.604 40.0364 132.591 39.9685C131.016 39.8601 131.623 39.3388 130.997 39.2431C130.907 39.2287 130.427 39.4049 129.106 39.3733C128.87 39.3675 128.924 39.6614 128.89 39.6662C127.35 39.6604 124.358 39.4279 122.666 39.3859C122.515 39.3816 121.723 40.2023 120.382 39.0977C118.395 39.9136 114.651 38.1607 112.029 39.3906C111.666 39.4165 111.225 39.123 111.064 39.133C109.678 39.224 110.185 40.1157 107.053 38.81C107.306 39.2649 106.574 39.6755 105.538 39.6409C103.982 39.5888 105.087 38.7407 103.836 38.81V39.5281C100.958 38.8842 100.385 39.908 97.497 39.9138C96.458 39.9152 94.9232 39.3847 94.6755 39.3833C94.5776 39.3861 93.4456 39.9613 93.3356 39.9665C92.7246 39.9838 92.3793 39.7178 91.852 39.7163C90.1088 39.7106 88.0284 40.4609 88.4047 39.0977C87.9255 39.3854 87.4462 39.6735 86.967 39.9612C85.1561 38.5053 83.8014 40.5116 83.4218 39.0977C83.0981 39.3896 82.7747 39.682 82.451 39.9739C74.6842 39.8262 66.9169 39.6784 59.1501 39.5308C58.8411 39.9856 55.4555 39.8244 55.2811 39.7536C54.4836 39.433 55.3256 38.4405 53.6982 38.6672C53.5181 39.1018 53.3381 39.5366 53.158 39.9712C51.1127 40.1127 52.0962 39.6806 51.2889 39.3859C50.9519 39.4397 51.0606 39.7765 50.6042 39.801C48.1277 39.9353 43.0496 39.9511 40.3413 39.9785C39.7954 39.9843 39.8773 39.6693 39.7079 39.6682C39.2417 39.6711 38.3213 40.0684 37.3856 40.0686C31.5994 40.0657 23.4001 39.8417 17.5751 39.5081C17.1796 39.4849 17.1306 39.1092 16.8637 39.0903C16.4938 39.0659 15.6672 39.3697 15.2781 39.3379C14.9116 39.309 14.6768 39.0236 14.2846 38.9902C12.4899 38.8342 10.0765 39.3171 8.1563 38.475C7.99415 38.4035 5.98284 36.89 5.93733 36.7907C5.67072 36.2015 7.45809 35.2759 4.52215 34.4137C7.14649 33.6612 6.32651 32.3309 2.91732 31.681C4.6273 31.5134 6.33746 31.3455 8.04744 31.1779C8.0499 31.0202 8.05251 30.8624 8.05497 30.7047C6.49834 29.9234 4.95359 29.6639 2.58663 29.5916C2.66044 29.4456 2.73396 29.2992 2.80777 29.1532C4.89845 28.4238 7.42067 28.2891 9.0128 27.294C6.6779 26.5575 4.34299 25.821 2.00809 25.0845C2.12465 24.9695 2.24139 24.8545 2.35795 24.7395C3.47733 24.4406 5.92177 24.2648 6.85134 23.9861C10.4016 22.9232 3.74422 23.1905 4.83777 22.542L16.0826 22.6121C16.2119 22.1345 1.79498 20.8157 1.94305 19.3742C3.12105 19.2775 4.29925 19.1807 5.47724 19.0839C4.95222 18.7178 4.42688 18.3517 3.90185 17.9855C4.04653 17.8696 4.19125 17.7531 4.33592 17.6372C6.32345 17.3527 8.31105 17.0688 10.2986 16.7843C4.25567 17.0702 1.44746 16.8624 0 13.9789C0.163859 13.9055 0.327724 13.8321 0.491582 13.7587C1.80066 15.5626 7.97992 14.9792 11.2639 14.6195C10.5945 14.0913 7.70391 14.4992 7.09234 14.1818C6.91919 14.0907 7.52288 13.7236 7.12178 13.5358C6.07326 13.0476 1.60526 12.42 2.25457 11.8221C2.67319 11.4379 9.86133 10.9108 11.2639 10.9512C7.97689 10.2609 4.59003 10.0613 1.29331 9.22221C3.37425 8.05237 5.21713 6.6205 9.01554 6.55691C10.1732 5.94317 2.13435 5.09297 1.94579 4.7578C3.33744 4.3983 4.72917 4.03892 6.12082 3.67941C4.94372 3.77533 3.76646 3.8711 2.58937 3.96703C2.58592 3.84695 2.58254 3.72675 2.5791 3.60667C5.62823 3.04919 8.41777 2.0259 11.9075 2.09518C11.7949 1.45969 9.70693 1.52305 8.69375 1.51728ZM342.645 37.6616C342.715 38.1885 341.436 38.1021 340.715 38.092C340.824 38.1879 340.932 38.2837 341.04 38.3796C339.503 38.28 336.641 38.0779 336.535 39.1003C335.438 39.2274 335.923 38.3383 335.569 38.2368C335.431 38.1964 333.999 38.7144 332.854 38.0847C332.582 38.0872 332.31 38.0895 332.038 38.092C331.985 38.4272 331.932 38.7624 331.88 39.0977C331.501 38.6908 331.121 38.284 330.742 37.8771C334.708 37.8054 338.673 37.7333 342.639 37.6616H342.645ZM303.115 38.0947C301.671 37.9055 299.458 37.6067 299.905 38.5251C300.817 38.4767 301.73 38.428 302.642 38.3796C302.8 38.2846 302.957 38.1897 303.115 38.0947ZM159.447 37.3713C158.24 36.4672 157.13 37.2495 155.264 37.0863C155.267 37.2772 155.269 37.4681 155.272 37.6589C156.035 37.2003 158.051 37.5056 159.447 37.3713ZM369.326 35.3546C366.734 34.3351 377.687 34.1102 378.48 34.2055C378.746 34.2764 379.012 34.3475 379.278 34.4184C378.197 35.4453 378.003 34.7218 376.781 34.8214C376.708 34.8283 376.733 35.0615 376.708 35.0644C376.408 35.0802 376.131 34.7971 375.861 34.8014C375.34 34.8101 374.915 35.0965 373.992 35.0864C373.279 35.0775 373.272 34.6275 373.021 34.6386C372.808 34.6497 370.689 35.89 369.326 35.3546ZM386.165 35.0543C385.908 35.0585 385.652 35.0622 385.395 35.0664C386.166 34.3736 384.61 34.4793 383.469 34.4938C383.504 33.8294 385.919 34.1131 387 33.9152C386.721 34.2947 386.443 34.6748 386.165 35.0543ZM353.742 33.6303C354.745 33.5626 354.578 34.3915 354.536 34.6386H353.579C353.633 34.3025 353.688 33.9664 353.742 33.6303ZM361.288 33.3427C360.976 33.9059 358.798 34.1519 357.765 34.1982C357.72 34.1983 358.003 33.8892 357.274 33.9179C357.054 33.9269 354.898 35.0516 355.372 33.7751C357.343 33.6308 359.314 33.4869 361.284 33.3427H361.288ZM363.487 33.675C363.077 33.8518 362.666 34.0287 362.256 34.2055C362.044 33.9412 361.832 33.677 361.62 33.4127C362.087 33.346 362.554 33.2792 363.021 33.2125C363.176 33.3667 363.332 33.5208 363.487 33.675ZM54.7081 32.9242C54.8035 33.207 54.8995 33.4903 54.9949 33.7731C55.3655 33.9456 57.1627 32.7147 56.5936 32.4765C55.9652 32.6258 55.3365 32.7749 54.7081 32.9242ZM47.1145 32.3317C46.7406 32.189 46.3663 32.0465 45.9924 31.9039C45.5623 32.3835 45.1319 32.8631 44.7018 33.3427C46.5702 33.6661 48.558 34.0383 48.2374 32.6239H49.5204C49.1603 33.2087 49.2091 33.4019 50.3283 33.7731C50.5731 32.9594 51.73 33.3733 53.0546 33.1945C52.0912 33.147 51.1275 33.0999 50.164 33.0524V32.6219C52.3117 32.6738 49.6426 31.7639 48.2435 32.3343C48.1333 32.1433 48.0231 31.9521 47.9129 31.7611C47.6467 31.9512 47.3807 32.1415 47.1145 32.3317ZM202.351 32.6219C202.084 32.4776 201.818 32.3332 201.552 32.1888C200.52 34.0683 202.621 32.2857 204.116 33.7731C203.622 32.6433 205.901 32.6898 206.032 32.6139C205.77 32.2337 205.507 31.8537 205.245 31.4735C204.28 31.8563 203.315 32.2391 202.351 32.6219ZM194.804 31.3253C195.727 32.2626 191.192 32.3206 189.671 32.1141C189.301 32.0633 188.642 31.549 188.375 31.6136C188.213 31.8038 188.05 31.994 187.889 32.1842C187.697 31.5269 184.727 32.2655 183.556 32.6193C183.446 32.38 183.336 32.1405 183.225 31.9012C182.799 31.9963 182.372 32.0911 181.945 32.1862C181.999 31.9477 182.052 31.7093 182.106 31.4708C181.783 31.7577 181.461 32.0448 181.138 32.3317C179.871 32.6508 180.651 31.3499 179.699 31.7558C178.642 32.2063 180.375 32.9808 180.344 33.4848C181.203 33.3548 183.155 33.0642 184.026 33.0497C184.527 33.0419 183.96 33.9448 186.117 32.9069C186.59 33.1488 187.063 33.3911 187.536 33.6329C188.404 33.2484 189.272 32.8636 190.14 32.4791C190.302 32.8136 190.464 33.1483 190.626 33.4828C190.721 33.5339 192.724 32.776 192.619 32.5245C193.432 33.1637 195.102 33.2776 196.86 33.31C197.03 33.1282 197.198 32.9459 197.368 32.7641C195.667 33.1567 196.826 32.5723 196.319 32.2242C196.027 32.0235 195.132 31.6286 194.804 31.3253ZM66.5588 32.1915C63.7028 33.0075 65.4706 32.3344 62.3837 32.3343C62.5992 32.7663 62.8146 33.1983 63.03 33.6303C64.5478 32.8409 67.0453 33.3657 66.5615 32.1915C66.5606 32.1915 66.5596 32.1915 66.5588 32.1915ZM36.349 33.6276C37.9827 33.3662 37.1634 32.6944 39.2342 32.4791H39.2369C38.1662 32.4308 37.0953 32.3827 36.0245 32.3343C36.1327 32.7654 36.2408 33.1965 36.349 33.6276ZM131.852 33.1044C133.418 33.2922 133.11 32.9561 134.531 33.6276C136.647 32.8131 134.856 32.9283 134.856 32.1888C134.372 32.4057 133.889 32.6227 133.405 32.8395C132.234 32.1491 133.341 31.8009 133.344 31.7337C133.343 31.7337 133.342 31.7337 133.341 31.7337C133.341 31.5118 133.379 31.4649 132.929 31.3307C132.57 31.922 132.211 32.5131 131.852 33.1044ZM138.556 32.1915C138.019 32.6826 137.777 33.3127 139.189 33.6276H139.192C139.305 32.5303 140.659 33.4163 141.277 33.3427C141.438 33.2234 141.6 33.1036 141.762 32.9843C140.693 32.7199 139.624 32.4559 138.556 32.1915ZM162.176 31.1832C162.182 32.3952 160.997 32.5107 162.664 33.6276C162.988 33.6059 163.312 33.5846 163.636 33.5629C163.849 33.2968 164.062 33.0302 164.274 32.7641C168.381 34.9579 169.606 31.2227 162.664 32.6193C162.664 32.6201 162.663 32.6212 162.662 32.6219C162.5 32.1424 162.338 31.6627 162.176 31.1832ZM154.942 31.2853C154.89 31.9216 154.838 32.5582 154.786 33.1945C153.879 31.6594 152.707 33.1246 150.928 32.0414C150.767 32.2348 150.606 32.4285 150.445 32.6219C149.781 32.1961 143.251 32.0735 144.666 33.0524C145.283 33.4796 146.627 32.9001 146.744 32.9122C147.137 32.9603 147.648 33.5065 148.311 33.4748C148.693 33.4557 149.501 32.813 150.282 32.8141C152.028 32.8171 155.216 34.5427 157.512 32.9096C157.678 33.1014 157.844 33.293 158.009 33.4848C159.713 33.3677 159.144 32.7599 160.73 33.4848C161.824 30.4624 154.356 33.6343 155.911 31.1832H155.908C155.586 31.2174 155.264 31.2511 154.942 31.2853ZM108.021 32.1915C107.919 31.6487 105.942 32.4859 106.406 31.1852C105.761 31.6381 105.116 32.0916 104.471 32.5445C104.476 32.6653 104.481 32.7861 104.486 32.9069C105.127 32.8118 105.768 32.717 106.409 32.6219C106.412 32.8137 106.414 33.0054 106.417 33.1972C107.372 32.5032 111.358 32.8055 111.238 33.4848C111.451 33.1979 111.664 32.9109 111.877 32.6239C113.785 33.4053 115.426 32.5747 117.504 33.3373C117.665 33.0997 117.826 32.8616 117.987 32.6239C118.091 32.8158 118.196 33.008 118.301 33.1998C119.058 33.224 119.814 33.2484 120.571 33.2726C123.037 32.5002 118.247 31.5004 117.665 31.6136C117.588 31.6295 117.599 32.1261 117.117 32.2042C116.26 32.3411 111.463 31.8466 109.98 32.1742C109.967 31.8447 109.955 31.5147 109.942 31.1852C109.302 31.5205 108.662 31.8562 108.021 32.1915ZM171.341 32.4791C171.449 32.8143 171.557 33.1496 171.666 33.4848C173.534 33.1499 174.71 33.4428 174.232 32.3343H174.228C173.266 32.3827 172.304 32.4308 171.341 32.4791ZM310.19 32.7641C310.141 32.0978 309.248 31.8487 308.094 32.3263C308.15 32.5198 308.205 32.7134 308.261 32.9069C308.862 32.3393 309.613 33.3286 311.469 33.1972V32.1915C311.043 32.3825 310.616 32.5731 310.19 32.7641ZM169.729 32.3343C169.159 31.9389 167.561 33.138 168.613 33.1972C169.417 33.2419 170.034 32.5467 169.729 32.3343ZM29.9229 32.9796C30.3451 33.0497 30.7673 33.1198 31.1895 33.1898C31.4094 32.9046 31.6296 32.6195 31.8495 32.3343H31.8467C31.2055 32.5495 30.5641 32.7644 29.9229 32.9796ZM126.497 33.1598C127.929 33.1181 129.361 33.0761 130.793 33.0343C130.807 32.8484 130.822 32.6624 130.836 32.4765C129.402 33.1553 128.824 32.4238 128.49 32.379H128.495C127.421 32.2318 126.397 32.1236 125.381 31.9012C125.753 32.3208 126.125 32.7403 126.497 33.1598ZM121.589 31.986C121.83 33.3003 122.145 33.4535 124.345 32.5292C124.258 32.3674 124.171 32.2058 124.083 32.044C122.944 32.1408 122.278 32.4439 122.479 31.7584C122.182 31.8343 121.885 31.9101 121.589 31.986ZM144.013 32.4064C143.748 31.9884 141.654 32.4084 141.768 32.6193C141.815 32.7033 144.528 33.2265 144.013 32.4064ZM326.097 32.4745C325.614 32.3785 325.132 32.2821 324.649 32.1862C325.291 32.0436 325.934 31.901 326.576 31.7584C326.416 31.997 326.257 32.2359 326.097 32.4745ZM331.397 30.6046C331.741 30.7721 330.622 31.954 332.68 32.2589C331.183 32.2839 329.685 32.3093 328.187 32.3343C328.89 32.1433 329.592 31.9521 330.294 31.7611C330.172 31.4217 330.049 31.0822 329.926 30.7428C330.417 30.6969 330.907 30.6505 331.397 30.6046ZM333.005 31.4708C332.198 30.5728 336.444 30.5049 336.84 30.6146C336.928 30.6407 337.347 31.3217 337.501 31.4681C336.86 31.469 336.219 31.47 335.578 31.4708C335.793 31.6851 336.007 31.8998 336.222 32.1141C335.471 32.1875 334.72 32.2609 333.97 32.3343C334.291 32.1191 334.612 31.9035 334.933 31.6884C334.29 31.6158 333.647 31.5434 333.005 31.4708ZM315.968 31.6884C316.505 31.7109 317.042 31.7332 317.579 31.7558C317.472 31.4205 317.364 31.0854 317.257 30.7501C316.936 30.7501 316.614 30.7501 316.293 30.7501C316.185 31.0628 316.077 31.3756 315.968 31.6884ZM326.908 31.2553C326.126 32.8697 323.996 29.3405 326.485 30.6473C326.736 30.7801 326.981 31.0992 326.908 31.2553ZM338.432 30.8075C340.101 29.6309 339.724 32.2289 338.148 31.4681C338.069 31.4276 338.307 30.8944 338.432 30.8075ZM350.947 30.7701C351.083 30.7789 351.319 31.6202 352.61 30.8202C352.823 30.9161 353.036 31.0119 353.249 31.1078C352.751 31.4988 348.485 31.7313 349.074 30.8976C349.727 30.8846 350.272 30.7441 350.947 30.7701ZM346.817 27.657C346.177 27.6804 345.537 27.7038 344.896 27.7271C345.108 27.9907 345.319 28.2543 345.53 28.5179C345.215 28.5896 344.9 28.6611 344.585 28.7328C344.047 28.2782 343.508 27.824 342.97 27.3694C344.361 27.2969 345.753 27.2245 347.145 27.1519C347.036 27.3203 346.926 27.4886 346.817 27.657ZM329.795 27.0064C331.027 27.3371 332.536 26.9855 334.537 27.0418C334.538 27.0426 334.539 27.043 334.54 27.0438C334.64 27.0482 334.817 27.4097 335.138 27.4242C335.412 27.4356 340.814 27.0382 340.393 27.6517C338.303 28.2019 337.522 27.366 337.02 28.7308C336.918 28.443 336.817 28.155 336.715 27.8673C334.705 27.369 334.131 28.3654 333.002 28.7308C333.006 28.514 333.01 28.2969 333.015 28.0801C332.261 28.0584 331.507 28.0364 330.754 28.0147C330.86 28.1573 330.966 28.2999 331.073 28.4425C330.806 28.4425 330.539 28.4425 330.272 28.4425C329.623 27.8 328.799 27.6502 329.795 27.0064ZM349.721 28.0147C350.312 26.3698 356.08 27.4969 358.714 27.1519C357.331 28.1421 355.188 27.4596 353.68 27.4495C350.765 27.4309 352.779 28.0365 352.285 28.3024C352.041 28.4338 350.386 27.3792 349.721 28.0147ZM325.295 27.294C326.749 27.4269 327.563 27.0482 328.821 27.6517C328.715 27.7718 328.61 27.892 328.505 28.0121C328.074 27.9021 324.563 27.5553 325.295 27.294ZM362.575 27.5816C359.767 26.9909 361.152 28.4805 359.692 27.3641C360.653 27.2932 361.614 27.2228 362.575 27.1519V27.5816ZM166.515 26.1456C165.332 26.1079 164.01 25.8079 163.303 26.4285C164.107 26.5244 164.911 26.6202 165.715 26.7161C165.981 26.5259 166.248 26.3357 166.515 26.1456ZM200.26 20.0822C199.989 19.934 198.922 20.3723 198.809 20.3725C198.6 20.3725 198.656 20.1561 198.653 20.0996C197.285 20.1389 198.548 20.8099 197.535 20.9558C197.361 20.9798 194.981 20.6483 194.013 20.6755C192.524 20.7174 191.037 20.674 190.481 20.6855C189.541 20.7045 187.798 21.2074 186.254 21.2334C185.618 21.2432 185.396 20.8404 184.756 20.8503C180.649 20.9182 172.562 21.4717 168.918 21.216C168.018 21.1524 167.16 20.6253 166.683 20.6682C166.308 20.8608 165.933 21.0534 165.557 21.2461C164.403 19.5116 164.016 21.0541 162.771 21.216C161.981 21.3182 161.611 20.8052 161.505 20.8056C160.8 20.8157 160.453 21.06 159.9 21.1006C159.279 21.1454 158.387 20.9139 158.165 20.9558C158.029 20.9843 158.463 21.6668 156.056 21.6538C153.601 21.6403 151.177 21.5683 148.681 21.5363C149.514 23.5984 150.231 22.187 151.25 22.1116C151.523 22.0914 151.35 22.4189 151.588 22.4045C152.26 22.3655 153.547 22.0437 154.104 22.1216C154.704 22.2057 154.499 22.9648 155.261 22.6848C155.3 22.6699 155.178 22.3569 155.357 22.3044C157.158 21.7859 157.748 22.3313 160.025 22.3471C161.534 22.3586 170.697 22.0473 171.012 22.2517C172.652 23.3494 162.997 23.3567 161.868 23.2701C161.472 23.2396 161.887 22.8941 161.527 22.8276C161.374 22.8011 160.001 23.4608 158.645 23.5156C157.005 23.582 153.708 23.1321 152.145 23.1479C138.707 23.2851 125.455 22.8863 112.029 22.8777C111.743 22.8778 111.366 23.2727 110.434 23.2727C93.0262 23.2655 74.9842 22.9536 57.3549 23.1399C53.5116 23.1804 49.6999 23.5526 45.8212 23.258C45.34 23.5466 44.8585 23.835 44.3773 24.1236C45.6083 23.8941 47.8642 24.5471 48.0696 24.5567C48.1444 24.5588 48.6112 24.2338 49.363 24.251C50.4209 24.2742 50.8851 24.5567 50.9719 24.5567C51.2409 24.5575 51.0647 24.2576 51.3218 24.259C53.2387 24.272 54.7219 24.1865 56.4813 24.1836C58.4687 24.1808 59.4761 24.7399 60.9234 24.1262C61.0872 24.3656 61.2511 24.6049 61.4149 24.8443C62.4963 23.809 68.9353 23.9239 71.5437 23.9788C72.3665 23.9962 72.2225 24.4163 72.4988 24.4165C72.6754 24.416 72.6063 23.8653 74.7596 23.9734C75.8432 24.0284 76.1276 24.4295 76.6711 24.4165C76.9664 24.4088 76.9185 24.0108 77.3428 24.0108C79.7968 24.0108 81.8005 24.14 84.203 24.2137C84.8781 24.2339 84.8859 24.5654 85.0369 24.5613C85.5934 24.5465 86.5616 23.9847 87.9761 23.9861C90.3048 23.989 94.9464 23.9908 96.8506 24.2637C97.1304 24.3043 97.3624 24.7026 97.5682 24.6968C97.8792 24.6864 98.0015 24.2723 98.0563 24.269C99.0984 24.2618 98.4717 24.6478 99.1696 24.554C99.5458 24.5034 99.9382 24.0296 100.813 23.9761C101.967 23.9053 101.74 24.4674 102.222 24.4112C102.273 24.4024 102.289 24.0119 102.763 23.9988C104.561 23.9526 107.169 23.8619 108.87 23.8633C109.359 23.8634 109.723 24.1264 110.404 24.1309C111.777 24.1396 119.585 23.9719 120.225 24.1236C120.29 24.141 119.599 24.7167 120.704 24.6995C121.025 24.4593 121.347 24.2189 121.668 23.9788C122.205 24.3633 122.743 24.7474 123.28 25.1319C123.261 23.8035 126.422 23.5985 126.391 24.9571C126.737 25.0121 127.083 25.0668 127.429 25.1219C128.149 24.1834 128.629 24.53 130.021 23.9788C130.238 24.2664 130.455 24.5539 130.672 24.8416C130.727 24.6498 130.782 24.4582 130.836 24.2664C131.579 25.3058 132.798 24.2621 132.946 24.2564C133.515 24.2333 133.943 24.4978 134.21 24.4893C135.207 24.4618 137.365 24.0975 138.529 24.2664C138.584 24.2755 138.53 24.7193 138.861 24.7742C139.459 24.8733 139.517 24.2228 140.314 24.9871C140.475 24.7952 140.636 24.603 140.797 24.4112C140.967 24.5104 141.138 24.6102 141.309 24.7095C142.317 24.6586 143.324 24.6075 144.332 24.5567C143.416 25.309 144.47 25.7292 145.467 25.1372C145.805 24.9366 145.506 24.479 145.618 24.4092C145.772 24.3153 150.296 24.5482 150.595 24.8443C150.809 24.7 151.023 24.5555 151.237 24.4112C151.345 24.6998 151.453 24.9888 151.561 25.2774C151.68 25.1764 151.798 25.0753 151.916 24.9744C153.093 25.4825 156.148 24.3173 156.702 24.4092C156.998 24.4583 156.732 25.688 158.151 25.5623C158.2 25.2247 158.249 24.887 158.298 24.5493C158.622 24.5009 158.947 24.4522 159.272 24.4038C159.881 24.434 160.769 25.0198 160.797 25.4202C160.988 25.18 161.178 24.9396 161.368 24.6995C161.88 25.482 164.607 25.2047 165.704 24.7095C166.025 24.9455 166.346 25.1815 166.667 25.4175C167.098 25.1306 167.529 24.8436 167.96 24.5567C168.958 24.4703 167.905 24.9469 168.116 24.9871C168.567 25.0694 170.862 24.2636 170.711 25.2674C171.023 25.2699 171.336 25.2722 171.649 25.2747C171.81 24.9878 171.971 24.7008 172.132 24.4139C172.669 25.4031 173.599 25.054 175.505 25.4148C175.665 25.1871 175.825 24.9592 175.985 24.7315C176.575 25.0551 177.164 25.3789 177.754 25.7025C177.875 25.3255 177.996 24.9483 178.117 24.5713C178.373 24.5171 178.63 24.4634 178.886 24.4092C179.407 25.2536 180.343 24.3411 180.819 24.6895C181.513 25.1978 180.976 25.8037 179.686 25.9207C179.784 26.5354 183.625 26.2532 184.511 26.2083C184.453 26.0882 184.394 25.968 184.335 25.8479C183.429 25.943 182.523 26.0378 181.617 26.1329C180.858 24.5863 183.319 25.0009 184.447 24.8016C184.551 24.782 185.136 24.1965 186.273 24.251C186.714 24.2727 188.432 25.1292 188.761 25.1773C191.41 25.5684 189.462 24.3445 192.055 25.4175C191.514 24.5957 193.004 25.2788 194.554 25.1199C194.819 25.0923 197.053 24.4273 197.207 24.4092C198.149 24.3023 197.124 25.0287 198.487 24.8396C198.651 24.6486 198.815 24.4574 198.979 24.2664H199.931C201.857 25.9682 202.305 24.7151 202.989 24.554C203.266 24.489 202.91 24.9335 203.627 24.8396C203.897 24.8046 204.197 24.4352 204.923 24.4092C207.197 24.3285 207.969 25.9098 210.06 24.2637C210.381 24.5022 210.702 24.7412 211.022 24.9797C211.239 24.6936 211.455 24.407 211.671 24.1209C213.327 24.9511 212.73 24.1008 213.328 24.1109C214.908 24.1369 218.14 24.2999 218.423 24.9844C219.786 23.4121 221.417 25.1859 221.954 25.1246C222.274 24.9336 222.593 24.7423 222.912 24.5513C223.288 24.7432 223.663 24.9354 224.038 25.1272C223.856 23.5838 225.798 25.0998 225.987 25.1246C226.202 25.1477 229.194 24.691 230.307 24.6995C231.418 24.7082 233.354 25.126 233.526 25.1272C233.722 25.1272 235.615 24.7072 237.095 24.7115C238.389 24.716 246.059 25.3124 245.576 24.6241C245.075 24.4334 244.36 24.2685 243.743 24.179C241.826 23.9045 230.575 23.5527 227.699 23.4429C221.932 23.2248 215.917 23.2654 210.125 23.1152C209.784 23.1066 209.732 22.7065 209.439 22.6975C208.996 22.686 207.87 23.0863 207.432 23.0779C205.798 23.0432 203.81 22.9779 202.935 22.9678C200.98 22.9475 199.638 22.7065 198.159 22.6675C197.696 22.656 195.354 23.1517 193.749 22.9424C193.458 22.8298 193.168 22.7173 192.877 22.6047C193.704 22.4733 195.873 22.1332 196.879 22.0942C198.378 22.038 199.159 22.3628 199.713 22.3572C200.176 22.3526 202.542 21.9829 203.62 21.9741C203.954 21.9712 204.023 22.3906 204.309 22.3892C205.863 22.3791 207.909 22.3683 209.257 21.9568C208.707 22.0911 212.141 22.3486 212.321 22.3471C212.63 22.347 212.965 21.9541 213.595 21.9541C214.807 21.9543 214.654 22.7757 216.168 21.9541C216.543 22.1934 216.918 22.4328 217.293 22.6721C217.317 21.578 222.055 23.0665 223.402 21.7365C223.438 21.5863 217.28 21.1603 216.772 21.1386C213.723 21.0072 209.211 21.2752 206.252 21.0832C205.362 21.0255 202.563 20.3606 202.351 20.3725C202.01 20.3913 202.317 20.7717 202.17 20.7856C199.158 21.0686 200.66 20.3035 200.26 20.0822ZM333.002 26.2857C332.087 26.2407 331.171 26.1959 330.256 26.1509C330.322 25.9108 330.389 25.6703 330.455 25.4302C330.874 25.5236 331.294 25.6171 331.713 25.7105C332.035 25.567 332.358 25.4235 332.68 25.28C332.787 25.6153 332.895 25.9505 333.002 26.2857ZM335.258 25.28C336.051 25.1592 336.09 25.6656 336.273 25.6904C336.82 25.7655 337.293 25.5606 337.823 25.5677C337.212 26.7707 335.911 26.2195 335.258 25.28ZM318.863 24.8469C319.042 24.9045 320.237 26.1998 321.596 24.9944C322.613 25.3772 323.629 25.7601 324.646 26.1429C322.919 25.5582 320.528 26.166 319.683 26.1429C319.362 26.134 319.3 25.7373 319.044 25.7305C317.564 25.6987 316.126 26.5992 315.975 25.282C317.373 25.6645 318.634 24.7769 318.863 24.8469ZM327.792 25.3147C328.028 25.59 328.266 25.8656 328.502 26.1409C327.647 26.1409 326.792 26.1409 325.936 26.1409C326.168 25.8623 326.399 25.5833 326.63 25.3047L327.792 25.3147ZM261.996 24.4038C262.523 24.4072 263.05 24.4105 263.578 24.4139C263.549 24.2134 262.946 24.2141 262.723 24.0789H262.726C262.479 23.9258 262.584 23.6671 262.134 23.553C262.088 23.8366 262.042 24.1203 261.996 24.4038ZM43.7378 23.2627C42.8528 23.2483 34.6881 23.2472 35.3837 23.9788C35.7348 24.344 38.5272 24.025 39.3506 24.0308C40.4606 24.0383 43.458 24.8295 43.7378 23.2627ZM29.2765 23.1199C29.1351 23.849 34.2384 23.9655 34.7374 23.8386C34.6314 23.7347 34.4677 23.5027 34.3266 23.4502C33.6379 23.199 30.3768 23.3191 29.2765 23.1199ZM232.453 22.2991C232.865 22.6677 233.276 23.0369 233.687 23.4055C233.579 22.926 233.471 22.4463 233.363 21.9668C233.06 22.0777 232.756 22.1882 232.453 22.2991ZM192.546 22.8276L171.986 22.7576C172.589 22.5582 173.191 22.3583 173.794 22.159C179.7 22.2297 185.998 22.4319 191.701 22.1243C191.983 22.3586 192.264 22.5933 192.546 22.8276ZM316.932 22.6875C315.176 22.6803 313.71 23.0322 311.8 22.4719C313.62 21.929 314.521 22.7689 316.29 21.9688H316.293C316.506 22.2082 316.719 22.4481 316.932 22.6875ZM277.728 22.542C278.262 22.2068 278.796 21.8716 279.33 21.5363C278.688 21.5363 278.045 21.5363 277.403 21.5363C277.511 21.8716 277.62 22.2067 277.728 22.542ZM132.766 20.9631C130.929 21.695 126.23 20.3702 124.737 21.2507C124.641 21.3085 125.528 21.68 124.094 22.3992C125.177 22.2519 125.942 22.1019 126.023 21.5363C126.345 21.7281 126.667 21.9198 126.988 22.1116C127.522 21.9664 128.057 21.8216 128.591 21.6765C128.533 22.2396 128.575 22.2095 129.395 21.824C129.769 21.9666 130.143 22.1091 130.517 22.2517C130.676 22.0133 130.834 21.7748 130.992 21.5363C131.316 21.87 131.64 22.2037 131.964 22.5373C133.226 22.1754 132.457 21.5287 132.766 20.9631ZM139.195 21.1006C138.891 20.9769 130.382 21.3817 134.251 22.5046C135.256 22.4688 136.262 22.4331 137.268 22.3972C136.435 20.5375 139.175 22.1991 139.401 22.239C140.478 22.4207 141.851 21.9786 142.633 22.0015C143.305 22.0217 143.705 22.3557 144.177 22.3471C145.788 22.3183 148.331 22.3058 148.681 21.5363C147.43 21.5203 146.158 21.5117 144.857 21.531C143.48 21.5512 142.269 20.8247 139.683 21.8213C139.044 21.7142 139.272 21.1323 139.195 21.1006ZM280.937 21.6138C280.873 22.3868 284.122 22.2021 284.144 21.8967C284.151 21.7176 283.092 21.7217 282.941 21.6538C282.94 21.6538 282.939 21.6538 282.938 21.6538C282.875 21.624 283.194 21.3284 282.698 21.2461C282.111 21.3687 281.524 21.4911 280.937 21.6138ZM56.4382 21.5337C55.9967 21.1 45.9628 21.2559 45.6672 21.4636C45.5873 21.5214 45.6988 21.7115 45.6672 21.8213C48.0085 21.2091 51.3374 21.9337 53.5599 21.9815C54.1777 21.9943 53.9949 21.6884 54.0289 21.6812H54.0337C54.3853 21.6805 55.9719 22.4313 56.4382 21.5337ZM121.524 21.6037C121.95 21.7247 122.377 21.8458 122.804 21.9668C122.912 21.7275 123.02 21.488 123.128 21.2487C123.128 21.2487 123.127 21.2487 123.126 21.2487C122.592 21.3672 122.057 21.4853 121.524 21.6037ZM106.742 20.8156C106.846 20.984 106.949 21.1525 107.053 21.3208C108.127 21.3442 109.202 21.3675 110.276 21.3909C110.168 21.486 110.059 21.5814 109.951 21.6765C111.575 21.9307 112.248 21.3384 113.113 21.4236C113.112 21.4236 113.111 21.4236 113.111 21.4236C113.204 21.4342 113.316 21.7847 113.662 21.7966C114.456 21.824 116.733 21.9543 117.008 21.6011C117.589 20.8475 113.009 21.2051 112.155 21.1707C111.769 21.1546 111.305 20.8478 111.07 20.8403C110.813 20.8336 110.462 21.2488 109.836 21.2361C109.653 21.2317 107.62 20.7438 106.742 20.8156ZM87.7803 21.3188C88.1117 21.6981 88.8032 21.3315 89.0572 21.3935C89.1171 21.4087 88.6462 21.7261 89.2181 21.8213C89.38 21.6045 89.5417 21.3875 89.7035 21.1707C89.0624 21.2199 88.4214 21.2696 87.7803 21.3188ZM286.398 21.2487C286.305 21.1672 284.56 21.197 284.476 21.2487C283.431 21.9419 287.044 21.8668 286.398 21.2487ZM330.432 20.4553C329.629 19.4478 339.15 20.438 340.074 20.3852C340.028 21.0182 337.764 20.3818 338.95 21.2507C337.817 20.7728 334.687 21.027 333.951 20.8884C333.504 20.8045 333.391 20.2571 333.324 20.2397C333.059 20.1781 330.715 20.8102 330.432 20.4553ZM347.943 20.8156C347.038 20.6955 346.133 20.5754 345.228 20.4553C346.296 20.3835 347.364 20.3115 348.432 20.2397C348.269 20.4316 348.106 20.6238 347.943 20.8156ZM349.082 20.528C349.053 19.9142 352.124 20.3812 352.932 20.2397C352.021 21.2839 350.503 20.3001 349.082 20.528ZM297.972 19.6645C296.557 19.2589 295.949 21.1294 297.67 20.3151C297.722 20.2882 298.031 19.686 297.972 19.6645ZM132.329 18.3305C132.088 18.319 129.086 17.7125 128.912 18.0129C128.363 18.971 130.332 18.5868 130.992 18.9485C132.057 19.5348 130.491 20.0183 133.09 19.6645C132.984 19.8562 132.878 20.048 132.772 20.2397C134.292 20.3031 133.795 18.9745 134.068 18.8037C134.152 18.7519 135.102 18.863 135.273 18.7783C137.416 17.708 132.556 18.339 132.329 18.3305ZM262.938 19.5217C260.121 18.9585 261.333 19.7851 258.442 19.7346C258.346 20.156 262.571 19.8913 262.938 19.5217ZM159.764 19.0886C156.85 19.2546 154.454 18.7035 151.736 19.4443C151.914 20.5851 160.519 19.3832 159.764 19.0886ZM22.8497 17.9328C34.1874 19.9648 47.2653 19.2959 59.3363 19.2641C60.6518 19.2612 60.7781 19.7135 61.254 19.6645C61.5658 19.6327 61.5115 19.2686 61.9257 19.2668C76.9046 19.2076 91.2473 18.7304 105.596 18.9485C106.5 18.9629 110.897 19.7458 111.836 18.5661C112.547 17.6711 109.388 18.3685 108.862 18.3605C108.466 18.3548 108.449 17.9343 108.185 17.9328C107.906 17.9315 108.137 18.2187 107.812 18.2231C106.435 18.2433 104.933 18.1311 103.688 18.1557C91.482 18.3911 79.6065 18.3236 67.4646 18.2831C65.9952 18.2787 66.2972 17.9416 66.2233 17.9401C66.2223 17.9409 66.2215 17.942 66.2205 17.9428C58.3403 17.911 49.3404 18.6667 40.9937 18.3779C35.1163 18.146 29.2386 17.9144 23.3611 17.6825C23.1909 17.766 23.0199 17.8494 22.8497 17.9328ZM138.551 19.519C137.818 18.2485 137.654 19.5296 135.023 19.0112C134.809 19.228 134.595 19.445 134.381 19.6618C135.772 19.6143 137.164 19.5666 138.556 19.519H138.551ZM121.174 19.0566C120.729 17.3401 114.846 18.5531 112.197 18.2257C111.711 19.0876 115.562 18.7003 116.47 18.791C116.924 18.8357 119.353 19.7224 121.199 19.2314C121.191 19.1731 121.182 19.1149 121.174 19.0566ZM320.468 17.9328L319.184 18.0829C320.255 18.2731 321.327 18.4633 322.398 18.6535C320.689 18.5309 318.98 18.4084 317.271 18.2858C317.589 17.9296 317.907 17.5729 318.226 17.2168C318.973 17.4553 319.72 17.6943 320.468 17.9328ZM314.923 18.1156C317.916 17.9815 314.791 18.9347 314.044 18.5107C313.598 18.2567 314.617 18.1301 314.923 18.1156ZM307.139 17.5024C308.535 16.8772 311.355 16.8342 310.353 18.0829C308.844 17.498 307.872 17.9836 305.685 17.6472C306.004 17.4079 306.323 17.1685 306.643 16.9291H306.647C306.811 17.1202 306.975 17.3114 307.139 17.5024ZM314.359 17.3596C314.446 17.338 316.212 17.3322 316.29 17.3596C318.25 18.0771 312.576 17.8317 314.359 17.3596ZM35.3837 16.6415C35.1475 17.0496 36.6554 17.0418 37.1569 17.0693C39.331 17.1905 42.1191 17.013 44.38 17.0693C44.2098 16.935 44.0395 16.8005 43.8693 16.6662C41.0407 16.6579 38.2122 16.6499 35.3837 16.6415ZM51.4532 17.0719H56.1137C56.2584 17.0719 56.9376 16.7214 56.4327 16.6362C54.7729 16.7813 53.113 16.9268 51.4532 17.0719ZM159.442 16.5715C158.695 16.6907 157.948 16.8099 157.201 16.9291C157.2 16.7849 157.199 16.6403 157.198 16.496C157.946 16.5211 158.694 16.5464 159.442 16.5715ZM29.2765 16.3539C30.068 16.8475 31.9555 16.7716 33.1325 16.7817C32.3218 16.3574 30.3893 16.566 29.2765 16.3539ZM120.888 16.0683C121.904 15.9947 122.69 16.1104 122.481 16.6389C121.943 16.6163 121.404 16.594 120.865 16.5715C120.872 16.4038 120.88 16.2359 120.888 16.0683ZM301.825 16.496C300.113 16.5436 298.4 16.5913 296.688 16.6389C296.751 16.4946 296.815 16.3507 296.879 16.2064C298.53 16.1597 300.181 16.113 301.832 16.0663C301.83 16.2095 301.827 16.3528 301.825 16.496ZM28.3078 15.0573C27.1317 15.1515 25.9557 15.246 24.7797 15.3402C25.9566 15.437 27.1336 15.5338 28.3105 15.6305V15.0553C28.3096 15.056 28.3086 15.0566 28.3078 15.0573ZM325.285 14.6269C320.054 13.9539 326.729 13.2428 328.109 14.2318C328.111 14.231 328.113 14.23 328.114 14.2291C328.235 14.3168 327.98 14.7394 328.181 14.9098C327.648 14.7188 327.115 14.5276 326.583 14.3366C326.097 14.5743 325.611 14.8123 325.126 15.05C324.966 14.9566 324.806 14.8631 324.646 14.7697C324.859 14.7221 325.072 14.6744 325.285 14.6269ZM346.399 14.2518C351.143 14.3299 346.289 15.3867 343.941 14.5521C343.958 14.3589 345.962 14.2446 346.399 14.2518ZM333.967 14.4794C333.22 14.5753 332.472 14.6711 331.725 14.767C331.63 14.6461 331.534 14.5256 331.438 14.4046C332.012 14.2845 332.586 14.1644 333.16 14.0443C333.429 14.1894 333.698 14.3343 333.967 14.4794ZM309.384 12.6129C308.181 12.4801 306.647 13.8247 310.509 13.4711C310.507 13.3268 310.505 13.1823 310.503 13.038C310.349 13.061 309.898 13.1962 309.873 13.1854C309.802 13.1492 309.885 12.6679 309.384 12.6129ZM355.183 10.4508C355.318 10.3942 355.392 8.87459 356.796 10.4481C357.221 10.3522 357.646 10.2564 358.071 10.1605C358.18 10.4957 358.29 10.8309 358.4 11.1661C356.756 10.9062 356.582 11.5847 356.463 11.5992C355.917 11.6627 356.321 11.3139 355.969 11.3089C355.059 11.2974 352.99 11.5315 353.928 10.5355C354.266 10.1791 355.048 10.5056 355.183 10.4508ZM351.969 9.58456C352.168 9.71161 351.526 10.1574 351.677 10.2833C351.808 10.393 353.79 10.847 353.253 11.5992C352.928 11.5675 352.603 11.5355 352.278 11.5038C352.168 11.2978 352.057 11.0918 351.947 10.8858C351.632 11.076 351.317 11.2662 351.002 11.4564C350.471 10.948 349.342 10.2893 350.683 9.87485C350.19 9.91821 349.697 9.96161 349.204 10.005C348.949 10.2485 348.693 10.4922 348.438 10.7357C348.572 10.3647 348.706 9.99362 348.839 9.6226C349.883 9.61009 350.926 9.59708 351.969 9.58456ZM367.255 9.72737C367.195 9.91922 367.134 10.1114 367.074 10.3033C368.885 9.94663 371.705 9.81057 370.104 11.0133C367.651 11.1134 365.198 11.2135 362.745 11.3136C362.582 11.1693 362.419 11.0254 362.256 10.8812C364.086 11.4371 363.52 9.07154 365.112 9.75006C365.381 9.86513 364.602 10.6926 366.289 10.1631C366.229 9.97045 366.169 9.77725 366.109 9.58456C366.491 9.6321 366.873 9.67983 367.255 9.72737ZM382.822 10.015C379.722 9.73768 383.137 9.03788 383.71 9.61993H383.706C385.275 11.2121 381.904 10.4439 381.696 10.4534C381.422 10.4675 380.785 11.6073 379.297 9.94492C380.472 9.96827 381.647 9.99163 382.822 10.015ZM372.699 9.73004C372.96 9.69249 372.816 9.98191 372.928 9.97762H372.931C374.591 9.91551 378.538 9.65644 378.966 10.5909C377.738 10.6689 372.241 10.8704 371.908 10.2352C372.172 10.0668 372.435 9.89843 372.699 9.73004ZM361.02 10.4254C360.002 9.82052 362.295 9.74018 362.897 10.0203C363.009 10.0817 362.075 11.0519 361.02 10.4254ZM282.861 8.86385C280.619 9.22779 283.565 9.59147 282.546 10.1605C282.973 10.1121 283.401 10.0633 283.829 10.015C283.507 9.63138 283.184 9.24746 282.861 8.86385ZM180.652 7.71539C180.129 7.64821 180.377 7.99587 180.331 8.001C179.988 7.99124 179.665 7.70843 179.533 7.73808C177.097 8.30937 178.717 8.60115 178.742 8.66899C178.793 9.01265 178.153 9.41472 179.04 9.80745C179.578 9.68572 180.116 9.56416 180.654 9.44242C180.922 9.63338 181.189 9.82403 181.456 10.015C182.526 9.60521 181.127 9.49291 180.968 8.94927C180.907 8.73552 181.913 8.47941 180.652 7.71539ZM278.844 7.71272C278.481 8.31643 277.59 9.07806 278.465 9.68466H278.468C278.63 9.79564 279.288 9.85718 279.491 10.013C280.934 9.2087 280.381 8.37696 278.844 7.71272ZM190.308 6.63432C191.176 6.77529 192.045 6.91644 192.913 7.05741C192.898 7.41932 192.883 7.78123 192.868 8.14314C192.404 8.04558 191.939 7.94842 191.475 7.85085C191.312 8.01599 191.149 8.18088 190.986 8.34601C191.563 8.75888 192.139 9.1717 192.716 9.58456C193.411 9.44026 194.106 9.29644 194.801 9.15214C194.481 8.96112 194.162 8.76992 193.842 8.57891C195.541 8.36804 195.171 9.24805 196.577 9.58456C197.058 9.24936 197.539 8.91411 198.02 8.57891C198.717 8.91589 199.414 9.25291 200.111 9.5899C201.282 9.43248 201.384 9.17593 200.596 8.79178C201.179 8.3528 201.816 9.04261 202.517 8.86385C202.575 8.84945 202.466 8.43794 202.517 8.43143C206.142 8.15268 205.949 9.23805 206.528 9.28427C206.937 9.31593 208.568 8.58317 208.594 8.33333C208.623 7.9962 205.234 6.66903 210.545 6.63432C207.799 5.71599 204.676 6.65101 206.695 7.99833C205.826 7.86275 201.993 8.19889 201.748 8.15849C201.392 8.09747 201.517 7.58594 201.07 7.57258C200.806 7.56589 200.107 8.7336 198.02 7.71272C197.753 7.90454 197.487 8.0968 197.22 8.28862C196.97 8.13097 196.72 7.97314 196.47 7.81549C196.985 7.2533 197.5 6.69135 198.015 6.12916C195.976 6.74001 194.284 5.59258 193.043 6.55958C191.969 6.44702 191.448 6.33523 191.909 5.84087H190.941C190.73 6.10529 190.519 6.36991 190.308 6.63432ZM272.257 8.57624C271.19 8.01494 270.807 9.22573 270.973 9.29428C271.908 9.67096 272.812 8.86831 272.257 8.57624ZM182.589 8.35869C183.766 8.67065 184.943 8.98231 186.12 9.29428V8.14581C184.943 8.21671 183.766 8.28779 182.589 8.35869ZM286.316 8.32599C286.152 8.25814 283.42 7.90666 283.189 8.003C283.297 8.28988 283.405 8.57698 283.514 8.86385C284.803 7.81605 286.083 9.31933 286.72 9.00933C286.858 8.9415 286.58 8.43482 286.316 8.32599ZM336.862 8.14114C336.382 8.33378 335.902 8.52641 335.421 8.71904C335.448 8.39632 335.474 8.07348 335.501 7.75076C335.738 7.6907 335.976 7.63064 336.213 7.57058C336.429 7.76068 336.646 7.95104 336.862 8.14114ZM331.397 8.65365C330.54 8.62779 329.684 8.60209 328.827 8.57624C332.095 8.28017 329.413 8.13565 331.397 7.71539V8.65365ZM322.725 8.001C322.831 7.80832 322.936 7.61512 323.042 7.42243H325.612C325.07 6.75352 324.528 6.0847 323.986 5.41579C323.672 5.41412 323.358 5.41278 323.044 5.41112C322.938 6.27433 322.832 7.13779 322.725 8.001ZM157.51 6.27664C156.992 6.26509 155.191 6.84939 155.267 7.06475C156.015 7.32916 156.764 7.59378 157.512 7.8582C157.516 7.47451 157.519 7.09075 157.523 6.70706C157.629 6.89808 157.735 7.08928 157.84 7.28029C158.266 7.13683 158.692 6.99333 159.117 6.84987C159.332 7.1851 159.546 7.52029 159.761 7.85553C159.976 7.47268 160.192 7.08991 160.408 6.70706C158.353 6.02827 158.423 6.70689 157.995 6.69972C157.778 6.69639 157.641 6.45896 157.564 6.33936C157.546 6.31854 157.528 6.29746 157.51 6.27664ZM183.402 5.91628C180.948 5.82101 179.545 6.83111 177.77 5.98635C178.909 7.78584 186.261 5.92729 188.854 7.42777C189.123 7.13916 189.393 6.85019 189.662 6.56158C188.25 6.81859 187.272 6.22468 186.584 6.13917C186.038 6.0714 186.094 6.37271 186.052 6.36939H186.046C184.766 6.24519 184.37 5.95387 183.402 5.91628ZM285.012 6.59161C284.353 6.13562 283.199 6.18157 283.186 6.8472C283.828 7.03986 284.47 7.23244 285.112 7.4251C284.981 7.2545 285.125 6.66965 285.012 6.59161ZM321.729 6.14117C321.214 5.92453 319.998 6.11488 320.523 6.68971C320.618 6.7914 321.828 6.38775 321.118 7.4251C322.298 7.40906 322.022 6.26579 321.729 6.14117ZM225.338 7.28029C225.771 7.26111 226.204 7.24142 226.637 7.22223C226.737 6.95374 226.838 6.68527 226.939 6.41677C226.405 6.70451 225.872 6.99255 225.338 7.28029ZM290.578 6.13116C291.154 7.44563 292.137 6.16681 293.217 7.24759C293.616 7.25593 294.016 7.26394 294.415 7.27228H294.417C294.428 6.9137 294.44 6.55514 294.45 6.19656C293.16 6.17487 291.869 6.15285 290.578 6.13116ZM198.336 6.63165C198.603 6.79848 198.87 6.96532 199.137 7.13215C199.611 6.93788 200.086 6.74384 200.561 6.54957C200.304 6.41029 200.047 6.27044 199.791 6.13116C199.306 6.29797 198.821 6.46485 198.336 6.63165ZM297.593 6.01905C296.197 5.85447 295.672 6.99712 297.457 7.00002C298.21 6.99992 299.055 6.19108 297.593 6.01905ZM130.842 6.70172C131.32 6.79931 131.798 6.89709 132.277 6.99468C132.44 6.75446 132.603 6.51418 132.766 6.27397C132.124 6.4166 131.483 6.55909 130.842 6.70172ZM328.348 6.2713C328.292 6.51141 328.237 6.75189 328.181 6.99201C327.754 6.94363 327.327 6.89558 326.9 6.8472C327.008 6.60864 327.115 6.36972 327.222 6.13116C327.597 6.17786 327.973 6.2246 328.348 6.2713ZM134.06 6.84987C134.443 6.89573 134.825 6.94147 135.207 6.98734C135.464 6.87056 135.721 6.75377 135.978 6.63699C135.62 6.52105 135.262 6.40526 134.904 6.28932C134.623 6.47611 134.342 6.66307 134.06 6.84987ZM310.825 6.12916C310.288 5.84032 308.142 6.74026 310.075 6.96999C311.305 7.11565 310.906 6.17498 310.825 6.12916ZM313.72 5.84087C311.675 5.29075 313.208 8.08354 315.649 6.27397C313.192 6.52203 313.84 5.8741 313.72 5.84087ZM331.709 4.40012C331.76 4.40172 331.802 4.80282 332.213 4.81786C333.693 4.86986 335.646 5.02821 336.705 5.05276C339.249 5.11193 347.041 4.3864 347.952 5.54858C348.142 5.79268 347.705 6.52182 347.782 6.55958C348.009 6.66432 349.312 6.31036 349.071 6.8472C347.793 6.84303 346.514 6.83869 345.235 6.83452C345.548 6.45596 345.862 6.07729 346.176 5.69873C342.99 5.90086 344.044 5.87739 343.128 6.70172C342.589 6.38225 342.049 6.06292 341.509 5.74344C340.335 6.06454 339.162 6.38596 337.988 6.70706C338.254 6.46775 338.52 6.22833 338.786 5.98902C337.017 5.54565 337.508 5.83624 336.54 6.41677C336.538 6.17744 336.537 5.93807 336.535 5.69873C334.827 6.28223 334.494 5.56459 334.121 5.55593C333.355 5.54231 332.38 8.37405 329.46 5.55593C328.229 6.91141 328.257 4.15384 327.534 5.55593C325.45 4.02969 329.412 4.58175 331.288 4.63235H331.291C331.432 4.63647 331.208 4.38016 331.709 4.40012ZM321.005 5.8035C322.267 4.55927 317.284 4.44313 318.933 6.23927C319.178 6.29764 319.424 6.35573 319.67 6.4141C320.116 6.21064 320.562 6.00697 321.008 5.8035H321.005ZM274.184 4.97802C269.568 5.48929 272.192 6.20482 273.755 5.50588C274.067 5.36728 274.238 5.17722 274.184 4.97802ZM179.896 4.96067C179.829 5.10988 179.761 5.25924 179.694 5.40845C181.242 5.26876 184.234 5.8444 184.193 4.83788C182.761 4.87876 181.328 4.9198 179.896 4.96067ZM192.14 4.30202C191.808 4.24129 190.45 4.09818 190.614 4.47486C191.203 4.74171 191.791 5.0088 192.379 5.27565C192.653 5.10886 192.927 4.94194 193.201 4.77516C192.819 4.71826 192.23 4.3179 192.14 4.30202Z" fill="#A3A5C7"/>
<path d="M264.16 8H19.664L17 34H252.32L276 30.1481L264.16 8Z" fill="#A3A5C7" stroke="#A3A5C7" stroke-width="7.86232"/>
<path d="M25.2358 27.1966C24.2268 27.1966 23.2702 27.0983 22.366 26.9017C21.475 26.6921 20.6822 26.3252 19.9877 25.801C19.3063 25.2768 18.769 24.5496 18.3759 23.6192C17.9828 22.6888 17.7862 21.4964 17.7862 20.0418C17.7862 18.6397 17.9959 17.48 18.4152 16.5628C18.8345 15.6324 19.3915 14.8986 20.086 14.3613C20.7936 13.8241 21.5732 13.4441 22.425 13.2213C23.2899 12.9985 24.1613 12.8871 25.0392 12.8871C25.6813 12.8871 26.2382 12.9199 26.71 12.9854C27.1817 13.0509 27.6338 13.1361 28.0662 13.2409L30.7394 14.7937L29.3635 17.8404L25.0196 16.3072C24.3906 16.3072 23.8075 16.4317 23.2702 16.6807C22.746 16.9297 22.3202 17.3293 21.9926 17.8797C21.6781 18.417 21.5208 19.1442 21.5208 20.0615C21.5208 21.5422 21.8484 22.584 22.5036 23.1868C23.1719 23.7764 24.0826 24.0713 25.2358 24.0713C25.8255 24.0713 26.2841 24.0451 26.6117 23.9927C26.9524 23.9271 27.2145 23.8747 27.3979 23.8354V22.3416H24.9016V19.4325H31.1522L31.3684 20.6119L30.936 22.2433V26.371C30.7918 26.4234 30.4642 26.5152 29.9532 26.6462C29.4552 26.7772 28.8 26.9017 27.9876 27.0197C27.1883 27.1376 26.271 27.1966 25.2358 27.1966ZM35.1125 17.1524L32.6162 14.6365L35.1125 12.1402L37.6088 14.6365L35.1125 17.1524ZM33.3435 27V20.4939L32.9307 18.9215L33.3238 17.7225H36.8815V27H33.3435ZM42.1295 27.1966C41.5136 27.1966 40.9174 27.0393 40.3408 26.7248C39.7773 26.4103 39.3121 25.9124 38.9452 25.231C38.5783 24.5496 38.3949 23.6585 38.3949 22.5578C38.3949 21.3391 38.5718 20.3629 38.9256 19.6291C39.2925 18.8953 39.7642 18.3646 40.3408 18.037C40.9174 17.6963 41.5136 17.5259 42.1295 17.5259C43.0598 17.5259 43.715 17.6045 44.0951 17.7618C44.4882 17.919 44.6847 17.9976 44.6847 17.9976L44.4882 14.2827L44.6847 13.1034H48.2424V23.8551L48.6355 25.8207L48.2424 27.0197H44.8813V26.0565L44.6847 25.9582C44.6847 25.9582 44.5864 26.0631 44.3899 26.2727C44.1933 26.4693 43.905 26.6724 43.525 26.8821C43.145 27.0917 42.6798 27.1966 42.1295 27.1966ZM43.6037 24.4251L44.6847 24.1499V21.2802C44.6847 20.9788 44.5864 20.7429 44.3899 20.5726C44.1933 20.3891 43.9313 20.2974 43.6037 20.2974C43.1188 20.2974 42.7519 20.4612 42.5029 20.7888C42.254 21.1033 42.1295 21.6274 42.1295 22.3612C42.1295 23.0819 42.2736 23.6061 42.5619 23.9337C42.8502 24.2613 43.1974 24.4251 43.6037 24.4251ZM53.6465 27.1966C53.0307 27.1966 52.4344 27.0393 51.8579 26.7248C51.2944 26.4103 50.8292 25.9124 50.4623 25.231C50.0954 24.5496 49.9119 23.6585 49.9119 22.5578C49.9119 21.3391 50.0888 20.3629 50.4426 19.6291C50.8096 18.8953 51.2813 18.3646 51.8579 18.037C52.4344 17.6963 53.0307 17.5259 53.6465 17.5259C54.5769 17.5259 55.2321 17.6045 55.6121 17.7618C56.0052 17.919 56.2018 17.9976 56.2018 17.9976L56.0052 14.2827L56.2018 13.1034H59.7595V23.8551L60.1526 25.8207L59.7595 27.0197H56.3984V26.0565L56.2018 25.9582C56.2018 25.9582 56.1035 26.0631 55.907 26.2727C55.7104 26.4693 55.4221 26.6724 55.0421 26.8821C54.6621 27.0917 54.1969 27.1966 53.6465 27.1966ZM55.1207 24.4251L56.2018 24.1499V21.2802C56.2018 20.9788 56.1035 20.7429 55.907 20.5726C55.7104 20.3891 55.4483 20.2974 55.1207 20.2974C54.6359 20.2974 54.269 20.4612 54.02 20.7888C53.771 21.1033 53.6465 21.6274 53.6465 22.3612C53.6465 23.0819 53.7907 23.6061 54.079 23.9337C54.3673 24.2613 54.7145 24.4251 55.1207 24.4251ZM62.117 27V16.2286L61.7238 14.263L62.117 13.0837H65.655V16.2679L65.4584 18.4497L65.655 18.548C65.8123 18.3121 66.1005 18.0828 66.5199 17.8601C66.9523 17.6242 67.5158 17.5063 68.2103 17.5063C69.3896 17.5063 70.2741 17.8404 70.8638 18.5087C71.4535 19.177 71.7483 20.1139 71.7483 21.3195V23.8747L72.1611 25.801L71.7483 27H68.2103V21.8305C68.2103 21.3326 68.0989 20.9526 67.8761 20.6905C67.6664 20.4153 67.3323 20.2777 66.8737 20.2777L65.655 20.8477V27H62.117ZM76.6116 27.1966C76.0481 27.1966 75.524 27.1179 75.0391 26.9607C74.5674 26.7903 74.1874 26.5021 73.8991 26.0958C73.6108 25.6896 73.4666 25.1261 73.4666 24.4054C73.4666 23.7502 73.6304 23.2064 73.958 22.774C74.2856 22.3416 74.7312 22.0205 75.2946 21.8109C75.8581 21.6012 76.4936 21.4964 77.2013 21.4964C77.8827 21.4964 78.3937 21.575 78.7344 21.7322C79.0751 21.8764 79.3699 22.0271 79.6189 22.1843L79.7565 22.0664C79.7565 21.6733 79.7237 21.3457 79.6582 21.0836C79.5927 20.8215 79.442 20.625 79.2061 20.4939C78.9703 20.3498 78.6034 20.2777 78.1054 20.2777C77.6206 20.2777 77.103 20.3236 76.5526 20.4153C76.0154 20.4939 75.5174 20.5988 75.0588 20.7298C74.6132 20.8477 74.2791 20.9657 74.0563 21.0836V18.1352C74.4625 17.9911 75.0391 17.8601 75.786 17.7421C76.5461 17.6111 77.4764 17.5456 78.5772 17.5456C79.7565 17.5456 80.6869 17.6963 81.3683 17.9976C82.0628 18.2859 82.5607 18.7118 82.8621 19.2753C83.1635 19.8256 83.3142 20.4874 83.3142 21.2605V23.8747L83.7073 25.86L83.3142 27.0197H79.9531V26.0565L79.7565 25.9582C79.6517 26.0631 79.4682 26.2138 79.2061 26.4103C78.9441 26.6069 78.5968 26.7903 78.1644 26.9607C77.732 27.1179 77.2144 27.1966 76.6116 27.1966ZM78.2823 24.6216C78.6361 24.6216 78.9375 24.5889 79.1865 24.5234C79.4486 24.4579 79.6386 24.3989 79.7565 24.3465V23.973C79.7565 23.8027 79.632 23.6389 79.383 23.4816C79.1472 23.3244 78.7737 23.2457 78.2627 23.2457C77.5551 23.2457 77.2013 23.4947 77.2013 23.9927C77.2013 24.2023 77.2799 24.3596 77.4371 24.4644C77.5944 24.5692 77.8761 24.6216 78.2823 24.6216ZM96.524 27.1966C95.895 27.1966 95.3905 27.1376 95.0105 27.0197C94.6436 26.9148 94.3749 26.81 94.2046 26.7052C94.0342 26.5872 93.9491 26.5283 93.9491 26.5283V27.0197H90.411V16.2483L89.9982 14.2827L90.411 13.1034H93.9491V16.2679L93.7525 18.489L93.9491 18.5873C94.2111 18.3383 94.5322 18.1025 94.9122 17.8797C95.3053 17.6438 95.8426 17.5259 96.524 17.5259C97.6902 17.5259 98.6009 17.8994 99.2561 18.6463C99.9244 19.3932 100.259 20.5726 100.259 22.1843C100.259 23.3899 100.088 24.3661 99.7475 25.113C99.4199 25.8469 98.9744 26.3776 98.4109 26.7052C97.8475 27.0328 97.2185 27.1966 96.524 27.1966ZM94.8532 24.5037C95.3643 24.5037 95.7705 24.3268 96.0719 23.973C96.3733 23.6061 96.524 23.0623 96.524 22.3416C96.524 21.634 96.3995 21.1229 96.1505 20.8084C95.9015 20.4808 95.5346 20.317 95.0498 20.317L93.9491 20.7298V24.2482C93.9491 24.2482 94.0146 24.2941 94.1456 24.3858C94.2898 24.4644 94.5256 24.5037 94.8532 24.5037ZM102.35 31.7764L99.5781 30.7936L100.364 27.8649L103.116 28.6511C103.68 28.6511 104.086 28.5004 104.335 28.199C104.597 27.9107 104.793 27.5045 104.925 26.9803H102.9L100.738 20.2581L100.364 17.7028H104.099L105.18 24.1892H105.573L106.654 17.7028H110.389C110.389 17.7028 110.343 17.9125 110.251 18.3318C110.173 18.738 110.055 19.2818 109.897 19.9632C109.753 20.6446 109.576 21.3981 109.367 22.2236C109.17 23.0361 108.961 23.8616 108.738 24.7003C108.515 25.5258 108.286 26.2858 108.05 26.9803C107.696 28.068 107.27 28.9656 106.772 29.6732C106.287 30.3808 105.691 30.905 104.983 31.2457C104.276 31.5995 103.398 31.7764 102.35 31.7764ZM116.733 27V20.6315L115.691 18.6659L116.733 17.7225C116.668 17.4997 116.615 17.2049 116.576 16.838C116.55 16.4579 116.536 16.15 116.536 15.9141C116.536 15.1672 116.707 14.512 117.048 13.9486C117.401 13.3851 117.886 12.9461 118.502 12.6316C119.118 12.304 119.812 12.1402 120.586 12.1402C120.952 12.1402 121.339 12.1599 121.745 12.1992C122.165 12.2254 122.525 12.2778 122.826 12.3564L124.93 13.5554L123.416 16.2876L121.156 14.9117C120.71 14.9117 120.382 15.0755 120.173 15.4031C119.963 15.7176 119.858 16.0714 119.858 16.4645C119.858 16.7528 119.904 17.0083 119.996 17.2311C120.088 17.4538 120.179 17.6176 120.271 17.7225H123.416V20.0812H120.271V23.8158L120.468 25.801L120.271 27H116.733ZM127.095 27.1966C126.531 27.1966 126.007 27.1179 125.522 26.9607C125.051 26.7903 124.671 26.5021 124.382 26.0958C124.094 25.6896 123.95 25.1261 123.95 24.4054C123.95 23.7502 124.114 23.2064 124.441 22.774C124.769 22.3416 125.214 22.0205 125.778 21.8109C126.341 21.6012 126.977 21.4964 127.684 21.4964C128.366 21.4964 128.877 21.575 129.218 21.7322C129.558 21.8764 129.853 22.0271 130.102 22.1843L130.24 22.0664C130.24 21.6733 130.207 21.3457 130.141 21.0836C130.076 20.8215 129.925 20.625 129.689 20.4939C129.453 20.3498 129.087 20.2777 128.589 20.2777C128.104 20.2777 127.586 20.3236 127.036 20.4153C126.498 20.4939 126.001 20.5988 125.542 20.7298C125.096 20.8477 124.762 20.9657 124.539 21.0836V18.1352C124.946 17.9911 125.522 17.8601 126.269 17.7421C127.029 17.6111 127.96 17.5456 129.06 17.5456C130.24 17.5456 131.17 17.6963 131.851 17.9976C132.546 18.2859 133.044 18.7118 133.345 19.2753C133.647 19.8256 133.797 20.4874 133.797 21.2605V23.8747L134.19 25.86L133.797 27.0197H130.436V26.0565L130.24 25.9582C130.135 26.0631 129.951 26.2138 129.689 26.4103C129.427 26.6069 129.08 26.7903 128.648 26.9607C128.215 27.1179 127.698 27.1966 127.095 27.1966ZM128.765 24.6216C129.119 24.6216 129.421 24.5889 129.67 24.5234C129.932 24.4579 130.122 24.3989 130.24 24.3465V23.973C130.24 23.8027 130.115 23.6389 129.866 23.4816C129.63 23.3244 129.257 23.2457 128.746 23.2457C128.038 23.2457 127.684 23.4947 127.684 23.9927C127.684 24.2023 127.763 24.3596 127.92 24.4644C128.078 24.5692 128.359 24.6216 128.765 24.6216ZM135.759 18.9215L136.369 17.7225H139.297V18.5677L139.474 18.6856C139.618 18.5546 139.815 18.4039 140.064 18.2335C140.326 18.0501 140.641 17.8863 141.007 17.7421C141.374 17.598 141.787 17.5259 142.246 17.5259C143.609 17.5259 144.585 17.978 145.175 18.8822C145.41 18.5546 145.764 18.2466 146.236 17.9583C146.721 17.6569 147.389 17.5063 148.241 17.5063C149.42 17.5063 150.305 17.8404 150.894 18.5087C151.484 19.177 151.779 20.1139 151.779 21.3195V23.8354L152.192 25.801L151.779 27H148.241V21.8305C148.241 21.3326 148.129 20.9526 147.907 20.6905C147.697 20.4153 147.363 20.2777 146.904 20.2777C146.603 20.2777 146.341 20.3891 146.118 20.6119C145.895 20.8346 145.784 21.1164 145.784 21.4571V27H142.246V21.8502C142.246 21.3522 142.134 20.9722 141.912 20.7101C141.702 20.435 141.368 20.2974 140.909 20.2974L139.691 20.6708V27H136.153V21.0836L135.759 18.9215ZM155.927 17.1524L153.43 14.6365L155.927 12.1402L158.423 14.6365L155.927 17.1524ZM154.158 27V20.4939L153.745 18.9215L154.138 17.7225H157.696V27H154.158ZM159.917 27L159.897 16.2286L159.504 14.263L159.917 13.0837H163.455V27H159.917ZM166.615 31.7764L163.843 30.7936L164.63 27.8649L167.381 28.6511C167.945 28.6511 168.351 28.5004 168.6 28.199C168.862 27.9107 169.059 27.5045 169.19 26.9803H167.165L165.003 20.2581L164.63 17.7028H168.364L169.445 24.1892H169.838L170.919 17.7028H174.654C174.654 17.7028 174.608 17.9125 174.516 18.3318C174.438 18.738 174.32 19.2818 174.163 19.9632C174.019 20.6446 173.842 21.3981 173.632 22.2236C173.435 23.0361 173.226 23.8616 173.003 24.7003C172.78 25.5258 172.551 26.2858 172.315 26.9803C171.961 28.068 171.535 28.9656 171.037 29.6732C170.553 30.3808 169.956 30.905 169.249 31.2457C168.541 31.5995 167.663 31.7764 166.615 31.7764ZM180.35 18.9215L180.959 17.7225H183.888V18.5677L184.065 18.6856C184.209 18.5546 184.405 18.4039 184.654 18.2335C184.916 18.0501 185.231 17.8863 185.598 17.7421C185.965 17.598 186.377 17.5259 186.836 17.5259C188.199 17.5259 189.175 17.978 189.765 18.8822C190.001 18.5546 190.354 18.2466 190.826 17.9583C191.311 17.6569 191.979 17.5063 192.831 17.5063C194.01 17.5063 194.895 17.8404 195.485 18.5087C196.074 19.177 196.369 20.1139 196.369 21.3195V23.8354L196.782 25.801L196.369 27H192.831V21.8305C192.831 21.3326 192.72 20.9526 192.497 20.6905C192.287 20.4153 191.953 20.2777 191.494 20.2777C191.193 20.2777 190.931 20.3891 190.708 20.6119C190.485 20.8346 190.374 21.1164 190.374 21.4571V27H186.836V21.8502C186.836 21.3522 186.725 20.9722 186.502 20.7101C186.292 20.435 185.958 20.2974 185.499 20.2974L184.281 20.6708V27H180.743V21.0836L180.35 18.9215ZM203.269 27.1966C202.26 27.1966 201.362 27.0459 200.576 26.7445C199.79 26.4431 199.174 25.9386 198.728 25.231C198.283 24.5234 198.06 23.5668 198.06 22.3612C198.06 21.4964 198.204 20.756 198.492 20.1401C198.794 19.5242 199.193 19.0263 199.691 18.6463C200.189 18.2532 200.746 17.9714 201.362 17.8011C201.978 17.6176 202.613 17.5259 203.269 17.5259C204.396 17.5259 205.26 17.6373 205.863 17.8601C206.479 18.0828 206.885 18.2597 207.082 18.3908L208.065 21.516L207.672 22.7347H201.578C201.67 23.2195 201.912 23.6258 202.305 23.9534C202.699 24.2809 203.347 24.4447 204.251 24.4447C204.959 24.4447 205.568 24.3661 206.079 24.2089C206.59 24.0516 206.99 23.914 207.278 23.7961V26.43C206.885 26.6396 206.315 26.8231 205.568 26.9803C204.835 27.1245 204.068 27.1966 203.269 27.1966ZM201.598 21.4767L204.31 21.0836L204.133 20.2384C204.042 20.186 203.904 20.1467 203.721 20.1205C203.55 20.0943 203.4 20.0812 203.269 20.0812C202.902 20.0812 202.594 20.1598 202.345 20.317C202.109 20.4743 201.925 20.6643 201.794 20.887C201.676 21.0967 201.611 21.2933 201.598 21.4767ZM209.315 18.9215L209.924 17.7225H212.853V18.5677L213.03 18.6856C213.174 18.5546 213.371 18.4039 213.62 18.2335C213.882 18.0501 214.196 17.8863 214.563 17.7421C214.93 17.598 215.343 17.5259 215.801 17.5259C217.164 17.5259 218.141 17.978 218.73 18.8822C218.966 18.5546 219.32 18.2466 219.792 17.9583C220.276 17.6569 220.945 17.5063 221.797 17.5063C222.976 17.5063 223.86 17.8404 224.45 18.5087C225.04 19.177 225.335 20.1139 225.335 21.3195V23.8354L225.747 25.801L225.335 27H221.797V21.8305C221.797 21.3326 221.685 20.9526 221.462 20.6905C221.253 20.4153 220.919 20.2777 220.46 20.2777C220.159 20.2777 219.896 20.3891 219.674 20.6119C219.451 20.8346 219.34 21.1164 219.34 21.4571V27H215.801V21.8502C215.801 21.3522 215.69 20.9722 215.467 20.7101C215.258 20.435 214.924 20.2974 214.465 20.2974L213.246 20.6708V27H209.708V21.0836L209.315 18.9215ZM233.846 27.1966C233.217 27.1966 232.712 27.1376 232.332 27.0197C231.965 26.9148 231.697 26.81 231.526 26.7052C231.356 26.5872 231.271 26.5283 231.271 26.5283V27.0197H227.733V16.2483L227.32 14.2827L227.733 13.1034H231.271V16.2679L231.074 18.489L231.271 18.5873C231.533 18.3383 231.854 18.1025 232.234 17.8797C232.627 17.6438 233.164 17.5259 233.846 17.5259C235.012 17.5259 235.923 17.8994 236.578 18.6463C237.246 19.3932 237.58 20.5726 237.58 22.1843C237.58 23.3899 237.41 24.3661 237.069 25.113C236.742 25.8469 236.296 26.3776 235.733 26.7052C235.169 27.0328 234.54 27.1966 233.846 27.1966ZM232.175 24.5037C232.686 24.5037 233.092 24.3268 233.394 23.973C233.695 23.6061 233.846 23.0623 233.846 22.3416C233.846 21.634 233.721 21.1229 233.472 20.8084C233.223 20.4808 232.856 20.317 232.372 20.317L231.271 20.7298V24.2482C231.271 24.2482 231.336 24.2941 231.467 24.3858C231.612 24.4644 231.847 24.5037 232.175 24.5037ZM243.77 27.1966C242.761 27.1966 241.864 27.0459 241.077 26.7445C240.291 26.4431 239.675 25.9386 239.23 25.231C238.784 24.5234 238.562 23.5668 238.562 22.3612C238.562 21.4964 238.706 20.756 238.994 20.1401C239.295 19.5242 239.695 19.0263 240.193 18.6463C240.691 18.2532 241.248 17.9714 241.864 17.8011C242.48 17.6176 243.115 17.5259 243.77 17.5259C244.897 17.5259 245.762 17.6373 246.365 17.8601C246.981 18.0828 247.387 18.2597 247.584 18.3908L248.566 21.516L248.173 22.7347H242.08C242.172 23.2195 242.414 23.6258 242.807 23.9534C243.2 24.2809 243.849 24.4447 244.753 24.4447C245.461 24.4447 246.07 24.3661 246.581 24.2089C247.092 24.0516 247.492 23.914 247.78 23.7961V26.43C247.387 26.6396 246.817 26.8231 246.07 26.9803C245.336 27.1245 244.57 27.1966 243.77 27.1966ZM242.1 21.4767L244.812 21.0836L244.635 20.2384C244.543 20.186 244.406 20.1467 244.222 20.1205C244.052 20.0943 243.901 20.0812 243.77 20.0812C243.403 20.0812 243.095 20.1598 242.846 20.317C242.611 20.4743 242.427 20.6643 242.296 20.887C242.178 21.0967 242.113 21.2933 242.1 21.4767ZM250.23 27V20.8477L249.817 18.8822L250.23 17.7028H252.903L253.296 18.1549C253.296 18.1549 253.388 18.1025 253.571 17.9976C253.754 17.8797 254.01 17.7683 254.338 17.6635C254.678 17.5587 255.071 17.5063 255.517 17.5063C255.779 17.5063 256.041 17.5259 256.303 17.5652C256.565 17.6045 256.768 17.6569 256.913 17.7225L258.19 18.8035L256.913 21.3195L254.318 20.2384L253.728 20.435V27H250.23ZM263.199 27.1966C262.242 27.1966 261.397 27.0983 260.663 26.9017C259.929 26.7052 259.359 26.5021 258.953 26.2924V23.5602C259.49 23.7961 260.041 23.9796 260.604 24.1106C261.181 24.2416 261.698 24.3334 262.157 24.3858C262.616 24.4251 262.943 24.4447 263.14 24.4447C263.363 24.4447 263.52 24.412 263.612 24.3465C263.703 24.2678 263.749 24.1761 263.749 24.0713C263.749 23.9271 263.631 23.8092 263.395 23.7175C263.16 23.6127 262.714 23.4816 262.059 23.3244C261.522 23.1933 260.997 23.0295 260.486 22.833C259.988 22.6233 259.576 22.335 259.248 21.9681C258.934 21.6012 258.776 21.1098 258.776 20.4939C258.776 19.7339 258.953 19.1377 259.307 18.7053C259.661 18.2728 260.165 17.9714 260.82 17.8011C261.476 17.6176 262.242 17.5259 263.12 17.5259C263.618 17.5259 264.083 17.5521 264.516 17.6045C264.948 17.6569 265.256 17.6963 265.44 17.7225L267.268 18.9018L266.383 21.005L262.943 20.2581C262.524 20.2581 262.314 20.3957 262.314 20.6708C262.314 20.9591 262.616 21.1753 263.218 21.3195C263.69 21.4243 264.175 21.5422 264.673 21.6733C265.171 21.7912 265.623 21.9485 266.029 22.145C266.449 22.3416 266.783 22.6037 267.032 22.9312C267.294 23.2588 267.425 23.6913 267.425 24.2285C267.425 25.2244 267.064 25.9713 266.344 26.4693C265.636 26.9541 264.588 27.1966 263.199 27.1966Z" fill="white"/>
</svg>
