<svg width="195" height="27" viewBox="0 0 195 27" fill="none" xmlns="http://www.w3.org/2000/svg">
<path d="M97.5091 14.7303C96.0475 13.0981 93.4954 11.8219 93.1801 9.45036C92.7466 6.18935 96.7603 9.05028 97.5692 10.0862C97.7322 10.296 98.1512 10.1849 98.1901 9.92253C98.3577 8.80056 98.9367 7.8153 99.9327 7.23987C101.84 6.13869 101.75 9.62766 101.504 10.5295C100.817 13.0579 98.7776 15.1193 97.5117 17.3619C97.6806 17.3174 97.8501 17.2733 98.0193 17.2288C95.3006 15.3109 91.6444 13.5102 90.3308 10.2518C89.5999 8.43912 90.7871 6.37153 92.2556 5.36192C93.5743 4.4559 96.2141 5.60384 96.8983 6.82291C97.0302 7.05834 97.4111 7.07101 97.5394 6.82291C98.9133 4.1802 102.723 3.29237 104.457 6.19909C105.352 7.701 104.391 9.89817 103.735 11.2913C102.246 14.451 99.9466 17.3249 97.5692 19.8618C97.2416 20.2109 97.766 20.7376 98.0947 20.3875C101.095 17.1866 104.527 13.1277 105.41 8.72035C105.832 6.61671 104.964 5.11089 103.133 4.0818C100.78 2.75849 98.0313 4.2669 96.898 6.44784C97.1113 6.44784 97.3257 6.44784 97.539 6.44784C96.6905 4.93456 94.7693 4.35783 93.1275 4.3903C91.2206 4.42862 89.9425 6.43387 89.5177 8.08256C88.3447 12.6325 94.7021 15.7954 97.6442 17.8705C97.8079 17.9858 98.0589 17.902 98.1521 17.737C99.6644 15.0595 103.896 10.9179 102.115 7.50096C100.636 4.66601 97.7745 7.70944 97.4734 9.72476C97.6803 9.67021 97.8875 9.61565 98.0947 9.56077C97.2948 8.5359 93.9176 5.74965 92.7849 7.77244C91.0261 10.914 95.2867 13.3609 96.9834 15.2557C97.3039 15.6136 97.8274 15.0862 97.5091 14.7303Z" fill="white"/>
<path d="M79.3027 16.1743C78.7455 15.3183 77.0387 15.418 77.2426 16.7381L77.2536 16.9277C77.0533 15.6707 75.2685 15.521 75.0896 16.8001C74.9029 17.9526 76.7172 18.6082 77.3861 19.2035C77.9745 18.4085 79.8749 17.2827 79.3027 16.1743Z" fill="white"/>
<path d="M87.994 20.8494C88.2301 19.6034 87.2068 19.1065 86.2777 19.9349C85.3061 20.801 85.8436 22.2227 86.9967 22.4948C88.2509 22.791 89.468 21.8148 89.519 20.5457C89.58 19.0201 88.2931 18.0622 86.8662 17.9751C85.1717 17.8719 84.2988 19.3777 83.5292 20.6133C82.9515 21.5404 82.2266 22.0662 81.1079 22.0668C80.4513 22.0671 79.8165 21.8333 79.4998 21.2319C78.9975 20.2762 79.6365 18.9243 80.2743 18.2008C81.2128 17.136 82.2546 17.5406 82.855 18.6951C83.2171 19.3916 82.9021 20.284 82.1552 20.549C81.6541 20.7276 81.0345 20.309 80.8589 19.8596C80.7731 19.5293 80.8894 19.2796 81.2083 19.1104C81.5668 19.1413 81.8379 19.2949 82.0217 19.5722C82.2231 19.8034 82.5576 19.466 82.3578 19.2364C82.0292 18.8584 81.4129 18.3674 80.8835 18.7331C80.3929 19.0718 80.2526 19.606 80.4685 20.1593C81.0482 21.643 82.9222 21.0624 83.3908 19.8882C83.8049 18.8496 82.918 17.4831 81.9376 17.1253C81.1112 16.8233 80.2747 17.4497 79.782 18.0492C78.6338 19.4472 78.3421 22.0486 80.563 22.4906C82.1435 22.8046 83.2538 21.9535 84.0471 20.6808C84.5436 19.8836 84.9567 19.1598 85.7981 18.6805C86.8136 18.1024 88.22 18.5905 88.8247 19.5212C89.5686 20.6669 88.6181 22.0321 87.3802 22.0619C86.798 22.0756 86.3011 21.7268 86.2583 21.129C86.1894 20.1703 87.779 19.4403 87.5358 20.7243C87.4796 21.0225 87.9368 21.1501 87.994 20.8494Z" fill="white"/>
<path d="M66.6653 20.8229C66.4712 19.798 67.3872 20.0474 67.7727 20.6076C68.1114 21.1002 67.9442 21.7198 67.4577 22.0117C66.463 22.6083 65.4115 21.7328 65.1803 20.7995C64.8887 19.6239 65.9886 18.7916 66.9943 18.5805C68.188 18.3302 69.1291 19.1566 69.7276 20.0789C70.6122 21.4411 71.289 22.6401 73.0939 22.6411C74.0716 22.6414 74.9569 22.1767 75.2482 21.2103C75.7122 19.6713 74.3847 17.1118 72.621 17.1588C71.6611 17.1845 70.7252 18.3971 70.7236 19.3021C70.7216 20.6345 72.2797 21.9211 73.4192 20.6897C74.5678 19.4476 72.999 18.0067 71.8439 19.3352C71.6439 19.5651 71.9787 19.9025 72.1797 19.671C72.4963 19.3067 73.0714 18.8926 73.3426 19.5801C73.5495 20.1055 72.9461 20.4991 72.5428 20.6426C71.6351 20.9661 71.1237 19.8532 71.2195 19.1527C71.3075 18.5133 71.953 17.7057 72.621 17.6343C73.6787 17.5212 74.4464 18.8702 74.7143 19.7032C75.1101 20.9323 74.6201 22.0341 73.2627 22.1588C71.0259 22.3644 70.646 20.1117 69.3571 18.8556C68.3481 17.872 66.5634 17.8031 65.5044 18.751C64.5487 19.6061 64.2876 21.3671 65.4573 22.2001C66.2565 22.769 67.8919 22.8995 68.3111 21.7633C68.6748 20.7764 67.8139 19.255 66.6339 19.6557C66.0928 19.8392 66.123 20.5027 66.2078 20.9492C66.2643 21.2499 66.7222 21.1223 66.6653 20.8229Z" fill="white"/>
<path d="M76.5298 21.1118C76.4373 21.4891 76.6182 21.8343 76.9751 21.9788C77.3488 22.1298 77.7496 21.8207 77.8872 21.4907C78.0087 21.2007 77.7947 20.8883 77.5498 20.7494C77.2576 20.5841 76.8822 20.6315 76.6542 20.8802C76.4474 21.1053 76.7825 21.442 76.99 21.216C77.0838 21.114 77.1702 21.1105 77.2868 21.1485C77.3355 21.164 77.3771 21.2014 77.4167 21.2452C77.4346 21.2647 77.444 21.3134 77.4443 21.3102C77.4294 21.4125 77.279 21.5544 77.1657 21.5381C77.0176 21.517 76.9549 21.3725 76.988 21.2381C77.0611 20.9406 76.6029 20.8143 76.5298 21.1118Z" fill="white"/>
<path d="M14.6253 16.1743C14.0681 15.3183 12.3612 15.418 12.5652 16.7381L12.5759 16.9277C12.3759 15.6707 10.5911 15.521 10.4118 16.8001C10.2251 17.9526 12.0394 18.6082 12.7084 19.2035C13.2971 18.4085 15.1978 17.2827 14.6253 16.1743Z" fill="white"/>
<path d="M23.3159 20.8494C23.552 19.6034 22.5284 19.1065 21.5997 19.9349C20.6284 20.801 21.1658 22.2227 22.3187 22.4948C23.5728 22.791 24.7902 21.8148 24.8409 20.5457C24.9019 19.0201 23.6153 18.0622 22.1884 17.9751C20.494 17.8719 19.6207 19.3777 18.8511 20.6133C18.2734 21.5404 17.5486 22.0662 16.4299 22.0668C15.7732 22.0671 15.1384 21.8333 14.8221 21.2319C14.3194 20.2762 14.9585 18.9243 15.5966 18.2008C16.5351 17.136 17.5768 17.5406 18.1773 18.6951C18.5394 19.3916 18.224 20.284 17.4775 20.549C16.9761 20.7276 16.3565 20.309 16.1808 19.8596C16.0954 19.5293 16.2113 19.2796 16.5305 19.1104C16.889 19.1413 17.1599 19.2949 17.344 19.5722C17.5453 19.8034 17.8798 19.466 17.6798 19.2364C17.3511 18.8584 16.7351 18.3674 16.2055 18.7331C15.7145 19.0718 15.5745 19.606 15.7905 20.1593C16.3701 21.643 18.2442 21.0624 18.7128 19.8882C19.1271 18.8496 18.24 17.4831 17.2599 17.1253C16.4334 16.8233 15.5972 17.4497 15.1043 18.0492C13.956 19.4472 13.6644 22.0486 15.8853 22.4906C17.4658 22.8046 18.5761 21.9535 19.3694 20.6808C19.8659 19.8836 20.2787 19.1598 21.1201 18.6805C22.1358 18.1024 23.5423 18.5905 24.1469 19.5212C24.8909 20.6669 23.9404 22.0321 22.7025 22.0619C22.1202 22.0756 21.6237 21.7268 21.5809 21.129C21.512 20.1703 23.1013 19.4403 22.8584 20.7243C22.8012 21.0225 23.2588 21.1501 23.3159 20.8494Z" fill="white"/>
<path d="M1.98599 20.8229C1.79147 19.798 2.70788 20.0474 3.09334 20.6076C3.43204 21.1002 3.2648 21.7198 2.77835 22.0117C1.78368 22.6083 0.731851 21.7328 0.500638 20.7995C0.209673 19.6239 1.30891 18.7916 2.31494 18.5805C3.50835 18.3302 4.44977 19.1566 5.04793 20.0789C5.93252 21.4411 6.60927 22.6401 8.41416 22.6411C9.39162 22.6414 10.2769 22.1767 10.5681 21.2103C11.0325 19.6713 9.70499 17.1118 7.94102 17.1588C6.98142 17.1845 6.0452 18.3971 6.0439 19.3021C6.04196 20.6345 7.60004 21.9211 8.73922 20.6897C9.88814 19.4476 8.31901 18.0067 7.16425 19.3352C6.96388 19.5651 7.29869 19.9025 7.50003 19.671C7.81665 19.3067 8.39175 18.8926 8.66258 19.5801C8.86944 20.1055 8.26608 20.4991 7.86276 20.6426C6.95512 20.9661 6.44333 19.8532 6.53945 19.1527C6.62746 18.5133 7.27303 17.7057 7.94102 17.6343C8.99869 17.5212 9.76637 18.8702 10.0343 19.7032C10.4301 20.9323 9.9401 22.0341 8.58303 22.1588C6.34623 22.3644 5.96597 20.1117 4.67741 18.8556C3.66845 17.872 1.88369 17.8031 0.824726 18.751C-0.130976 19.6061 -0.392066 21.3671 0.777638 22.2001C1.57682 22.769 3.21187 22.8995 3.63111 21.7633C3.99514 20.7764 3.13426 19.255 1.95416 19.6557C1.41282 19.8392 1.44335 20.5027 1.52778 20.9492C1.58493 21.2499 2.04249 21.1223 1.98599 20.8229Z" fill="white"/>
<path d="M11.8502 21.1098C11.7576 21.4872 11.9382 21.8324 12.2954 21.9769C12.6688 22.1279 13.0699 21.8187 13.2079 21.4888C13.329 21.1988 13.115 20.8864 12.8705 20.7474C12.5779 20.5821 12.2029 20.6295 11.9749 20.8783C11.768 21.1033 12.1032 21.4401 12.3103 21.2141C12.4045 21.1121 12.4909 21.1085 12.6075 21.1465C12.6559 21.1621 12.6978 21.1994 12.7374 21.2433C12.7552 21.2628 12.7646 21.3115 12.765 21.3082C12.7504 21.4105 12.5997 21.5524 12.4863 21.5362C12.3383 21.5151 12.2759 21.3706 12.3087 21.2361C12.3815 20.9387 11.9233 20.8123 11.8502 21.1098Z" fill="white"/>
<path d="M46.9632 16.1743C46.406 15.3183 44.6991 15.418 44.9031 16.7381L44.9138 16.9277C44.7134 15.6707 42.929 15.521 42.7497 16.8001C42.563 17.9526 44.3773 18.6082 45.0463 19.2035C45.635 18.4085 47.5357 17.2827 46.9632 16.1743Z" fill="white"/>
<path d="M55.6558 20.8494C55.8918 19.6034 54.8683 19.1065 53.9395 19.9349C52.9682 20.801 53.5054 22.2227 54.6582 22.4948C55.9123 22.791 57.1297 21.8148 57.1804 20.5457C57.2415 19.0201 55.9548 18.0622 54.5276 17.9751C52.8331 17.8719 51.9603 19.3777 51.1906 20.6133C50.6129 21.5404 49.8881 22.0662 48.7694 22.0668C48.1128 22.0671 47.4779 21.8333 47.1616 21.2319C46.6589 20.2762 47.298 18.9243 47.9358 18.2008C48.8743 17.136 49.916 17.5406 50.5168 18.6951C50.8786 19.3916 50.5636 20.284 49.817 20.549C49.3156 20.7276 48.696 20.309 48.5203 19.8596C48.4346 19.5293 48.5508 19.2796 48.8697 19.1104C49.2282 19.1413 49.4994 19.2949 49.6835 19.5722C49.8849 19.8034 50.2193 19.466 50.0193 19.2364C49.691 18.8584 49.0746 18.3674 48.5453 18.7331C48.0546 19.0718 47.9144 19.606 48.1303 20.1593C48.71 21.643 50.584 21.0624 51.0526 19.8882C51.467 18.8496 50.5798 17.4831 49.5997 17.1253C48.7733 16.8233 47.9368 17.4497 47.4441 18.0492C46.2959 19.4472 46.0042 22.0486 48.2251 22.4906C49.8056 22.8046 50.9159 21.9535 51.7089 20.6808C52.2054 19.8836 52.6185 19.1598 53.4599 18.6805C54.4757 18.1024 55.8821 18.5905 56.4868 19.5212C57.2307 20.6669 56.2802 22.0321 55.0423 22.0619C54.4601 22.0756 53.9636 21.7268 53.9204 21.129C53.8515 20.1703 55.4411 19.4403 55.1979 20.7243C55.1414 21.0225 55.5989 21.1501 55.6558 20.8494Z" fill="white"/>
<path d="M34.324 20.8229C34.1298 19.798 35.0459 20.0474 35.4314 20.6076C35.7701 21.1002 35.6032 21.7198 35.1164 22.0117C34.1217 22.6083 33.0702 21.7328 32.839 20.7995C32.5474 19.6239 33.6473 18.7916 34.653 18.5805C35.8467 18.3302 36.7881 19.1566 37.3863 20.0789C38.2712 21.4411 38.9476 22.6401 40.7525 22.6411C41.73 22.6414 42.6149 22.1767 42.9065 21.2103C43.3709 19.6713 42.0434 17.1118 40.2794 17.1588C39.3191 17.1845 38.3836 18.3971 38.382 19.3021C38.38 20.6345 39.9381 21.9211 41.0773 20.6897C42.2262 19.4476 40.6571 18.0067 39.5023 19.3352C39.3023 19.5651 39.6367 19.9025 39.8381 19.671C40.1547 19.3067 40.7295 18.8926 41.0006 19.5801C41.2075 20.1055 40.6041 20.4991 40.2008 20.6426C39.2932 20.9661 38.7814 19.8532 38.8775 19.1527C38.9652 18.5133 39.6111 17.7057 40.2791 17.6343C41.3364 17.5212 42.1044 18.8702 42.3723 19.7032C42.7682 20.9323 42.2782 22.0341 40.9211 22.1588C38.6843 22.3644 38.304 20.1117 37.0155 18.8556C36.0062 17.872 34.2214 17.8031 33.1625 18.751C32.2071 19.6061 31.9457 21.3671 33.1157 22.2001C33.9149 22.769 35.5502 22.8995 35.9692 21.7633C36.3329 20.7764 35.472 19.255 34.2919 19.6557C33.7506 19.8392 33.7811 20.5027 33.8658 20.9492C33.9233 21.2499 34.3809 21.1223 34.324 20.8229Z" fill="white"/>
<path d="M44.19 21.1118C44.0975 21.4891 44.278 21.8343 44.6352 21.9788C45.009 22.1298 45.4097 21.8207 45.5478 21.4907C45.6689 21.2007 45.4549 20.8883 45.2104 20.7494C44.9181 20.5841 44.5427 20.6315 44.3144 20.8802C44.1079 21.1053 44.4427 21.442 44.6502 21.216C44.7444 21.114 44.8307 21.1105 44.947 21.1485C44.9957 21.164 45.0373 21.2014 45.0769 21.2452C45.0947 21.2647 45.1042 21.3134 45.1045 21.3102C45.0899 21.4125 44.9392 21.5544 44.8259 21.5381C44.6778 21.517 44.6151 21.3725 44.6479 21.2381C44.7213 20.9406 44.2631 20.8143 44.19 21.1118Z" fill="white"/>
<path d="M61.2253 13.918C61.5133 13.4202 61.8647 12.9841 62.4784 12.9039C63.5163 12.7675 63.4806 13.8988 63.3585 14.4116C63.2 15.077 62.6717 15.6966 62.2544 16.2097C61.638 16.9673 60.8687 17.6398 60.3852 18.4971C60.5797 18.4721 60.7742 18.4471 60.9687 18.4221C60.075 17.5901 58.9703 17.0345 58.1364 16.1298C57.4168 15.3485 57.57 13.9414 58.767 13.793C59.6474 13.6842 60.2196 14.4467 60.3475 15.2166C60.4258 15.6885 61.1421 15.4875 61.0642 15.0189C60.7969 13.4124 58.4004 12.0946 57.3174 13.8281C55.8109 16.2392 59.0388 17.6405 60.443 18.9472C60.6151 19.1076 60.9054 19.0869 61.0265 18.8722C61.9803 17.181 64.2135 15.9515 64.169 13.7917C64.1541 13.0665 63.4789 12.2537 62.7389 12.1846C61.7513 12.0927 61.0509 12.7343 60.5833 13.5429C60.3433 13.9583 60.9853 14.3324 61.2253 13.918Z" fill="white"/>
<path d="M58.4374 23.6709C58.9034 24.5796 60.6116 24.6565 60.545 23.3225L60.5534 23.1325C60.6226 24.4039 62.3824 24.7371 62.6928 23.4829C62.9974 22.3558 61.2604 21.5166 60.6567 20.8555C59.9894 21.5858 57.9828 22.5094 58.4374 23.6709Z" fill="white"/>
<path d="M28.9775 13.918C29.2656 13.4202 29.6166 12.9841 30.2307 12.9039C31.2686 12.7675 31.2328 13.8988 31.1107 14.4116C30.9523 15.077 30.4243 15.6966 30.0066 16.2097C29.39 16.9673 28.621 17.6398 28.1375 18.4971C28.332 18.4721 28.5265 18.4471 28.7207 18.4221C27.827 17.5901 26.7226 17.0345 25.8886 16.1298C25.169 15.3485 25.3223 13.9414 26.5193 13.793C27.4 13.6842 27.9718 14.4467 28.0998 15.2166C28.178 15.6885 28.8944 15.4875 28.8162 15.0189C28.5489 13.4124 26.1523 12.0946 25.0693 13.8281C23.5629 16.2392 26.7908 17.6405 28.1949 18.9472C28.367 19.1076 28.6574 19.0869 28.7785 18.8722C29.7322 17.181 31.9655 15.9515 31.9206 13.7917C31.9057 13.0665 31.2309 12.2537 30.4905 12.1846C29.5026 12.0927 28.8022 12.7343 28.3349 13.5429C28.0956 13.9583 28.7376 14.3324 28.9775 13.918Z" fill="white"/>
<path d="M26.1875 23.6709C26.6535 24.5796 28.3616 24.6565 28.2951 23.3225L28.3035 23.1325C28.3727 24.4039 30.1328 24.7371 30.4429 23.4829C30.7475 22.3558 29.0105 21.5166 28.4068 20.8555C27.7394 21.5858 25.7326 22.5094 26.1875 23.6709Z" fill="white"/>
<path d="M184.401 16.1743C183.843 15.3183 182.136 15.418 182.341 16.7381L182.351 16.9277C182.151 15.6707 180.366 15.521 180.187 16.8001C180 17.9526 181.815 18.6082 182.483 19.2035C183.073 18.4085 184.973 17.2827 184.401 16.1743Z" fill="white"/>
<path d="M193.093 20.8494C193.329 19.6034 192.306 19.1065 191.377 19.9349C190.406 20.801 190.943 22.2227 192.096 22.4948C193.35 22.791 194.567 21.8148 194.619 20.5457C194.68 19.0201 193.393 18.0622 191.965 17.9751C190.271 17.8719 189.398 19.3777 188.628 20.6133C188.051 21.5404 187.325 22.0662 186.207 22.0668C185.55 22.0671 184.915 21.8333 184.599 21.2319C184.097 20.2762 184.735 18.9243 185.374 18.2008C186.313 17.136 187.354 17.5406 187.954 18.6951C188.316 19.3916 188.001 20.284 187.254 20.549C186.753 20.7276 186.134 20.309 185.958 19.8596C185.872 19.5293 185.989 19.2796 186.308 19.1104C186.666 19.1413 186.937 19.2949 187.122 19.5722C187.323 19.8034 187.657 19.466 187.457 19.2364C187.129 18.8584 186.513 18.3674 185.983 18.7331C185.492 19.0718 185.352 19.606 185.568 20.1593C186.147 21.643 188.021 21.0624 188.49 19.8882C188.905 18.8496 188.018 17.4831 187.037 17.1253C186.211 16.8233 185.375 17.4497 184.882 18.0492C183.733 19.4472 183.442 22.0486 185.663 22.4906C187.243 22.8046 188.353 21.9535 189.147 20.6808C189.643 19.8836 190.056 19.1598 190.898 18.6805C191.914 18.1024 193.32 18.5905 193.924 19.5212C194.668 20.6669 193.718 22.0321 192.479 22.0619C191.898 22.0756 191.401 21.7268 191.358 21.129C191.289 20.1703 192.878 19.4403 192.635 20.7243C192.579 21.0225 193.035 21.1501 193.093 20.8494Z" fill="white"/>
<path d="M171.765 20.8229C171.57 19.798 172.486 20.0474 172.871 20.6076C173.21 21.1002 173.043 21.7198 172.557 22.0117C171.562 22.6083 170.51 21.7328 170.279 20.7995C169.988 19.6239 171.087 18.7916 172.093 18.5805C173.287 18.3302 174.228 19.1566 174.826 20.0789C175.711 21.4411 176.387 22.6401 178.192 22.6411C179.17 22.6414 180.055 22.1767 180.347 21.2103C180.811 19.6713 179.483 17.1118 177.719 17.1588C176.76 17.1845 175.823 18.3971 175.822 19.3021C175.819 20.6345 177.378 21.9211 178.517 20.6897C179.666 19.4476 178.097 18.0067 176.942 19.3352C176.742 19.5651 177.077 19.9025 177.278 19.671C177.594 19.3067 178.169 18.8926 178.44 19.5801C178.647 20.1055 178.044 20.4991 177.641 20.6426C176.733 20.9661 176.221 19.8532 176.317 19.1527C176.405 18.5133 177.051 17.7057 177.719 17.6343C178.777 17.5212 179.544 18.8702 179.812 19.7032C180.208 20.9323 179.718 22.0341 178.361 22.1588C176.123 22.3644 175.743 20.1117 174.455 18.8556C173.446 17.872 171.661 17.8031 170.602 18.751C169.646 19.6061 169.385 21.3671 170.555 22.2001C171.354 22.769 172.99 22.8995 173.409 21.7633C173.772 20.7764 172.911 19.255 171.732 19.6557C171.191 19.8392 171.221 20.5027 171.305 20.9492C171.363 21.2499 171.821 21.1223 171.765 20.8229Z" fill="white"/>
<path d="M181.627 21.1098C181.535 21.4872 181.716 21.8324 182.072 21.9769C182.446 22.1279 182.847 21.8187 182.985 21.4888C183.106 21.1988 182.892 20.8864 182.648 20.7474C182.355 20.5821 181.98 20.6295 181.752 20.8783C181.545 21.1033 181.88 21.4401 182.088 21.2141C182.181 21.1121 182.268 21.1085 182.385 21.1465C182.433 21.1621 182.474 21.1994 182.514 21.2433C182.532 21.2628 182.541 21.3115 182.542 21.3082C182.527 21.4105 182.377 21.5524 182.264 21.5362C182.115 21.5151 182.053 21.3706 182.086 21.2361C182.159 20.9387 181.7 20.8123 181.627 21.1098Z" fill="white"/>
<path d="M119.723 16.1743C119.165 15.3183 117.458 15.418 117.663 16.7381L117.673 16.9277C117.473 15.6707 115.688 15.521 115.51 16.8001C115.323 17.9526 117.137 18.6082 117.806 19.2035C118.394 18.4085 120.295 17.2827 119.723 16.1743Z" fill="white"/>
<path d="M128.411 20.8494C128.648 19.6034 127.624 19.1065 126.695 19.9349C125.724 20.801 126.261 22.2227 127.414 22.4948C128.668 22.791 129.885 21.8148 129.936 20.5457C129.998 19.0201 128.711 18.0622 127.283 17.9751C125.589 17.8719 124.716 19.3777 123.946 20.6133C123.368 21.5404 122.644 22.0662 121.526 22.0668C120.869 22.0671 120.233 21.8333 119.917 21.2319C119.415 20.2762 120.054 18.9243 120.692 18.2008C121.631 17.136 122.672 17.5406 123.272 18.6951C123.634 19.3916 123.319 20.284 122.573 20.549C122.071 20.7276 121.452 20.309 121.276 19.8596C121.19 19.5293 121.307 19.2796 121.626 19.1104C121.984 19.1413 122.256 19.2949 122.44 19.5722C122.64 19.8034 122.976 19.466 122.775 19.2364C122.447 18.8584 121.831 18.3674 121.301 18.7331C120.81 19.0718 120.671 19.606 120.886 20.1593C121.465 21.643 123.34 21.0624 123.808 19.8882C124.223 18.8496 123.336 17.4831 122.355 17.1253C121.529 16.8233 120.693 17.4497 120.199 18.0492C119.052 19.4472 118.76 22.0486 120.981 22.4906C122.561 22.8046 123.671 21.9535 124.464 20.6808C124.961 19.8836 125.374 19.1598 126.215 18.6805C127.231 18.1024 128.638 18.5905 129.242 19.5212C129.986 20.6669 129.035 22.0321 127.798 22.0619C127.216 22.0756 126.719 21.7268 126.677 21.129C126.608 20.1703 128.197 19.4403 127.954 20.7243C127.896 21.0225 128.354 21.1501 128.411 20.8494Z" fill="white"/>
<path d="M107.084 20.8229C106.89 19.798 107.806 20.0474 108.192 20.6076C108.531 21.1002 108.363 21.7198 107.877 22.0117C106.882 22.6083 105.83 21.7328 105.598 20.7995C105.308 19.6239 106.407 18.7916 107.413 18.5805C108.607 18.3302 109.548 19.1566 110.146 20.0789C111.031 21.4411 111.708 22.6401 113.512 22.6411C114.49 22.6414 115.375 22.1767 115.666 21.2103C116.131 19.6713 114.803 17.1118 113.039 17.1588C112.079 17.1845 111.143 18.3971 111.142 19.3021C111.14 20.6345 112.698 21.9211 113.838 20.6897C114.986 19.4476 113.418 18.0067 112.263 19.3352C112.062 19.5651 112.396 19.9025 112.598 19.671C112.914 19.3067 113.489 18.8926 113.761 19.5801C113.967 20.1055 113.364 20.4991 112.961 20.6426C112.053 20.9661 111.541 19.8532 111.637 19.1527C111.725 18.5133 112.371 17.7057 113.039 17.6343C114.097 17.5212 114.864 18.8702 115.133 19.7032C115.528 20.9323 115.038 22.0341 113.68 22.1588C111.444 22.3644 111.064 20.1117 109.775 18.8556C108.766 17.872 106.981 17.8031 105.922 18.751C104.967 19.6061 104.706 21.3671 105.876 22.2001C106.675 22.769 108.31 22.8995 108.729 21.7633C109.093 20.7764 108.232 19.255 107.052 19.6557C106.511 19.8392 106.541 20.5027 106.626 20.9492C106.683 21.2499 107.141 21.1223 107.084 20.8229Z" fill="white"/>
<path d="M116.948 21.1098C116.855 21.4872 117.036 21.8324 117.393 21.9769C117.766 22.1279 118.167 21.8187 118.305 21.4888C118.426 21.1988 118.212 20.8864 117.968 20.7474C117.676 20.5821 117.3 20.6295 117.072 20.8783C116.865 21.1033 117.201 21.4401 117.408 21.2141C117.501 21.1121 117.588 21.1085 117.704 21.1465C117.753 21.1621 117.795 21.1994 117.834 21.2433C117.852 21.2628 117.861 21.3115 117.862 21.3082C117.847 21.4105 117.697 21.5524 117.583 21.5362C117.435 21.5151 117.372 21.3706 117.405 21.2361C117.479 20.9387 117.02 20.8123 116.948 21.1098Z" fill="white"/>
<path d="M152.063 16.1743C151.506 15.3183 149.799 15.418 150.003 16.7381L150.014 16.9277C149.814 15.6707 148.029 15.521 147.849 16.8001C147.663 17.9526 149.477 18.6082 150.146 19.2035C150.735 18.4085 152.635 17.2827 152.063 16.1743Z" fill="white"/>
<path d="M160.753 20.8494C160.989 19.6034 159.966 19.1065 159.037 19.9349C158.065 20.801 158.603 22.2227 159.756 22.4948C161.01 22.791 162.227 21.8148 162.278 20.5457C162.339 19.0201 161.053 18.0622 159.626 17.9751C157.931 17.8719 157.058 19.3777 156.288 20.6133C155.711 21.5404 154.985 22.0662 153.867 22.0668C153.21 22.0671 152.575 21.8333 152.26 21.2319C151.756 20.2762 152.396 18.9243 153.034 18.2008C153.972 17.136 155.015 17.5406 155.614 18.6951C155.976 19.3916 155.661 20.284 154.915 20.549C154.413 20.7276 153.794 20.309 153.619 19.8596C153.532 19.5293 153.649 19.2796 153.968 19.1104C154.325 19.1413 154.597 19.2949 154.781 19.5722C154.983 19.8034 155.317 19.466 155.117 19.2364C154.789 18.8584 154.173 18.3674 153.643 18.7331C153.152 19.0718 153.012 19.606 153.228 20.1593C153.808 21.643 155.681 21.0624 156.15 19.8882C156.565 18.8496 155.678 17.4831 154.697 17.1253C153.871 16.8233 153.035 17.4497 152.541 18.0492C151.394 19.4472 151.102 22.0486 153.323 22.4906C154.903 22.8046 156.013 21.9535 156.806 20.6808C157.303 19.8836 157.716 19.1598 158.557 18.6805C159.572 18.1024 160.979 18.5905 161.584 19.5212C162.327 20.6669 161.377 22.0321 160.14 22.0619C159.557 22.0756 159.06 21.7268 159.017 21.129C158.948 20.1703 160.539 19.4403 160.295 20.7243C160.238 21.0225 160.696 21.1501 160.753 20.8494Z" fill="white"/>
<path d="M139.424 20.8229C139.23 19.798 140.147 20.0474 140.532 20.6076C140.871 21.1002 140.703 21.7198 140.216 22.0117C139.222 22.6083 138.17 21.7328 137.939 20.7995C137.647 19.6239 138.747 18.7916 139.753 18.5805C140.947 18.3302 141.888 19.1566 142.486 20.0789C143.371 21.4411 144.047 22.6401 145.852 22.6411C146.83 22.6414 147.715 22.1767 148.006 21.2103C148.47 19.6713 147.143 17.1118 145.379 17.1588C144.419 17.1845 143.484 18.3971 143.481 19.3021C143.479 20.6345 145.038 21.9211 146.177 20.6897C147.326 19.4476 145.757 18.0067 144.601 19.3352C144.402 19.5651 144.737 19.9025 144.938 19.671C145.254 19.3067 145.829 18.8926 146.1 19.5801C146.308 20.1055 145.703 20.4991 145.301 20.6426C144.393 20.9661 143.882 19.8532 143.977 19.1527C144.065 18.5133 144.711 17.7057 145.379 17.6343C146.437 17.5212 147.204 18.8702 147.472 19.7032C147.868 20.9323 147.378 22.0341 146.02 22.1588C143.783 22.3644 143.404 20.1117 142.115 18.8556C141.106 17.872 139.321 17.8031 138.263 18.751C137.306 19.6061 137.045 21.3671 138.215 22.2001C139.014 22.769 140.649 22.8995 141.068 21.7633C141.432 20.7764 140.571 19.255 139.392 19.6557C138.85 19.8392 138.88 20.5027 138.965 20.9492C139.023 21.2499 139.481 21.1223 139.424 20.8229Z" fill="white"/>
<path d="M149.289 21.1118C149.197 21.4891 149.378 21.8343 149.735 21.9788C150.108 22.1298 150.51 21.8207 150.647 21.4907C150.768 21.2007 150.555 20.8883 150.31 20.7494C150.018 20.5841 149.642 20.6315 149.414 20.8802C149.207 21.1053 149.542 21.442 149.75 21.216C149.843 21.114 149.93 21.1105 150.047 21.1485C150.095 21.164 150.137 21.2014 150.177 21.2452C150.194 21.2647 150.204 21.3134 150.204 21.3102C150.189 21.4125 150.039 21.5544 149.925 21.5381C149.778 21.517 149.715 21.3725 149.748 21.2381C149.82 20.9406 149.363 20.8143 149.289 21.1118Z" fill="white"/>
<path d="M166.325 13.918C166.613 13.4202 166.964 12.9841 167.578 12.9039C168.615 12.7675 168.58 13.8988 168.458 14.4116C168.299 15.077 167.772 15.6966 167.354 16.2097C166.738 16.9673 165.969 17.6398 165.485 18.4971C165.68 18.4721 165.873 18.4471 166.068 18.4221C165.174 17.5901 164.07 17.0345 163.236 16.1298C162.516 15.3485 162.67 13.9414 163.867 13.793C164.747 13.6842 165.319 14.4467 165.447 15.2166C165.525 15.6885 166.242 15.4875 166.163 15.0189C165.896 13.4124 163.5 12.0946 162.417 13.8281C160.911 16.2392 164.138 17.6405 165.543 18.9472C165.715 19.1076 166.005 19.0869 166.126 18.8722C167.08 17.181 169.313 15.9515 169.269 13.7917C169.254 13.0665 168.579 12.2537 167.839 12.1846C166.851 12.0927 166.151 12.7343 165.683 13.5429C165.443 13.9583 166.084 14.3324 166.325 13.918Z" fill="white"/>
<path d="M163.535 23.6709C164.001 24.5796 165.709 24.6565 165.643 23.3225L165.651 23.1325C165.72 24.4039 167.481 24.7371 167.79 23.4829C168.095 22.3558 166.359 21.5166 165.754 20.8555C165.087 21.5858 163.08 22.5094 163.535 23.6709Z" fill="white"/>
<path d="M134.075 13.918C134.363 13.4202 134.714 12.9841 135.328 12.9039C136.365 12.7675 136.33 13.8988 136.208 14.4116C136.05 15.077 135.522 15.6966 135.104 16.2097C134.488 16.9673 133.718 17.6398 133.235 18.4971C133.43 18.4721 133.624 18.4471 133.818 18.4221C132.925 17.5901 131.82 17.0345 130.986 16.1298C130.266 15.3485 130.42 13.9414 131.617 13.793C132.497 13.6842 133.069 14.4467 133.197 15.2166C133.275 15.6885 133.992 15.4875 133.914 15.0189C133.646 13.4124 131.25 12.0946 130.167 13.8281C128.661 16.2392 131.889 17.6405 133.293 18.9472C133.465 19.1076 133.756 19.0869 133.876 18.8722C134.83 17.181 137.063 15.9515 137.019 13.7917C137.004 13.0665 136.33 12.2537 135.589 12.1846C134.601 12.0927 133.901 12.7343 133.433 13.5429C133.193 13.9583 133.834 14.3324 134.075 13.918Z" fill="white"/>
<path d="M131.285 23.6709C131.751 24.5796 133.459 24.6565 133.393 23.3225L133.402 23.1325C133.47 24.4039 135.231 24.7371 135.54 23.4829C135.845 22.3558 134.109 21.5166 133.504 20.8555C132.836 21.5858 130.83 22.5094 131.285 23.6709Z" fill="white"/>
<path d="M94.0641 19.2538C93.6432 17.0842 91.5191 15.0442 89.9805 13.6138C88.313 12.0628 85.8446 10.1625 83.4111 10.7265C80.593 11.3799 81.4688 14.876 83.9465 15.2527C86.5841 15.6531 86.3395 12.6321 83.9956 12.3067C83.7809 12.2768 83.616 12.3567 83.5387 12.5662C83.4188 12.8912 83.401 12.9451 83.3766 13.2595C83.3399 13.7378 84.0829 13.7339 84.1196 13.2595C84.1648 13.0942 84.2099 12.9289 84.255 12.7639C84.1027 12.8503 83.9504 12.9367 83.7981 13.0231C84.2619 13.0874 84.6321 13.1893 84.988 13.5124C85.4338 14.0574 85.2416 14.4026 84.4125 14.548C83.9855 14.5584 83.5841 14.4626 83.2091 14.2603C81.7692 13.5625 82.3518 11.8527 83.6082 11.4429C85.0149 10.984 86.6562 12.0229 87.7609 12.7714C89.1566 13.7174 90.3711 14.952 91.4525 16.237C92.2079 17.1346 93.1171 18.2663 93.3467 19.4512C93.4383 19.9218 94.154 19.7221 94.0641 19.2538Z" fill="white"/>
<path d="M91.4418 14.9285C88.7676 12.403 86.7026 9.02864 86.5357 5.2776C86.4636 3.65813 86.912 2.09907 88.2503 1.0979C89.3092 0.305869 91.4399 1.5298 90.7631 2.8333C90.5835 3.17914 90.1204 3.34671 89.7645 3.39217C89.6548 3.38341 89.5447 3.37497 89.4346 3.3662C88.8082 3.07101 88.8371 2.91416 89.521 2.895C89.7256 3.32787 90.3659 2.95053 90.1627 2.51993C89.8259 1.80713 88.8286 1.32554 88.3162 2.20038C87.8083 3.06711 88.5854 3.97118 89.4479 4.11894C90.2822 4.26182 91.1304 3.73737 91.5048 3.01613C92.0793 1.91008 90.8846 0.678022 90.0074 0.202606C88.9394 -0.376076 87.7752 0.419854 87.0666 1.17389C86.0158 2.29261 85.7901 3.80329 85.793 5.27793C85.7995 9.16308 88.1873 12.8765 90.9167 15.4542C91.2645 15.7822 91.7909 15.2581 91.4418 14.9285Z" fill="white"/>
<path d="M86.9009 14.3932C86.8084 14.7705 86.9893 15.1157 87.3462 15.2599C87.7199 15.4112 88.1207 15.1017 88.2587 14.7721C88.3798 14.4815 88.1658 14.1694 87.9213 14.0307C87.629 13.8651 87.2536 13.9129 87.0256 14.1616C86.8188 14.3867 87.1539 14.7234 87.3614 14.4974C87.4553 14.3951 87.5416 14.3919 87.6582 14.4299C87.7069 14.4454 87.7485 14.4831 87.7881 14.5266C87.806 14.5461 87.8154 14.5948 87.8157 14.5916C87.8011 14.6935 87.6504 14.8361 87.5371 14.8195C87.389 14.7984 87.3264 14.6539 87.3595 14.5195C87.4322 14.2223 86.974 14.096 86.9009 14.3932Z" fill="white"/>
<path d="M88.7037 15.8854C88.6111 16.2628 88.792 16.608 89.1489 16.7522C89.5227 16.9032 89.9237 16.594 90.0611 16.2644C90.1825 15.9738 89.9685 15.6614 89.724 15.5227C89.4317 15.3574 89.0567 15.4052 88.8281 15.6536C88.6215 15.8786 88.9566 16.2157 89.1642 15.9894C89.258 15.8871 89.3444 15.8835 89.461 15.9218C89.5097 15.9374 89.5512 15.9751 89.5909 16.0183C89.6084 16.0377 89.6181 16.0865 89.6185 16.0835C89.6038 16.1855 89.4532 16.3277 89.3398 16.3115C89.1918 16.2904 89.1291 16.1459 89.1622 16.0114C89.2346 15.714 88.7767 15.588 88.7037 15.8854Z" fill="white"/>
<path d="M90.3384 17.6667C90.2459 18.044 90.4268 18.3889 90.7837 18.5334C91.1574 18.6844 91.5582 18.3753 91.6962 18.0453C91.8176 17.755 91.6036 17.4426 91.3588 17.304C91.0665 17.1387 90.6911 17.1864 90.4631 17.4348C90.2563 17.6599 90.5914 17.9966 90.7989 17.7706C90.8928 17.6683 90.9791 17.6651 91.0954 17.7027C91.1441 17.7183 91.1857 17.756 91.2253 17.7995C91.2432 17.819 91.2529 17.8677 91.2532 17.8648C91.2383 17.9671 91.0879 18.109 90.9743 18.0927C90.8262 18.0716 90.7639 17.9275 90.7967 17.793C90.87 17.4956 90.4115 17.3692 90.3384 17.6667Z" fill="white"/>
<path d="M91.5377 19.7465C91.4451 20.1239 91.626 20.4691 91.9829 20.6136C92.3563 20.7646 92.7574 20.4554 92.8951 20.1255C93.0162 19.8352 92.8025 19.5228 92.5577 19.3841C92.2654 19.2188 91.89 19.2662 91.662 19.515C91.4552 19.74 91.7903 20.0768 91.9978 19.8508C92.0917 19.7485 92.178 19.7452 92.2946 19.7832C92.343 19.7988 92.3849 19.8362 92.4242 19.8797C92.4421 19.8992 92.4518 19.9479 92.4518 19.9449C92.4372 20.0472 92.2865 20.1895 92.1728 20.1729C92.0251 20.1518 91.9624 20.0073 91.9955 19.8729C92.0689 19.5754 91.6107 19.4494 91.5377 19.7465Z" fill="white"/>
<path d="M84.4661 6.12313C83.4578 5.95979 82.3839 7.29056 83.4977 8.02707L83.6458 8.14657C82.5806 7.44936 81.27 8.66973 82.0965 9.66245C82.8239 10.5759 84.5291 9.67349 85.4195 9.57867C85.2266 8.60835 85.6712 6.44462 84.4661 6.12313Z" fill="white"/>
<path d="M101.14 19.4525C101.635 16.8978 104.498 14.4227 106.467 12.9568C107.628 12.0936 109.156 11.1753 110.663 11.3942C111.919 11.5763 112.549 12.8704 111.715 13.9115C111.386 14.3207 109.41 15.1387 109.267 14.0489C109.173 13.3273 110.216 13.0903 110.689 13.0243C110.536 12.938 110.384 12.8516 110.232 12.7652C110.277 12.9302 110.323 13.0955 110.367 13.2607C110.404 13.7352 111.148 13.7391 111.11 13.2607C111.086 12.9461 111.069 12.8922 110.948 12.5674C110.872 12.358 110.706 12.2781 110.492 12.308C108.226 12.6223 107.834 15.4491 110.442 15.267C112.918 15.0939 113.911 11.6526 111.287 10.7963C108.905 10.0195 106.433 11.9329 104.752 13.3942C103.117 14.8149 100.858 17.018 100.424 19.2547C100.333 19.723 101.049 19.9227 101.14 19.4525Z" fill="white"/>
<path d="M103.57 15.4546C106.391 12.7905 108.518 9.22586 108.694 5.27835C108.754 3.93686 108.493 2.49729 107.63 1.43281C106.927 0.566406 105.662 -0.437678 104.48 0.203029C103.519 0.723583 102.596 1.7754 102.944 2.9279C103.186 3.72643 104.252 4.25445 105.038 4.11936C105.913 3.96966 106.568 3.15813 106.208 2.28946C105.795 1.29219 104.665 1.79749 104.324 2.52035C104.121 2.95128 104.761 3.32862 104.966 2.89542C105.65 2.91458 105.678 3.07144 105.052 3.36662C104.723 3.4845 104.342 3.31824 104.062 3.16366C102.594 2.34987 104.742 0.41313 105.963 0.937256C107.604 1.64096 107.954 3.73422 107.951 5.27835C107.945 8.96899 105.631 12.4872 103.045 14.9292C102.696 15.2588 103.222 15.783 103.57 15.4546Z" fill="white"/>
<path d="M107.585 14.3932C107.679 14.7705 107.497 15.1157 107.141 15.2599C106.767 15.4112 106.366 15.1017 106.228 14.7721C106.107 14.4815 106.321 14.1694 106.566 14.0307C106.858 13.8651 107.233 13.9129 107.462 14.1616C107.668 14.3867 107.333 14.7234 107.126 14.4974C107.032 14.3951 106.945 14.3919 106.829 14.4299C106.78 14.4454 106.739 14.4831 106.699 14.5266C106.681 14.5461 106.672 14.5948 106.672 14.5916C106.686 14.6935 106.837 14.8361 106.95 14.8195C107.098 14.7984 107.161 14.6539 107.128 14.5195C107.054 14.2223 107.513 14.096 107.585 14.3932Z" fill="white"/>
<path d="M105.785 15.8854C105.877 16.2628 105.697 16.608 105.34 16.7522C104.966 16.9032 104.565 16.594 104.428 16.2644C104.306 15.9738 104.52 15.6614 104.765 15.5227C105.057 15.3574 105.432 15.4052 105.66 15.6536C105.867 15.8786 105.532 16.2157 105.325 15.9894C105.231 15.8871 105.144 15.8835 105.028 15.9218C104.979 15.9374 104.938 15.9751 104.898 16.0183C104.88 16.0377 104.871 16.0865 104.871 16.0835C104.886 16.1855 105.036 16.3277 105.149 16.3115C105.297 16.2904 105.36 16.1459 105.327 16.0114C105.254 15.714 105.712 15.588 105.785 15.8854Z" fill="white"/>
<path d="M104.148 17.6686C104.241 18.046 104.061 18.3909 103.703 18.5354C103.33 18.6864 102.928 18.3772 102.791 18.0473C102.67 17.757 102.883 17.4446 103.128 17.3059C103.42 17.1406 103.796 17.1884 104.024 17.4368C104.23 17.6618 103.896 17.9986 103.688 17.7726C103.594 17.6703 103.508 17.667 103.391 17.7047C103.343 17.7203 103.301 17.7579 103.262 17.8015C103.244 17.8209 103.234 17.8696 103.234 17.8667C103.249 17.969 103.399 18.1109 103.513 18.0947C103.66 18.0736 103.723 17.9294 103.691 17.795C103.618 17.4975 104.075 17.3712 104.148 17.6686Z" fill="white"/>
<path d="M102.949 19.7465C103.042 20.1239 102.861 20.4691 102.504 20.6136C102.131 20.7646 101.73 20.4554 101.592 20.1255C101.47 19.8352 101.684 19.5228 101.929 19.3841C102.221 19.2188 102.596 19.2662 102.825 19.515C103.031 19.74 102.697 20.0768 102.489 19.8508C102.395 19.7485 102.308 19.7452 102.192 19.7832C102.143 19.7988 102.102 19.8362 102.062 19.8797C102.045 19.8992 102.035 19.9479 102.035 19.9449C102.05 20.0472 102.2 20.1895 102.313 20.1729C102.461 20.1518 102.524 20.0073 102.491 19.8729C102.418 19.5754 102.876 19.4494 102.949 19.7465Z" fill="white"/>
<path d="M110.021 6.12508C111.029 5.96174 112.103 7.29252 110.989 8.02902L110.842 8.14853C111.907 7.45132 113.217 8.67168 112.391 9.6644C111.664 10.5779 109.959 9.67544 109.068 9.58062C109.261 8.61031 108.816 6.44657 110.021 6.12508Z" fill="white"/>
<path d="M98.0012 19.3882C96.5617 21.1996 93.5611 22.2816 94.0054 25.0246C94.3583 27.1958 97.0241 26.2064 97.7428 24.8912C97.5732 24.9357 97.4041 24.9798 97.2345 25.0246C98.2201 25.7556 100.747 27.0997 100.915 24.8525C101.078 22.6619 98.704 21.6802 97.1638 20.717C96.7565 20.4624 96.3841 21.1054 96.789 21.359C97.758 21.965 98.7618 22.4245 99.5762 23.2561C100.152 23.8442 100.708 25.728 99.1992 25.3065C98.6225 25.1451 98.0841 24.7356 97.6096 24.3836C97.4505 24.2651 97.1907 24.3531 97.1017 24.5168C96.7705 25.1224 96.2191 25.5533 95.5115 25.5845C94.297 25.6381 94.7035 23.8134 95.0575 23.2386C95.8973 21.8747 97.5375 21.159 98.5273 19.9139C98.8215 19.5428 98.3 19.0131 98.0012 19.3882Z" fill="white"/>
</svg>
