<svg width="195" height="27" viewBox="0 0 195 27" fill="none" xmlns="http://www.w3.org/2000/svg">
<path d="M97.5084 14.7303C96.0468 13.0981 93.4947 11.8219 93.1793 9.45036C92.7458 6.18935 96.7596 9.05028 97.5685 10.0862C97.7315 10.296 98.1504 10.1849 98.1894 9.92253C98.357 8.80056 98.936 7.8153 99.9319 7.23987C101.839 6.13869 101.749 9.62766 101.504 10.5295C100.816 13.0579 98.7768 15.1193 97.511 17.3619C97.6799 17.3174 97.8494 17.2733 98.0186 17.2288C95.2999 15.3109 91.6437 13.5102 90.3301 10.2518C89.5991 8.43912 90.7864 6.37153 92.2548 5.36192C93.5736 4.4559 96.2134 5.60384 96.8976 6.82291C97.0294 7.05834 97.4104 7.07101 97.5386 6.82291C98.9126 4.1802 102.722 3.29237 104.456 6.19909C105.351 7.701 104.39 9.89817 103.734 11.2913C102.246 14.451 99.9459 17.3249 97.5685 19.8618C97.2408 20.2109 97.7653 20.7376 98.0939 20.3875C101.094 17.1866 104.527 13.1277 105.41 8.72035C105.831 6.61671 104.963 5.11089 103.133 4.0818C100.779 2.75849 98.0306 4.2669 96.8973 6.44784C97.1106 6.44784 97.3249 6.44784 97.5383 6.44784C96.6898 4.93456 94.7686 4.35783 93.1267 4.3903C91.2199 4.42862 89.9417 6.43387 89.517 8.08256C88.344 12.6325 94.7014 15.7954 97.6435 17.8705C97.8072 17.9858 98.0582 17.902 98.1514 17.737C99.6637 15.0595 103.895 10.9179 102.114 7.50096C100.636 4.66601 97.7737 7.70944 97.4727 9.72476C97.6796 9.67021 97.8867 9.61565 98.0939 9.56077C97.2941 8.5359 93.9168 5.74965 92.7841 7.77244C91.0254 10.914 95.2859 13.3609 96.9827 15.2557C97.3032 15.6136 97.8267 15.0862 97.5084 14.7303Z" fill="#A3A5C7"/>
<path d="M79.3027 16.1753C78.7455 15.3193 77.0387 15.419 77.2426 16.739L77.2536 16.9287C77.0533 15.6716 75.2685 15.5219 75.0896 16.8011C74.9029 17.9536 76.7172 18.6092 77.3861 19.2045C77.9745 18.4095 79.8749 17.2836 79.3027 16.1753Z" fill="#A3A5C7"/>
<path d="M87.9935 20.8503C88.2296 19.6043 87.2063 19.1075 86.2773 19.9359C85.3056 20.802 85.8431 22.2237 86.9962 22.4958C88.2504 22.792 89.4675 21.8158 89.5185 20.5467C89.5795 19.0211 88.2926 18.0631 86.8657 17.9761C85.1712 17.8728 84.2983 19.3786 83.5287 20.6143C82.951 21.5414 82.2262 22.0671 81.1074 22.0678C80.4508 22.0681 79.816 21.8343 79.4993 21.2329C78.997 20.2772 79.6361 18.9253 80.2738 18.2018C81.2123 17.137 82.2541 17.5416 82.8545 18.696C83.2166 19.3926 82.9016 20.285 82.1547 20.55C81.6537 20.7286 81.0341 20.31 80.8584 19.8605C80.7726 19.5303 80.8889 19.2806 81.2078 19.1114C81.5663 19.1422 81.8374 19.2958 82.0213 19.5732C82.2226 19.8044 82.5571 19.467 82.3574 19.2374C82.0287 18.8594 81.4124 18.3684 80.883 18.734C80.3924 19.0727 80.2521 19.6069 80.468 20.1603C81.0477 21.644 82.9217 21.0634 83.3903 19.8891C83.8044 18.8506 82.9175 17.4841 81.9371 17.1263C81.1107 16.8243 80.2742 17.4507 79.7815 18.0501C78.6333 19.4481 78.3416 22.0496 80.5625 22.4916C82.143 22.8056 83.2533 21.9545 84.0466 20.6818C84.5432 19.8846 84.9562 19.1607 85.7976 18.6814C86.8131 18.1034 88.2195 18.5915 88.8242 19.5222C89.5681 20.6678 88.6176 22.033 87.3797 22.0629C86.7975 22.0766 86.3006 21.7278 86.2578 21.1299C86.1889 20.1713 87.7785 19.4413 87.5353 20.7253C87.4791 21.0234 87.9363 21.1511 87.9935 20.8503Z" fill="#A3A5C7"/>
<path d="M66.6649 20.8238C66.4707 19.799 67.3868 20.0484 67.7722 20.6085C68.1109 21.1012 67.9437 21.7208 67.4572 22.0127C66.4625 22.6092 65.411 21.7337 65.1798 20.8005C64.8882 19.6249 65.9881 18.7926 66.9938 18.5815C68.1876 18.3311 69.1286 19.1576 69.7271 20.0799C70.6117 21.4421 71.2885 22.6411 73.0934 22.642C74.0711 22.6424 74.9564 22.1777 75.2477 21.2112C75.7117 19.6723 74.3842 17.1127 72.6205 17.1598C71.6606 17.1855 70.7247 18.398 70.7231 19.3031C70.7212 20.6355 72.2792 21.9221 73.4187 20.6907C74.5673 19.4486 72.9985 18.0077 71.8435 19.3362C71.6434 19.5661 71.9782 19.9035 72.1792 19.672C72.4958 19.3076 73.071 18.8936 73.3421 19.5811C73.549 20.1065 72.9456 20.5001 72.5423 20.6436C71.6346 20.967 71.1232 19.8542 71.219 19.1537C71.307 18.5143 71.9526 17.7067 72.6205 17.6352C73.6782 17.5222 74.4459 18.8712 74.7138 19.7041C75.1097 20.9333 74.6196 22.0351 73.2622 22.1598C71.0254 22.3654 70.6455 20.1126 69.3566 18.8566C68.3476 17.8729 66.5629 17.8041 65.5039 18.752C64.5482 19.607 64.2871 21.3681 65.4568 22.201C66.256 22.77 67.8914 22.9005 68.3106 21.7643C68.6743 20.7774 67.8135 19.256 66.6334 19.6567C66.0924 19.8402 66.1225 20.5036 66.2073 20.9502C66.2638 21.2509 66.7217 21.1232 66.6649 20.8238Z" fill="#A3A5C7"/>
<path d="M76.5294 21.1118C76.4368 21.4891 76.6177 21.8343 76.9746 21.9788C77.3483 22.1298 77.7491 21.8207 77.8868 21.4907C78.0082 21.2007 77.7942 20.8883 77.5494 20.7494C77.2571 20.5841 76.8817 20.6315 76.6537 20.8802C76.4469 21.1053 76.782 21.442 76.9895 21.216C77.0834 21.114 77.1697 21.1105 77.2863 21.1485C77.335 21.164 77.3766 21.2014 77.4162 21.2452C77.4341 21.2647 77.4435 21.3134 77.4438 21.3102C77.4289 21.4125 77.2785 21.5544 77.1652 21.5381C77.0171 21.517 76.9544 21.3725 76.9876 21.2381C77.0606 20.9406 76.6024 20.8143 76.5294 21.1118Z" fill="#A3A5C7"/>
<path d="M14.6251 16.1753C14.0678 15.3193 12.361 15.419 12.5649 16.739L12.5756 16.9287C12.3756 15.6716 10.5909 15.5219 10.4116 16.8011C10.2249 17.9536 12.0392 18.6092 12.7081 19.2045C13.2969 18.4095 15.1976 17.2836 14.6251 16.1753Z" fill="#A3A5C7"/>
<path d="M23.3157 20.8494C23.5518 19.6034 22.5282 19.1065 21.5994 19.9349C20.6282 20.801 21.1656 22.2227 22.3184 22.4948C23.5725 22.791 24.79 21.8148 24.8406 20.5457C24.9017 19.0201 23.6151 18.0622 22.1882 17.9751C20.4937 17.8719 19.6205 19.3777 18.8509 20.6133C18.2732 21.5404 17.5483 22.0662 16.4296 22.0668C15.773 22.0671 15.1381 21.8333 14.8218 21.2319C14.3192 20.2762 14.9582 18.9243 15.5963 18.2008C16.5348 17.136 17.5766 17.5406 18.177 18.6951C18.5391 19.3916 18.2238 20.284 17.4772 20.549C16.9758 20.7276 16.3562 20.309 16.1806 19.8596C16.0951 19.5293 16.2111 19.2796 16.5303 19.1104C16.8888 19.1413 17.1596 19.2949 17.3438 19.5722C17.5451 19.8034 17.8796 19.466 17.6795 19.2364C17.3509 18.8584 16.7349 18.3674 16.2052 18.7331C15.7142 19.0718 15.5743 19.606 15.7902 20.1593C16.3699 21.643 18.2439 21.0624 18.7125 19.8882C19.1269 18.8496 18.2397 17.4831 17.2597 17.1253C16.4332 16.8233 15.597 17.4497 15.104 18.0492C13.9558 19.4472 13.6642 22.0486 15.885 22.4906C17.4655 22.8046 18.5758 21.9535 19.3691 20.6808C19.8657 19.8836 20.2784 19.1598 21.1198 18.6805C22.1356 18.1024 23.542 18.5905 24.1467 19.5212C24.8907 20.6669 23.9402 22.0321 22.7023 22.0619C22.12 22.0756 21.6235 21.7268 21.5806 21.129C21.5118 20.1703 23.101 19.4403 22.8581 20.7243C22.801 21.0225 23.2585 21.1501 23.3157 20.8494Z" fill="#A3A5C7"/>
<path d="M1.98599 20.8238C1.79147 19.799 2.70788 20.0484 3.09334 20.6085C3.43204 21.1012 3.2648 21.7208 2.77835 22.0127C1.78368 22.6092 0.731851 21.7337 0.500638 20.8005C0.209673 19.6249 1.30891 18.7926 2.31494 18.5815C3.50835 18.3311 4.44977 19.1576 5.04793 20.0799C5.93252 21.4421 6.60927 22.6411 8.41416 22.642C9.39162 22.6424 10.2769 22.1777 10.5681 21.2112C11.0325 19.6723 9.70499 17.1127 7.94102 17.1598C6.98142 17.1855 6.0452 18.398 6.0439 19.3031C6.04196 20.6355 7.60004 21.9221 8.73922 20.6907C9.88814 19.4486 8.31901 18.0077 7.16425 19.3362C6.96388 19.5661 7.29869 19.9035 7.50003 19.672C7.81665 19.3076 8.39175 18.8936 8.66258 19.5811C8.86944 20.1065 8.26608 20.5001 7.86276 20.6436C6.95512 20.967 6.44333 19.8542 6.53945 19.1537C6.62746 18.5143 7.27303 17.7067 7.94102 17.6352C8.99869 17.5222 9.76637 18.8712 10.0343 19.7041C10.4301 20.9333 9.9401 22.0351 8.58303 22.1598C6.34623 22.3654 5.96597 20.1126 4.67741 18.8566C3.66845 17.8729 1.88369 17.8041 0.824726 18.752C-0.130976 19.607 -0.392066 21.3681 0.777638 22.201C1.57682 22.77 3.21187 22.9005 3.63111 21.7643C3.99514 20.7774 3.13426 19.256 1.95416 19.6567C1.41282 19.8402 1.44335 20.5036 1.52778 20.9502C1.58493 21.2509 2.04249 21.1232 1.98599 20.8238Z" fill="#A3A5C7"/>
<path d="M11.8499 21.1118C11.7574 21.4891 11.9379 21.8343 12.2952 21.9788C12.6686 22.1298 13.0697 21.8207 13.2077 21.4907C13.3288 21.2007 13.1148 20.8883 12.8703 20.7494C12.5777 20.5841 12.2026 20.6315 11.9746 20.8802C11.7678 21.1053 12.1029 21.442 12.3101 21.216C12.4043 21.114 12.4906 21.1105 12.6072 21.1485C12.6556 21.164 12.6975 21.2014 12.7371 21.2452C12.755 21.2647 12.7644 21.3134 12.7647 21.3102C12.7501 21.4125 12.5994 21.5544 12.4861 21.5381C12.338 21.517 12.2757 21.3725 12.3085 21.2381C12.3812 20.9406 11.923 20.8143 11.8499 21.1118Z" fill="#A3A5C7"/>
<path d="M46.9627 16.1753C46.4055 15.3193 44.6986 15.419 44.9026 16.739L44.9133 16.9287C44.7129 15.6716 42.9285 15.5219 42.7492 16.8011C42.5625 17.9536 44.3768 18.6092 45.0458 19.2045C45.6345 18.4095 47.5352 17.2836 46.9627 16.1753Z" fill="#A3A5C7"/>
<path d="M55.6548 20.8503C55.8909 19.6043 54.8673 19.1075 53.9385 19.9359C52.9673 20.802 53.5044 22.2237 54.6572 22.4958C55.9113 22.792 57.1288 21.8158 57.1794 20.5467C57.2405 19.0211 55.9539 18.0631 54.5266 17.9761C52.8322 17.8728 51.9593 19.3786 51.1896 20.6143C50.6119 21.5414 49.8871 22.0671 48.7684 22.0678C48.1118 22.0681 47.4769 21.8343 47.1606 21.2329C46.6579 20.2772 47.297 18.9253 47.9348 18.2018C48.8733 17.137 49.9151 17.5416 50.5158 18.696C50.8776 19.3926 50.5626 20.285 49.816 20.55C49.3146 20.7286 48.695 20.31 48.5193 19.8605C48.4336 19.5303 48.5499 19.2806 48.8688 19.1114C49.2273 19.1422 49.4984 19.2958 49.6825 19.5732C49.8839 19.8044 50.2184 19.467 50.0183 19.2374C49.69 18.8594 49.0737 18.3684 48.5443 18.734C48.0537 19.0727 47.9134 19.6069 48.1293 20.1603C48.709 21.644 50.583 21.0634 51.0516 19.8891C51.466 18.8506 50.5788 17.4841 49.5988 17.1263C48.7723 16.8243 47.9358 17.4507 47.4432 18.0501C46.2949 19.4481 46.0033 22.0496 48.2241 22.4916C49.8046 22.8056 50.9149 21.9545 51.7079 20.6818C52.2045 19.8846 52.6175 19.1607 53.4589 18.6814C54.4747 18.1034 55.8811 18.5915 56.4858 19.5222C57.2298 20.6678 56.2793 22.033 55.0414 22.0629C54.4591 22.0766 53.9626 21.7278 53.9194 21.1299C53.8505 20.1713 55.4401 19.4413 55.1969 20.7253C55.1404 21.0234 55.598 21.1511 55.6548 20.8503Z" fill="#A3A5C7"/>
<path d="M34.3235 20.8238C34.1294 19.799 35.0454 20.0484 35.4309 20.6085C35.7696 21.1012 35.6027 21.7208 35.1159 22.0127C34.1212 22.6092 33.0697 21.7337 32.8385 20.8005C32.5469 19.6249 33.6468 18.7926 34.6525 18.5815C35.8462 18.3311 36.7877 19.1576 37.3858 20.0799C38.2707 21.4421 38.9472 22.6411 40.7521 22.642C41.7295 22.6424 42.6144 22.1777 42.906 21.2112C43.3704 19.6723 42.0429 17.1127 40.2789 17.1598C39.3187 17.1855 38.3831 18.398 38.3815 19.3031C38.3795 20.6355 39.9376 21.9221 41.0768 20.6907C42.2257 19.4486 40.6566 18.0077 39.5018 19.3362C39.3018 19.5661 39.6363 19.9035 39.8376 19.672C40.1542 19.3076 40.729 18.8936 41.0001 19.5811C41.207 20.1065 40.6036 20.5001 40.2003 20.6436C39.2927 20.967 38.7809 19.8542 38.877 19.1537C38.9647 18.5143 39.6106 17.7067 40.2786 17.6352C41.3359 17.5222 42.1039 18.8712 42.3718 19.7041C42.7677 20.9333 42.2777 22.0351 40.9206 22.1598C38.6838 22.3654 38.3035 20.1126 37.015 18.8566C36.0057 17.8729 34.2209 17.8041 33.162 18.752C32.2066 19.607 31.9452 21.3681 33.1152 22.201C33.9144 22.77 35.5498 22.9005 35.9687 21.7643C36.3324 20.7774 35.4715 19.256 34.2914 19.6567C33.7501 19.8402 33.7806 20.5036 33.8653 20.9502C33.9228 21.2509 34.3804 21.1232 34.3235 20.8238Z" fill="#A3A5C7"/>
<path d="M44.1895 21.1118C44.097 21.4891 44.2775 21.8343 44.6348 21.9788C45.0085 22.1298 45.4093 21.8207 45.5473 21.4907C45.6684 21.2007 45.4544 20.8883 45.2099 20.7494C44.9176 20.5841 44.5422 20.6315 44.3139 20.8802C44.1074 21.1053 44.4422 21.442 44.6497 21.216C44.7439 21.114 44.8302 21.1105 44.9465 21.1485C44.9952 21.164 45.0368 21.2014 45.0764 21.2452C45.0943 21.2647 45.1037 21.3134 45.104 21.3102C45.0894 21.4125 44.9387 21.5544 44.8254 21.5381C44.6773 21.517 44.6146 21.3725 44.6474 21.2381C44.7208 20.9406 44.2626 20.8143 44.1895 21.1118Z" fill="#A3A5C7"/>
<path d="M61.2248 13.919C61.5128 13.4212 61.8642 12.985 62.4779 12.9048C63.5158 12.7684 63.4801 13.8998 63.358 14.4126C63.1995 15.078 62.6712 15.6976 62.2539 16.2107C61.6375 16.9683 60.8682 17.6408 60.3847 18.4981C60.5792 18.4731 60.7737 18.4481 60.9682 18.4231C60.0746 17.5911 58.9698 17.0355 58.1359 16.1308C57.4163 15.3495 57.5695 13.9424 58.7665 13.794C59.6469 13.6852 60.2191 14.4477 60.347 15.2176C60.4253 15.6895 61.1416 15.4884 61.0637 15.0198C60.7965 13.4134 58.3999 12.0956 57.3169 13.829C55.8104 16.2402 59.0383 17.6415 60.4425 18.9482C60.6146 19.1086 60.9049 19.0878 61.026 18.8732C61.9798 17.182 64.213 15.9525 64.1685 13.7927C64.1536 13.0675 63.4785 12.2547 62.7384 12.1855C61.7509 12.0936 61.0504 12.7353 60.5828 13.5439C60.3428 13.9593 60.9848 14.3334 61.2248 13.919Z" fill="#A3A5C7"/>
<path d="M58.437 23.6719C58.903 24.5805 60.6111 24.6575 60.5445 23.3235L60.5529 23.1335C60.6221 24.4048 62.3819 24.738 62.6923 23.4839C62.9969 22.3567 61.2599 21.5176 60.6562 20.8564C59.9889 21.5868 57.9823 22.5103 58.437 23.6719Z" fill="#A3A5C7"/>
<path d="M28.9763 13.919C29.2644 13.4212 29.6154 12.985 30.2295 12.9048C31.2673 12.7684 31.2316 13.8998 31.1095 14.4126C30.9511 15.078 30.423 15.6976 30.0054 16.2107C29.3887 16.9683 28.6198 17.6408 28.1362 18.4981C28.3307 18.4731 28.5253 18.4481 28.7195 18.4231C27.8258 17.5911 26.7213 17.0355 25.8874 16.1308C25.1678 15.3495 25.3211 13.9424 26.5181 13.794C27.3988 13.6852 27.9706 14.4477 28.0986 15.2176C28.1768 15.6895 28.8932 15.4884 28.8149 15.0198C28.5477 13.4134 26.1511 12.0956 25.0681 13.829C23.5617 16.2402 26.7895 17.6415 28.1937 18.9482C28.3658 19.1086 28.6561 19.0878 28.7773 18.8732C29.731 17.182 31.9642 15.9525 31.9194 13.7927C31.9045 13.0675 31.2297 12.2547 30.4893 12.1855C29.5014 12.0936 28.801 12.7353 28.3337 13.5439C28.0943 13.9593 28.7363 14.3334 28.9763 13.919Z" fill="#A3A5C7"/>
<path d="M26.1868 23.6719C26.6528 24.5805 28.3609 24.6575 28.2943 23.3235L28.3028 23.1335C28.372 24.4048 30.132 24.738 30.4422 23.4839C30.7468 22.3567 29.0097 21.5176 28.406 20.8564C27.7387 21.5868 25.7318 22.5103 26.1868 23.6719Z" fill="#A3A5C7"/>
<path d="M184.399 16.1753C183.842 15.3193 182.135 15.419 182.339 16.739L182.35 16.9287C182.149 15.6716 180.365 15.5219 180.186 16.8011C179.999 17.9536 181.813 18.6092 182.482 19.2045C183.071 18.4095 184.971 17.2836 184.399 16.1753Z" fill="#A3A5C7"/>
<path d="M193.092 20.8494C193.328 19.6034 192.305 19.1065 191.376 19.9349C190.405 20.801 190.942 22.2227 192.095 22.4948C193.349 22.791 194.566 21.8148 194.618 20.5457C194.679 19.0201 193.392 18.0622 191.964 17.9751C190.27 17.8719 189.397 19.3777 188.627 20.6133C188.05 21.5404 187.324 22.0662 186.207 22.0668C185.549 22.0671 184.914 21.8333 184.598 21.2319C184.096 20.2762 184.734 18.9243 185.373 18.2008C186.312 17.136 187.353 17.5406 187.953 18.6951C188.315 19.3916 188 20.284 187.253 20.549C186.752 20.7276 186.133 20.309 185.957 19.8596C185.871 19.5293 185.988 19.2796 186.307 19.1104C186.665 19.1413 186.936 19.2949 187.121 19.5722C187.322 19.8034 187.656 19.466 187.456 19.2364C187.128 18.8584 186.512 18.3674 185.982 18.7331C185.491 19.0718 185.351 19.606 185.567 20.1593C186.146 21.643 188.021 21.0624 188.489 19.8882C188.904 18.8496 188.017 17.4831 187.036 17.1253C186.21 16.8233 185.374 17.4497 184.881 18.0492C183.732 19.4472 183.441 22.0486 185.662 22.4906C187.242 22.8046 188.352 21.9535 189.146 20.6808C189.642 19.8836 190.055 19.1598 190.897 18.6805C191.913 18.1024 193.319 18.5905 193.923 19.5212C194.667 20.6669 193.717 22.0321 192.479 22.0619C191.897 22.0756 191.4 21.7268 191.357 21.129C191.288 20.1703 192.877 19.4403 192.634 20.7243C192.578 21.0225 193.034 21.1501 193.092 20.8494Z" fill="#A3A5C7"/>
<path d="M171.764 20.8238C171.569 19.799 172.485 20.0484 172.87 20.6085C173.209 21.1012 173.042 21.7208 172.556 22.0127C171.561 22.6092 170.509 21.7337 170.278 20.8005C169.987 19.6249 171.086 18.7926 172.092 18.5815C173.286 18.3311 174.227 19.1576 174.825 20.0799C175.71 21.4421 176.386 22.6411 178.191 22.642C179.169 22.6424 180.054 22.1777 180.346 21.2112C180.81 19.6723 179.482 17.1127 177.718 17.1598C176.759 17.1855 175.822 18.398 175.821 19.3031C175.819 20.6355 177.377 21.9221 178.516 20.6907C179.665 19.4486 178.096 18.0077 176.941 19.3362C176.741 19.5661 177.076 19.9035 177.277 19.672C177.593 19.3076 178.168 18.8936 178.439 19.5811C178.646 20.1065 178.043 20.5001 177.64 20.6436C176.732 20.967 176.22 19.8542 176.316 19.1537C176.404 18.5143 177.05 17.7067 177.718 17.6352C178.776 17.5222 179.543 18.8712 179.811 19.7041C180.207 20.9333 179.717 22.0351 178.36 22.1598C176.122 22.3654 175.743 20.1126 174.454 18.8566C173.445 17.8729 171.66 17.8041 170.601 18.752C169.645 19.607 169.384 21.3681 170.554 22.201C171.353 22.77 172.989 22.9005 173.408 21.7643C173.771 20.7774 172.91 19.256 171.731 19.6567C171.19 19.8402 171.22 20.5036 171.304 20.9502C171.362 21.2509 171.82 21.1232 171.764 20.8238Z" fill="#A3A5C7"/>
<path d="M181.626 21.1118C181.534 21.4891 181.714 21.8343 182.071 21.9788C182.445 22.1298 182.846 21.8207 182.983 21.4907C183.105 21.2007 182.89 20.8883 182.646 20.7494C182.354 20.5841 181.978 20.6315 181.75 20.8802C181.543 21.1053 181.879 21.442 182.086 21.216C182.18 21.114 182.267 21.1105 182.383 21.1485C182.431 21.164 182.473 21.2014 182.513 21.2452C182.531 21.2647 182.54 21.3134 182.54 21.3102C182.526 21.4125 182.375 21.5544 182.262 21.5381C182.114 21.517 182.052 21.3725 182.084 21.2381C182.157 20.9406 181.699 20.8143 181.626 21.1118Z" fill="#A3A5C7"/>
<path d="M119.722 16.1753C119.164 15.3193 117.457 15.419 117.661 16.739L117.672 16.9287C117.472 15.6716 115.687 15.5219 115.508 16.8011C115.322 17.9536 117.136 18.6092 117.804 19.2045C118.393 18.4095 120.293 17.2836 119.722 16.1753Z" fill="#A3A5C7"/>
<path d="M128.41 20.8494C128.646 19.6034 127.623 19.1065 126.694 19.9349C125.723 20.801 126.26 22.2227 127.412 22.4948C128.667 22.791 129.883 21.8148 129.935 20.5457C129.996 19.0201 128.71 18.0622 127.282 17.9751C125.587 17.8719 124.715 19.3777 123.945 20.6133C123.367 21.5404 122.643 22.0662 121.524 22.0668C120.867 22.0671 120.232 21.8333 119.916 21.2319C119.414 20.2762 120.052 18.9243 120.691 18.2008C121.63 17.136 122.671 17.5406 123.271 18.6951C123.633 19.3916 123.318 20.284 122.572 20.549C122.07 20.7276 121.451 20.309 121.275 19.8596C121.189 19.5293 121.306 19.2796 121.625 19.1104C121.983 19.1413 122.254 19.2949 122.438 19.5722C122.639 19.8034 122.974 19.466 122.774 19.2364C122.446 18.8584 121.83 18.3674 121.3 18.7331C120.809 19.0718 120.67 19.606 120.885 20.1593C121.464 21.643 123.339 21.0624 123.807 19.8882C124.222 18.8496 123.334 17.4831 122.354 17.1253C121.528 16.8233 120.691 17.4497 120.198 18.0492C119.051 19.4472 118.759 22.0486 120.979 22.4906C122.559 22.8046 123.67 21.9535 124.463 20.6808C124.96 19.8836 125.373 19.1598 126.214 18.6805C127.23 18.1024 128.637 18.5905 129.241 19.5212C129.985 20.6669 129.034 22.0321 127.797 22.0619C127.214 22.0756 126.718 21.7268 126.675 21.129C126.606 20.1703 128.196 19.4403 127.953 20.7243C127.895 21.0225 128.353 21.1501 128.41 20.8494Z" fill="#A3A5C7"/>
<path d="M107.083 20.8238C106.888 19.799 107.805 20.0484 108.19 20.6085C108.529 21.1012 108.362 21.7208 107.875 22.0127C106.88 22.6092 105.828 21.7337 105.597 20.8005C105.306 19.6249 106.406 18.7926 107.412 18.5815C108.605 18.3311 109.547 19.1576 110.145 20.0799C111.029 21.4421 111.707 22.6411 113.511 22.642C114.489 22.6424 115.374 22.1777 115.665 21.2112C116.129 19.6723 114.802 17.1127 113.038 17.1598C112.078 17.1855 111.142 18.398 111.14 19.3031C111.138 20.6355 112.697 21.9221 113.836 20.6907C114.985 19.4486 113.416 18.0077 112.261 19.3362C112.061 19.5661 112.395 19.9035 112.596 19.672C112.913 19.3076 113.488 18.8936 113.759 19.5811C113.966 20.1065 113.362 20.5001 112.959 20.6436C112.051 20.967 111.54 19.8542 111.636 19.1537C111.724 18.5143 112.37 17.7067 113.037 17.6352C114.095 17.5222 114.863 18.8712 115.131 19.7041C115.527 20.9333 115.037 22.0351 113.679 22.1598C111.442 22.3654 111.062 20.1126 109.774 18.8566C108.765 17.8729 106.98 17.8041 105.921 18.752C104.965 19.607 104.704 21.3681 105.874 22.201C106.673 22.77 108.309 22.9005 108.728 21.7643C109.091 20.7774 108.23 19.256 107.051 19.6567C106.51 19.8402 106.54 20.5036 106.625 20.9502C106.682 21.2509 107.139 21.1232 107.083 20.8238Z" fill="#A3A5C7"/>
<path d="M116.946 21.1118C116.854 21.4891 117.035 21.8343 117.391 21.9788C117.765 22.1298 118.166 21.8207 118.304 21.4907C118.425 21.2007 118.211 20.8883 117.967 20.7494C117.675 20.5841 117.299 20.6315 117.071 20.8802C116.864 21.1053 117.199 21.442 117.406 21.216C117.5 21.114 117.587 21.1105 117.703 21.1485C117.752 21.164 117.794 21.2014 117.833 21.2452C117.851 21.2647 117.86 21.3134 117.861 21.3102C117.846 21.4125 117.695 21.5544 117.582 21.5381C117.434 21.517 117.371 21.3725 117.404 21.2381C117.478 20.9406 117.019 20.8143 116.946 21.1118Z" fill="#A3A5C7"/>
<path d="M152.062 16.1753C151.505 15.3193 149.798 15.419 150.002 16.739L150.013 16.9287C149.813 15.6716 148.028 15.5219 147.848 16.8011C147.662 17.9536 149.476 18.6092 150.145 19.2045C150.734 18.4095 152.634 17.2836 152.062 16.1753Z" fill="#A3A5C7"/>
<path d="M160.752 20.8494C160.988 19.6034 159.965 19.1065 159.036 19.9349C158.065 20.801 158.602 22.2227 159.755 22.4948C161.009 22.791 162.226 21.8148 162.277 20.5457C162.338 19.0201 161.052 18.0622 159.625 17.9751C157.93 17.8719 157.057 19.3777 156.287 20.6133C155.71 21.5404 154.984 22.0662 153.866 22.0668C153.209 22.0671 152.575 21.8333 152.259 21.2319C151.755 20.2762 152.395 18.9243 153.033 18.2008C153.972 17.136 155.014 17.5406 155.613 18.6951C155.975 19.3916 155.66 20.284 154.914 20.549C154.413 20.7276 153.793 20.309 153.618 19.8596C153.531 19.5293 153.648 19.2796 153.967 19.1104C154.325 19.1413 154.596 19.2949 154.78 19.5722C154.982 19.8034 155.316 19.466 155.116 19.2364C154.788 18.8584 154.172 18.3674 153.642 18.7331C153.151 19.0718 153.011 19.606 153.227 20.1593C153.807 21.643 155.68 21.0624 156.15 19.8882C156.564 18.8496 155.677 17.4831 154.696 17.1253C153.87 16.8233 153.034 17.4497 152.54 18.0492C151.393 19.4472 151.101 22.0486 153.322 22.4906C154.902 22.8046 156.012 21.9535 156.805 20.6808C157.302 19.8836 157.715 19.1598 158.556 18.6805C159.571 18.1024 160.978 18.5905 161.583 19.5212C162.326 20.6669 161.376 22.0321 160.139 22.0619C159.556 22.0756 159.059 21.7268 159.016 21.129C158.947 20.1703 160.538 19.4403 160.294 20.7243C160.237 21.0225 160.695 21.1501 160.752 20.8494Z" fill="#A3A5C7"/>
<path d="M139.423 20.8238C139.229 19.799 140.146 20.0484 140.531 20.6085C140.87 21.1012 140.702 21.7208 140.215 22.0127C139.221 22.6092 138.169 21.7337 137.938 20.8005C137.646 19.6249 138.746 18.7926 139.752 18.5815C140.946 18.3311 141.887 19.1576 142.485 20.0799C143.37 21.4421 144.046 22.6411 145.851 22.642C146.829 22.6424 147.714 22.1777 148.005 21.2112C148.469 19.6723 147.142 17.1127 145.378 17.1598C144.418 17.1855 143.483 18.398 143.48 19.3031C143.479 20.6355 145.037 21.9221 146.176 20.6907C147.325 19.4486 145.756 18.0077 144.6 19.3362C144.401 19.5661 144.736 19.9035 144.937 19.672C145.254 19.3076 145.828 18.8936 146.099 19.5811C146.307 20.1065 145.702 20.5001 145.3 20.6436C144.392 20.967 143.881 19.8542 143.976 19.1537C144.064 18.5143 144.71 17.7067 145.378 17.6352C146.436 17.5222 147.203 18.8712 147.471 19.7041C147.867 20.9333 147.377 22.0351 146.019 22.1598C143.782 22.3654 143.403 20.1126 142.114 18.8566C141.105 17.8729 139.32 17.8041 138.262 18.752C137.305 19.607 137.044 21.3681 138.215 22.201C139.013 22.77 140.648 22.9005 141.067 21.7643C141.431 20.7774 140.57 19.256 139.391 19.6567C138.849 19.8402 138.879 20.5036 138.964 20.9502C139.022 21.2509 139.48 21.1232 139.423 20.8238Z" fill="#A3A5C7"/>
<path d="M149.288 21.1118C149.196 21.4891 149.377 21.8343 149.734 21.9788C150.107 22.1298 150.509 21.8207 150.646 21.4907C150.767 21.2007 150.554 20.8883 150.309 20.7494C150.017 20.5841 149.641 20.6315 149.413 20.8802C149.206 21.1053 149.541 21.442 149.749 21.216C149.842 21.114 149.929 21.1105 150.046 21.1485C150.094 21.164 150.136 21.2014 150.176 21.2452C150.193 21.2647 150.203 21.3134 150.203 21.3102C150.188 21.4125 150.038 21.5544 149.924 21.5381C149.777 21.517 149.714 21.3725 149.747 21.2381C149.819 20.9406 149.362 20.8143 149.288 21.1118Z" fill="#A3A5C7"/>
<path d="M166.324 13.919C166.612 13.4212 166.964 12.985 167.577 12.9048C168.614 12.7684 168.579 13.8998 168.457 14.4126C168.299 15.078 167.771 15.6976 167.353 16.2107C166.737 16.9683 165.968 17.6408 165.484 18.4981C165.679 18.4731 165.872 18.4481 166.067 18.4231C165.173 17.5911 164.069 17.0355 163.235 16.1308C162.515 15.3495 162.669 13.9424 163.866 13.794C164.746 13.6852 165.318 14.4477 165.446 15.2176C165.524 15.6895 166.241 15.4884 166.162 15.0198C165.895 13.4134 163.499 12.0956 162.416 13.829C160.91 16.2402 164.137 17.6415 165.542 18.9482C165.714 19.1086 166.004 19.0878 166.125 18.8732C167.079 17.182 169.312 15.9525 169.268 13.7927C169.253 13.0675 168.578 12.2547 167.838 12.1855C166.85 12.0936 166.15 12.7353 165.682 13.5439C165.442 13.9593 166.083 14.3334 166.324 13.919Z" fill="#A3A5C7"/>
<path d="M163.534 23.6719C164 24.5805 165.708 24.6575 165.642 23.3235L165.65 23.1335C165.719 24.4048 167.48 24.738 167.789 23.4839C168.094 22.3567 166.358 21.5176 165.753 20.8564C165.086 21.5868 163.079 22.5103 163.534 23.6719Z" fill="#A3A5C7"/>
<path d="M134.074 13.919C134.362 13.4212 134.713 12.985 135.327 12.9048C136.364 12.7684 136.329 13.8998 136.207 14.4126C136.049 15.078 135.521 15.6976 135.104 16.2107C134.487 16.9683 133.718 17.6408 133.234 18.4981C133.429 18.4731 133.623 18.4481 133.817 18.4231C132.924 17.5911 131.819 17.0355 130.985 16.1308C130.265 15.3495 130.419 13.9424 131.616 13.794C132.497 13.6852 133.068 14.4477 133.196 15.2176C133.274 15.6895 133.991 15.4884 133.913 15.0198C133.645 13.4134 131.249 12.0956 130.166 13.829C128.66 16.2402 131.888 17.6415 133.292 18.9482C133.464 19.1086 133.755 19.0878 133.875 18.8732C134.829 17.182 137.062 15.9525 137.018 13.7927C137.003 13.0675 136.329 12.2547 135.588 12.1855C134.6 12.0936 133.9 12.7353 133.432 13.5439C133.192 13.9593 133.833 14.3334 134.074 13.919Z" fill="#A3A5C7"/>
<path d="M131.284 23.6719C131.75 24.5805 133.458 24.6575 133.392 23.3235L133.401 23.1335C133.469 24.4048 135.23 24.738 135.539 23.4839C135.845 22.3567 134.108 21.5176 133.503 20.8564C132.835 21.5868 130.829 22.5103 131.284 23.6719Z" fill="#A3A5C7"/>
<path d="M94.0633 19.2548C93.6425 17.0852 91.5184 15.0452 89.9798 13.6147C88.3122 12.0638 85.8439 10.1634 83.4103 10.7275C80.5922 11.3809 81.4681 14.877 83.9458 15.2537C86.5833 15.6541 86.3388 12.6331 83.9949 12.3077C83.7802 12.2778 83.6152 12.3577 83.5379 12.5671C83.4181 12.8922 83.4003 12.9461 83.3759 13.2605C83.3392 13.7388 84.0822 13.7349 84.1189 13.2605C84.164 13.0952 84.2092 12.9299 84.2543 12.7649C84.102 12.8513 83.9497 12.9377 83.7974 13.0241C84.2611 13.0883 84.6313 13.1903 84.9872 13.5134C85.4331 14.0583 85.2409 14.4035 84.4118 14.549C83.9848 14.5594 83.5834 14.4636 83.2083 14.2613C81.7685 13.5634 82.351 11.8537 83.6074 11.4439C85.0142 10.985 86.6554 12.0239 87.7602 12.7724C89.1559 13.7183 90.3704 14.953 91.4518 16.238C92.2071 17.1356 93.1164 18.2673 93.346 19.4522C93.4376 19.9228 94.1533 19.7231 94.0633 19.2548Z" fill="#A3A5C7"/>
<path d="M91.4411 14.9294C88.7669 12.404 86.7018 9.02962 86.5349 5.27857C86.4628 3.65911 86.9113 2.10004 88.2495 1.09888C89.3085 0.306845 91.4391 1.53078 90.7624 2.83427C90.5828 3.18012 90.1197 3.34769 89.7638 3.39315C89.654 3.38438 89.544 3.37594 89.4339 3.36717C88.8074 3.07199 88.8363 2.91513 89.5202 2.89597C89.7248 3.32885 90.3652 2.95151 90.1619 2.5209C89.8252 1.80811 88.8279 1.32652 88.3155 2.20136C87.8076 3.06808 88.5847 3.97216 89.4472 4.11991C90.2814 4.2628 91.1296 3.73835 91.5041 3.01711C92.0785 1.91105 90.8838 0.678998 90.0067 0.203583C88.9386 -0.375099 87.7745 0.420831 87.0659 1.17487C86.015 2.29359 85.7893 3.80427 85.7923 5.2789C85.7988 9.16406 88.1865 12.8774 90.916 15.4552C91.2638 15.7832 91.7902 15.259 91.4411 14.9294Z" fill="#A3A5C7"/>
<path d="M86.9002 14.3941C86.8077 14.7715 86.9885 15.1167 87.3454 15.2609C87.7192 15.4122 88.1199 15.1027 88.2579 14.7731C88.3791 14.4825 88.1651 14.1704 87.9205 14.0317C87.6283 13.8661 87.2529 13.9138 87.0249 14.1626C86.8181 14.3876 87.1532 14.7244 87.3607 14.4984C87.4545 14.3961 87.5409 14.3928 87.6575 14.4308C87.7062 14.4464 87.7478 14.4841 87.7874 14.5276C87.8053 14.5471 87.8147 14.5958 87.815 14.5925C87.8004 14.6945 87.6497 14.8371 87.5364 14.8205C87.3883 14.7994 87.3256 14.6549 87.3587 14.5204C87.4315 14.2233 86.9733 14.097 86.9002 14.3941Z" fill="#A3A5C7"/>
<path d="M88.7029 15.8854C88.6104 16.2628 88.7913 16.608 89.1482 16.7522C89.5219 16.9032 89.923 16.594 90.0603 16.2644C90.1818 15.9738 89.9678 15.6614 89.7233 15.5227C89.431 15.3574 89.0559 15.4052 88.8273 15.6536C88.6208 15.8786 88.9559 16.2157 89.1634 15.9894C89.2573 15.8871 89.3437 15.8835 89.4602 15.9218C89.5089 15.9374 89.5505 15.9751 89.5901 16.0183C89.6077 16.0377 89.6174 16.0865 89.6177 16.0835C89.6031 16.1855 89.4524 16.3277 89.3391 16.3115C89.191 16.2904 89.1283 16.1459 89.1615 16.0114C89.2339 15.714 88.776 15.588 88.7029 15.8854Z" fill="#A3A5C7"/>
<path d="M90.3377 17.6686C90.2452 18.046 90.426 18.3909 90.7829 18.5354C91.1567 18.6864 91.5574 18.3772 91.6954 18.0473C91.8169 17.757 91.6029 17.4446 91.358 17.3059C91.0658 17.1406 90.6904 17.1884 90.4624 17.4368C90.2556 17.6618 90.5907 17.9986 90.7982 17.7726C90.892 17.6703 90.9784 17.667 91.0947 17.7047C91.1434 17.7203 91.185 17.7579 91.2246 17.8015C91.2424 17.8209 91.2522 17.8696 91.2525 17.8667C91.2376 17.969 91.0872 18.1109 90.9735 18.0947C90.8255 18.0736 90.7631 17.9294 90.7959 17.795C90.8693 17.4975 90.4108 17.3712 90.3377 17.6686Z" fill="#A3A5C7"/>
<path d="M91.5369 19.7465C91.4444 20.1239 91.6253 20.4691 91.9821 20.6136C92.3556 20.7646 92.7566 20.4554 92.8943 20.1255C93.0155 19.8352 92.8018 19.5228 92.5569 19.3841C92.2647 19.2188 91.8893 19.2662 91.6613 19.515C91.4544 19.74 91.7896 20.0768 91.9971 19.8508C92.0909 19.7485 92.1773 19.7452 92.2939 19.7832C92.3423 19.7988 92.3842 19.8362 92.4235 19.8797C92.4413 19.8992 92.4511 19.9479 92.4511 19.9449C92.4365 20.0472 92.2858 20.1895 92.1721 20.1729C92.0244 20.1518 91.9617 20.0073 91.9948 19.8729C92.0682 19.5754 91.61 19.4494 91.5369 19.7465Z" fill="#A3A5C7"/>
<path d="M84.4653 6.12508C83.457 5.96174 82.3831 7.29252 83.497 8.02902L83.6451 8.14853C82.5799 7.45132 81.2693 8.67168 82.0957 9.6644C82.8231 10.5779 84.5283 9.67544 85.4188 9.58062C85.2259 8.61031 85.6704 6.44657 84.4653 6.12508Z" fill="#A3A5C7"/>
<path d="M101.14 19.4515C101.635 16.8968 104.497 14.4217 106.467 12.9558C107.627 12.0927 109.155 11.1743 110.662 11.3932C111.919 11.5754 112.549 12.8694 111.715 13.9105C111.386 14.3197 109.41 15.1377 109.266 14.0479C109.172 13.3263 110.215 13.0893 110.689 13.0234C110.536 12.937 110.384 12.8506 110.232 12.7642C110.277 12.9292 110.322 13.0945 110.367 13.2598C110.404 13.7342 111.147 13.7381 111.11 13.2598C111.086 12.9451 111.068 12.8912 110.948 12.5665C110.871 12.357 110.706 12.2771 110.492 12.307C108.226 12.6213 107.834 15.4482 110.442 15.266C112.918 15.0929 113.911 11.6517 111.287 10.7953C108.905 10.0186 106.433 11.9319 104.752 13.3932C103.117 14.814 100.858 17.017 100.424 19.2538C100.332 19.722 101.049 19.9218 101.14 19.4515Z" fill="#A3A5C7"/>
<path d="M103.57 15.4546C106.391 12.7905 108.517 9.22586 108.694 5.27835C108.754 3.93686 108.493 2.49729 107.629 1.43281C106.926 0.566406 105.661 -0.437678 104.479 0.203029C103.519 0.723583 102.595 1.7754 102.944 2.9279C103.185 3.72643 104.251 4.25445 105.038 4.11936C105.912 3.96966 106.568 3.15813 106.208 2.28946C105.794 1.29219 104.665 1.79749 104.324 2.52035C104.12 2.95128 104.76 3.32862 104.965 2.89542C105.649 2.91458 105.678 3.07144 105.052 3.36662C104.722 3.4845 104.341 3.31824 104.062 3.16366C102.594 2.34987 104.741 0.41313 105.963 0.937256C107.603 1.64096 107.954 3.73422 107.951 5.27835C107.944 8.96899 105.63 12.4872 103.044 14.9292C102.695 15.2588 103.222 15.783 103.57 15.4546Z" fill="#A3A5C7"/>
<path d="M107.585 14.3932C107.678 14.7705 107.497 15.1157 107.14 15.2599C106.767 15.4112 106.366 15.1017 106.228 14.7721C106.106 14.4815 106.32 14.1694 106.565 14.0307C106.857 13.8651 107.233 13.9129 107.461 14.1616C107.668 14.3867 107.333 14.7234 107.126 14.4974C107.032 14.3951 106.945 14.3919 106.828 14.4299C106.78 14.4454 106.738 14.4831 106.699 14.5266C106.681 14.5461 106.671 14.5948 106.671 14.5916C106.685 14.6935 106.836 14.8361 106.949 14.8195C107.097 14.7984 107.16 14.6539 107.127 14.5195C107.054 14.2223 107.512 14.096 107.585 14.3932Z" fill="#A3A5C7"/>
<path d="M105.784 15.8854C105.876 16.2628 105.696 16.608 105.339 16.7522C104.965 16.9032 104.564 16.594 104.427 16.2644C104.305 15.9738 104.519 15.6614 104.764 15.5227C105.056 15.3574 105.431 15.4052 105.659 15.6536C105.866 15.8786 105.531 16.2157 105.324 15.9894C105.23 15.8871 105.143 15.8835 105.027 15.9218C104.978 15.9374 104.937 15.9751 104.897 16.0183C104.879 16.0377 104.87 16.0865 104.87 16.0835C104.885 16.1855 105.035 16.3277 105.148 16.3115C105.296 16.2904 105.359 16.1459 105.326 16.0114C105.253 15.714 105.711 15.588 105.784 15.8854Z" fill="#A3A5C7"/>
<path d="M104.148 17.6686C104.241 18.046 104.06 18.3909 103.703 18.5354C103.329 18.6864 102.928 18.3772 102.79 18.0473C102.669 17.757 102.883 17.4446 103.128 17.3059C103.42 17.1406 103.795 17.1884 104.024 17.4368C104.23 17.6618 103.895 17.9986 103.688 17.7726C103.593 17.6703 103.507 17.667 103.391 17.7047C103.342 17.7203 103.301 17.7579 103.261 17.8015C103.243 17.8209 103.234 17.8696 103.233 17.8667C103.248 17.969 103.399 18.1109 103.512 18.0947C103.66 18.0736 103.723 17.9294 103.69 17.795C103.617 17.4975 104.075 17.3712 104.148 17.6686Z" fill="#A3A5C7"/>
<path d="M102.948 19.7465C103.041 20.1239 102.861 20.4691 102.504 20.6136C102.13 20.7646 101.729 20.4554 101.591 20.1255C101.47 19.8352 101.684 19.5228 101.929 19.3841C102.22 19.2188 102.596 19.2662 102.824 19.515C103.031 19.74 102.696 20.0768 102.488 19.8508C102.394 19.7485 102.308 19.7452 102.192 19.7832C102.143 19.7988 102.102 19.8362 102.062 19.8797C102.044 19.8992 102.034 19.9479 102.034 19.9449C102.049 20.0472 102.2 20.1895 102.313 20.1729C102.461 20.1518 102.523 20.0073 102.491 19.8729C102.418 19.5754 102.876 19.4494 102.948 19.7465Z" fill="#A3A5C7"/>
<path d="M110.021 6.12508C111.029 5.96174 112.103 7.29252 110.989 8.02902L110.842 8.14853C111.907 7.45132 113.217 8.67168 112.391 9.6644C111.664 10.5779 109.959 9.67544 109.068 9.58062C109.261 8.61031 108.816 6.44657 110.021 6.12508Z" fill="#A3A5C7"/>
<path d="M98 19.3872C96.5605 21.1986 93.5599 22.2806 94.0041 25.0237C94.3571 27.1949 97.0229 26.2054 97.7415 24.8902C97.572 24.9347 97.4028 24.9789 97.2333 25.0237C98.2189 25.7547 100.746 27.0987 100.914 24.8516C101.077 22.6609 98.7028 21.6792 97.1625 20.716C96.7553 20.4614 96.3828 21.1044 96.7878 21.358C97.7568 21.964 98.7606 22.4235 99.575 23.2552C100.151 23.8433 100.706 25.7271 99.198 25.3055C98.6213 25.1442 98.0828 24.7347 97.6084 24.3826C97.4493 24.2641 97.1895 24.3521 97.1005 24.5158C96.7693 25.1214 96.2179 25.5523 95.5103 25.5835C94.2957 25.6371 94.7023 23.8124 95.0563 23.2376C95.8961 21.8737 97.5363 21.158 98.5261 19.913C98.8203 19.5418 98.2988 19.0121 98 19.3872Z" fill="#A3A5C7"/>
</svg>
