<svg width="394" height="486" viewBox="0 0 394 486" fill="none" xmlns="http://www.w3.org/2000/svg">
<g opacity="0.27" clip-path="url(#clip0_90_4)">
<mask id="mask0_90_4" style="mask-type:luminance" maskUnits="userSpaceOnUse" x="-43" y="0" width="437" height="486">
<path d="M-42.0003 437.551L338.005 485.354L393.046 47.8018L13.0407 -0.000263683L-42.0003 437.551Z" fill="white"/>
</mask>
<g mask="url(#mask0_90_4)">
<path d="M129.813 149.507C130.348 150.254 130.948 150.906 131.542 151.608C131.244 151.886 130.999 152.168 130.747 152.503C130.063 153.357 130.882 154.77 131.986 154.333C132.483 154.134 132.973 153.986 133.419 153.78C149.308 170.897 177.218 180.425 201.113 177.258C201.262 177.329 201.468 177.355 201.616 177.426C194.135 180.618 186.646 183.443 179.048 185.887L178.996 185.881C178.848 185.81 178.752 185.746 178.59 185.778C177.738 185.88 176.835 185.975 175.982 186.077C158.181 187.081 138.86 180.152 121.311 180.404C107.131 180.555 89.0682 188.222 88.8345 204.673C88.8217 204.775 88.8667 204.835 88.9119 204.892C88.7505 204.924 88.5892 204.955 88.4277 204.989C87.1949 205.198 87.2974 206.886 88.5494 206.939C167.413 208.332 247.744 167.22 301.78 110.4C295.778 119.744 289.786 129.033 283.455 138.072C268.277 159.916 252.326 181.241 235.665 201.956C221.071 216.233 204.757 227.102 187.313 236.104C151.521 241.28 108.668 232.541 76.3952 250.192C61.469 258.359 25.5221 278.531 30.9722 300.247C29.9005 300.845 28.8805 301.449 27.7894 302.201C26.1171 303.403 27.8328 306.025 29.6017 304.888C30.1763 304.489 30.7961 304.149 31.4159 303.808C31.8611 304.021 32.3323 304.028 32.7134 303.501C32.8426 303.308 33.0169 303.172 33.1461 302.979C45.9927 297.167 63.3209 300.759 76.7661 298.527C91.1151 296.199 105.11 292.518 118.859 287.865C145.423 278.913 167.291 262.254 185.625 241.594C198.317 235.342 210.474 227.927 221.393 219.098C217.382 223.877 213.372 228.656 209.271 233.32C182.549 263.545 152.491 291.52 119.918 315.307C116.916 317.493 113.875 319.569 110.834 321.646C83.7144 332.098 54.4819 334.751 27.9299 346.53C-2.28881 359.941 -20.4862 393.279 -39.3381 418.478C-40.1002 419.533 -39.8366 421.606 -38.223 421.705C26.8601 425.497 72.3863 375.455 109.153 327.921C113.653 325.087 118.108 322.195 122.524 319.192C135.669 310.174 148.111 300.072 160.16 289.346C160.096 289.442 160.03 289.539 159.966 289.635C158.674 291.566 157.427 293.554 156.226 295.6C155.916 295.561 155.599 295.573 155.303 295.85C112.177 334.318 88.5021 404.111 121.918 454.928L121.911 454.98C121.549 455.771 122.162 456.319 122.846 456.301C123.156 456.758 123.421 457.158 123.73 457.615C124.356 458.479 125.672 458.853 126.596 458.185C147.082 442.504 155.356 414.666 162.081 390.819C166.36 375.558 168.29 360.629 167.24 344.802C166.849 339.155 165.922 335.272 163.181 330.376C154.971 315.584 156.769 306.707 161.198 293.191C162.858 289.999 164.562 286.865 166.313 283.79C177.174 273.751 187.629 263.191 197.779 252.54C190.055 264.752 184.046 279.167 186.092 291.247C183.586 293.235 181.946 296.272 181.332 299.491C180.457 304.351 181.758 310.687 186.166 313.596C192.076 317.479 200.346 313.026 202.543 306.815C202.866 305.914 202.08 304.664 201.027 305.107C199.755 305.627 198.205 306.688 196.663 307.697C196.727 307.6 196.799 307.453 196.812 307.35C197.806 306.533 198.756 305.658 199.614 304.668C202.274 302.282 203.444 298.401 202.575 294.891C201.505 290.466 196.279 289.077 192.347 289.053C191.611 289.065 190.921 289.134 190.276 289.262C191.722 274.012 196.976 258.089 205.153 244.782C205.457 244.456 205.754 244.178 206.007 243.843C221.53 227.173 236.015 209.585 249.874 191.554C246.01 202.263 243.552 213.463 241.811 224.805C232.834 249.049 220.587 271.784 219.141 298.701C218.086 318.344 212.67 359.306 230.982 373.433C231.653 373.936 232.511 373.782 233.093 373.332C255.685 380.098 264.625 339.893 268.239 325.333C271.342 312.749 273.53 299.526 273.964 286.502C274.854 257.735 255.375 231.221 250.993 203.099C252.421 196.739 253.909 190.333 255.662 183.911C266.355 169.771 276.664 155.372 286.823 140.903C288.871 137.97 290.97 135.042 293.017 132.108C291.93 139.505 291.739 146.857 292.129 154.179C291.865 154.197 291.587 154.32 291.393 154.61C266.87 204.887 308.636 271.872 357.299 288.615C358.151 288.931 358.919 288.661 359.384 287.882C359.65 287.445 359.915 287.008 360.179 286.571C360.689 285.85 361.206 285.078 361.671 284.3C361.929 283.913 361.62 283.456 361.278 283.256C370.042 269.867 360.557 252.717 353.902 239.743C346.029 224.365 340.769 208.219 333.225 192.725C324.379 174.662 306.575 166.093 297.089 148.943C296.746 148.324 296.147 148.093 295.611 148.181C295.473 140.945 295.778 133.92 296.499 127.368C315.577 100.365 334.94 72.772 350.088 43.6542C350.632 42.6762 349.127 41.7018 348.437 42.6093C334.682 59.3983 322.61 77.8119 310.783 96.3619C310.726 96.4066 310.66 96.5038 310.602 96.5484C310.396 96.5225 310.177 96.6004 309.938 96.8316C298.715 109.335 284.479 118.269 269.372 125.367C258.449 130.48 246.05 132.321 234.999 135.953C234.433 132.115 232.775 128.612 229.303 128.279C228.381 127.274 227.29 126.351 225.948 125.764C218.869 122.414 211.573 125.369 209.273 132.822C209.182 133.124 209.149 133.383 209.059 133.684C209.021 133.576 209.028 133.523 208.988 133.414C208.692 132.434 207.323 132.471 206.905 133.309C203.693 139.654 207.691 147.063 213.383 150.603C214.053 151.106 214.79 151.513 215.55 151.713C216.098 151.939 216.642 152.216 217.203 152.339C217.609 152.442 217.945 152.275 218.19 151.993C219.197 151.91 220.171 151.666 221.113 151.262C221.45 151.095 221.747 150.818 222.037 150.593C226.954 152.362 231.712 150.397 234.167 145.056C234.756 143.719 235.117 141.672 235.183 139.482C253.947 136.662 272.171 129.801 287.828 119.162C266.932 138.505 244.444 155.505 218.795 169.281C217.84 169.788 216.891 170.245 215.935 170.752C210.692 172.813 205.349 174.024 200.043 174.507C193.036 170.174 191.369 159.658 185.595 154.274C180.66 149.731 175.369 147.182 168.96 145.172C158.622 141.883 142.738 142.24 133.737 149.582C132.859 149.053 132.034 148.531 131.156 148.002C130.22 147.518 129.174 148.747 129.813 149.507ZM122.244 199.25C125.285 198.01 128.319 196.823 131.521 195.97C137.059 194.469 143.172 193.825 149.136 193.947C140.286 195.921 131.262 197.612 122.244 199.25ZM154.067 192.686C139.727 190.358 123.332 192.271 111.413 201.13C104.552 202.308 97.5935 203.421 90.6353 204.533C95.8668 196.717 98.5422 190.042 108.245 186.294C117.896 182.537 129.771 184.031 139.71 185.072C143.021 185.437 146.428 185.865 149.778 186.338C130.564 186.066 110.536 186.843 99.3889 201.24C98.7043 202.096 99.7173 203.216 100.627 202.651C114.088 194.457 125.127 190.508 141.05 189.844C150.383 189.448 159.574 189.767 168.752 188.935C163.904 190.365 158.986 191.525 154.067 192.686ZM167.216 245.347C154.634 250.722 141.613 255.414 128.347 259.971C107.962 266.928 87.5501 273.255 66.6357 278.575C61.3813 279.902 56.3592 281.468 51.6853 283.601C84.2531 256.936 125.671 255.816 167.216 245.347ZM160.118 252.562C126.413 268.675 91.5823 277.057 55.9434 287.275C67.3828 282.227 79.5765 279.104 92.3124 275.423C113.653 269.214 134.743 261.665 155.658 254.251C157.142 253.706 158.634 253.109 160.118 252.562ZM37.7463 292.676C36.3261 293.126 34.8544 293.568 33.4342 294.017C38.1456 267.405 88.1301 247.797 108.43 244.858C126.865 242.155 146.143 244.841 164.769 243.523C118.172 254.558 70.0228 254.151 37.7463 292.676ZM93.1052 291.636C78.7103 295.161 65.517 297.059 50.9177 296.374C46.2772 296.156 42.2755 296.28 38.4929 297.165C39.8166 296.233 41.1335 295.352 42.4958 294.529C89.4999 285.689 138.475 271.185 178.466 245.14C178.524 245.095 178.53 245.044 178.537 244.992C179.479 244.588 180.421 244.182 181.313 243.772C156.374 268.153 127.581 283.156 93.1052 291.636ZM-28.9257 414.922C-29.6707 407.086 -12.0996 387.899 -9.2193 384.18C4.78871 365.801 21.5115 352.524 43.3176 344.699C60.8892 338.434 79.3105 336.671 96.7075 330.96C96.417 331.185 96.0813 331.352 95.7455 331.519C45.9246 346.073 4.19094 374.306 -28.5189 414.607C-28.6932 414.742 -28.8095 414.832 -28.9257 414.922ZM78.5399 341.963C61.2572 352.187 43.7484 362.122 27.1685 373.429C12.6296 381.854 -1.25204 392.141 -14.5076 402.872C-0.540593 388.987 13.8976 375.527 30.2967 364.406C45.1527 354.295 61.9496 348.351 78.5399 341.963ZM-27.7972 417.209C-6.69175 403.28 13.1952 386.948 33.6364 372.046C48.2531 363.003 63.3084 354.643 78.2734 346.167C67.7488 354.783 57.392 363.734 46.8418 372.137C23.8753 390.436 -1.54806 404.084 -27.6037 417.338C-27.6488 417.28 -27.7521 417.267 -27.7972 417.209ZM-22.7311 418.213C-23.525 418.27 -24.2027 418.237 -24.8288 418.21C18.2565 397.995 60.0931 370.613 96.194 338.795C62.3437 374.82 30.9059 413.764 -22.7311 418.213ZM133.281 378.355C135.037 364.398 138.464 350.076 143.111 336.065C137.563 372.668 138.978 410.618 125.717 445.989C122.673 426.825 130.949 396.895 133.281 378.355ZM121.693 439.624C119.849 420.506 118.05 403.12 120.757 382.848C123.523 362.113 132.368 343.084 143.052 325.28C136.847 342.915 132.721 361.543 129.79 377.759C127.065 392.744 127.148 407.927 124.056 422.918C122.905 428.319 121.611 434.016 121.693 439.624ZM152.578 313.347C151.871 321.472 162.576 338.932 163.471 345.165C167.698 374.104 154.243 408.928 141.328 434.037C141.608 433.497 132.685 451.051 126.36 451.302C136.999 431.766 139.062 409.53 142.132 387.629C145.473 363.566 147.931 339.444 150.912 315.335C151.578 313.797 152.197 312.201 152.857 310.714C152.804 311.544 152.694 312.42 152.578 313.347ZM148.28 311.237C135.519 327.628 127.429 347.328 121.32 367.119C112.794 394.873 116.778 417.818 120.361 444.792C117.085 438.73 114.809 432.218 112.754 425.63C107.791 409.624 109.62 392.172 113.106 376.131C118.804 350.01 134.046 328.908 149.341 307.813C148.984 308.971 148.635 310.078 148.28 311.237ZM193.455 307.764C193.293 308.215 193.086 308.607 192.945 308.903C192.815 309.096 192.893 309.315 192.918 309.528C191.944 309.772 190.994 309.809 190.092 309.486C189.091 309.099 188.415 308.229 187.911 307.224C188.292 307.115 188.634 306.896 188.801 306.394C189.086 305.384 189.468 304.438 189.901 303.498C190.101 303.576 190.243 303.698 190.449 303.724C191.321 303.886 192.23 303.739 193.031 304.049C193.987 304.378 194.07 305.383 193.881 306.458C193.417 306.818 193.352 307.333 193.455 307.764ZM195.621 298.045C196.686 297.917 197.32 297.892 197.603 298.555C197.952 299.541 197.692 300.764 197.118 302C197.033 301.832 197.046 301.729 196.962 301.561C196.119 299.938 194.278 299.131 192.439 299.161C192.691 298.827 192.885 298.537 193.136 298.203C193.976 298.204 194.771 298.147 195.621 298.045ZM223.192 290.264C224.497 274.054 230.546 259.329 236.8 244.631C227.629 282.924 228.564 327.195 229.668 365.943C217.958 345.637 221.458 311.548 223.192 290.264ZM231.332 368.559C232.383 346.457 232.586 324.406 233.952 302.291C234.811 288.377 236.811 274.556 238.496 260.747C238.386 262.461 238.268 264.224 238.158 265.936C236.296 300.336 233.833 334.502 231.461 368.785C231.416 368.727 231.372 368.669 231.332 368.559ZM233.326 371.06C241.465 343.048 240.24 311.505 241.203 282.59C241.832 262.999 243.706 244.348 246.767 225.847C248.033 239.139 251.248 252.36 253.094 265.619C257.879 300.122 247.642 339.378 233.551 370.513C233.474 370.712 233.506 370.873 233.533 371.086C233.435 371.021 233.384 371.015 233.326 371.06ZM269.051 299.696C266.86 318.777 260.796 368.656 235.663 370.831C249.215 346.063 255.121 317.457 256.451 289.374C257.611 264.304 250.872 240.333 249.631 215.587C255.381 244.091 272.596 269.013 269.051 299.696ZM309.284 170.409C324.072 182.524 331.614 198.853 338.234 216.269C345.365 235.06 366.014 260.623 359.098 280.994C356.898 263.034 348.263 247.875 338.827 232.406C326.303 211.892 317.665 189.67 306.916 168.386C307.716 169.114 308.425 169.725 309.284 170.409ZM300.457 162.184C307.814 180.008 316.1 197.529 324.85 214.691C336.076 236.769 352.183 255.901 356.678 280.636C333.957 241.525 316.497 202.707 299.49 161.121C299.819 161.424 300.141 161.778 300.457 162.184ZM354.74 281.439C319.737 257.837 299.529 204.6 296.084 158.6C305.977 201.696 328.818 245.69 354.74 281.439ZM306.533 214.793C315.26 239.225 327.921 272.415 352.803 284.753C336.417 281.175 310.1 245.637 305.43 238.146C290.081 213.405 290.255 187.844 292.752 160.483C294.621 178.976 300.247 197.209 306.533 214.793ZM217.012 145.515C216.968 145.455 216.968 145.455 216.915 145.449C216.915 145.449 216.877 145.34 216.696 145.108C216.605 144.993 216.27 144.323 216.18 144.206C215.767 143.317 215.458 142.441 215.258 141.527C214.866 140.065 214.789 137.753 215.054 136.061C215.578 132.308 217.27 130.113 221.226 130.768C221.588 130.814 221.834 130.948 222.137 131.04C221.277 132.867 221.193 134.792 220.836 136.788C220.288 139.91 219.234 142.864 217.289 145.392C217.225 145.488 217.263 145.598 217.205 145.643C217.154 145.636 217.108 145.579 217.012 145.515ZM224.718 148.053C225.783 146.67 226.364 145.384 226.758 143.915C228.095 142.881 229.141 141.651 230 140.243C230.162 140.211 230.266 140.224 230.427 140.191C230.388 140.919 230.406 141.601 230.315 142.323C229.779 145.76 227.505 147.566 224.718 148.053ZM186.599 174.229C177.637 167.085 165.55 163.107 154.275 162.681C154.12 162.662 153.952 162.746 153.887 162.842C149.797 160.34 145.887 157.65 141.925 154.955C161.131 158.208 179.235 161.061 194.351 174.734C191.73 174.717 189.187 174.503 186.599 174.229ZM185.102 159.444C187.869 162.879 189.81 166.629 192.08 169.844C178.448 158.136 157.586 148.449 140.17 153.06C139.951 153.136 139.776 153.272 139.699 153.471C139.073 153.026 138.441 152.633 137.815 152.188C154.037 146.643 172.621 144.01 185.102 159.444Z" fill="#E4E9EE"/>
</g>
</g>
<defs>
<clipPath id="clip0_90_4">
<rect width="383" height="441" fill="white" transform="matrix(0.992181 0.12481 0.12481 -0.992181 -42 437.552)"/>
</clipPath>
</defs>
</svg>
