<svg width="435" height="560" viewBox="0 0 435 560" fill="none" xmlns="http://www.w3.org/2000/svg">
<g opacity="0.27" clip-path="url(#clip0_90_194)">
<mask id="mask0_90_194" style="mask-type:luminance" maskUnits="userSpaceOnUse" x="0" y="0" width="578" height="560">
<path d="M372.462 0.000123918L577.53 323.476L205.068 559.598L0.00111604 236.122L372.462 0.000123918Z" fill="white"/>
</mask>
<g mask="url(#mask0_90_194)">
<path d="M184.999 278.113C185.903 278.28 186.747 278.545 187.636 278.783C187.76 278.396 187.911 278.054 188.107 277.683C188.589 276.7 190.215 276.84 190.29 278.025C190.322 278.559 190.397 279.066 190.4 279.557C212.654 286.644 233.159 307.84 240.469 330.809C240.597 330.913 240.708 331.089 240.835 331.193C240.538 323.065 239.905 315.086 238.881 307.17L238.853 307.126C238.726 307.022 238.627 306.962 238.587 306.803C238.316 305.988 238.018 305.13 237.747 304.315C231.075 287.781 216.579 273.25 209.334 257.264C203.432 244.37 202.678 224.762 217.463 217.545C217.55 217.49 217.623 217.505 217.695 217.522C217.654 217.362 217.614 217.203 217.576 217.043C217.241 215.838 218.811 215.212 219.392 216.322C254.235 287.085 251.243 377.276 222.842 450.363C228.741 440.954 234.594 431.576 240.077 421.999C253.378 398.965 265.881 375.451 277.529 351.555C284.233 332.271 287.12 312.881 287.837 293.264C277.279 258.676 251.124 223.624 253.352 186.907C254.386 169.924 257.33 128.809 279.3 124.493C279.384 123.269 279.497 122.089 279.713 120.781C280.088 118.756 283.191 119.192 282.915 121.277C282.799 121.967 282.755 122.672 282.711 123.378C283.093 123.69 283.3 124.114 282.985 124.683C282.866 124.882 282.818 125.097 282.698 125.297C282.909 139.395 293.538 153.544 297.243 166.66C301.247 180.635 303.877 194.864 305.521 209.286C308.732 237.133 302.971 264.014 292.086 289.4C291.834 303.546 290.301 317.703 286.962 331.342C289.578 325.678 292.195 320.015 294.668 314.318C310.637 277.269 323.15 238.16 330.802 198.559C331.501 194.911 332.085 191.276 332.669 187.64C330.578 158.652 320.53 131.072 319.882 102.032C319.148 68.9792 341.563 38.3179 356.336 10.5303C356.966 9.39146 358.954 8.74706 359.73 10.1651C390.876 67.4378 364.984 129.939 337.631 183.447C336.983 188.725 336.263 193.988 335.427 199.262C332.864 214.996 329.023 230.555 324.448 246.024C324.508 245.926 324.567 245.825 324.627 245.726C325.824 243.735 327.091 241.76 328.432 239.802C328.264 239.538 328.141 239.246 328.265 238.861C344.707 183.459 397.775 132.318 457.983 140.914L458.027 140.886C458.589 140.222 459.346 140.543 459.621 141.17C460.166 141.255 460.64 141.324 461.186 141.41C462.234 141.608 463.134 142.64 462.922 143.76C457.457 168.973 435.793 188.314 417.079 204.553C405.093 214.924 392.407 223.027 377.64 228.816C372.364 230.867 368.455 231.682 362.858 231.287C345.978 230.157 338.713 235.564 328.369 245.326C326.187 248.188 324.078 251.065 322.042 253.958C317.583 268.06 312.48 282.016 307.165 295.736C314.925 283.547 325.409 271.971 337.211 268.679C337.942 265.565 339.992 262.788 342.642 260.861C346.667 258 352.955 256.479 357.464 259.229C363.493 262.923 362.986 272.302 358.302 276.935C357.624 277.61 356.158 277.431 356.111 276.29C356.04 274.918 356.34 273.064 356.596 271.238C356.536 271.337 356.433 271.466 356.345 271.521C356.03 272.769 355.643 274 355.112 275.199C354.086 278.621 351.072 281.333 347.527 282.041C343.067 282.957 339.585 278.82 337.889 275.273C337.587 274.602 337.355 273.947 337.197 273.31C324.014 281.112 311.844 292.646 303.286 305.711C303.12 306.126 302.995 306.512 302.8 306.884C294.326 328.028 284.581 348.623 274.168 368.841C282.212 360.785 291.299 353.792 300.82 347.386C318.934 328.94 334.289 308.178 358.028 295.408C375.352 286.089 410.109 263.746 430.688 274.298C431.429 274.691 431.656 275.534 431.496 276.251C447.238 293.812 414.667 319.021 403.032 328.491C392.967 336.658 381.935 344.268 370.335 350.206C344.686 363.261 312.401 356.927 285.09 364.937C279.944 368.938 274.782 373.011 269.717 377.332C261.476 393.029 252.838 408.488 244.073 423.841C242.291 426.943 240.535 430.089 238.752 433.19C244.982 429.057 251.553 425.754 258.344 422.989C258.248 422.742 258.24 422.438 258.42 422.139C293.468 378.541 371.863 387.808 407.733 424.709C408.382 425.345 408.465 426.155 407.958 426.907C407.676 427.334 407.393 427.759 407.11 428.185C406.675 428.953 406.197 429.75 405.691 430.502C405.451 430.9 404.905 430.815 404.579 430.591C396.196 444.222 376.64 442.942 362.067 442.446C344.8 441.87 327.952 443.986 310.721 443.758C290.61 443.446 275.275 430.986 255.719 429.706C255.013 429.659 254.548 429.216 254.4 428.693C247.794 431.649 241.568 434.917 235.946 438.359C219.637 467.12 202.917 496.39 183.021 522.495C182.368 523.403 180.845 522.457 181.372 521.445C190.706 501.851 202.226 483.087 213.974 464.487C213.99 464.416 214.05 464.315 214.066 464.244C213.955 464.068 213.932 463.837 214.039 463.523C220.573 448.043 222.594 431.358 222.584 414.667C222.559 402.606 218.945 390.604 217.525 379.058C213.812 380.18 209.936 380.172 208.156 377.173C206.854 376.766 205.555 376.172 204.452 375.208C198.407 370.229 197.974 362.369 203.738 357.115C203.972 356.903 204.192 356.764 204.427 356.554C204.312 356.565 204.268 356.594 204.152 356.604C203.14 356.754 202.59 355.5 203.17 354.764C207.543 349.157 215.949 349.619 221.576 353.261C222.317 353.654 222.999 354.147 223.503 354.75C223.941 355.15 224.424 355.523 224.774 355.978C225.04 356.302 225.032 356.677 224.881 357.019C225.235 357.966 225.429 358.951 225.465 359.975C225.457 360.351 225.333 360.738 225.253 361.096C228.947 364.792 229.195 369.934 225.408 374.429C224.449 375.531 222.75 376.73 220.797 377.722C226.236 395.901 227.788 415.312 224.829 434.008C233.432 406.865 239.238 379.278 240.78 350.205C240.833 349.124 240.842 348.071 240.894 346.991C240.527 341.369 239.347 336.019 237.525 331.012C230.62 326.518 220.395 329.487 213.065 326.555C206.853 324.025 202.293 320.323 197.746 315.38C190.368 307.427 183.927 292.902 186.738 281.632C185.885 281.063 185.061 280.538 184.209 279.97C183.372 279.329 184.039 277.859 184.999 278.113ZM226.783 250.084C226.956 253.363 227.174 256.614 227.766 259.874C228.766 265.524 230.786 271.329 233.436 276.673C231.453 267.825 229.141 258.94 226.783 250.084ZM234.395 281.672C226.182 269.688 220.932 254.039 223.872 239.483C222.016 232.773 220.06 226.003 218.103 219.234C213.259 227.296 208.359 232.559 209.099 242.934C209.81 253.266 216.218 263.374 221.392 271.924C223.132 274.764 224.971 277.665 226.825 280.494C218.397 263.225 210.572 244.773 218.851 228.557C219.334 227.573 220.779 228.012 220.655 229.076C218.973 244.745 220.101 256.415 226.281 271.104C229.897 279.718 234.099 287.898 237.254 296.557C236.484 291.561 235.439 286.617 234.395 281.672ZM287.642 271.145C287.148 257.472 285.849 243.693 284.323 229.749C281.937 208.342 278.97 187.179 274.878 165.99C273.841 160.671 273.119 155.46 273.058 150.323C262.8 191.145 279.424 229.097 287.642 271.145ZM291.148 261.651C291.374 224.293 284.127 189.208 278.196 152.611C278.5 165.111 280.867 177.474 282.959 190.565C286.429 212.518 288.579 234.815 290.777 256.896C290.916 258.471 291.01 260.075 291.148 261.651ZM275.335 133.846C275.136 132.37 274.91 130.85 274.712 129.373C252.639 144.969 256.182 198.544 262.167 218.163C267.571 235.994 278.211 252.293 284.95 269.708C275.092 222.847 254.221 179.455 275.335 133.846ZM297.966 184.378C295.027 169.852 291.126 157.107 284.289 144.189C282.116 140.083 280.524 136.409 279.714 132.61C279.434 134.205 279.198 135.771 279.034 137.354C291.05 183.648 298.782 234.138 292.245 281.412C292.23 281.483 292.186 281.511 292.141 281.539C292.177 282.564 292.212 283.589 292.22 284.57C303.66 251.624 304.974 219.184 297.966 184.378ZM357.553 21.4656C350.145 24.1284 340.267 48.1971 338.129 52.3866C327.464 72.8875 322.572 93.6723 324.777 116.734C326.591 135.301 332.84 152.72 335.081 170.892C335.161 170.534 335.169 170.159 335.177 169.784C327.131 118.508 334.905 68.7252 357.441 21.9677C357.489 21.7525 357.521 21.609 357.553 21.4656ZM337.3 149.769C339.192 129.778 340.725 109.705 343.896 89.8886C345.328 73.1461 348.724 56.2057 352.789 39.6423C346.173 58.1925 340.143 76.9879 337.064 96.5614C334.241 114.309 336.016 132.038 337.3 149.769ZM360.102 21.5128C356.486 46.5406 350.177 71.489 345.398 96.3299C343.44 113.406 342.287 130.588 340.99 147.738C344.305 134.546 347.993 121.364 351.105 108.239C357.882 79.6669 359.404 50.8522 360.302 21.633C360.23 21.6168 360.174 21.5289 360.102 21.5128ZM363.168 25.6693C362.881 24.9267 362.563 24.3275 362.272 23.7723C362.329 71.3641 355.368 120.878 341.951 167.092C360.133 121.123 381.983 76.0946 363.168 25.6693ZM393.538 183.802C381.657 191.334 370.158 200.534 359.46 210.705C390.216 190.098 425.155 175.218 451.513 148.158C432.877 153.565 409.32 173.797 393.538 183.802ZM444.04 147.227C425.957 153.7 409.46 159.476 392.271 170.558C374.687 181.89 361.236 197.996 349.676 215.244C362.99 202.121 378.088 190.454 391.512 180.897C403.911 172.051 417.683 165.661 429.931 156.479C434.327 153.138 438.931 149.542 444.04 147.227ZM342.936 228.944C349.986 224.845 370.342 227.096 376.363 225.251C404.348 216.753 430.127 189.75 447.346 167.373C446.976 167.855 459.06 152.307 456.594 146.478C443.448 164.423 424.207 175.758 405.699 187.862C385.348 201.131 364.569 213.627 344.025 226.59C342.917 227.848 341.736 229.088 340.672 230.318C341.401 229.917 342.146 229.444 342.936 228.944ZM339.196 225.954C348.593 207.428 362.972 191.719 378.279 177.764C399.76 158.232 422.217 152.066 448.149 143.821C441.269 143.438 434.408 144.153 427.571 145.098C410.977 147.424 395.964 156.51 382.935 166.495C361.727 182.774 349.124 205.551 336.55 228.372C337.446 227.556 338.299 226.769 339.196 225.954ZM355.291 268.307C355.63 267.969 355.897 267.615 356.104 267.361C356.224 267.161 356.455 267.138 356.658 267.071C356.464 266.086 356.093 265.21 355.417 264.531C354.64 263.791 353.565 263.549 352.441 263.521C352.505 263.912 352.453 264.315 352.07 264.68C351.277 265.368 350.583 266.117 349.918 266.909C350.073 267.056 350.244 267.133 350.356 267.308C350.873 268.027 351.127 268.914 351.749 269.506C352.454 270.23 353.398 269.878 354.29 269.249C354.418 268.676 354.857 268.398 355.291 268.307ZM347.419 274.406C347.757 275.424 348.004 276.008 348.725 275.982C349.765 275.878 350.761 275.122 351.635 274.076C351.447 274.071 351.359 274.127 351.172 274.122C349.344 274.05 347.83 272.728 347.074 271.052C346.879 271.422 346.7 271.721 346.504 272.091C346.862 272.85 347.149 273.593 347.419 274.406ZM352.119 302.666C338.008 310.749 327.26 322.492 316.625 334.41C347.367 309.806 387.823 291.8 423.352 276.299C399.992 274.35 370.639 292.033 352.119 302.666ZM426.427 276.69C406.877 287.053 387.011 296.627 367.583 307.28C355.36 313.982 343.706 321.677 331.929 329.082C333.433 328.252 334.978 327.395 336.481 326.566C366.813 310.233 396.678 293.456 426.686 276.711C426.615 276.696 426.544 276.68 426.427 276.69ZM429.539 277.43C407.66 296.722 378.597 309.046 352.846 322.229C335.387 331.142 319.31 340.779 303.874 351.427C316.439 346.912 329.77 344.191 342.553 340.215C375.81 329.853 406.97 303.874 429.14 277.867C429.288 277.712 429.447 277.672 429.65 277.606C429.551 277.545 429.523 277.502 429.539 277.43ZM380.181 340.143C396.513 330.036 439.061 303.308 430.327 279.642C413.688 302.45 390.32 319.975 365.476 333.138C343.287 344.863 318.728 348.973 295.81 358.387C324.049 351.452 353.929 356.416 380.181 340.143ZM280.334 431.599C297.592 439.821 315.579 439.692 334.157 438.265C354.195 436.716 386.117 444.513 401.604 429.581C384.416 435.239 367.023 433.881 349.009 431.93C325.115 429.333 301.33 430.981 277.495 430.319C278.495 430.732 279.35 431.113 280.334 431.599ZM269.133 427.115C288.393 426.181 307.774 426.218 327.029 426.827C351.786 427.584 375.955 434.01 400.25 427.544C355.186 423.64 312.629 424.373 267.76 426.693C268.174 426.861 268.631 427.003 269.133 427.115ZM400.151 425.449C363.89 403.829 307.116 408.213 264.028 424.684C307.235 415.284 356.766 417.217 400.151 425.449ZM319.321 410.211C345.144 407.703 380.566 405.025 402.324 422.286C392.109 408.983 348.748 400.304 339.981 399.269C311.06 395.916 288.006 406.958 264.313 420.868C281.842 414.684 300.735 412.011 319.321 410.211ZM218.518 358.712C218.445 358.697 218.445 358.697 218.417 358.652C218.417 358.652 218.302 358.664 218.016 358.599C217.873 358.566 217.124 358.548 216.979 358.516C215.999 358.521 215.075 358.615 214.163 358.823C212.673 359.09 210.549 360.006 209.13 360.966C205.958 363.038 204.692 365.504 206.97 368.804C207.165 369.112 207.391 369.277 207.604 369.513C208.891 367.957 210.596 367.061 212.25 365.888C214.841 364.062 217.066 361.851 218.525 359.015C218.584 358.916 218.7 358.903 218.716 358.832C218.688 358.789 218.616 358.771 218.518 358.712ZM224.095 364.603C223.298 366.156 222.381 367.229 221.22 368.212C220.854 369.861 220.187 371.331 219.278 372.709C219.318 372.868 219.375 372.957 219.413 373.117C220.055 372.771 220.68 372.497 221.295 372.107C224.176 370.159 224.842 367.333 224.095 364.603ZM231.548 318.966C221.268 313.9 212.521 304.658 207.335 294.637C207.251 294.505 207.256 294.317 207.315 294.218C203.31 291.582 199.211 289.19 195.085 286.753C206.207 302.745 216.498 317.91 235.305 325.766C234.175 323.402 232.897 321.192 231.548 318.966ZM217.533 323.908C221.819 324.949 226.039 325.108 229.915 325.793C213.516 318.444 195.868 303.693 192.624 285.972C192.599 285.741 192.648 285.525 192.795 285.37C192.126 284.994 191.501 284.589 190.832 284.212C192.722 301.251 198.254 319.187 217.533 323.908Z" fill="#E4E9EE"/>
</g>
</g>
<defs>
<clipPath id="clip0_90_194">
<rect width="383" height="441" fill="white" transform="translate(372.461) rotate(57.6273)"/>
</clipPath>
</defs>
</svg>
